G04 #@! TF.FileFunction,Other,Fab,Top*
%FSLAX46Y46*%
G04 Gerber Fmt 4.6, Leading zero omitted, Abs format (unit mm)*
G04 Created by KiCad (PCBNEW 4.0.2-stable) date Sunday, October 30, 2016 'PMt' 03:56:09 PM*
%MOMM*%
G01*
G04 APERTURE LIST*
%ADD10C,0.100000*%
%ADD11C,0.150000*%
%ADD12C,0.300000*%
%ADD13C,0.400000*%
G04 APERTURE END LIST*
D10*
D11*
X177002200Y-166007200D02*
X177002200Y-198007200D01*
X285002200Y-198007200D01*
X285002200Y-166007200D01*
X177002200Y-166007200D01*
D10*
D11*
X10000000Y-10000000D02*
X10000000Y-200007200D01*
X287002200Y-200007200D01*
X287002200Y-10000000D01*
X10000000Y-10000000D01*
D10*
D11*
X12000000Y-12000000D02*
X12000000Y-198007200D01*
X285002200Y-198007200D01*
X285002200Y-12000000D01*
X12000000Y-12000000D01*
D10*
D11*
X60000000Y-12000000D02*
X60000000Y-10000000D01*
D10*
D11*
X110000000Y-12000000D02*
X110000000Y-10000000D01*
D10*
D11*
X160000000Y-12000000D02*
X160000000Y-10000000D01*
D10*
D11*
X210000000Y-12000000D02*
X210000000Y-10000000D01*
D10*
D11*
X260000000Y-12000000D02*
X260000000Y-10000000D01*
D10*
D11*
X35990476Y-11588095D02*
X35247619Y-11588095D01*
X35619048Y-11588095D02*
X35619048Y-10288095D01*
X35495238Y-10473810D01*
X35371429Y-10597619D01*
X35247619Y-10659524D01*
D10*
D11*
X85247619Y-10411905D02*
X85309524Y-10350000D01*
X85433333Y-10288095D01*
X85742857Y-10288095D01*
X85866667Y-10350000D01*
X85928571Y-10411905D01*
X85990476Y-10535714D01*
X85990476Y-10659524D01*
X85928571Y-10845238D01*
X85185714Y-11588095D01*
X85990476Y-11588095D01*
D10*
D11*
X135185714Y-10288095D02*
X135990476Y-10288095D01*
X135557143Y-10783333D01*
X135742857Y-10783333D01*
X135866667Y-10845238D01*
X135928571Y-10907143D01*
X135990476Y-11030952D01*
X135990476Y-11340476D01*
X135928571Y-11464286D01*
X135866667Y-11526190D01*
X135742857Y-11588095D01*
X135371429Y-11588095D01*
X135247619Y-11526190D01*
X135185714Y-11464286D01*
D10*
D11*
X185866667Y-10721429D02*
X185866667Y-11588095D01*
X185557143Y-10226190D02*
X185247619Y-11154762D01*
X186052381Y-11154762D01*
D10*
D11*
X235928571Y-10288095D02*
X235309524Y-10288095D01*
X235247619Y-10907143D01*
X235309524Y-10845238D01*
X235433333Y-10783333D01*
X235742857Y-10783333D01*
X235866667Y-10845238D01*
X235928571Y-10907143D01*
X235990476Y-11030952D01*
X235990476Y-11340476D01*
X235928571Y-11464286D01*
X235866667Y-11526190D01*
X235742857Y-11588095D01*
X235433333Y-11588095D01*
X235309524Y-11526190D01*
X235247619Y-11464286D01*
D10*
D11*
X285866667Y-10288095D02*
X285619048Y-10288095D01*
X285495238Y-10350000D01*
X285433333Y-10411905D01*
X285309524Y-10597619D01*
X285247619Y-10845238D01*
X285247619Y-11340476D01*
X285309524Y-11464286D01*
X285371429Y-11526190D01*
X285495238Y-11588095D01*
X285742857Y-11588095D01*
X285866667Y-11526190D01*
X285928571Y-11464286D01*
X285990476Y-11340476D01*
X285990476Y-11030952D01*
X285928571Y-10907143D01*
X285866667Y-10845238D01*
X285742857Y-10783333D01*
X285495238Y-10783333D01*
X285371429Y-10845238D01*
X285309524Y-10907143D01*
X285247619Y-11030952D01*
D10*
D11*
X60000000Y-198007200D02*
X60000000Y-200007200D01*
D10*
D11*
X110000000Y-198007200D02*
X110000000Y-200007200D01*
D10*
D11*
X160000000Y-198007200D02*
X160000000Y-200007200D01*
D10*
D11*
X210000000Y-198007200D02*
X210000000Y-200007200D01*
D10*
D11*
X260000000Y-198007200D02*
X260000000Y-200007200D01*
D10*
D11*
X35990476Y-199595295D02*
X35247619Y-199595295D01*
X35619048Y-199595295D02*
X35619048Y-198295295D01*
X35495238Y-198481010D01*
X35371429Y-198604819D01*
X35247619Y-198666724D01*
D10*
D11*
X85247619Y-198419105D02*
X85309524Y-198357200D01*
X85433333Y-198295295D01*
X85742857Y-198295295D01*
X85866667Y-198357200D01*
X85928571Y-198419105D01*
X85990476Y-198542914D01*
X85990476Y-198666724D01*
X85928571Y-198852438D01*
X85185714Y-199595295D01*
X85990476Y-199595295D01*
D10*
D11*
X135185714Y-198295295D02*
X135990476Y-198295295D01*
X135557143Y-198790533D01*
X135742857Y-198790533D01*
X135866667Y-198852438D01*
X135928571Y-198914343D01*
X135990476Y-199038152D01*
X135990476Y-199347676D01*
X135928571Y-199471486D01*
X135866667Y-199533390D01*
X135742857Y-199595295D01*
X135371429Y-199595295D01*
X135247619Y-199533390D01*
X135185714Y-199471486D01*
D10*
D11*
X185866667Y-198728629D02*
X185866667Y-199595295D01*
X185557143Y-198233390D02*
X185247619Y-199161962D01*
X186052381Y-199161962D01*
D10*
D11*
X235928571Y-198295295D02*
X235309524Y-198295295D01*
X235247619Y-198914343D01*
X235309524Y-198852438D01*
X235433333Y-198790533D01*
X235742857Y-198790533D01*
X235866667Y-198852438D01*
X235928571Y-198914343D01*
X235990476Y-199038152D01*
X235990476Y-199347676D01*
X235928571Y-199471486D01*
X235866667Y-199533390D01*
X235742857Y-199595295D01*
X235433333Y-199595295D01*
X235309524Y-199533390D01*
X235247619Y-199471486D01*
D10*
D11*
X285866667Y-198295295D02*
X285619048Y-198295295D01*
X285495238Y-198357200D01*
X285433333Y-198419105D01*
X285309524Y-198604819D01*
X285247619Y-198852438D01*
X285247619Y-199347676D01*
X285309524Y-199471486D01*
X285371429Y-199533390D01*
X285495238Y-199595295D01*
X285742857Y-199595295D01*
X285866667Y-199533390D01*
X285928571Y-199471486D01*
X285990476Y-199347676D01*
X285990476Y-199038152D01*
X285928571Y-198914343D01*
X285866667Y-198852438D01*
X285742857Y-198790533D01*
X285495238Y-198790533D01*
X285371429Y-198852438D01*
X285309524Y-198914343D01*
X285247619Y-199038152D01*
D10*
D11*
X10000000Y-60000000D02*
X12000000Y-60000000D01*
D10*
D11*
X10000000Y-110000000D02*
X12000000Y-110000000D01*
D10*
D11*
X10000000Y-160000000D02*
X12000000Y-160000000D01*
D10*
D11*
X10690476Y-35216667D02*
X11309524Y-35216667D01*
X10566667Y-35588095D02*
X11000000Y-34288095D01*
X11433333Y-35588095D01*
D10*
D11*
X11092857Y-84907143D02*
X11278571Y-84969048D01*
X11340476Y-85030952D01*
X11402381Y-85154762D01*
X11402381Y-85340476D01*
X11340476Y-85464286D01*
X11278571Y-85526190D01*
X11154762Y-85588095D01*
X10659524Y-85588095D01*
X10659524Y-84288095D01*
X11092857Y-84288095D01*
X11216667Y-84350000D01*
X11278571Y-84411905D01*
X11340476Y-84535714D01*
X11340476Y-84659524D01*
X11278571Y-84783333D01*
X11216667Y-84845238D01*
X11092857Y-84907143D01*
X10659524Y-84907143D01*
D10*
D11*
X11402381Y-135464286D02*
X11340476Y-135526190D01*
X11154762Y-135588095D01*
X11030952Y-135588095D01*
X10845238Y-135526190D01*
X10721429Y-135402381D01*
X10659524Y-135278571D01*
X10597619Y-135030952D01*
X10597619Y-134845238D01*
X10659524Y-134597619D01*
X10721429Y-134473810D01*
X10845238Y-134350000D01*
X11030952Y-134288095D01*
X11154762Y-134288095D01*
X11340476Y-134350000D01*
X11402381Y-134411905D01*
D10*
D11*
X10659524Y-185588095D02*
X10659524Y-184288095D01*
X10969048Y-184288095D01*
X11154762Y-184350000D01*
X11278571Y-184473810D01*
X11340476Y-184597619D01*
X11402381Y-184845238D01*
X11402381Y-185030952D01*
X11340476Y-185278571D01*
X11278571Y-185402381D01*
X11154762Y-185526190D01*
X10969048Y-185588095D01*
X10659524Y-185588095D01*
D10*
D11*
X287002200Y-60000000D02*
X285002200Y-60000000D01*
D10*
D11*
X287002200Y-110000000D02*
X285002200Y-110000000D01*
D10*
D11*
X287002200Y-160000000D02*
X285002200Y-160000000D01*
D10*
D11*
X285692676Y-35216667D02*
X286311724Y-35216667D01*
X285568867Y-35588095D02*
X286002200Y-34288095D01*
X286435533Y-35588095D01*
D10*
D11*
X286095057Y-84907143D02*
X286280771Y-84969048D01*
X286342676Y-85030952D01*
X286404581Y-85154762D01*
X286404581Y-85340476D01*
X286342676Y-85464286D01*
X286280771Y-85526190D01*
X286156962Y-85588095D01*
X285661724Y-85588095D01*
X285661724Y-84288095D01*
X286095057Y-84288095D01*
X286218867Y-84350000D01*
X286280771Y-84411905D01*
X286342676Y-84535714D01*
X286342676Y-84659524D01*
X286280771Y-84783333D01*
X286218867Y-84845238D01*
X286095057Y-84907143D01*
X285661724Y-84907143D01*
D10*
D11*
X286404581Y-135464286D02*
X286342676Y-135526190D01*
X286156962Y-135588095D01*
X286033152Y-135588095D01*
X285847438Y-135526190D01*
X285723629Y-135402381D01*
X285661724Y-135278571D01*
X285599819Y-135030952D01*
X285599819Y-134845238D01*
X285661724Y-134597619D01*
X285723629Y-134473810D01*
X285847438Y-134350000D01*
X286033152Y-134288095D01*
X286156962Y-134288095D01*
X286342676Y-134350000D01*
X286404581Y-134411905D01*
D10*
D11*
X285661724Y-185588095D02*
X285661724Y-184288095D01*
X285971248Y-184288095D01*
X286156962Y-184350000D01*
X286280771Y-184473810D01*
X286342676Y-184597619D01*
X286404581Y-184845238D01*
X286404581Y-185030952D01*
X286342676Y-185278571D01*
X286280771Y-185402381D01*
X286156962Y-185526190D01*
X285971248Y-185588095D01*
X285661724Y-185588095D01*
D10*
D11*
X200359343Y-193785771D02*
X200359343Y-192285771D01*
X200716486Y-192285771D01*
X200930771Y-192357200D01*
X201073629Y-192500057D01*
X201145057Y-192642914D01*
X201216486Y-192928629D01*
X201216486Y-193142914D01*
X201145057Y-193428629D01*
X201073629Y-193571486D01*
X200930771Y-193714343D01*
X200716486Y-193785771D01*
X200359343Y-193785771D01*
X202502200Y-193785771D02*
X202502200Y-193000057D01*
X202430771Y-192857200D01*
X202287914Y-192785771D01*
X202002200Y-192785771D01*
X201859343Y-192857200D01*
X202502200Y-193714343D02*
X202359343Y-193785771D01*
X202002200Y-193785771D01*
X201859343Y-193714343D01*
X201787914Y-193571486D01*
X201787914Y-193428629D01*
X201859343Y-193285771D01*
X202002200Y-193214343D01*
X202359343Y-193214343D01*
X202502200Y-193142914D01*
X203002200Y-192785771D02*
X203573629Y-192785771D01*
X203216486Y-192285771D02*
X203216486Y-193571486D01*
X203287914Y-193714343D01*
X203430772Y-193785771D01*
X203573629Y-193785771D01*
X204645057Y-193714343D02*
X204502200Y-193785771D01*
X204216486Y-193785771D01*
X204073629Y-193714343D01*
X204002200Y-193571486D01*
X204002200Y-193000057D01*
X204073629Y-192857200D01*
X204216486Y-192785771D01*
X204502200Y-192785771D01*
X204645057Y-192857200D01*
X204716486Y-193000057D01*
X204716486Y-193142914D01*
X204002200Y-193285771D01*
X205359343Y-193642914D02*
X205430771Y-193714343D01*
X205359343Y-193785771D01*
X205287914Y-193714343D01*
X205359343Y-193642914D01*
X205359343Y-193785771D01*
X205359343Y-192857200D02*
X205430771Y-192928629D01*
X205359343Y-193000057D01*
X205287914Y-192928629D01*
X205359343Y-192857200D01*
X205359343Y-193000057D01*
D10*
D11*
X177002200Y-194507200D02*
X285002200Y-194507200D01*
D10*
D11*
X178359343Y-196585771D02*
X178359343Y-195085771D01*
X179216486Y-196585771D02*
X178573629Y-195728629D01*
X179216486Y-195085771D02*
X178359343Y-195942914D01*
X179859343Y-196585771D02*
X179859343Y-195585771D01*
X179859343Y-195085771D02*
X179787914Y-195157200D01*
X179859343Y-195228629D01*
X179930771Y-195157200D01*
X179859343Y-195085771D01*
X179859343Y-195228629D01*
X181430772Y-196442914D02*
X181359343Y-196514343D01*
X181145057Y-196585771D01*
X181002200Y-196585771D01*
X180787915Y-196514343D01*
X180645057Y-196371486D01*
X180573629Y-196228629D01*
X180502200Y-195942914D01*
X180502200Y-195728629D01*
X180573629Y-195442914D01*
X180645057Y-195300057D01*
X180787915Y-195157200D01*
X181002200Y-195085771D01*
X181145057Y-195085771D01*
X181359343Y-195157200D01*
X181430772Y-195228629D01*
X182716486Y-196585771D02*
X182716486Y-195800057D01*
X182645057Y-195657200D01*
X182502200Y-195585771D01*
X182216486Y-195585771D01*
X182073629Y-195657200D01*
X182716486Y-196514343D02*
X182573629Y-196585771D01*
X182216486Y-196585771D01*
X182073629Y-196514343D01*
X182002200Y-196371486D01*
X182002200Y-196228629D01*
X182073629Y-196085771D01*
X182216486Y-196014343D01*
X182573629Y-196014343D01*
X182716486Y-195942914D01*
X184073629Y-196585771D02*
X184073629Y-195085771D01*
X184073629Y-196514343D02*
X183930772Y-196585771D01*
X183645058Y-196585771D01*
X183502200Y-196514343D01*
X183430772Y-196442914D01*
X183359343Y-196300057D01*
X183359343Y-195871486D01*
X183430772Y-195728629D01*
X183502200Y-195657200D01*
X183645058Y-195585771D01*
X183930772Y-195585771D01*
X184073629Y-195657200D01*
X185930772Y-195800057D02*
X186430772Y-195800057D01*
X186645058Y-196585771D02*
X185930772Y-196585771D01*
X185930772Y-195085771D01*
X186645058Y-195085771D01*
X187287915Y-196442914D02*
X187359343Y-196514343D01*
X187287915Y-196585771D01*
X187216486Y-196514343D01*
X187287915Y-196442914D01*
X187287915Y-196585771D01*
X188002201Y-196585771D02*
X188002201Y-195085771D01*
X188359344Y-195085771D01*
X188573629Y-195157200D01*
X188716487Y-195300057D01*
X188787915Y-195442914D01*
X188859344Y-195728629D01*
X188859344Y-195942914D01*
X188787915Y-196228629D01*
X188716487Y-196371486D01*
X188573629Y-196514343D01*
X188359344Y-196585771D01*
X188002201Y-196585771D01*
X189502201Y-196442914D02*
X189573629Y-196514343D01*
X189502201Y-196585771D01*
X189430772Y-196514343D01*
X189502201Y-196442914D01*
X189502201Y-196585771D01*
X190145058Y-196157200D02*
X190859344Y-196157200D01*
X190002201Y-196585771D02*
X190502201Y-195085771D01*
X191002201Y-196585771D01*
X191502201Y-196442914D02*
X191573629Y-196514343D01*
X191502201Y-196585771D01*
X191430772Y-196514343D01*
X191502201Y-196442914D01*
X191502201Y-196585771D01*
X194502201Y-196585771D02*
X194502201Y-195085771D01*
X194645058Y-196014343D02*
X195073629Y-196585771D01*
X195073629Y-195585771D02*
X194502201Y-196157200D01*
X195716487Y-196585771D02*
X195716487Y-195585771D01*
X195716487Y-195085771D02*
X195645058Y-195157200D01*
X195716487Y-195228629D01*
X195787915Y-195157200D01*
X195716487Y-195085771D01*
X195716487Y-195228629D01*
X197073630Y-196514343D02*
X196930773Y-196585771D01*
X196645059Y-196585771D01*
X196502201Y-196514343D01*
X196430773Y-196442914D01*
X196359344Y-196300057D01*
X196359344Y-195871486D01*
X196430773Y-195728629D01*
X196502201Y-195657200D01*
X196645059Y-195585771D01*
X196930773Y-195585771D01*
X197073630Y-195657200D01*
X198359344Y-196585771D02*
X198359344Y-195800057D01*
X198287915Y-195657200D01*
X198145058Y-195585771D01*
X197859344Y-195585771D01*
X197716487Y-195657200D01*
X198359344Y-196514343D02*
X198216487Y-196585771D01*
X197859344Y-196585771D01*
X197716487Y-196514343D01*
X197645058Y-196371486D01*
X197645058Y-196228629D01*
X197716487Y-196085771D01*
X197859344Y-196014343D01*
X198216487Y-196014343D01*
X198359344Y-195942914D01*
X199716487Y-196585771D02*
X199716487Y-195085771D01*
X199716487Y-196514343D02*
X199573630Y-196585771D01*
X199287916Y-196585771D01*
X199145058Y-196514343D01*
X199073630Y-196442914D01*
X199002201Y-196300057D01*
X199002201Y-195871486D01*
X199073630Y-195728629D01*
X199145058Y-195657200D01*
X199287916Y-195585771D01*
X199573630Y-195585771D01*
X199716487Y-195657200D01*
X202216487Y-195585771D02*
X202216487Y-196585771D01*
X201859344Y-195014343D02*
X201502201Y-196085771D01*
X202430773Y-196085771D01*
X203002201Y-196442914D02*
X203073629Y-196514343D01*
X203002201Y-196585771D01*
X202930772Y-196514343D01*
X203002201Y-196442914D01*
X203002201Y-196585771D01*
X204002201Y-195085771D02*
X204145058Y-195085771D01*
X204287915Y-195157200D01*
X204359344Y-195228629D01*
X204430773Y-195371486D01*
X204502201Y-195657200D01*
X204502201Y-196014343D01*
X204430773Y-196300057D01*
X204359344Y-196442914D01*
X204287915Y-196514343D01*
X204145058Y-196585771D01*
X204002201Y-196585771D01*
X203859344Y-196514343D01*
X203787915Y-196442914D01*
X203716487Y-196300057D01*
X203645058Y-196014343D01*
X203645058Y-195657200D01*
X203716487Y-195371486D01*
X203787915Y-195228629D01*
X203859344Y-195157200D01*
X204002201Y-195085771D01*
X205145058Y-196442914D02*
X205216486Y-196514343D01*
X205145058Y-196585771D01*
X205073629Y-196514343D01*
X205145058Y-196442914D01*
X205145058Y-196585771D01*
X205787915Y-195228629D02*
X205859344Y-195157200D01*
X206002201Y-195085771D01*
X206359344Y-195085771D01*
X206502201Y-195157200D01*
X206573630Y-195228629D01*
X206645058Y-195371486D01*
X206645058Y-195514343D01*
X206573630Y-195728629D01*
X205716487Y-196585771D01*
X206645058Y-196585771D01*
X207287915Y-196014343D02*
X208430772Y-196014343D01*
X209073629Y-196514343D02*
X209216486Y-196585771D01*
X209502201Y-196585771D01*
X209645058Y-196514343D01*
X209716486Y-196371486D01*
X209716486Y-196300057D01*
X209645058Y-196157200D01*
X209502201Y-196085771D01*
X209287915Y-196085771D01*
X209145058Y-196014343D01*
X209073629Y-195871486D01*
X209073629Y-195800057D01*
X209145058Y-195657200D01*
X209287915Y-195585771D01*
X209502201Y-195585771D01*
X209645058Y-195657200D01*
X210145058Y-195585771D02*
X210716487Y-195585771D01*
X210359344Y-195085771D02*
X210359344Y-196371486D01*
X210430772Y-196514343D01*
X210573630Y-196585771D01*
X210716487Y-196585771D01*
X211859344Y-196585771D02*
X211859344Y-195800057D01*
X211787915Y-195657200D01*
X211645058Y-195585771D01*
X211359344Y-195585771D01*
X211216487Y-195657200D01*
X211859344Y-196514343D02*
X211716487Y-196585771D01*
X211359344Y-196585771D01*
X211216487Y-196514343D01*
X211145058Y-196371486D01*
X211145058Y-196228629D01*
X211216487Y-196085771D01*
X211359344Y-196014343D01*
X211716487Y-196014343D01*
X211859344Y-195942914D01*
X212573630Y-196585771D02*
X212573630Y-195085771D01*
X212573630Y-195657200D02*
X212716487Y-195585771D01*
X213002201Y-195585771D01*
X213145058Y-195657200D01*
X213216487Y-195728629D01*
X213287916Y-195871486D01*
X213287916Y-196300057D01*
X213216487Y-196442914D01*
X213145058Y-196514343D01*
X213002201Y-196585771D01*
X212716487Y-196585771D01*
X212573630Y-196514343D01*
X214145059Y-196585771D02*
X214002201Y-196514343D01*
X213930773Y-196371486D01*
X213930773Y-195085771D01*
X215287915Y-196514343D02*
X215145058Y-196585771D01*
X214859344Y-196585771D01*
X214716487Y-196514343D01*
X214645058Y-196371486D01*
X214645058Y-195800057D01*
X214716487Y-195657200D01*
X214859344Y-195585771D01*
X215145058Y-195585771D01*
X215287915Y-195657200D01*
X215359344Y-195800057D01*
X215359344Y-195942914D01*
X214645058Y-196085771D01*
D10*
D11*
X177002200Y-191507200D02*
X285002200Y-191507200D01*
D10*
D12*
X264216486Y-193785771D02*
X263716486Y-193071486D01*
X263359343Y-193785771D02*
X263359343Y-192285771D01*
X263930771Y-192285771D01*
X264073629Y-192357200D01*
X264145057Y-192428629D01*
X264216486Y-192571486D01*
X264216486Y-192785771D01*
X264145057Y-192928629D01*
X264073629Y-193000057D01*
X263930771Y-193071486D01*
X263359343Y-193071486D01*
X265430771Y-193714343D02*
X265287914Y-193785771D01*
X265002200Y-193785771D01*
X264859343Y-193714343D01*
X264787914Y-193571486D01*
X264787914Y-193000057D01*
X264859343Y-192857200D01*
X265002200Y-192785771D01*
X265287914Y-192785771D01*
X265430771Y-192857200D01*
X265502200Y-193000057D01*
X265502200Y-193142914D01*
X264787914Y-193285771D01*
X266002200Y-192785771D02*
X266359343Y-193785771D01*
X266716485Y-192785771D01*
X267287914Y-193642914D02*
X267359342Y-193714343D01*
X267287914Y-193785771D01*
X267216485Y-193714343D01*
X267287914Y-193642914D01*
X267287914Y-193785771D01*
X267287914Y-192857200D02*
X267359342Y-192928629D01*
X267287914Y-193000057D01*
X267216485Y-192928629D01*
X267287914Y-192857200D01*
X267287914Y-193000057D01*
D10*
D11*
X178287914Y-193714343D02*
X178502200Y-193785771D01*
X178859343Y-193785771D01*
X179002200Y-193714343D01*
X179073629Y-193642914D01*
X179145057Y-193500057D01*
X179145057Y-193357200D01*
X179073629Y-193214343D01*
X179002200Y-193142914D01*
X178859343Y-193071486D01*
X178573629Y-193000057D01*
X178430771Y-192928629D01*
X178359343Y-192857200D01*
X178287914Y-192714343D01*
X178287914Y-192571486D01*
X178359343Y-192428629D01*
X178430771Y-192357200D01*
X178573629Y-192285771D01*
X178930771Y-192285771D01*
X179145057Y-192357200D01*
X179787914Y-193785771D02*
X179787914Y-192785771D01*
X179787914Y-192285771D02*
X179716485Y-192357200D01*
X179787914Y-192428629D01*
X179859342Y-192357200D01*
X179787914Y-192285771D01*
X179787914Y-192428629D01*
X180359343Y-192785771D02*
X181145057Y-192785771D01*
X180359343Y-193785771D01*
X181145057Y-193785771D01*
X182287914Y-193714343D02*
X182145057Y-193785771D01*
X181859343Y-193785771D01*
X181716486Y-193714343D01*
X181645057Y-193571486D01*
X181645057Y-193000057D01*
X181716486Y-192857200D01*
X181859343Y-192785771D01*
X182145057Y-192785771D01*
X182287914Y-192857200D01*
X182359343Y-193000057D01*
X182359343Y-193142914D01*
X181645057Y-193285771D01*
X183002200Y-193642914D02*
X183073628Y-193714343D01*
X183002200Y-193785771D01*
X182930771Y-193714343D01*
X183002200Y-193642914D01*
X183002200Y-193785771D01*
X183002200Y-192857200D02*
X183073628Y-192928629D01*
X183002200Y-193000057D01*
X182930771Y-192928629D01*
X183002200Y-192857200D01*
X183002200Y-193000057D01*
X184787914Y-193357200D02*
X185502200Y-193357200D01*
X184645057Y-193785771D02*
X185145057Y-192285771D01*
X185645057Y-193785771D01*
X186787914Y-192785771D02*
X186787914Y-193785771D01*
X186430771Y-192214343D02*
X186073628Y-193285771D01*
X187002200Y-193285771D01*
D10*
D11*
X263359343Y-196585771D02*
X263359343Y-195085771D01*
X264716486Y-196585771D02*
X264716486Y-195085771D01*
X264716486Y-196514343D02*
X264573629Y-196585771D01*
X264287915Y-196585771D01*
X264145057Y-196514343D01*
X264073629Y-196442914D01*
X264002200Y-196300057D01*
X264002200Y-195871486D01*
X264073629Y-195728629D01*
X264145057Y-195657200D01*
X264287915Y-195585771D01*
X264573629Y-195585771D01*
X264716486Y-195657200D01*
X265430772Y-196442914D02*
X265502200Y-196514343D01*
X265430772Y-196585771D01*
X265359343Y-196514343D01*
X265430772Y-196442914D01*
X265430772Y-196585771D01*
X265430772Y-195657200D02*
X265502200Y-195728629D01*
X265430772Y-195800057D01*
X265359343Y-195728629D01*
X265430772Y-195657200D01*
X265430772Y-195800057D01*
X268073629Y-196585771D02*
X267216486Y-196585771D01*
X267645058Y-196585771D02*
X267645058Y-195085771D01*
X267502201Y-195300057D01*
X267359343Y-195442914D01*
X267216486Y-195514343D01*
X269787914Y-195014343D02*
X268502200Y-196942914D01*
X271073629Y-196585771D02*
X270216486Y-196585771D01*
X270645058Y-196585771D02*
X270645058Y-195085771D01*
X270502201Y-195300057D01*
X270359343Y-195442914D01*
X270216486Y-195514343D01*
D10*
D11*
X177002200Y-187507200D02*
X285002200Y-187507200D01*
D10*
D13*
X178454581Y-188211962D02*
X179597438Y-188211962D01*
X178776010Y-190211962D02*
X179026010Y-188211962D01*
X180014105Y-190211962D02*
X180180771Y-188878629D01*
X180264105Y-188211962D02*
X180156962Y-188307200D01*
X180240295Y-188402438D01*
X180347439Y-188307200D01*
X180264105Y-188211962D01*
X180240295Y-188402438D01*
X180847438Y-188878629D02*
X181609343Y-188878629D01*
X181216486Y-188211962D02*
X181002200Y-189926248D01*
X181073630Y-190116724D01*
X181252201Y-190211962D01*
X181442677Y-190211962D01*
X182395058Y-190211962D02*
X182216487Y-190116724D01*
X182145057Y-189926248D01*
X182359343Y-188211962D01*
X183930772Y-190116724D02*
X183728391Y-190211962D01*
X183347439Y-190211962D01*
X183168867Y-190116724D01*
X183097438Y-189926248D01*
X183192676Y-189164343D01*
X183311724Y-188973867D01*
X183514105Y-188878629D01*
X183895057Y-188878629D01*
X184073629Y-188973867D01*
X184145057Y-189164343D01*
X184121248Y-189354819D01*
X183145057Y-189545295D01*
X184895057Y-190021486D02*
X184978392Y-190116724D01*
X184871248Y-190211962D01*
X184787915Y-190116724D01*
X184895057Y-190021486D01*
X184871248Y-190211962D01*
X185026010Y-188973867D02*
X185109344Y-189069105D01*
X185002200Y-189164343D01*
X184918867Y-189069105D01*
X185026010Y-188973867D01*
X185002200Y-189164343D01*
D10*
D11*
X178859343Y-185600057D02*
X178359343Y-185600057D01*
X178359343Y-186385771D02*
X178359343Y-184885771D01*
X179073629Y-184885771D01*
X179645057Y-186385771D02*
X179645057Y-185385771D01*
X179645057Y-184885771D02*
X179573628Y-184957200D01*
X179645057Y-185028629D01*
X179716485Y-184957200D01*
X179645057Y-184885771D01*
X179645057Y-185028629D01*
X180573629Y-186385771D02*
X180430771Y-186314343D01*
X180359343Y-186171486D01*
X180359343Y-184885771D01*
X181716485Y-186314343D02*
X181573628Y-186385771D01*
X181287914Y-186385771D01*
X181145057Y-186314343D01*
X181073628Y-186171486D01*
X181073628Y-185600057D01*
X181145057Y-185457200D01*
X181287914Y-185385771D01*
X181573628Y-185385771D01*
X181716485Y-185457200D01*
X181787914Y-185600057D01*
X181787914Y-185742914D01*
X181073628Y-185885771D01*
X182430771Y-186242914D02*
X182502199Y-186314343D01*
X182430771Y-186385771D01*
X182359342Y-186314343D01*
X182430771Y-186242914D01*
X182430771Y-186385771D01*
X182430771Y-185457200D02*
X182502199Y-185528629D01*
X182430771Y-185600057D01*
X182359342Y-185528629D01*
X182430771Y-185457200D01*
X182430771Y-185600057D01*
X184287914Y-186385771D02*
X184287914Y-184885771D01*
X184287914Y-185457200D02*
X184430771Y-185385771D01*
X184716485Y-185385771D01*
X184859342Y-185457200D01*
X184930771Y-185528629D01*
X185002200Y-185671486D01*
X185002200Y-186100057D01*
X184930771Y-186242914D01*
X184859342Y-186314343D01*
X184716485Y-186385771D01*
X184430771Y-186385771D01*
X184287914Y-186314343D01*
X186287914Y-185385771D02*
X186287914Y-186385771D01*
X185645057Y-185385771D02*
X185645057Y-186171486D01*
X185716485Y-186314343D01*
X185859343Y-186385771D01*
X186073628Y-186385771D01*
X186216485Y-186314343D01*
X186287914Y-186242914D01*
X186930771Y-186314343D02*
X187073628Y-186385771D01*
X187359343Y-186385771D01*
X187502200Y-186314343D01*
X187573628Y-186171486D01*
X187573628Y-186100057D01*
X187502200Y-185957200D01*
X187359343Y-185885771D01*
X187145057Y-185885771D01*
X187002200Y-185814343D01*
X186930771Y-185671486D01*
X186930771Y-185600057D01*
X187002200Y-185457200D01*
X187145057Y-185385771D01*
X187359343Y-185385771D01*
X187502200Y-185457200D01*
X188216486Y-186385771D02*
X188216486Y-185385771D01*
X188216486Y-184885771D02*
X188145057Y-184957200D01*
X188216486Y-185028629D01*
X188287914Y-184957200D01*
X188216486Y-184885771D01*
X188216486Y-185028629D01*
X188930772Y-185385771D02*
X188930772Y-186385771D01*
X188930772Y-185528629D02*
X189002200Y-185457200D01*
X189145058Y-185385771D01*
X189359343Y-185385771D01*
X189502200Y-185457200D01*
X189573629Y-185600057D01*
X189573629Y-186385771D01*
X190859343Y-186314343D02*
X190716486Y-186385771D01*
X190430772Y-186385771D01*
X190287915Y-186314343D01*
X190216486Y-186171486D01*
X190216486Y-185600057D01*
X190287915Y-185457200D01*
X190430772Y-185385771D01*
X190716486Y-185385771D01*
X190859343Y-185457200D01*
X190930772Y-185600057D01*
X190930772Y-185742914D01*
X190216486Y-185885771D01*
X191502200Y-186314343D02*
X191645057Y-186385771D01*
X191930772Y-186385771D01*
X192073629Y-186314343D01*
X192145057Y-186171486D01*
X192145057Y-186100057D01*
X192073629Y-185957200D01*
X191930772Y-185885771D01*
X191716486Y-185885771D01*
X191573629Y-185814343D01*
X191502200Y-185671486D01*
X191502200Y-185600057D01*
X191573629Y-185457200D01*
X191716486Y-185385771D01*
X191930772Y-185385771D01*
X192073629Y-185457200D01*
X192716486Y-186314343D02*
X192859343Y-186385771D01*
X193145058Y-186385771D01*
X193287915Y-186314343D01*
X193359343Y-186171486D01*
X193359343Y-186100057D01*
X193287915Y-185957200D01*
X193145058Y-185885771D01*
X192930772Y-185885771D01*
X192787915Y-185814343D01*
X192716486Y-185671486D01*
X192716486Y-185600057D01*
X192787915Y-185457200D01*
X192930772Y-185385771D01*
X193145058Y-185385771D01*
X193287915Y-185457200D01*
X195787915Y-186314343D02*
X195645058Y-186385771D01*
X195359344Y-186385771D01*
X195216486Y-186314343D01*
X195145058Y-186242914D01*
X195073629Y-186100057D01*
X195073629Y-185671486D01*
X195145058Y-185528629D01*
X195216486Y-185457200D01*
X195359344Y-185385771D01*
X195645058Y-185385771D01*
X195787915Y-185457200D01*
X197073629Y-186385771D02*
X197073629Y-185600057D01*
X197002200Y-185457200D01*
X196859343Y-185385771D01*
X196573629Y-185385771D01*
X196430772Y-185457200D01*
X197073629Y-186314343D02*
X196930772Y-186385771D01*
X196573629Y-186385771D01*
X196430772Y-186314343D01*
X196359343Y-186171486D01*
X196359343Y-186028629D01*
X196430772Y-185885771D01*
X196573629Y-185814343D01*
X196930772Y-185814343D01*
X197073629Y-185742914D01*
X197787915Y-186385771D02*
X197787915Y-185385771D01*
X197787915Y-185671486D02*
X197859343Y-185528629D01*
X197930772Y-185457200D01*
X198073629Y-185385771D01*
X198216486Y-185385771D01*
X199359343Y-186385771D02*
X199359343Y-184885771D01*
X199359343Y-186314343D02*
X199216486Y-186385771D01*
X198930772Y-186385771D01*
X198787914Y-186314343D01*
X198716486Y-186242914D01*
X198645057Y-186100057D01*
X198645057Y-185671486D01*
X198716486Y-185528629D01*
X198787914Y-185457200D01*
X198930772Y-185385771D01*
X199216486Y-185385771D01*
X199359343Y-185457200D01*
X200073629Y-186242914D02*
X200145057Y-186314343D01*
X200073629Y-186385771D01*
X200002200Y-186314343D01*
X200073629Y-186242914D01*
X200073629Y-186385771D01*
X200787915Y-186385771D02*
X200787915Y-184885771D01*
X200930772Y-185814343D02*
X201359343Y-186385771D01*
X201359343Y-185385771D02*
X200787915Y-185957200D01*
X202002201Y-186385771D02*
X202002201Y-185385771D01*
X202002201Y-184885771D02*
X201930772Y-184957200D01*
X202002201Y-185028629D01*
X202073629Y-184957200D01*
X202002201Y-184885771D01*
X202002201Y-185028629D01*
X203359344Y-186314343D02*
X203216487Y-186385771D01*
X202930773Y-186385771D01*
X202787915Y-186314343D01*
X202716487Y-186242914D01*
X202645058Y-186100057D01*
X202645058Y-185671486D01*
X202716487Y-185528629D01*
X202787915Y-185457200D01*
X202930773Y-185385771D01*
X203216487Y-185385771D01*
X203359344Y-185457200D01*
X204645058Y-186385771D02*
X204645058Y-185600057D01*
X204573629Y-185457200D01*
X204430772Y-185385771D01*
X204145058Y-185385771D01*
X204002201Y-185457200D01*
X204645058Y-186314343D02*
X204502201Y-186385771D01*
X204145058Y-186385771D01*
X204002201Y-186314343D01*
X203930772Y-186171486D01*
X203930772Y-186028629D01*
X204002201Y-185885771D01*
X204145058Y-185814343D01*
X204502201Y-185814343D01*
X204645058Y-185742914D01*
X206002201Y-186385771D02*
X206002201Y-184885771D01*
X206002201Y-186314343D02*
X205859344Y-186385771D01*
X205573630Y-186385771D01*
X205430772Y-186314343D01*
X205359344Y-186242914D01*
X205287915Y-186100057D01*
X205287915Y-185671486D01*
X205359344Y-185528629D01*
X205430772Y-185457200D01*
X205573630Y-185385771D01*
X205859344Y-185385771D01*
X206002201Y-185457200D01*
X206359344Y-186528629D02*
X207502201Y-186528629D01*
X207859344Y-185385771D02*
X207859344Y-186885771D01*
X207859344Y-185457200D02*
X208002201Y-185385771D01*
X208287915Y-185385771D01*
X208430772Y-185457200D01*
X208502201Y-185528629D01*
X208573630Y-185671486D01*
X208573630Y-186100057D01*
X208502201Y-186242914D01*
X208430772Y-186314343D01*
X208287915Y-186385771D01*
X208002201Y-186385771D01*
X207859344Y-186314343D01*
X209859344Y-186314343D02*
X209716487Y-186385771D01*
X209430773Y-186385771D01*
X209287915Y-186314343D01*
X209216487Y-186242914D01*
X209145058Y-186100057D01*
X209145058Y-185671486D01*
X209216487Y-185528629D01*
X209287915Y-185457200D01*
X209430773Y-185385771D01*
X209716487Y-185385771D01*
X209859344Y-185457200D01*
X210502201Y-186385771D02*
X210502201Y-184885771D01*
X210502201Y-185457200D02*
X210645058Y-185385771D01*
X210930772Y-185385771D01*
X211073629Y-185457200D01*
X211145058Y-185528629D01*
X211216487Y-185671486D01*
X211216487Y-186100057D01*
X211145058Y-186242914D01*
X211073629Y-186314343D01*
X210930772Y-186385771D01*
X210645058Y-186385771D01*
X210502201Y-186314343D01*
D10*
D11*
X177002200Y-181507200D02*
X285002200Y-181507200D01*
D10*
D11*
X178287914Y-183614343D02*
X178502200Y-183685771D01*
X178859343Y-183685771D01*
X179002200Y-183614343D01*
X179073629Y-183542914D01*
X179145057Y-183400057D01*
X179145057Y-183257200D01*
X179073629Y-183114343D01*
X179002200Y-183042914D01*
X178859343Y-182971486D01*
X178573629Y-182900057D01*
X178430771Y-182828629D01*
X178359343Y-182757200D01*
X178287914Y-182614343D01*
X178287914Y-182471486D01*
X178359343Y-182328629D01*
X178430771Y-182257200D01*
X178573629Y-182185771D01*
X178930771Y-182185771D01*
X179145057Y-182257200D01*
X179787914Y-183685771D02*
X179787914Y-182185771D01*
X180430771Y-183685771D02*
X180430771Y-182900057D01*
X180359342Y-182757200D01*
X180216485Y-182685771D01*
X180002200Y-182685771D01*
X179859342Y-182757200D01*
X179787914Y-182828629D01*
X181716485Y-183614343D02*
X181573628Y-183685771D01*
X181287914Y-183685771D01*
X181145057Y-183614343D01*
X181073628Y-183471486D01*
X181073628Y-182900057D01*
X181145057Y-182757200D01*
X181287914Y-182685771D01*
X181573628Y-182685771D01*
X181716485Y-182757200D01*
X181787914Y-182900057D01*
X181787914Y-183042914D01*
X181073628Y-183185771D01*
X183002199Y-183614343D02*
X182859342Y-183685771D01*
X182573628Y-183685771D01*
X182430771Y-183614343D01*
X182359342Y-183471486D01*
X182359342Y-182900057D01*
X182430771Y-182757200D01*
X182573628Y-182685771D01*
X182859342Y-182685771D01*
X183002199Y-182757200D01*
X183073628Y-182900057D01*
X183073628Y-183042914D01*
X182359342Y-183185771D01*
X183502199Y-182685771D02*
X184073628Y-182685771D01*
X183716485Y-182185771D02*
X183716485Y-183471486D01*
X183787913Y-183614343D01*
X183930771Y-183685771D01*
X184073628Y-183685771D01*
X184573628Y-183542914D02*
X184645056Y-183614343D01*
X184573628Y-183685771D01*
X184502199Y-183614343D01*
X184573628Y-183542914D01*
X184573628Y-183685771D01*
X184573628Y-182757200D02*
X184645056Y-182828629D01*
X184573628Y-182900057D01*
X184502199Y-182828629D01*
X184573628Y-182757200D01*
X184573628Y-182900057D01*
D10*
D11*
X197002200Y-191507200D02*
X197002200Y-194507200D01*
D10*
D11*
X261002200Y-191507200D02*
X261002200Y-198007200D01*
X100391581Y-103020762D02*
X100534438Y-103068381D01*
X100772534Y-103068381D01*
X100867772Y-103020762D01*
X100915391Y-102973143D01*
X100963010Y-102877905D01*
X100963010Y-102782667D01*
X100915391Y-102687429D01*
X100867772Y-102639810D01*
X100772534Y-102592190D01*
X100582057Y-102544571D01*
X100486819Y-102496952D01*
X100439200Y-102449333D01*
X100391581Y-102354095D01*
X100391581Y-102258857D01*
X100439200Y-102163619D01*
X100486819Y-102116000D01*
X100582057Y-102068381D01*
X100820153Y-102068381D01*
X100963010Y-102116000D01*
X101296343Y-102401714D02*
X101534438Y-103068381D01*
X101772534Y-102401714D02*
X101534438Y-103068381D01*
X101439200Y-103306476D01*
X101391581Y-103354095D01*
X101296343Y-103401714D01*
X102153486Y-103068381D02*
X102153486Y-102401714D01*
X102153486Y-102496952D02*
X102201105Y-102449333D01*
X102296343Y-102401714D01*
X102439201Y-102401714D01*
X102534439Y-102449333D01*
X102582058Y-102544571D01*
X102582058Y-103068381D01*
X102582058Y-102544571D02*
X102629677Y-102449333D01*
X102724915Y-102401714D01*
X102867772Y-102401714D01*
X102963010Y-102449333D01*
X103010629Y-102544571D01*
X103010629Y-103068381D01*
X103486819Y-103068381D02*
X103486819Y-102068381D01*
X103486819Y-102449333D02*
X103582057Y-102401714D01*
X103772534Y-102401714D01*
X103867772Y-102449333D01*
X103915391Y-102496952D01*
X103963010Y-102592190D01*
X103963010Y-102877905D01*
X103915391Y-102973143D01*
X103867772Y-103020762D01*
X103772534Y-103068381D01*
X103582057Y-103068381D01*
X103486819Y-103020762D01*
X104534438Y-103068381D02*
X104439200Y-103020762D01*
X104391581Y-102973143D01*
X104343962Y-102877905D01*
X104343962Y-102592190D01*
X104391581Y-102496952D01*
X104439200Y-102449333D01*
X104534438Y-102401714D01*
X104677296Y-102401714D01*
X104772534Y-102449333D01*
X104820153Y-102496952D01*
X104867772Y-102592190D01*
X104867772Y-102877905D01*
X104820153Y-102973143D01*
X104772534Y-103020762D01*
X104677296Y-103068381D01*
X104534438Y-103068381D01*
X105439200Y-103068381D02*
X105343962Y-103020762D01*
X105296343Y-102925524D01*
X105296343Y-102068381D01*
X105582058Y-103163619D02*
X106343963Y-103163619D01*
X107153487Y-102973143D02*
X107105868Y-103020762D01*
X106963011Y-103068381D01*
X106867773Y-103068381D01*
X106724915Y-103020762D01*
X106629677Y-102925524D01*
X106582058Y-102830286D01*
X106534439Y-102639810D01*
X106534439Y-102496952D01*
X106582058Y-102306476D01*
X106629677Y-102211238D01*
X106724915Y-102116000D01*
X106867773Y-102068381D01*
X106963011Y-102068381D01*
X107105868Y-102116000D01*
X107153487Y-102163619D01*
X108153487Y-102973143D02*
X108105868Y-103020762D01*
X107963011Y-103068381D01*
X107867773Y-103068381D01*
X107724915Y-103020762D01*
X107629677Y-102925524D01*
X107582058Y-102830286D01*
X107534439Y-102639810D01*
X107534439Y-102496952D01*
X107582058Y-102306476D01*
X107629677Y-102211238D01*
X107724915Y-102116000D01*
X107867773Y-102068381D01*
X107963011Y-102068381D01*
X108105868Y-102116000D01*
X108153487Y-102163619D01*
X108582058Y-102687429D02*
X109343963Y-102687429D01*
X109772534Y-102782667D02*
X110248725Y-102782667D01*
X109677296Y-103068381D02*
X110010629Y-102068381D01*
X110343963Y-103068381D01*
X110534439Y-102401714D02*
X110915391Y-102401714D01*
X110677296Y-102068381D02*
X110677296Y-102925524D01*
X110724915Y-103020762D01*
X110820153Y-103068381D01*
X110915391Y-103068381D01*
X111105868Y-102401714D02*
X111486820Y-102401714D01*
X111248725Y-102068381D02*
X111248725Y-102925524D01*
X111296344Y-103020762D01*
X111391582Y-103068381D01*
X111486820Y-103068381D01*
X111820154Y-103068381D02*
X111820154Y-102401714D01*
X111820154Y-102592190D02*
X111867773Y-102496952D01*
X111915392Y-102449333D01*
X112010630Y-102401714D01*
X112105869Y-102401714D01*
X112439202Y-103068381D02*
X112439202Y-102401714D01*
X112439202Y-102068381D02*
X112391583Y-102116000D01*
X112439202Y-102163619D01*
X112486821Y-102116000D01*
X112439202Y-102068381D01*
X112439202Y-102163619D01*
X112915392Y-103068381D02*
X112915392Y-102068381D01*
X112915392Y-102449333D02*
X113010630Y-102401714D01*
X113201107Y-102401714D01*
X113296345Y-102449333D01*
X113343964Y-102496952D01*
X113391583Y-102592190D01*
X113391583Y-102877905D01*
X113343964Y-102973143D01*
X113296345Y-103020762D01*
X113201107Y-103068381D01*
X113010630Y-103068381D01*
X112915392Y-103020762D01*
X114248726Y-102401714D02*
X114248726Y-103068381D01*
X113820154Y-102401714D02*
X113820154Y-102925524D01*
X113867773Y-103020762D01*
X113963011Y-103068381D01*
X114105869Y-103068381D01*
X114201107Y-103020762D01*
X114248726Y-102973143D01*
X114582059Y-102401714D02*
X114963011Y-102401714D01*
X114724916Y-102068381D02*
X114724916Y-102925524D01*
X114772535Y-103020762D01*
X114867773Y-103068381D01*
X114963011Y-103068381D01*
X115296345Y-103068381D02*
X115296345Y-102401714D01*
X115296345Y-102068381D02*
X115248726Y-102116000D01*
X115296345Y-102163619D01*
X115343964Y-102116000D01*
X115296345Y-102068381D01*
X115296345Y-102163619D01*
X115915392Y-103068381D02*
X115820154Y-103020762D01*
X115772535Y-102973143D01*
X115724916Y-102877905D01*
X115724916Y-102592190D01*
X115772535Y-102496952D01*
X115820154Y-102449333D01*
X115915392Y-102401714D01*
X116058250Y-102401714D01*
X116153488Y-102449333D01*
X116201107Y-102496952D01*
X116248726Y-102592190D01*
X116248726Y-102877905D01*
X116201107Y-102973143D01*
X116153488Y-103020762D01*
X116058250Y-103068381D01*
X115915392Y-103068381D01*
X116677297Y-102401714D02*
X116677297Y-103068381D01*
X116677297Y-102496952D02*
X116724916Y-102449333D01*
X116820154Y-102401714D01*
X116963012Y-102401714D01*
X117058250Y-102449333D01*
X117105869Y-102544571D01*
X117105869Y-103068381D01*
X117343964Y-103163619D02*
X118105869Y-103163619D01*
X118915393Y-102973143D02*
X118867774Y-103020762D01*
X118724917Y-103068381D01*
X118629679Y-103068381D01*
X118486821Y-103020762D01*
X118391583Y-102925524D01*
X118343964Y-102830286D01*
X118296345Y-102639810D01*
X118296345Y-102496952D01*
X118343964Y-102306476D01*
X118391583Y-102211238D01*
X118486821Y-102116000D01*
X118629679Y-102068381D01*
X118724917Y-102068381D01*
X118867774Y-102116000D01*
X118915393Y-102163619D01*
X119486821Y-103068381D02*
X119391583Y-103020762D01*
X119343964Y-102973143D01*
X119296345Y-102877905D01*
X119296345Y-102592190D01*
X119343964Y-102496952D01*
X119391583Y-102449333D01*
X119486821Y-102401714D01*
X119629679Y-102401714D01*
X119724917Y-102449333D01*
X119772536Y-102496952D01*
X119820155Y-102592190D01*
X119820155Y-102877905D01*
X119772536Y-102973143D01*
X119724917Y-103020762D01*
X119629679Y-103068381D01*
X119486821Y-103068381D01*
X120248726Y-102401714D02*
X120248726Y-103401714D01*
X120248726Y-102449333D02*
X120343964Y-102401714D01*
X120534441Y-102401714D01*
X120629679Y-102449333D01*
X120677298Y-102496952D01*
X120724917Y-102592190D01*
X120724917Y-102877905D01*
X120677298Y-102973143D01*
X120629679Y-103020762D01*
X120534441Y-103068381D01*
X120343964Y-103068381D01*
X120248726Y-103020762D01*
X121153488Y-102401714D02*
X121153488Y-103401714D01*
X121153488Y-102449333D02*
X121248726Y-102401714D01*
X121439203Y-102401714D01*
X121534441Y-102449333D01*
X121582060Y-102496952D01*
X121629679Y-102592190D01*
X121629679Y-102877905D01*
X121582060Y-102973143D01*
X121534441Y-103020762D01*
X121439203Y-103068381D01*
X121248726Y-103068381D01*
X121153488Y-103020762D01*
X122439203Y-103020762D02*
X122343965Y-103068381D01*
X122153488Y-103068381D01*
X122058250Y-103020762D01*
X122010631Y-102925524D01*
X122010631Y-102544571D01*
X122058250Y-102449333D01*
X122153488Y-102401714D01*
X122343965Y-102401714D01*
X122439203Y-102449333D01*
X122486822Y-102544571D01*
X122486822Y-102639810D01*
X122010631Y-102735048D01*
X122915393Y-103068381D02*
X122915393Y-102401714D01*
X122915393Y-102592190D02*
X122963012Y-102496952D01*
X123010631Y-102449333D01*
X123105869Y-102401714D01*
X123201108Y-102401714D01*
X123391584Y-102068381D02*
X123963013Y-102068381D01*
X123677298Y-103068381D02*
X123677298Y-102068381D01*
X124439203Y-103068381D02*
X124343965Y-103020762D01*
X124296346Y-102973143D01*
X124248727Y-102877905D01*
X124248727Y-102592190D01*
X124296346Y-102496952D01*
X124343965Y-102449333D01*
X124439203Y-102401714D01*
X124582061Y-102401714D01*
X124677299Y-102449333D01*
X124724918Y-102496952D01*
X124772537Y-102592190D01*
X124772537Y-102877905D01*
X124724918Y-102973143D01*
X124677299Y-103020762D01*
X124582061Y-103068381D01*
X124439203Y-103068381D01*
X125201108Y-102401714D02*
X125201108Y-103401714D01*
X125201108Y-102449333D02*
X125296346Y-102401714D01*
X125486823Y-102401714D01*
X125582061Y-102449333D01*
X125629680Y-102496952D01*
X125677299Y-102592190D01*
X125677299Y-102877905D01*
X125629680Y-102973143D01*
X125582061Y-103020762D01*
X125486823Y-103068381D01*
X125296346Y-103068381D01*
X125201108Y-103020762D01*
X125867775Y-103163619D02*
X126629680Y-103163619D01*
X126820156Y-103020762D02*
X126963013Y-103068381D01*
X127201109Y-103068381D01*
X127296347Y-103020762D01*
X127343966Y-102973143D01*
X127391585Y-102877905D01*
X127391585Y-102782667D01*
X127343966Y-102687429D01*
X127296347Y-102639810D01*
X127201109Y-102592190D01*
X127010632Y-102544571D01*
X126915394Y-102496952D01*
X126867775Y-102449333D01*
X126820156Y-102354095D01*
X126820156Y-102258857D01*
X126867775Y-102163619D01*
X126915394Y-102116000D01*
X127010632Y-102068381D01*
X127248728Y-102068381D01*
X127391585Y-102116000D01*
X127820156Y-103068381D02*
X127820156Y-102401714D01*
X127820156Y-102496952D02*
X127867775Y-102449333D01*
X127963013Y-102401714D01*
X128105871Y-102401714D01*
X128201109Y-102449333D01*
X128248728Y-102544571D01*
X128248728Y-103068381D01*
X128248728Y-102544571D02*
X128296347Y-102449333D01*
X128391585Y-102401714D01*
X128534442Y-102401714D01*
X128629680Y-102449333D01*
X128677299Y-102544571D01*
X128677299Y-103068381D01*
X129582061Y-103068381D02*
X129582061Y-102544571D01*
X129534442Y-102449333D01*
X129439204Y-102401714D01*
X129248727Y-102401714D01*
X129153489Y-102449333D01*
X129582061Y-103020762D02*
X129486823Y-103068381D01*
X129248727Y-103068381D01*
X129153489Y-103020762D01*
X129105870Y-102925524D01*
X129105870Y-102830286D01*
X129153489Y-102735048D01*
X129248727Y-102687429D01*
X129486823Y-102687429D01*
X129582061Y-102639810D01*
X130201108Y-103068381D02*
X130105870Y-103020762D01*
X130058251Y-102925524D01*
X130058251Y-102068381D01*
X130724918Y-103068381D02*
X130629680Y-103020762D01*
X130582061Y-102925524D01*
X130582061Y-102068381D01*
X113091581Y-103020762D02*
X113234438Y-103068381D01*
X113472534Y-103068381D01*
X113567772Y-103020762D01*
X113615391Y-102973143D01*
X113663010Y-102877905D01*
X113663010Y-102782667D01*
X113615391Y-102687429D01*
X113567772Y-102639810D01*
X113472534Y-102592190D01*
X113282057Y-102544571D01*
X113186819Y-102496952D01*
X113139200Y-102449333D01*
X113091581Y-102354095D01*
X113091581Y-102258857D01*
X113139200Y-102163619D01*
X113186819Y-102116000D01*
X113282057Y-102068381D01*
X113520153Y-102068381D01*
X113663010Y-102116000D01*
X113996343Y-102401714D02*
X114234438Y-103068381D01*
X114472534Y-102401714D02*
X114234438Y-103068381D01*
X114139200Y-103306476D01*
X114091581Y-103354095D01*
X113996343Y-103401714D01*
X114853486Y-103068381D02*
X114853486Y-102401714D01*
X114853486Y-102496952D02*
X114901105Y-102449333D01*
X114996343Y-102401714D01*
X115139201Y-102401714D01*
X115234439Y-102449333D01*
X115282058Y-102544571D01*
X115282058Y-103068381D01*
X115282058Y-102544571D02*
X115329677Y-102449333D01*
X115424915Y-102401714D01*
X115567772Y-102401714D01*
X115663010Y-102449333D01*
X115710629Y-102544571D01*
X115710629Y-103068381D01*
X116186819Y-103068381D02*
X116186819Y-102068381D01*
X116186819Y-102449333D02*
X116282057Y-102401714D01*
X116472534Y-102401714D01*
X116567772Y-102449333D01*
X116615391Y-102496952D01*
X116663010Y-102592190D01*
X116663010Y-102877905D01*
X116615391Y-102973143D01*
X116567772Y-103020762D01*
X116472534Y-103068381D01*
X116282057Y-103068381D01*
X116186819Y-103020762D01*
X117234438Y-103068381D02*
X117139200Y-103020762D01*
X117091581Y-102973143D01*
X117043962Y-102877905D01*
X117043962Y-102592190D01*
X117091581Y-102496952D01*
X117139200Y-102449333D01*
X117234438Y-102401714D01*
X117377296Y-102401714D01*
X117472534Y-102449333D01*
X117520153Y-102496952D01*
X117567772Y-102592190D01*
X117567772Y-102877905D01*
X117520153Y-102973143D01*
X117472534Y-103020762D01*
X117377296Y-103068381D01*
X117234438Y-103068381D01*
X118139200Y-103068381D02*
X118043962Y-103020762D01*
X117996343Y-102925524D01*
X117996343Y-102068381D01*
X118282058Y-103163619D02*
X119043963Y-103163619D01*
X119853487Y-102973143D02*
X119805868Y-103020762D01*
X119663011Y-103068381D01*
X119567773Y-103068381D01*
X119424915Y-103020762D01*
X119329677Y-102925524D01*
X119282058Y-102830286D01*
X119234439Y-102639810D01*
X119234439Y-102496952D01*
X119282058Y-102306476D01*
X119329677Y-102211238D01*
X119424915Y-102116000D01*
X119567773Y-102068381D01*
X119663011Y-102068381D01*
X119805868Y-102116000D01*
X119853487Y-102163619D01*
X120853487Y-102973143D02*
X120805868Y-103020762D01*
X120663011Y-103068381D01*
X120567773Y-103068381D01*
X120424915Y-103020762D01*
X120329677Y-102925524D01*
X120282058Y-102830286D01*
X120234439Y-102639810D01*
X120234439Y-102496952D01*
X120282058Y-102306476D01*
X120329677Y-102211238D01*
X120424915Y-102116000D01*
X120567773Y-102068381D01*
X120663011Y-102068381D01*
X120805868Y-102116000D01*
X120853487Y-102163619D01*
X121282058Y-102687429D02*
X122043963Y-102687429D01*
X122472534Y-103020762D02*
X122615391Y-103068381D01*
X122853487Y-103068381D01*
X122948725Y-103020762D01*
X122996344Y-102973143D01*
X123043963Y-102877905D01*
X123043963Y-102782667D01*
X122996344Y-102687429D01*
X122948725Y-102639810D01*
X122853487Y-102592190D01*
X122663010Y-102544571D01*
X122567772Y-102496952D01*
X122520153Y-102449333D01*
X122472534Y-102354095D01*
X122472534Y-102258857D01*
X122520153Y-102163619D01*
X122567772Y-102116000D01*
X122663010Y-102068381D01*
X122901106Y-102068381D01*
X123043963Y-102116000D01*
X123472534Y-103068381D02*
X123472534Y-102068381D01*
X123901106Y-103068381D02*
X123901106Y-102544571D01*
X123853487Y-102449333D01*
X123758249Y-102401714D01*
X123615391Y-102401714D01*
X123520153Y-102449333D01*
X123472534Y-102496952D01*
X124805868Y-103068381D02*
X124805868Y-102544571D01*
X124758249Y-102449333D01*
X124663011Y-102401714D01*
X124472534Y-102401714D01*
X124377296Y-102449333D01*
X124805868Y-103020762D02*
X124710630Y-103068381D01*
X124472534Y-103068381D01*
X124377296Y-103020762D01*
X124329677Y-102925524D01*
X124329677Y-102830286D01*
X124377296Y-102735048D01*
X124472534Y-102687429D01*
X124710630Y-102687429D01*
X124805868Y-102639810D01*
X125282058Y-103068381D02*
X125282058Y-102401714D01*
X125282058Y-102592190D02*
X125329677Y-102496952D01*
X125377296Y-102449333D01*
X125472534Y-102401714D01*
X125567773Y-102401714D01*
X126282059Y-103020762D02*
X126186821Y-103068381D01*
X125996344Y-103068381D01*
X125901106Y-103020762D01*
X125853487Y-102925524D01*
X125853487Y-102544571D01*
X125901106Y-102449333D01*
X125996344Y-102401714D01*
X126186821Y-102401714D01*
X126282059Y-102449333D01*
X126329678Y-102544571D01*
X126329678Y-102639810D01*
X125853487Y-102735048D01*
X126710630Y-102782667D02*
X127186821Y-102782667D01*
X126615392Y-103068381D02*
X126948725Y-102068381D01*
X127282059Y-103068381D01*
X127758249Y-103068381D02*
X127663011Y-103020762D01*
X127615392Y-102925524D01*
X127615392Y-102068381D01*
X128139202Y-103068381D02*
X128139202Y-102401714D01*
X128139202Y-102068381D02*
X128091583Y-102116000D01*
X128139202Y-102163619D01*
X128186821Y-102116000D01*
X128139202Y-102068381D01*
X128139202Y-102163619D01*
X128615392Y-103068381D02*
X128615392Y-102068381D01*
X128710630Y-102687429D02*
X128996345Y-103068381D01*
X128996345Y-102401714D02*
X128615392Y-102782667D01*
X129805869Y-103020762D02*
X129710631Y-103068381D01*
X129520154Y-103068381D01*
X129424916Y-103020762D01*
X129377297Y-102925524D01*
X129377297Y-102544571D01*
X129424916Y-102449333D01*
X129520154Y-102401714D01*
X129710631Y-102401714D01*
X129805869Y-102449333D01*
X129853488Y-102544571D01*
X129853488Y-102639810D01*
X129377297Y-102735048D01*
X130043964Y-103163619D02*
X130805869Y-103163619D01*
X131615393Y-102973143D02*
X131567774Y-103020762D01*
X131424917Y-103068381D01*
X131329679Y-103068381D01*
X131186821Y-103020762D01*
X131091583Y-102925524D01*
X131043964Y-102830286D01*
X130996345Y-102639810D01*
X130996345Y-102496952D01*
X131043964Y-102306476D01*
X131091583Y-102211238D01*
X131186821Y-102116000D01*
X131329679Y-102068381D01*
X131424917Y-102068381D01*
X131567774Y-102116000D01*
X131615393Y-102163619D01*
X132186821Y-103068381D02*
X132091583Y-103020762D01*
X132043964Y-102973143D01*
X131996345Y-102877905D01*
X131996345Y-102592190D01*
X132043964Y-102496952D01*
X132091583Y-102449333D01*
X132186821Y-102401714D01*
X132329679Y-102401714D01*
X132424917Y-102449333D01*
X132472536Y-102496952D01*
X132520155Y-102592190D01*
X132520155Y-102877905D01*
X132472536Y-102973143D01*
X132424917Y-103020762D01*
X132329679Y-103068381D01*
X132186821Y-103068381D01*
X132948726Y-102401714D02*
X132948726Y-103401714D01*
X132948726Y-102449333D02*
X133043964Y-102401714D01*
X133234441Y-102401714D01*
X133329679Y-102449333D01*
X133377298Y-102496952D01*
X133424917Y-102592190D01*
X133424917Y-102877905D01*
X133377298Y-102973143D01*
X133329679Y-103020762D01*
X133234441Y-103068381D01*
X133043964Y-103068381D01*
X132948726Y-103020762D01*
X133853488Y-102401714D02*
X133853488Y-103401714D01*
X133853488Y-102449333D02*
X133948726Y-102401714D01*
X134139203Y-102401714D01*
X134234441Y-102449333D01*
X134282060Y-102496952D01*
X134329679Y-102592190D01*
X134329679Y-102877905D01*
X134282060Y-102973143D01*
X134234441Y-103020762D01*
X134139203Y-103068381D01*
X133948726Y-103068381D01*
X133853488Y-103020762D01*
X135139203Y-103020762D02*
X135043965Y-103068381D01*
X134853488Y-103068381D01*
X134758250Y-103020762D01*
X134710631Y-102925524D01*
X134710631Y-102544571D01*
X134758250Y-102449333D01*
X134853488Y-102401714D01*
X135043965Y-102401714D01*
X135139203Y-102449333D01*
X135186822Y-102544571D01*
X135186822Y-102639810D01*
X134710631Y-102735048D01*
X135615393Y-103068381D02*
X135615393Y-102401714D01*
X135615393Y-102592190D02*
X135663012Y-102496952D01*
X135710631Y-102449333D01*
X135805869Y-102401714D01*
X135901108Y-102401714D01*
X136091584Y-102068381D02*
X136663013Y-102068381D01*
X136377298Y-103068381D02*
X136377298Y-102068381D01*
X137139203Y-103068381D02*
X137043965Y-103020762D01*
X136996346Y-102973143D01*
X136948727Y-102877905D01*
X136948727Y-102592190D01*
X136996346Y-102496952D01*
X137043965Y-102449333D01*
X137139203Y-102401714D01*
X137282061Y-102401714D01*
X137377299Y-102449333D01*
X137424918Y-102496952D01*
X137472537Y-102592190D01*
X137472537Y-102877905D01*
X137424918Y-102973143D01*
X137377299Y-103020762D01*
X137282061Y-103068381D01*
X137139203Y-103068381D01*
X137901108Y-102401714D02*
X137901108Y-103401714D01*
X137901108Y-102449333D02*
X137996346Y-102401714D01*
X138186823Y-102401714D01*
X138282061Y-102449333D01*
X138329680Y-102496952D01*
X138377299Y-102592190D01*
X138377299Y-102877905D01*
X138329680Y-102973143D01*
X138282061Y-103020762D01*
X138186823Y-103068381D01*
X137996346Y-103068381D01*
X137901108Y-103020762D01*
X138567775Y-103163619D02*
X139329680Y-103163619D01*
X139520156Y-103020762D02*
X139663013Y-103068381D01*
X139901109Y-103068381D01*
X139996347Y-103020762D01*
X140043966Y-102973143D01*
X140091585Y-102877905D01*
X140091585Y-102782667D01*
X140043966Y-102687429D01*
X139996347Y-102639810D01*
X139901109Y-102592190D01*
X139710632Y-102544571D01*
X139615394Y-102496952D01*
X139567775Y-102449333D01*
X139520156Y-102354095D01*
X139520156Y-102258857D01*
X139567775Y-102163619D01*
X139615394Y-102116000D01*
X139710632Y-102068381D01*
X139948728Y-102068381D01*
X140091585Y-102116000D01*
X140520156Y-103068381D02*
X140520156Y-102401714D01*
X140520156Y-102496952D02*
X140567775Y-102449333D01*
X140663013Y-102401714D01*
X140805871Y-102401714D01*
X140901109Y-102449333D01*
X140948728Y-102544571D01*
X140948728Y-103068381D01*
X140948728Y-102544571D02*
X140996347Y-102449333D01*
X141091585Y-102401714D01*
X141234442Y-102401714D01*
X141329680Y-102449333D01*
X141377299Y-102544571D01*
X141377299Y-103068381D01*
X142282061Y-103068381D02*
X142282061Y-102544571D01*
X142234442Y-102449333D01*
X142139204Y-102401714D01*
X141948727Y-102401714D01*
X141853489Y-102449333D01*
X142282061Y-103020762D02*
X142186823Y-103068381D01*
X141948727Y-103068381D01*
X141853489Y-103020762D01*
X141805870Y-102925524D01*
X141805870Y-102830286D01*
X141853489Y-102735048D01*
X141948727Y-102687429D01*
X142186823Y-102687429D01*
X142282061Y-102639810D01*
X142901108Y-103068381D02*
X142805870Y-103020762D01*
X142758251Y-102925524D01*
X142758251Y-102068381D01*
X143424918Y-103068381D02*
X143329680Y-103020762D01*
X143282061Y-102925524D01*
X143282061Y-102068381D01*
X90422533Y-103020762D02*
X90565390Y-103068381D01*
X90803486Y-103068381D01*
X90898724Y-103020762D01*
X90946343Y-102973143D01*
X90993962Y-102877905D01*
X90993962Y-102782667D01*
X90946343Y-102687429D01*
X90898724Y-102639810D01*
X90803486Y-102592190D01*
X90613009Y-102544571D01*
X90517771Y-102496952D01*
X90470152Y-102449333D01*
X90422533Y-102354095D01*
X90422533Y-102258857D01*
X90470152Y-102163619D01*
X90517771Y-102116000D01*
X90613009Y-102068381D01*
X90851105Y-102068381D01*
X90993962Y-102116000D01*
X91327295Y-102401714D02*
X91565390Y-103068381D01*
X91803486Y-102401714D02*
X91565390Y-103068381D01*
X91470152Y-103306476D01*
X91422533Y-103354095D01*
X91327295Y-103401714D01*
X92184438Y-103068381D02*
X92184438Y-102401714D01*
X92184438Y-102496952D02*
X92232057Y-102449333D01*
X92327295Y-102401714D01*
X92470153Y-102401714D01*
X92565391Y-102449333D01*
X92613010Y-102544571D01*
X92613010Y-103068381D01*
X92613010Y-102544571D02*
X92660629Y-102449333D01*
X92755867Y-102401714D01*
X92898724Y-102401714D01*
X92993962Y-102449333D01*
X93041581Y-102544571D01*
X93041581Y-103068381D01*
X93517771Y-103068381D02*
X93517771Y-102068381D01*
X93517771Y-102449333D02*
X93613009Y-102401714D01*
X93803486Y-102401714D01*
X93898724Y-102449333D01*
X93946343Y-102496952D01*
X93993962Y-102592190D01*
X93993962Y-102877905D01*
X93946343Y-102973143D01*
X93898724Y-103020762D01*
X93803486Y-103068381D01*
X93613009Y-103068381D01*
X93517771Y-103020762D01*
X94565390Y-103068381D02*
X94470152Y-103020762D01*
X94422533Y-102973143D01*
X94374914Y-102877905D01*
X94374914Y-102592190D01*
X94422533Y-102496952D01*
X94470152Y-102449333D01*
X94565390Y-102401714D01*
X94708248Y-102401714D01*
X94803486Y-102449333D01*
X94851105Y-102496952D01*
X94898724Y-102592190D01*
X94898724Y-102877905D01*
X94851105Y-102973143D01*
X94803486Y-103020762D01*
X94708248Y-103068381D01*
X94565390Y-103068381D01*
X95470152Y-103068381D02*
X95374914Y-103020762D01*
X95327295Y-102925524D01*
X95327295Y-102068381D01*
X95613010Y-103163619D02*
X96374915Y-103163619D01*
X97184439Y-102973143D02*
X97136820Y-103020762D01*
X96993963Y-103068381D01*
X96898725Y-103068381D01*
X96755867Y-103020762D01*
X96660629Y-102925524D01*
X96613010Y-102830286D01*
X96565391Y-102639810D01*
X96565391Y-102496952D01*
X96613010Y-102306476D01*
X96660629Y-102211238D01*
X96755867Y-102116000D01*
X96898725Y-102068381D01*
X96993963Y-102068381D01*
X97136820Y-102116000D01*
X97184439Y-102163619D01*
X97613010Y-103068381D02*
X97613010Y-102401714D01*
X97613010Y-102592190D02*
X97660629Y-102496952D01*
X97708248Y-102449333D01*
X97803486Y-102401714D01*
X97898725Y-102401714D01*
X98613011Y-103020762D02*
X98517773Y-103068381D01*
X98327296Y-103068381D01*
X98232058Y-103020762D01*
X98184439Y-102925524D01*
X98184439Y-102544571D01*
X98232058Y-102449333D01*
X98327296Y-102401714D01*
X98517773Y-102401714D01*
X98613011Y-102449333D01*
X98660630Y-102544571D01*
X98660630Y-102639810D01*
X98184439Y-102735048D01*
X99517773Y-103068381D02*
X99517773Y-102544571D01*
X99470154Y-102449333D01*
X99374916Y-102401714D01*
X99184439Y-102401714D01*
X99089201Y-102449333D01*
X99517773Y-103020762D02*
X99422535Y-103068381D01*
X99184439Y-103068381D01*
X99089201Y-103020762D01*
X99041582Y-102925524D01*
X99041582Y-102830286D01*
X99089201Y-102735048D01*
X99184439Y-102687429D01*
X99422535Y-102687429D01*
X99517773Y-102639810D01*
X99851106Y-102401714D02*
X100232058Y-102401714D01*
X99993963Y-102068381D02*
X99993963Y-102925524D01*
X100041582Y-103020762D01*
X100136820Y-103068381D01*
X100232058Y-103068381D01*
X100565392Y-103068381D02*
X100565392Y-102401714D01*
X100565392Y-102068381D02*
X100517773Y-102116000D01*
X100565392Y-102163619D01*
X100613011Y-102116000D01*
X100565392Y-102068381D01*
X100565392Y-102163619D01*
X100946344Y-102401714D02*
X101184439Y-103068381D01*
X101422535Y-102401714D01*
X102184440Y-103020762D02*
X102089202Y-103068381D01*
X101898725Y-103068381D01*
X101803487Y-103020762D01*
X101755868Y-102925524D01*
X101755868Y-102544571D01*
X101803487Y-102449333D01*
X101898725Y-102401714D01*
X102089202Y-102401714D01*
X102184440Y-102449333D01*
X102232059Y-102544571D01*
X102232059Y-102639810D01*
X101755868Y-102735048D01*
X103232059Y-102973143D02*
X103184440Y-103020762D01*
X103041583Y-103068381D01*
X102946345Y-103068381D01*
X102803487Y-103020762D01*
X102708249Y-102925524D01*
X102660630Y-102830286D01*
X102613011Y-102639810D01*
X102613011Y-102496952D01*
X102660630Y-102306476D01*
X102708249Y-102211238D01*
X102803487Y-102116000D01*
X102946345Y-102068381D01*
X103041583Y-102068381D01*
X103184440Y-102116000D01*
X103232059Y-102163619D01*
X103803487Y-103068381D02*
X103708249Y-103020762D01*
X103660630Y-102973143D01*
X103613011Y-102877905D01*
X103613011Y-102592190D01*
X103660630Y-102496952D01*
X103708249Y-102449333D01*
X103803487Y-102401714D01*
X103946345Y-102401714D01*
X104041583Y-102449333D01*
X104089202Y-102496952D01*
X104136821Y-102592190D01*
X104136821Y-102877905D01*
X104089202Y-102973143D01*
X104041583Y-103020762D01*
X103946345Y-103068381D01*
X103803487Y-103068381D01*
X104565392Y-103068381D02*
X104565392Y-102401714D01*
X104565392Y-102496952D02*
X104613011Y-102449333D01*
X104708249Y-102401714D01*
X104851107Y-102401714D01*
X104946345Y-102449333D01*
X104993964Y-102544571D01*
X104993964Y-103068381D01*
X104993964Y-102544571D02*
X105041583Y-102449333D01*
X105136821Y-102401714D01*
X105279678Y-102401714D01*
X105374916Y-102449333D01*
X105422535Y-102544571D01*
X105422535Y-103068381D01*
X105898725Y-103068381D02*
X105898725Y-102401714D01*
X105898725Y-102496952D02*
X105946344Y-102449333D01*
X106041582Y-102401714D01*
X106184440Y-102401714D01*
X106279678Y-102449333D01*
X106327297Y-102544571D01*
X106327297Y-103068381D01*
X106327297Y-102544571D02*
X106374916Y-102449333D01*
X106470154Y-102401714D01*
X106613011Y-102401714D01*
X106708249Y-102449333D01*
X106755868Y-102544571D01*
X106755868Y-103068381D01*
X107374915Y-103068381D02*
X107279677Y-103020762D01*
X107232058Y-102973143D01*
X107184439Y-102877905D01*
X107184439Y-102592190D01*
X107232058Y-102496952D01*
X107279677Y-102449333D01*
X107374915Y-102401714D01*
X107517773Y-102401714D01*
X107613011Y-102449333D01*
X107660630Y-102496952D01*
X107708249Y-102592190D01*
X107708249Y-102877905D01*
X107660630Y-102973143D01*
X107613011Y-103020762D01*
X107517773Y-103068381D01*
X107374915Y-103068381D01*
X108136820Y-102401714D02*
X108136820Y-103068381D01*
X108136820Y-102496952D02*
X108184439Y-102449333D01*
X108279677Y-102401714D01*
X108422535Y-102401714D01*
X108517773Y-102449333D01*
X108565392Y-102544571D01*
X108565392Y-103068381D01*
X108993963Y-103020762D02*
X109089201Y-103068381D01*
X109279677Y-103068381D01*
X109374916Y-103020762D01*
X109422535Y-102925524D01*
X109422535Y-102877905D01*
X109374916Y-102782667D01*
X109279677Y-102735048D01*
X109136820Y-102735048D01*
X109041582Y-102687429D01*
X108993963Y-102592190D01*
X108993963Y-102544571D01*
X109041582Y-102449333D01*
X109136820Y-102401714D01*
X109279677Y-102401714D01*
X109374916Y-102449333D01*
X109613011Y-103163619D02*
X110374916Y-103163619D01*
X111184440Y-102973143D02*
X111136821Y-103020762D01*
X110993964Y-103068381D01*
X110898726Y-103068381D01*
X110755868Y-103020762D01*
X110660630Y-102925524D01*
X110613011Y-102830286D01*
X110565392Y-102639810D01*
X110565392Y-102496952D01*
X110613011Y-102306476D01*
X110660630Y-102211238D01*
X110755868Y-102116000D01*
X110898726Y-102068381D01*
X110993964Y-102068381D01*
X111136821Y-102116000D01*
X111184440Y-102163619D01*
X111755868Y-103068381D02*
X111660630Y-103020762D01*
X111613011Y-102973143D01*
X111565392Y-102877905D01*
X111565392Y-102592190D01*
X111613011Y-102496952D01*
X111660630Y-102449333D01*
X111755868Y-102401714D01*
X111898726Y-102401714D01*
X111993964Y-102449333D01*
X112041583Y-102496952D01*
X112089202Y-102592190D01*
X112089202Y-102877905D01*
X112041583Y-102973143D01*
X111993964Y-103020762D01*
X111898726Y-103068381D01*
X111755868Y-103068381D01*
X112517773Y-102401714D02*
X112517773Y-103401714D01*
X112517773Y-102449333D02*
X112613011Y-102401714D01*
X112803488Y-102401714D01*
X112898726Y-102449333D01*
X112946345Y-102496952D01*
X112993964Y-102592190D01*
X112993964Y-102877905D01*
X112946345Y-102973143D01*
X112898726Y-103020762D01*
X112803488Y-103068381D01*
X112613011Y-103068381D01*
X112517773Y-103020762D01*
X113422535Y-102401714D02*
X113422535Y-103401714D01*
X113422535Y-102449333D02*
X113517773Y-102401714D01*
X113708250Y-102401714D01*
X113803488Y-102449333D01*
X113851107Y-102496952D01*
X113898726Y-102592190D01*
X113898726Y-102877905D01*
X113851107Y-102973143D01*
X113803488Y-103020762D01*
X113708250Y-103068381D01*
X113517773Y-103068381D01*
X113422535Y-103020762D01*
X114708250Y-103020762D02*
X114613012Y-103068381D01*
X114422535Y-103068381D01*
X114327297Y-103020762D01*
X114279678Y-102925524D01*
X114279678Y-102544571D01*
X114327297Y-102449333D01*
X114422535Y-102401714D01*
X114613012Y-102401714D01*
X114708250Y-102449333D01*
X114755869Y-102544571D01*
X114755869Y-102639810D01*
X114279678Y-102735048D01*
X115184440Y-103068381D02*
X115184440Y-102401714D01*
X115184440Y-102592190D02*
X115232059Y-102496952D01*
X115279678Y-102449333D01*
X115374916Y-102401714D01*
X115470155Y-102401714D01*
X115660631Y-102068381D02*
X116232060Y-102068381D01*
X115946345Y-103068381D02*
X115946345Y-102068381D01*
X116708250Y-103068381D02*
X116613012Y-103020762D01*
X116565393Y-102973143D01*
X116517774Y-102877905D01*
X116517774Y-102592190D01*
X116565393Y-102496952D01*
X116613012Y-102449333D01*
X116708250Y-102401714D01*
X116851108Y-102401714D01*
X116946346Y-102449333D01*
X116993965Y-102496952D01*
X117041584Y-102592190D01*
X117041584Y-102877905D01*
X116993965Y-102973143D01*
X116946346Y-103020762D01*
X116851108Y-103068381D01*
X116708250Y-103068381D01*
X117470155Y-102401714D02*
X117470155Y-103401714D01*
X117470155Y-102449333D02*
X117565393Y-102401714D01*
X117755870Y-102401714D01*
X117851108Y-102449333D01*
X117898727Y-102496952D01*
X117946346Y-102592190D01*
X117946346Y-102877905D01*
X117898727Y-102973143D01*
X117851108Y-103020762D01*
X117755870Y-103068381D01*
X117565393Y-103068381D01*
X117470155Y-103020762D01*
X118136822Y-103163619D02*
X118898727Y-103163619D01*
X118993965Y-102068381D02*
X119565394Y-102068381D01*
X119279679Y-103068381D02*
X119279679Y-102068381D01*
X119803489Y-102401714D02*
X120041584Y-103068381D01*
X120279680Y-102401714D02*
X120041584Y-103068381D01*
X119946346Y-103306476D01*
X119898727Y-103354095D01*
X119803489Y-103401714D01*
X120660632Y-102401714D02*
X120660632Y-103401714D01*
X120660632Y-102449333D02*
X120755870Y-102401714D01*
X120946347Y-102401714D01*
X121041585Y-102449333D01*
X121089204Y-102496952D01*
X121136823Y-102592190D01*
X121136823Y-102877905D01*
X121089204Y-102973143D01*
X121041585Y-103020762D01*
X120946347Y-103068381D01*
X120755870Y-103068381D01*
X120660632Y-103020762D01*
X121946347Y-103020762D02*
X121851109Y-103068381D01*
X121660632Y-103068381D01*
X121565394Y-103020762D01*
X121517775Y-102925524D01*
X121517775Y-102544571D01*
X121565394Y-102449333D01*
X121660632Y-102401714D01*
X121851109Y-102401714D01*
X121946347Y-102449333D01*
X121993966Y-102544571D01*
X121993966Y-102639810D01*
X121517775Y-102735048D01*
X122374918Y-102163619D02*
X122422537Y-102116000D01*
X122517775Y-102068381D01*
X122755871Y-102068381D01*
X122851109Y-102116000D01*
X122898728Y-102163619D01*
X122946347Y-102258857D01*
X122946347Y-102354095D01*
X122898728Y-102496952D01*
X122327299Y-103068381D01*
X122946347Y-103068381D01*
X123136823Y-103163619D02*
X123898728Y-103163619D01*
X124089204Y-103020762D02*
X124232061Y-103068381D01*
X124470157Y-103068381D01*
X124565395Y-103020762D01*
X124613014Y-102973143D01*
X124660633Y-102877905D01*
X124660633Y-102782667D01*
X124613014Y-102687429D01*
X124565395Y-102639810D01*
X124470157Y-102592190D01*
X124279680Y-102544571D01*
X124184442Y-102496952D01*
X124136823Y-102449333D01*
X124089204Y-102354095D01*
X124089204Y-102258857D01*
X124136823Y-102163619D01*
X124184442Y-102116000D01*
X124279680Y-102068381D01*
X124517776Y-102068381D01*
X124660633Y-102116000D01*
X125089204Y-103068381D02*
X125089204Y-102401714D01*
X125089204Y-102496952D02*
X125136823Y-102449333D01*
X125232061Y-102401714D01*
X125374919Y-102401714D01*
X125470157Y-102449333D01*
X125517776Y-102544571D01*
X125517776Y-103068381D01*
X125517776Y-102544571D02*
X125565395Y-102449333D01*
X125660633Y-102401714D01*
X125803490Y-102401714D01*
X125898728Y-102449333D01*
X125946347Y-102544571D01*
X125946347Y-103068381D01*
X126851109Y-103068381D02*
X126851109Y-102544571D01*
X126803490Y-102449333D01*
X126708252Y-102401714D01*
X126517775Y-102401714D01*
X126422537Y-102449333D01*
X126851109Y-103020762D02*
X126755871Y-103068381D01*
X126517775Y-103068381D01*
X126422537Y-103020762D01*
X126374918Y-102925524D01*
X126374918Y-102830286D01*
X126422537Y-102735048D01*
X126517775Y-102687429D01*
X126755871Y-102687429D01*
X126851109Y-102639810D01*
X127470156Y-103068381D02*
X127374918Y-103020762D01*
X127327299Y-102925524D01*
X127327299Y-102068381D01*
X127993966Y-103068381D02*
X127898728Y-103020762D01*
X127851109Y-102925524D01*
X127851109Y-102068381D01*
X104860629Y-103020762D02*
X105003486Y-103068381D01*
X105241582Y-103068381D01*
X105336820Y-103020762D01*
X105384439Y-102973143D01*
X105432058Y-102877905D01*
X105432058Y-102782667D01*
X105384439Y-102687429D01*
X105336820Y-102639810D01*
X105241582Y-102592190D01*
X105051105Y-102544571D01*
X104955867Y-102496952D01*
X104908248Y-102449333D01*
X104860629Y-102354095D01*
X104860629Y-102258857D01*
X104908248Y-102163619D01*
X104955867Y-102116000D01*
X105051105Y-102068381D01*
X105289201Y-102068381D01*
X105432058Y-102116000D01*
X105765391Y-102401714D02*
X106003486Y-103068381D01*
X106241582Y-102401714D02*
X106003486Y-103068381D01*
X105908248Y-103306476D01*
X105860629Y-103354095D01*
X105765391Y-103401714D01*
X106622534Y-103068381D02*
X106622534Y-102401714D01*
X106622534Y-102496952D02*
X106670153Y-102449333D01*
X106765391Y-102401714D01*
X106908249Y-102401714D01*
X107003487Y-102449333D01*
X107051106Y-102544571D01*
X107051106Y-103068381D01*
X107051106Y-102544571D02*
X107098725Y-102449333D01*
X107193963Y-102401714D01*
X107336820Y-102401714D01*
X107432058Y-102449333D01*
X107479677Y-102544571D01*
X107479677Y-103068381D01*
X107955867Y-103068381D02*
X107955867Y-102068381D01*
X107955867Y-102449333D02*
X108051105Y-102401714D01*
X108241582Y-102401714D01*
X108336820Y-102449333D01*
X108384439Y-102496952D01*
X108432058Y-102592190D01*
X108432058Y-102877905D01*
X108384439Y-102973143D01*
X108336820Y-103020762D01*
X108241582Y-103068381D01*
X108051105Y-103068381D01*
X107955867Y-103020762D01*
X109003486Y-103068381D02*
X108908248Y-103020762D01*
X108860629Y-102973143D01*
X108813010Y-102877905D01*
X108813010Y-102592190D01*
X108860629Y-102496952D01*
X108908248Y-102449333D01*
X109003486Y-102401714D01*
X109146344Y-102401714D01*
X109241582Y-102449333D01*
X109289201Y-102496952D01*
X109336820Y-102592190D01*
X109336820Y-102877905D01*
X109289201Y-102973143D01*
X109241582Y-103020762D01*
X109146344Y-103068381D01*
X109003486Y-103068381D01*
X109908248Y-103068381D02*
X109813010Y-103020762D01*
X109765391Y-102925524D01*
X109765391Y-102068381D01*
X110051106Y-103163619D02*
X110813011Y-103163619D01*
X111622535Y-102973143D02*
X111574916Y-103020762D01*
X111432059Y-103068381D01*
X111336821Y-103068381D01*
X111193963Y-103020762D01*
X111098725Y-102925524D01*
X111051106Y-102830286D01*
X111003487Y-102639810D01*
X111003487Y-102496952D01*
X111051106Y-102306476D01*
X111098725Y-102211238D01*
X111193963Y-102116000D01*
X111336821Y-102068381D01*
X111432059Y-102068381D01*
X111574916Y-102116000D01*
X111622535Y-102163619D01*
X112622535Y-102973143D02*
X112574916Y-103020762D01*
X112432059Y-103068381D01*
X112336821Y-103068381D01*
X112193963Y-103020762D01*
X112098725Y-102925524D01*
X112051106Y-102830286D01*
X112003487Y-102639810D01*
X112003487Y-102496952D01*
X112051106Y-102306476D01*
X112098725Y-102211238D01*
X112193963Y-102116000D01*
X112336821Y-102068381D01*
X112432059Y-102068381D01*
X112574916Y-102116000D01*
X112622535Y-102163619D01*
X113051106Y-102687429D02*
X113813011Y-102687429D01*
X114289201Y-103068381D02*
X114289201Y-102068381D01*
X114860630Y-103068381D01*
X114860630Y-102068381D01*
X115479677Y-103068381D02*
X115384439Y-103020762D01*
X115336820Y-102973143D01*
X115289201Y-102877905D01*
X115289201Y-102592190D01*
X115336820Y-102496952D01*
X115384439Y-102449333D01*
X115479677Y-102401714D01*
X115622535Y-102401714D01*
X115717773Y-102449333D01*
X115765392Y-102496952D01*
X115813011Y-102592190D01*
X115813011Y-102877905D01*
X115765392Y-102973143D01*
X115717773Y-103020762D01*
X115622535Y-103068381D01*
X115479677Y-103068381D01*
X116241582Y-102401714D02*
X116241582Y-103068381D01*
X116241582Y-102496952D02*
X116289201Y-102449333D01*
X116384439Y-102401714D01*
X116527297Y-102401714D01*
X116622535Y-102449333D01*
X116670154Y-102544571D01*
X116670154Y-103068381D01*
X117574916Y-103020762D02*
X117479678Y-103068381D01*
X117289201Y-103068381D01*
X117193963Y-103020762D01*
X117146344Y-102973143D01*
X117098725Y-102877905D01*
X117098725Y-102592190D01*
X117146344Y-102496952D01*
X117193963Y-102449333D01*
X117289201Y-102401714D01*
X117479678Y-102401714D01*
X117574916Y-102449333D01*
X118146344Y-103068381D02*
X118051106Y-103020762D01*
X118003487Y-102973143D01*
X117955868Y-102877905D01*
X117955868Y-102592190D01*
X118003487Y-102496952D01*
X118051106Y-102449333D01*
X118146344Y-102401714D01*
X118289202Y-102401714D01*
X118384440Y-102449333D01*
X118432059Y-102496952D01*
X118479678Y-102592190D01*
X118479678Y-102877905D01*
X118432059Y-102973143D01*
X118384440Y-103020762D01*
X118289202Y-103068381D01*
X118146344Y-103068381D01*
X118908249Y-103068381D02*
X118908249Y-102401714D01*
X118908249Y-102496952D02*
X118955868Y-102449333D01*
X119051106Y-102401714D01*
X119193964Y-102401714D01*
X119289202Y-102449333D01*
X119336821Y-102544571D01*
X119336821Y-103068381D01*
X119336821Y-102544571D02*
X119384440Y-102449333D01*
X119479678Y-102401714D01*
X119622535Y-102401714D01*
X119717773Y-102449333D01*
X119765392Y-102544571D01*
X119765392Y-103068381D01*
X120241582Y-103068381D02*
X120241582Y-102401714D01*
X120241582Y-102496952D02*
X120289201Y-102449333D01*
X120384439Y-102401714D01*
X120527297Y-102401714D01*
X120622535Y-102449333D01*
X120670154Y-102544571D01*
X120670154Y-103068381D01*
X120670154Y-102544571D02*
X120717773Y-102449333D01*
X120813011Y-102401714D01*
X120955868Y-102401714D01*
X121051106Y-102449333D01*
X121098725Y-102544571D01*
X121098725Y-103068381D01*
X121955868Y-103020762D02*
X121860630Y-103068381D01*
X121670153Y-103068381D01*
X121574915Y-103020762D01*
X121527296Y-102925524D01*
X121527296Y-102544571D01*
X121574915Y-102449333D01*
X121670153Y-102401714D01*
X121860630Y-102401714D01*
X121955868Y-102449333D01*
X122003487Y-102544571D01*
X122003487Y-102639810D01*
X121527296Y-102735048D01*
X122432058Y-103068381D02*
X122432058Y-102401714D01*
X122432058Y-102592190D02*
X122479677Y-102496952D01*
X122527296Y-102449333D01*
X122622534Y-102401714D01*
X122717773Y-102401714D01*
X123479678Y-103020762D02*
X123384440Y-103068381D01*
X123193963Y-103068381D01*
X123098725Y-103020762D01*
X123051106Y-102973143D01*
X123003487Y-102877905D01*
X123003487Y-102592190D01*
X123051106Y-102496952D01*
X123098725Y-102449333D01*
X123193963Y-102401714D01*
X123384440Y-102401714D01*
X123479678Y-102449333D01*
X123908249Y-103068381D02*
X123908249Y-102401714D01*
X123908249Y-102068381D02*
X123860630Y-102116000D01*
X123908249Y-102163619D01*
X123955868Y-102116000D01*
X123908249Y-102068381D01*
X123908249Y-102163619D01*
X124813011Y-103068381D02*
X124813011Y-102544571D01*
X124765392Y-102449333D01*
X124670154Y-102401714D01*
X124479677Y-102401714D01*
X124384439Y-102449333D01*
X124813011Y-103020762D02*
X124717773Y-103068381D01*
X124479677Y-103068381D01*
X124384439Y-103020762D01*
X124336820Y-102925524D01*
X124336820Y-102830286D01*
X124384439Y-102735048D01*
X124479677Y-102687429D01*
X124717773Y-102687429D01*
X124813011Y-102639810D01*
X125432058Y-103068381D02*
X125336820Y-103020762D01*
X125289201Y-102925524D01*
X125289201Y-102068381D01*
X125574916Y-103163619D02*
X126336821Y-103163619D01*
X127146345Y-102973143D02*
X127098726Y-103020762D01*
X126955869Y-103068381D01*
X126860631Y-103068381D01*
X126717773Y-103020762D01*
X126622535Y-102925524D01*
X126574916Y-102830286D01*
X126527297Y-102639810D01*
X126527297Y-102496952D01*
X126574916Y-102306476D01*
X126622535Y-102211238D01*
X126717773Y-102116000D01*
X126860631Y-102068381D01*
X126955869Y-102068381D01*
X127098726Y-102116000D01*
X127146345Y-102163619D01*
X127717773Y-103068381D02*
X127622535Y-103020762D01*
X127574916Y-102973143D01*
X127527297Y-102877905D01*
X127527297Y-102592190D01*
X127574916Y-102496952D01*
X127622535Y-102449333D01*
X127717773Y-102401714D01*
X127860631Y-102401714D01*
X127955869Y-102449333D01*
X128003488Y-102496952D01*
X128051107Y-102592190D01*
X128051107Y-102877905D01*
X128003488Y-102973143D01*
X127955869Y-103020762D01*
X127860631Y-103068381D01*
X127717773Y-103068381D01*
X128479678Y-102401714D02*
X128479678Y-103401714D01*
X128479678Y-102449333D02*
X128574916Y-102401714D01*
X128765393Y-102401714D01*
X128860631Y-102449333D01*
X128908250Y-102496952D01*
X128955869Y-102592190D01*
X128955869Y-102877905D01*
X128908250Y-102973143D01*
X128860631Y-103020762D01*
X128765393Y-103068381D01*
X128574916Y-103068381D01*
X128479678Y-103020762D01*
X129384440Y-102401714D02*
X129384440Y-103401714D01*
X129384440Y-102449333D02*
X129479678Y-102401714D01*
X129670155Y-102401714D01*
X129765393Y-102449333D01*
X129813012Y-102496952D01*
X129860631Y-102592190D01*
X129860631Y-102877905D01*
X129813012Y-102973143D01*
X129765393Y-103020762D01*
X129670155Y-103068381D01*
X129479678Y-103068381D01*
X129384440Y-103020762D01*
X130670155Y-103020762D02*
X130574917Y-103068381D01*
X130384440Y-103068381D01*
X130289202Y-103020762D01*
X130241583Y-102925524D01*
X130241583Y-102544571D01*
X130289202Y-102449333D01*
X130384440Y-102401714D01*
X130574917Y-102401714D01*
X130670155Y-102449333D01*
X130717774Y-102544571D01*
X130717774Y-102639810D01*
X130241583Y-102735048D01*
X131146345Y-103068381D02*
X131146345Y-102401714D01*
X131146345Y-102592190D02*
X131193964Y-102496952D01*
X131241583Y-102449333D01*
X131336821Y-102401714D01*
X131432060Y-102401714D01*
X131622536Y-102068381D02*
X132193965Y-102068381D01*
X131908250Y-103068381D02*
X131908250Y-102068381D01*
X132670155Y-103068381D02*
X132574917Y-103020762D01*
X132527298Y-102973143D01*
X132479679Y-102877905D01*
X132479679Y-102592190D01*
X132527298Y-102496952D01*
X132574917Y-102449333D01*
X132670155Y-102401714D01*
X132813013Y-102401714D01*
X132908251Y-102449333D01*
X132955870Y-102496952D01*
X133003489Y-102592190D01*
X133003489Y-102877905D01*
X132955870Y-102973143D01*
X132908251Y-103020762D01*
X132813013Y-103068381D01*
X132670155Y-103068381D01*
X133432060Y-102401714D02*
X133432060Y-103401714D01*
X133432060Y-102449333D02*
X133527298Y-102401714D01*
X133717775Y-102401714D01*
X133813013Y-102449333D01*
X133860632Y-102496952D01*
X133908251Y-102592190D01*
X133908251Y-102877905D01*
X133860632Y-102973143D01*
X133813013Y-103020762D01*
X133717775Y-103068381D01*
X133527298Y-103068381D01*
X133432060Y-103020762D01*
X134098727Y-103163619D02*
X134860632Y-103163619D01*
X135051108Y-103020762D02*
X135193965Y-103068381D01*
X135432061Y-103068381D01*
X135527299Y-103020762D01*
X135574918Y-102973143D01*
X135622537Y-102877905D01*
X135622537Y-102782667D01*
X135574918Y-102687429D01*
X135527299Y-102639810D01*
X135432061Y-102592190D01*
X135241584Y-102544571D01*
X135146346Y-102496952D01*
X135098727Y-102449333D01*
X135051108Y-102354095D01*
X135051108Y-102258857D01*
X135098727Y-102163619D01*
X135146346Y-102116000D01*
X135241584Y-102068381D01*
X135479680Y-102068381D01*
X135622537Y-102116000D01*
X136051108Y-103068381D02*
X136051108Y-102401714D01*
X136051108Y-102496952D02*
X136098727Y-102449333D01*
X136193965Y-102401714D01*
X136336823Y-102401714D01*
X136432061Y-102449333D01*
X136479680Y-102544571D01*
X136479680Y-103068381D01*
X136479680Y-102544571D02*
X136527299Y-102449333D01*
X136622537Y-102401714D01*
X136765394Y-102401714D01*
X136860632Y-102449333D01*
X136908251Y-102544571D01*
X136908251Y-103068381D01*
X137813013Y-103068381D02*
X137813013Y-102544571D01*
X137765394Y-102449333D01*
X137670156Y-102401714D01*
X137479679Y-102401714D01*
X137384441Y-102449333D01*
X137813013Y-103020762D02*
X137717775Y-103068381D01*
X137479679Y-103068381D01*
X137384441Y-103020762D01*
X137336822Y-102925524D01*
X137336822Y-102830286D01*
X137384441Y-102735048D01*
X137479679Y-102687429D01*
X137717775Y-102687429D01*
X137813013Y-102639810D01*
X138432060Y-103068381D02*
X138336822Y-103020762D01*
X138289203Y-102925524D01*
X138289203Y-102068381D01*
X138955870Y-103068381D02*
X138860632Y-103020762D01*
X138813013Y-102925524D01*
X138813013Y-102068381D01*
X36451190Y-96553571D02*
X36117856Y-96553571D01*
X36117856Y-97077381D02*
X36117856Y-96077381D01*
X36594047Y-96077381D01*
X36974999Y-97077381D02*
X36974999Y-96410714D01*
X36974999Y-96077381D02*
X36927380Y-96125000D01*
X36974999Y-96172619D01*
X37022618Y-96125000D01*
X36974999Y-96077381D01*
X36974999Y-96172619D01*
X37879761Y-97077381D02*
X37879761Y-96077381D01*
X37879761Y-97029762D02*
X37784523Y-97077381D01*
X37594046Y-97077381D01*
X37498808Y-97029762D01*
X37451189Y-96982143D01*
X37403570Y-96886905D01*
X37403570Y-96601190D01*
X37451189Y-96505952D01*
X37498808Y-96458333D01*
X37594046Y-96410714D01*
X37784523Y-96410714D01*
X37879761Y-96458333D01*
X38784523Y-96410714D02*
X38784523Y-97077381D01*
X38355951Y-96410714D02*
X38355951Y-96934524D01*
X38403570Y-97029762D01*
X38498808Y-97077381D01*
X38641666Y-97077381D01*
X38736904Y-97029762D01*
X38784523Y-96982143D01*
X39689285Y-97029762D02*
X39594047Y-97077381D01*
X39403570Y-97077381D01*
X39308332Y-97029762D01*
X39260713Y-96982143D01*
X39213094Y-96886905D01*
X39213094Y-96601190D01*
X39260713Y-96505952D01*
X39308332Y-96458333D01*
X39403570Y-96410714D01*
X39594047Y-96410714D01*
X39689285Y-96458333D01*
X40117856Y-97077381D02*
X40117856Y-96410714D01*
X40117856Y-96077381D02*
X40070237Y-96125000D01*
X40117856Y-96172619D01*
X40165475Y-96125000D01*
X40117856Y-96077381D01*
X40117856Y-96172619D01*
X41022618Y-97077381D02*
X41022618Y-96553571D01*
X40974999Y-96458333D01*
X40879761Y-96410714D01*
X40689284Y-96410714D01*
X40594046Y-96458333D01*
X41022618Y-97029762D02*
X40927380Y-97077381D01*
X40689284Y-97077381D01*
X40594046Y-97029762D01*
X40546427Y-96934524D01*
X40546427Y-96839286D01*
X40594046Y-96744048D01*
X40689284Y-96696429D01*
X40927380Y-96696429D01*
X41022618Y-96648810D01*
X41641665Y-97077381D02*
X41546427Y-97029762D01*
X41498808Y-96934524D01*
X41498808Y-96077381D01*
X41784523Y-97172619D02*
X42546428Y-97172619D01*
X43308333Y-97077381D02*
X42736904Y-97077381D01*
X43022618Y-97077381D02*
X43022618Y-96077381D01*
X42927380Y-96220238D01*
X42832142Y-96315476D01*
X42736904Y-96363095D01*
X43736904Y-97077381D02*
X43736904Y-96410714D01*
X43736904Y-96505952D02*
X43784523Y-96458333D01*
X43879761Y-96410714D01*
X44022619Y-96410714D01*
X44117857Y-96458333D01*
X44165476Y-96553571D01*
X44165476Y-97077381D01*
X44165476Y-96553571D02*
X44213095Y-96458333D01*
X44308333Y-96410714D01*
X44451190Y-96410714D01*
X44546428Y-96458333D01*
X44594047Y-96553571D01*
X44594047Y-97077381D01*
X45070237Y-97077381D02*
X45070237Y-96410714D01*
X45070237Y-96505952D02*
X45117856Y-96458333D01*
X45213094Y-96410714D01*
X45355952Y-96410714D01*
X45451190Y-96458333D01*
X45498809Y-96553571D01*
X45498809Y-97077381D01*
X45498809Y-96553571D02*
X45546428Y-96458333D01*
X45641666Y-96410714D01*
X45784523Y-96410714D01*
X45879761Y-96458333D01*
X45927380Y-96553571D01*
X45927380Y-97077381D01*
X46165475Y-97172619D02*
X46927380Y-97172619D01*
X47165475Y-97077381D02*
X47165475Y-96077381D01*
X47403570Y-96077381D01*
X47546428Y-96125000D01*
X47641666Y-96220238D01*
X47689285Y-96315476D01*
X47736904Y-96505952D01*
X47736904Y-96648810D01*
X47689285Y-96839286D01*
X47641666Y-96934524D01*
X47546428Y-97029762D01*
X47403570Y-97077381D01*
X47165475Y-97077381D01*
X48165475Y-97077381D02*
X48165475Y-96410714D01*
X48165475Y-96077381D02*
X48117856Y-96125000D01*
X48165475Y-96172619D01*
X48213094Y-96125000D01*
X48165475Y-96077381D01*
X48165475Y-96172619D01*
X49070237Y-97077381D02*
X49070237Y-96553571D01*
X49022618Y-96458333D01*
X48927380Y-96410714D01*
X48736903Y-96410714D01*
X48641665Y-96458333D01*
X49070237Y-97029762D02*
X48974999Y-97077381D01*
X48736903Y-97077381D01*
X48641665Y-97029762D01*
X48594046Y-96934524D01*
X48594046Y-96839286D01*
X48641665Y-96744048D01*
X48736903Y-96696429D01*
X48974999Y-96696429D01*
X49070237Y-96648810D01*
X49308332Y-97172619D02*
X50070237Y-97172619D01*
X50260713Y-96172619D02*
X50308332Y-96125000D01*
X50403570Y-96077381D01*
X50641666Y-96077381D01*
X50736904Y-96125000D01*
X50784523Y-96172619D01*
X50832142Y-96267857D01*
X50832142Y-96363095D01*
X50784523Y-96505952D01*
X50213094Y-97077381D01*
X50832142Y-97077381D01*
X51260713Y-96982143D02*
X51308332Y-97029762D01*
X51260713Y-97077381D01*
X51213094Y-97029762D01*
X51260713Y-96982143D01*
X51260713Y-97077381D01*
X52213094Y-96077381D02*
X51736903Y-96077381D01*
X51689284Y-96553571D01*
X51736903Y-96505952D01*
X51832141Y-96458333D01*
X52070237Y-96458333D01*
X52165475Y-96505952D01*
X52213094Y-96553571D01*
X52260713Y-96648810D01*
X52260713Y-96886905D01*
X52213094Y-96982143D01*
X52165475Y-97029762D01*
X52070237Y-97077381D01*
X51832141Y-97077381D01*
X51736903Y-97029762D01*
X51689284Y-96982143D01*
X53117856Y-96410714D02*
X53117856Y-97077381D01*
X52879760Y-96029762D02*
X52641665Y-96744048D01*
X53260713Y-96744048D01*
X53641665Y-97077381D02*
X53641665Y-96410714D01*
X53641665Y-96505952D02*
X53689284Y-96458333D01*
X53784522Y-96410714D01*
X53927380Y-96410714D01*
X54022618Y-96458333D01*
X54070237Y-96553571D01*
X54070237Y-97077381D01*
X54070237Y-96553571D02*
X54117856Y-96458333D01*
X54213094Y-96410714D01*
X54355951Y-96410714D01*
X54451189Y-96458333D01*
X54498808Y-96553571D01*
X54498808Y-97077381D01*
X54974998Y-97077381D02*
X54974998Y-96410714D01*
X54974998Y-96505952D02*
X55022617Y-96458333D01*
X55117855Y-96410714D01*
X55260713Y-96410714D01*
X55355951Y-96458333D01*
X55403570Y-96553571D01*
X55403570Y-97077381D01*
X55403570Y-96553571D02*
X55451189Y-96458333D01*
X55546427Y-96410714D01*
X55689284Y-96410714D01*
X55784522Y-96458333D01*
X55832141Y-96553571D01*
X55832141Y-97077381D01*
X56070236Y-97172619D02*
X56832141Y-97172619D01*
X57260712Y-96077381D02*
X57451189Y-96077381D01*
X57546427Y-96125000D01*
X57641665Y-96220238D01*
X57689284Y-96410714D01*
X57689284Y-96744048D01*
X57641665Y-96934524D01*
X57546427Y-97029762D01*
X57451189Y-97077381D01*
X57260712Y-97077381D01*
X57165474Y-97029762D01*
X57070236Y-96934524D01*
X57022617Y-96744048D01*
X57022617Y-96410714D01*
X57070236Y-96220238D01*
X57165474Y-96125000D01*
X57260712Y-96077381D01*
X58546427Y-96410714D02*
X58546427Y-97077381D01*
X58117855Y-96410714D02*
X58117855Y-96934524D01*
X58165474Y-97029762D01*
X58260712Y-97077381D01*
X58403570Y-97077381D01*
X58498808Y-97029762D01*
X58546427Y-96982143D01*
X58879760Y-96410714D02*
X59260712Y-96410714D01*
X59022617Y-96077381D02*
X59022617Y-96934524D01*
X59070236Y-97029762D01*
X59165474Y-97077381D01*
X59260712Y-97077381D01*
X59974999Y-97029762D02*
X59879761Y-97077381D01*
X59689284Y-97077381D01*
X59594046Y-97029762D01*
X59546427Y-96934524D01*
X59546427Y-96553571D01*
X59594046Y-96458333D01*
X59689284Y-96410714D01*
X59879761Y-96410714D01*
X59974999Y-96458333D01*
X60022618Y-96553571D01*
X60022618Y-96648810D01*
X59546427Y-96744048D01*
X60451189Y-97077381D02*
X60451189Y-96410714D01*
X60451189Y-96601190D02*
X60498808Y-96505952D01*
X60546427Y-96458333D01*
X60641665Y-96410714D01*
X60736904Y-96410714D01*
X60832142Y-97172619D02*
X61594047Y-97172619D01*
X62403571Y-96982143D02*
X62355952Y-97029762D01*
X62213095Y-97077381D01*
X62117857Y-97077381D01*
X61974999Y-97029762D01*
X61879761Y-96934524D01*
X61832142Y-96839286D01*
X61784523Y-96648810D01*
X61784523Y-96505952D01*
X61832142Y-96315476D01*
X61879761Y-96220238D01*
X61974999Y-96125000D01*
X62117857Y-96077381D01*
X62213095Y-96077381D01*
X62355952Y-96125000D01*
X62403571Y-96172619D01*
X62974999Y-97077381D02*
X62879761Y-97029762D01*
X62832142Y-96982143D01*
X62784523Y-96886905D01*
X62784523Y-96601190D01*
X62832142Y-96505952D01*
X62879761Y-96458333D01*
X62974999Y-96410714D01*
X63117857Y-96410714D01*
X63213095Y-96458333D01*
X63260714Y-96505952D01*
X63308333Y-96601190D01*
X63308333Y-96886905D01*
X63260714Y-96982143D01*
X63213095Y-97029762D01*
X63117857Y-97077381D01*
X62974999Y-97077381D01*
X63736904Y-96410714D02*
X63736904Y-97410714D01*
X63736904Y-96458333D02*
X63832142Y-96410714D01*
X64022619Y-96410714D01*
X64117857Y-96458333D01*
X64165476Y-96505952D01*
X64213095Y-96601190D01*
X64213095Y-96886905D01*
X64165476Y-96982143D01*
X64117857Y-97029762D01*
X64022619Y-97077381D01*
X63832142Y-97077381D01*
X63736904Y-97029762D01*
X64641666Y-96410714D02*
X64641666Y-97410714D01*
X64641666Y-96458333D02*
X64736904Y-96410714D01*
X64927381Y-96410714D01*
X65022619Y-96458333D01*
X65070238Y-96505952D01*
X65117857Y-96601190D01*
X65117857Y-96886905D01*
X65070238Y-96982143D01*
X65022619Y-97029762D01*
X64927381Y-97077381D01*
X64736904Y-97077381D01*
X64641666Y-97029762D01*
X65927381Y-97029762D02*
X65832143Y-97077381D01*
X65641666Y-97077381D01*
X65546428Y-97029762D01*
X65498809Y-96934524D01*
X65498809Y-96553571D01*
X65546428Y-96458333D01*
X65641666Y-96410714D01*
X65832143Y-96410714D01*
X65927381Y-96458333D01*
X65975000Y-96553571D01*
X65975000Y-96648810D01*
X65498809Y-96744048D01*
X66403571Y-97077381D02*
X66403571Y-96410714D01*
X66403571Y-96601190D02*
X66451190Y-96505952D01*
X66498809Y-96458333D01*
X66594047Y-96410714D01*
X66689286Y-96410714D01*
X67355953Y-96553571D02*
X67498810Y-96601190D01*
X67546429Y-96648810D01*
X67594048Y-96744048D01*
X67594048Y-96886905D01*
X67546429Y-96982143D01*
X67498810Y-97029762D01*
X67403572Y-97077381D01*
X67022619Y-97077381D01*
X67022619Y-96077381D01*
X67355953Y-96077381D01*
X67451191Y-96125000D01*
X67498810Y-96172619D01*
X67546429Y-96267857D01*
X67546429Y-96363095D01*
X67498810Y-96458333D01*
X67451191Y-96505952D01*
X67355953Y-96553571D01*
X67022619Y-96553571D01*
X68165476Y-97077381D02*
X68070238Y-97029762D01*
X68022619Y-96982143D01*
X67975000Y-96886905D01*
X67975000Y-96601190D01*
X68022619Y-96505952D01*
X68070238Y-96458333D01*
X68165476Y-96410714D01*
X68308334Y-96410714D01*
X68403572Y-96458333D01*
X68451191Y-96505952D01*
X68498810Y-96601190D01*
X68498810Y-96886905D01*
X68451191Y-96982143D01*
X68403572Y-97029762D01*
X68308334Y-97077381D01*
X68165476Y-97077381D01*
X68784524Y-96410714D02*
X69165476Y-96410714D01*
X68927381Y-96077381D02*
X68927381Y-96934524D01*
X68975000Y-97029762D01*
X69070238Y-97077381D01*
X69165476Y-97077381D01*
X69355953Y-96410714D02*
X69736905Y-96410714D01*
X69498810Y-96077381D02*
X69498810Y-96934524D01*
X69546429Y-97029762D01*
X69641667Y-97077381D01*
X69736905Y-97077381D01*
X70213096Y-97077381D02*
X70117858Y-97029762D01*
X70070239Y-96982143D01*
X70022620Y-96886905D01*
X70022620Y-96601190D01*
X70070239Y-96505952D01*
X70117858Y-96458333D01*
X70213096Y-96410714D01*
X70355954Y-96410714D01*
X70451192Y-96458333D01*
X70498811Y-96505952D01*
X70546430Y-96601190D01*
X70546430Y-96886905D01*
X70498811Y-96982143D01*
X70451192Y-97029762D01*
X70355954Y-97077381D01*
X70213096Y-97077381D01*
X70975001Y-97077381D02*
X70975001Y-96410714D01*
X70975001Y-96505952D02*
X71022620Y-96458333D01*
X71117858Y-96410714D01*
X71260716Y-96410714D01*
X71355954Y-96458333D01*
X71403573Y-96553571D01*
X71403573Y-97077381D01*
X71403573Y-96553571D02*
X71451192Y-96458333D01*
X71546430Y-96410714D01*
X71689287Y-96410714D01*
X71784525Y-96458333D01*
X71832144Y-96553571D01*
X71832144Y-97077381D01*
X119001190Y-96553571D02*
X118667856Y-96553571D01*
X118667856Y-97077381D02*
X118667856Y-96077381D01*
X119144047Y-96077381D01*
X119524999Y-97077381D02*
X119524999Y-96410714D01*
X119524999Y-96077381D02*
X119477380Y-96125000D01*
X119524999Y-96172619D01*
X119572618Y-96125000D01*
X119524999Y-96077381D01*
X119524999Y-96172619D01*
X120429761Y-97077381D02*
X120429761Y-96077381D01*
X120429761Y-97029762D02*
X120334523Y-97077381D01*
X120144046Y-97077381D01*
X120048808Y-97029762D01*
X120001189Y-96982143D01*
X119953570Y-96886905D01*
X119953570Y-96601190D01*
X120001189Y-96505952D01*
X120048808Y-96458333D01*
X120144046Y-96410714D01*
X120334523Y-96410714D01*
X120429761Y-96458333D01*
X121334523Y-96410714D02*
X121334523Y-97077381D01*
X120905951Y-96410714D02*
X120905951Y-96934524D01*
X120953570Y-97029762D01*
X121048808Y-97077381D01*
X121191666Y-97077381D01*
X121286904Y-97029762D01*
X121334523Y-96982143D01*
X122239285Y-97029762D02*
X122144047Y-97077381D01*
X121953570Y-97077381D01*
X121858332Y-97029762D01*
X121810713Y-96982143D01*
X121763094Y-96886905D01*
X121763094Y-96601190D01*
X121810713Y-96505952D01*
X121858332Y-96458333D01*
X121953570Y-96410714D01*
X122144047Y-96410714D01*
X122239285Y-96458333D01*
X122667856Y-97077381D02*
X122667856Y-96410714D01*
X122667856Y-96077381D02*
X122620237Y-96125000D01*
X122667856Y-96172619D01*
X122715475Y-96125000D01*
X122667856Y-96077381D01*
X122667856Y-96172619D01*
X123572618Y-97077381D02*
X123572618Y-96553571D01*
X123524999Y-96458333D01*
X123429761Y-96410714D01*
X123239284Y-96410714D01*
X123144046Y-96458333D01*
X123572618Y-97029762D02*
X123477380Y-97077381D01*
X123239284Y-97077381D01*
X123144046Y-97029762D01*
X123096427Y-96934524D01*
X123096427Y-96839286D01*
X123144046Y-96744048D01*
X123239284Y-96696429D01*
X123477380Y-96696429D01*
X123572618Y-96648810D01*
X124191665Y-97077381D02*
X124096427Y-97029762D01*
X124048808Y-96934524D01*
X124048808Y-96077381D01*
X124334523Y-97172619D02*
X125096428Y-97172619D01*
X125858333Y-97077381D02*
X125286904Y-97077381D01*
X125572618Y-97077381D02*
X125572618Y-96077381D01*
X125477380Y-96220238D01*
X125382142Y-96315476D01*
X125286904Y-96363095D01*
X126286904Y-97077381D02*
X126286904Y-96410714D01*
X126286904Y-96505952D02*
X126334523Y-96458333D01*
X126429761Y-96410714D01*
X126572619Y-96410714D01*
X126667857Y-96458333D01*
X126715476Y-96553571D01*
X126715476Y-97077381D01*
X126715476Y-96553571D02*
X126763095Y-96458333D01*
X126858333Y-96410714D01*
X127001190Y-96410714D01*
X127096428Y-96458333D01*
X127144047Y-96553571D01*
X127144047Y-97077381D01*
X127620237Y-97077381D02*
X127620237Y-96410714D01*
X127620237Y-96505952D02*
X127667856Y-96458333D01*
X127763094Y-96410714D01*
X127905952Y-96410714D01*
X128001190Y-96458333D01*
X128048809Y-96553571D01*
X128048809Y-97077381D01*
X128048809Y-96553571D02*
X128096428Y-96458333D01*
X128191666Y-96410714D01*
X128334523Y-96410714D01*
X128429761Y-96458333D01*
X128477380Y-96553571D01*
X128477380Y-97077381D01*
X128715475Y-97172619D02*
X129477380Y-97172619D01*
X129715475Y-97077381D02*
X129715475Y-96077381D01*
X129953570Y-96077381D01*
X130096428Y-96125000D01*
X130191666Y-96220238D01*
X130239285Y-96315476D01*
X130286904Y-96505952D01*
X130286904Y-96648810D01*
X130239285Y-96839286D01*
X130191666Y-96934524D01*
X130096428Y-97029762D01*
X129953570Y-97077381D01*
X129715475Y-97077381D01*
X130715475Y-97077381D02*
X130715475Y-96410714D01*
X130715475Y-96077381D02*
X130667856Y-96125000D01*
X130715475Y-96172619D01*
X130763094Y-96125000D01*
X130715475Y-96077381D01*
X130715475Y-96172619D01*
X131620237Y-97077381D02*
X131620237Y-96553571D01*
X131572618Y-96458333D01*
X131477380Y-96410714D01*
X131286903Y-96410714D01*
X131191665Y-96458333D01*
X131620237Y-97029762D02*
X131524999Y-97077381D01*
X131286903Y-97077381D01*
X131191665Y-97029762D01*
X131144046Y-96934524D01*
X131144046Y-96839286D01*
X131191665Y-96744048D01*
X131286903Y-96696429D01*
X131524999Y-96696429D01*
X131620237Y-96648810D01*
X131858332Y-97172619D02*
X132620237Y-97172619D01*
X132810713Y-96172619D02*
X132858332Y-96125000D01*
X132953570Y-96077381D01*
X133191666Y-96077381D01*
X133286904Y-96125000D01*
X133334523Y-96172619D01*
X133382142Y-96267857D01*
X133382142Y-96363095D01*
X133334523Y-96505952D01*
X132763094Y-97077381D01*
X133382142Y-97077381D01*
X133810713Y-96982143D02*
X133858332Y-97029762D01*
X133810713Y-97077381D01*
X133763094Y-97029762D01*
X133810713Y-96982143D01*
X133810713Y-97077381D01*
X134763094Y-96077381D02*
X134286903Y-96077381D01*
X134239284Y-96553571D01*
X134286903Y-96505952D01*
X134382141Y-96458333D01*
X134620237Y-96458333D01*
X134715475Y-96505952D01*
X134763094Y-96553571D01*
X134810713Y-96648810D01*
X134810713Y-96886905D01*
X134763094Y-96982143D01*
X134715475Y-97029762D01*
X134620237Y-97077381D01*
X134382141Y-97077381D01*
X134286903Y-97029762D01*
X134239284Y-96982143D01*
X135667856Y-96410714D02*
X135667856Y-97077381D01*
X135429760Y-96029762D02*
X135191665Y-96744048D01*
X135810713Y-96744048D01*
X136191665Y-97077381D02*
X136191665Y-96410714D01*
X136191665Y-96505952D02*
X136239284Y-96458333D01*
X136334522Y-96410714D01*
X136477380Y-96410714D01*
X136572618Y-96458333D01*
X136620237Y-96553571D01*
X136620237Y-97077381D01*
X136620237Y-96553571D02*
X136667856Y-96458333D01*
X136763094Y-96410714D01*
X136905951Y-96410714D01*
X137001189Y-96458333D01*
X137048808Y-96553571D01*
X137048808Y-97077381D01*
X137524998Y-97077381D02*
X137524998Y-96410714D01*
X137524998Y-96505952D02*
X137572617Y-96458333D01*
X137667855Y-96410714D01*
X137810713Y-96410714D01*
X137905951Y-96458333D01*
X137953570Y-96553571D01*
X137953570Y-97077381D01*
X137953570Y-96553571D02*
X138001189Y-96458333D01*
X138096427Y-96410714D01*
X138239284Y-96410714D01*
X138334522Y-96458333D01*
X138382141Y-96553571D01*
X138382141Y-97077381D01*
X138620236Y-97172619D02*
X139382141Y-97172619D01*
X139810712Y-96077381D02*
X140001189Y-96077381D01*
X140096427Y-96125000D01*
X140191665Y-96220238D01*
X140239284Y-96410714D01*
X140239284Y-96744048D01*
X140191665Y-96934524D01*
X140096427Y-97029762D01*
X140001189Y-97077381D01*
X139810712Y-97077381D01*
X139715474Y-97029762D01*
X139620236Y-96934524D01*
X139572617Y-96744048D01*
X139572617Y-96410714D01*
X139620236Y-96220238D01*
X139715474Y-96125000D01*
X139810712Y-96077381D01*
X141096427Y-96410714D02*
X141096427Y-97077381D01*
X140667855Y-96410714D02*
X140667855Y-96934524D01*
X140715474Y-97029762D01*
X140810712Y-97077381D01*
X140953570Y-97077381D01*
X141048808Y-97029762D01*
X141096427Y-96982143D01*
X141429760Y-96410714D02*
X141810712Y-96410714D01*
X141572617Y-96077381D02*
X141572617Y-96934524D01*
X141620236Y-97029762D01*
X141715474Y-97077381D01*
X141810712Y-97077381D01*
X142524999Y-97029762D02*
X142429761Y-97077381D01*
X142239284Y-97077381D01*
X142144046Y-97029762D01*
X142096427Y-96934524D01*
X142096427Y-96553571D01*
X142144046Y-96458333D01*
X142239284Y-96410714D01*
X142429761Y-96410714D01*
X142524999Y-96458333D01*
X142572618Y-96553571D01*
X142572618Y-96648810D01*
X142096427Y-96744048D01*
X143001189Y-97077381D02*
X143001189Y-96410714D01*
X143001189Y-96601190D02*
X143048808Y-96505952D01*
X143096427Y-96458333D01*
X143191665Y-96410714D01*
X143286904Y-96410714D01*
X143382142Y-97172619D02*
X144144047Y-97172619D01*
X144953571Y-96982143D02*
X144905952Y-97029762D01*
X144763095Y-97077381D01*
X144667857Y-97077381D01*
X144524999Y-97029762D01*
X144429761Y-96934524D01*
X144382142Y-96839286D01*
X144334523Y-96648810D01*
X144334523Y-96505952D01*
X144382142Y-96315476D01*
X144429761Y-96220238D01*
X144524999Y-96125000D01*
X144667857Y-96077381D01*
X144763095Y-96077381D01*
X144905952Y-96125000D01*
X144953571Y-96172619D01*
X145524999Y-97077381D02*
X145429761Y-97029762D01*
X145382142Y-96982143D01*
X145334523Y-96886905D01*
X145334523Y-96601190D01*
X145382142Y-96505952D01*
X145429761Y-96458333D01*
X145524999Y-96410714D01*
X145667857Y-96410714D01*
X145763095Y-96458333D01*
X145810714Y-96505952D01*
X145858333Y-96601190D01*
X145858333Y-96886905D01*
X145810714Y-96982143D01*
X145763095Y-97029762D01*
X145667857Y-97077381D01*
X145524999Y-97077381D01*
X146286904Y-96410714D02*
X146286904Y-97410714D01*
X146286904Y-96458333D02*
X146382142Y-96410714D01*
X146572619Y-96410714D01*
X146667857Y-96458333D01*
X146715476Y-96505952D01*
X146763095Y-96601190D01*
X146763095Y-96886905D01*
X146715476Y-96982143D01*
X146667857Y-97029762D01*
X146572619Y-97077381D01*
X146382142Y-97077381D01*
X146286904Y-97029762D01*
X147191666Y-96410714D02*
X147191666Y-97410714D01*
X147191666Y-96458333D02*
X147286904Y-96410714D01*
X147477381Y-96410714D01*
X147572619Y-96458333D01*
X147620238Y-96505952D01*
X147667857Y-96601190D01*
X147667857Y-96886905D01*
X147620238Y-96982143D01*
X147572619Y-97029762D01*
X147477381Y-97077381D01*
X147286904Y-97077381D01*
X147191666Y-97029762D01*
X148477381Y-97029762D02*
X148382143Y-97077381D01*
X148191666Y-97077381D01*
X148096428Y-97029762D01*
X148048809Y-96934524D01*
X148048809Y-96553571D01*
X148096428Y-96458333D01*
X148191666Y-96410714D01*
X148382143Y-96410714D01*
X148477381Y-96458333D01*
X148525000Y-96553571D01*
X148525000Y-96648810D01*
X148048809Y-96744048D01*
X148953571Y-97077381D02*
X148953571Y-96410714D01*
X148953571Y-96601190D02*
X149001190Y-96505952D01*
X149048809Y-96458333D01*
X149144047Y-96410714D01*
X149239286Y-96410714D01*
X149905953Y-96553571D02*
X150048810Y-96601190D01*
X150096429Y-96648810D01*
X150144048Y-96744048D01*
X150144048Y-96886905D01*
X150096429Y-96982143D01*
X150048810Y-97029762D01*
X149953572Y-97077381D01*
X149572619Y-97077381D01*
X149572619Y-96077381D01*
X149905953Y-96077381D01*
X150001191Y-96125000D01*
X150048810Y-96172619D01*
X150096429Y-96267857D01*
X150096429Y-96363095D01*
X150048810Y-96458333D01*
X150001191Y-96505952D01*
X149905953Y-96553571D01*
X149572619Y-96553571D01*
X150715476Y-97077381D02*
X150620238Y-97029762D01*
X150572619Y-96982143D01*
X150525000Y-96886905D01*
X150525000Y-96601190D01*
X150572619Y-96505952D01*
X150620238Y-96458333D01*
X150715476Y-96410714D01*
X150858334Y-96410714D01*
X150953572Y-96458333D01*
X151001191Y-96505952D01*
X151048810Y-96601190D01*
X151048810Y-96886905D01*
X151001191Y-96982143D01*
X150953572Y-97029762D01*
X150858334Y-97077381D01*
X150715476Y-97077381D01*
X151334524Y-96410714D02*
X151715476Y-96410714D01*
X151477381Y-96077381D02*
X151477381Y-96934524D01*
X151525000Y-97029762D01*
X151620238Y-97077381D01*
X151715476Y-97077381D01*
X151905953Y-96410714D02*
X152286905Y-96410714D01*
X152048810Y-96077381D02*
X152048810Y-96934524D01*
X152096429Y-97029762D01*
X152191667Y-97077381D01*
X152286905Y-97077381D01*
X152763096Y-97077381D02*
X152667858Y-97029762D01*
X152620239Y-96982143D01*
X152572620Y-96886905D01*
X152572620Y-96601190D01*
X152620239Y-96505952D01*
X152667858Y-96458333D01*
X152763096Y-96410714D01*
X152905954Y-96410714D01*
X153001192Y-96458333D01*
X153048811Y-96505952D01*
X153096430Y-96601190D01*
X153096430Y-96886905D01*
X153048811Y-96982143D01*
X153001192Y-97029762D01*
X152905954Y-97077381D01*
X152763096Y-97077381D01*
X153525001Y-97077381D02*
X153525001Y-96410714D01*
X153525001Y-96505952D02*
X153572620Y-96458333D01*
X153667858Y-96410714D01*
X153810716Y-96410714D01*
X153905954Y-96458333D01*
X153953573Y-96553571D01*
X153953573Y-97077381D01*
X153953573Y-96553571D02*
X154001192Y-96458333D01*
X154096430Y-96410714D01*
X154239287Y-96410714D01*
X154334525Y-96458333D01*
X154382144Y-96553571D01*
X154382144Y-97077381D01*
M02*
