G04 #@! TF.FileFunction,Copper,L1,Top,Signal*
%FSLAX46Y46*%
G04 Gerber Fmt 4.6, Leading zero omitted, Abs format (unit mm)*
G04 Created by KiCad (PCBNEW 4.0.2-stable) date Sunday, October 30, 2016 'PMt' 03:56:09 PM*
%MOMM*%
G01*
G04 APERTURE LIST*
%ADD10C,0.100000*%
%ADD11C,0.150000*%
%ADD12C,0.300000*%
%ADD13C,0.400000*%
%ADD14C,0.381000*%
%ADD15C,0.010000*%
%ADD16O,1.600000X1.600000*%
G04 APERTURE END LIST*
D10*
D11*
X177002200Y-166007200D02*
X177002200Y-198007200D01*
X285002200Y-198007200D01*
X285002200Y-166007200D01*
X177002200Y-166007200D01*
D10*
D11*
X10000000Y-10000000D02*
X10000000Y-200007200D01*
X287002200Y-200007200D01*
X287002200Y-10000000D01*
X10000000Y-10000000D01*
D10*
D11*
X12000000Y-12000000D02*
X12000000Y-198007200D01*
X285002200Y-198007200D01*
X285002200Y-12000000D01*
X12000000Y-12000000D01*
D10*
D11*
X60000000Y-12000000D02*
X60000000Y-10000000D01*
D10*
D11*
X110000000Y-12000000D02*
X110000000Y-10000000D01*
D10*
D11*
X160000000Y-12000000D02*
X160000000Y-10000000D01*
D10*
D11*
X210000000Y-12000000D02*
X210000000Y-10000000D01*
D10*
D11*
X260000000Y-12000000D02*
X260000000Y-10000000D01*
D10*
D11*
X35990476Y-11588095D02*
X35247619Y-11588095D01*
X35619048Y-11588095D02*
X35619048Y-10288095D01*
X35495238Y-10473810D01*
X35371429Y-10597619D01*
X35247619Y-10659524D01*
D10*
D11*
X85247619Y-10411905D02*
X85309524Y-10350000D01*
X85433333Y-10288095D01*
X85742857Y-10288095D01*
X85866667Y-10350000D01*
X85928571Y-10411905D01*
X85990476Y-10535714D01*
X85990476Y-10659524D01*
X85928571Y-10845238D01*
X85185714Y-11588095D01*
X85990476Y-11588095D01*
D10*
D11*
X135185714Y-10288095D02*
X135990476Y-10288095D01*
X135557143Y-10783333D01*
X135742857Y-10783333D01*
X135866667Y-10845238D01*
X135928571Y-10907143D01*
X135990476Y-11030952D01*
X135990476Y-11340476D01*
X135928571Y-11464286D01*
X135866667Y-11526190D01*
X135742857Y-11588095D01*
X135371429Y-11588095D01*
X135247619Y-11526190D01*
X135185714Y-11464286D01*
D10*
D11*
X185866667Y-10721429D02*
X185866667Y-11588095D01*
X185557143Y-10226190D02*
X185247619Y-11154762D01*
X186052381Y-11154762D01*
D10*
D11*
X235928571Y-10288095D02*
X235309524Y-10288095D01*
X235247619Y-10907143D01*
X235309524Y-10845238D01*
X235433333Y-10783333D01*
X235742857Y-10783333D01*
X235866667Y-10845238D01*
X235928571Y-10907143D01*
X235990476Y-11030952D01*
X235990476Y-11340476D01*
X235928571Y-11464286D01*
X235866667Y-11526190D01*
X235742857Y-11588095D01*
X235433333Y-11588095D01*
X235309524Y-11526190D01*
X235247619Y-11464286D01*
D10*
D11*
X285866667Y-10288095D02*
X285619048Y-10288095D01*
X285495238Y-10350000D01*
X285433333Y-10411905D01*
X285309524Y-10597619D01*
X285247619Y-10845238D01*
X285247619Y-11340476D01*
X285309524Y-11464286D01*
X285371429Y-11526190D01*
X285495238Y-11588095D01*
X285742857Y-11588095D01*
X285866667Y-11526190D01*
X285928571Y-11464286D01*
X285990476Y-11340476D01*
X285990476Y-11030952D01*
X285928571Y-10907143D01*
X285866667Y-10845238D01*
X285742857Y-10783333D01*
X285495238Y-10783333D01*
X285371429Y-10845238D01*
X285309524Y-10907143D01*
X285247619Y-11030952D01*
D10*
D11*
X60000000Y-198007200D02*
X60000000Y-200007200D01*
D10*
D11*
X110000000Y-198007200D02*
X110000000Y-200007200D01*
D10*
D11*
X160000000Y-198007200D02*
X160000000Y-200007200D01*
D10*
D11*
X210000000Y-198007200D02*
X210000000Y-200007200D01*
D10*
D11*
X260000000Y-198007200D02*
X260000000Y-200007200D01*
D10*
D11*
X35990476Y-199595295D02*
X35247619Y-199595295D01*
X35619048Y-199595295D02*
X35619048Y-198295295D01*
X35495238Y-198481010D01*
X35371429Y-198604819D01*
X35247619Y-198666724D01*
D10*
D11*
X85247619Y-198419105D02*
X85309524Y-198357200D01*
X85433333Y-198295295D01*
X85742857Y-198295295D01*
X85866667Y-198357200D01*
X85928571Y-198419105D01*
X85990476Y-198542914D01*
X85990476Y-198666724D01*
X85928571Y-198852438D01*
X85185714Y-199595295D01*
X85990476Y-199595295D01*
D10*
D11*
X135185714Y-198295295D02*
X135990476Y-198295295D01*
X135557143Y-198790533D01*
X135742857Y-198790533D01*
X135866667Y-198852438D01*
X135928571Y-198914343D01*
X135990476Y-199038152D01*
X135990476Y-199347676D01*
X135928571Y-199471486D01*
X135866667Y-199533390D01*
X135742857Y-199595295D01*
X135371429Y-199595295D01*
X135247619Y-199533390D01*
X135185714Y-199471486D01*
D10*
D11*
X185866667Y-198728629D02*
X185866667Y-199595295D01*
X185557143Y-198233390D02*
X185247619Y-199161962D01*
X186052381Y-199161962D01*
D10*
D11*
X235928571Y-198295295D02*
X235309524Y-198295295D01*
X235247619Y-198914343D01*
X235309524Y-198852438D01*
X235433333Y-198790533D01*
X235742857Y-198790533D01*
X235866667Y-198852438D01*
X235928571Y-198914343D01*
X235990476Y-199038152D01*
X235990476Y-199347676D01*
X235928571Y-199471486D01*
X235866667Y-199533390D01*
X235742857Y-199595295D01*
X235433333Y-199595295D01*
X235309524Y-199533390D01*
X235247619Y-199471486D01*
D10*
D11*
X285866667Y-198295295D02*
X285619048Y-198295295D01*
X285495238Y-198357200D01*
X285433333Y-198419105D01*
X285309524Y-198604819D01*
X285247619Y-198852438D01*
X285247619Y-199347676D01*
X285309524Y-199471486D01*
X285371429Y-199533390D01*
X285495238Y-199595295D01*
X285742857Y-199595295D01*
X285866667Y-199533390D01*
X285928571Y-199471486D01*
X285990476Y-199347676D01*
X285990476Y-199038152D01*
X285928571Y-198914343D01*
X285866667Y-198852438D01*
X285742857Y-198790533D01*
X285495238Y-198790533D01*
X285371429Y-198852438D01*
X285309524Y-198914343D01*
X285247619Y-199038152D01*
D10*
D11*
X10000000Y-60000000D02*
X12000000Y-60000000D01*
D10*
D11*
X10000000Y-110000000D02*
X12000000Y-110000000D01*
D10*
D11*
X10000000Y-160000000D02*
X12000000Y-160000000D01*
D10*
D11*
X10690476Y-35216667D02*
X11309524Y-35216667D01*
X10566667Y-35588095D02*
X11000000Y-34288095D01*
X11433333Y-35588095D01*
D10*
D11*
X11092857Y-84907143D02*
X11278571Y-84969048D01*
X11340476Y-85030952D01*
X11402381Y-85154762D01*
X11402381Y-85340476D01*
X11340476Y-85464286D01*
X11278571Y-85526190D01*
X11154762Y-85588095D01*
X10659524Y-85588095D01*
X10659524Y-84288095D01*
X11092857Y-84288095D01*
X11216667Y-84350000D01*
X11278571Y-84411905D01*
X11340476Y-84535714D01*
X11340476Y-84659524D01*
X11278571Y-84783333D01*
X11216667Y-84845238D01*
X11092857Y-84907143D01*
X10659524Y-84907143D01*
D10*
D11*
X11402381Y-135464286D02*
X11340476Y-135526190D01*
X11154762Y-135588095D01*
X11030952Y-135588095D01*
X10845238Y-135526190D01*
X10721429Y-135402381D01*
X10659524Y-135278571D01*
X10597619Y-135030952D01*
X10597619Y-134845238D01*
X10659524Y-134597619D01*
X10721429Y-134473810D01*
X10845238Y-134350000D01*
X11030952Y-134288095D01*
X11154762Y-134288095D01*
X11340476Y-134350000D01*
X11402381Y-134411905D01*
D10*
D11*
X10659524Y-185588095D02*
X10659524Y-184288095D01*
X10969048Y-184288095D01*
X11154762Y-184350000D01*
X11278571Y-184473810D01*
X11340476Y-184597619D01*
X11402381Y-184845238D01*
X11402381Y-185030952D01*
X11340476Y-185278571D01*
X11278571Y-185402381D01*
X11154762Y-185526190D01*
X10969048Y-185588095D01*
X10659524Y-185588095D01*
D10*
D11*
X287002200Y-60000000D02*
X285002200Y-60000000D01*
D10*
D11*
X287002200Y-110000000D02*
X285002200Y-110000000D01*
D10*
D11*
X287002200Y-160000000D02*
X285002200Y-160000000D01*
D10*
D11*
X285692676Y-35216667D02*
X286311724Y-35216667D01*
X285568867Y-35588095D02*
X286002200Y-34288095D01*
X286435533Y-35588095D01*
D10*
D11*
X286095057Y-84907143D02*
X286280771Y-84969048D01*
X286342676Y-85030952D01*
X286404581Y-85154762D01*
X286404581Y-85340476D01*
X286342676Y-85464286D01*
X286280771Y-85526190D01*
X286156962Y-85588095D01*
X285661724Y-85588095D01*
X285661724Y-84288095D01*
X286095057Y-84288095D01*
X286218867Y-84350000D01*
X286280771Y-84411905D01*
X286342676Y-84535714D01*
X286342676Y-84659524D01*
X286280771Y-84783333D01*
X286218867Y-84845238D01*
X286095057Y-84907143D01*
X285661724Y-84907143D01*
D10*
D11*
X286404581Y-135464286D02*
X286342676Y-135526190D01*
X286156962Y-135588095D01*
X286033152Y-135588095D01*
X285847438Y-135526190D01*
X285723629Y-135402381D01*
X285661724Y-135278571D01*
X285599819Y-135030952D01*
X285599819Y-134845238D01*
X285661724Y-134597619D01*
X285723629Y-134473810D01*
X285847438Y-134350000D01*
X286033152Y-134288095D01*
X286156962Y-134288095D01*
X286342676Y-134350000D01*
X286404581Y-134411905D01*
D10*
D11*
X285661724Y-185588095D02*
X285661724Y-184288095D01*
X285971248Y-184288095D01*
X286156962Y-184350000D01*
X286280771Y-184473810D01*
X286342676Y-184597619D01*
X286404581Y-184845238D01*
X286404581Y-185030952D01*
X286342676Y-185278571D01*
X286280771Y-185402381D01*
X286156962Y-185526190D01*
X285971248Y-185588095D01*
X285661724Y-185588095D01*
D10*
D11*
X200359343Y-193785771D02*
X200359343Y-192285771D01*
X200716486Y-192285771D01*
X200930771Y-192357200D01*
X201073629Y-192500057D01*
X201145057Y-192642914D01*
X201216486Y-192928629D01*
X201216486Y-193142914D01*
X201145057Y-193428629D01*
X201073629Y-193571486D01*
X200930771Y-193714343D01*
X200716486Y-193785771D01*
X200359343Y-193785771D01*
X202502200Y-193785771D02*
X202502200Y-193000057D01*
X202430771Y-192857200D01*
X202287914Y-192785771D01*
X202002200Y-192785771D01*
X201859343Y-192857200D01*
X202502200Y-193714343D02*
X202359343Y-193785771D01*
X202002200Y-193785771D01*
X201859343Y-193714343D01*
X201787914Y-193571486D01*
X201787914Y-193428629D01*
X201859343Y-193285771D01*
X202002200Y-193214343D01*
X202359343Y-193214343D01*
X202502200Y-193142914D01*
X203002200Y-192785771D02*
X203573629Y-192785771D01*
X203216486Y-192285771D02*
X203216486Y-193571486D01*
X203287914Y-193714343D01*
X203430772Y-193785771D01*
X203573629Y-193785771D01*
X204645057Y-193714343D02*
X204502200Y-193785771D01*
X204216486Y-193785771D01*
X204073629Y-193714343D01*
X204002200Y-193571486D01*
X204002200Y-193000057D01*
X204073629Y-192857200D01*
X204216486Y-192785771D01*
X204502200Y-192785771D01*
X204645057Y-192857200D01*
X204716486Y-193000057D01*
X204716486Y-193142914D01*
X204002200Y-193285771D01*
X205359343Y-193642914D02*
X205430771Y-193714343D01*
X205359343Y-193785771D01*
X205287914Y-193714343D01*
X205359343Y-193642914D01*
X205359343Y-193785771D01*
X205359343Y-192857200D02*
X205430771Y-192928629D01*
X205359343Y-193000057D01*
X205287914Y-192928629D01*
X205359343Y-192857200D01*
X205359343Y-193000057D01*
D10*
D11*
X177002200Y-194507200D02*
X285002200Y-194507200D01*
D10*
D11*
X178359343Y-196585771D02*
X178359343Y-195085771D01*
X179216486Y-196585771D02*
X178573629Y-195728629D01*
X179216486Y-195085771D02*
X178359343Y-195942914D01*
X179859343Y-196585771D02*
X179859343Y-195585771D01*
X179859343Y-195085771D02*
X179787914Y-195157200D01*
X179859343Y-195228629D01*
X179930771Y-195157200D01*
X179859343Y-195085771D01*
X179859343Y-195228629D01*
X181430772Y-196442914D02*
X181359343Y-196514343D01*
X181145057Y-196585771D01*
X181002200Y-196585771D01*
X180787915Y-196514343D01*
X180645057Y-196371486D01*
X180573629Y-196228629D01*
X180502200Y-195942914D01*
X180502200Y-195728629D01*
X180573629Y-195442914D01*
X180645057Y-195300057D01*
X180787915Y-195157200D01*
X181002200Y-195085771D01*
X181145057Y-195085771D01*
X181359343Y-195157200D01*
X181430772Y-195228629D01*
X182716486Y-196585771D02*
X182716486Y-195800057D01*
X182645057Y-195657200D01*
X182502200Y-195585771D01*
X182216486Y-195585771D01*
X182073629Y-195657200D01*
X182716486Y-196514343D02*
X182573629Y-196585771D01*
X182216486Y-196585771D01*
X182073629Y-196514343D01*
X182002200Y-196371486D01*
X182002200Y-196228629D01*
X182073629Y-196085771D01*
X182216486Y-196014343D01*
X182573629Y-196014343D01*
X182716486Y-195942914D01*
X184073629Y-196585771D02*
X184073629Y-195085771D01*
X184073629Y-196514343D02*
X183930772Y-196585771D01*
X183645058Y-196585771D01*
X183502200Y-196514343D01*
X183430772Y-196442914D01*
X183359343Y-196300057D01*
X183359343Y-195871486D01*
X183430772Y-195728629D01*
X183502200Y-195657200D01*
X183645058Y-195585771D01*
X183930772Y-195585771D01*
X184073629Y-195657200D01*
X185930772Y-195800057D02*
X186430772Y-195800057D01*
X186645058Y-196585771D02*
X185930772Y-196585771D01*
X185930772Y-195085771D01*
X186645058Y-195085771D01*
X187287915Y-196442914D02*
X187359343Y-196514343D01*
X187287915Y-196585771D01*
X187216486Y-196514343D01*
X187287915Y-196442914D01*
X187287915Y-196585771D01*
X188002201Y-196585771D02*
X188002201Y-195085771D01*
X188359344Y-195085771D01*
X188573629Y-195157200D01*
X188716487Y-195300057D01*
X188787915Y-195442914D01*
X188859344Y-195728629D01*
X188859344Y-195942914D01*
X188787915Y-196228629D01*
X188716487Y-196371486D01*
X188573629Y-196514343D01*
X188359344Y-196585771D01*
X188002201Y-196585771D01*
X189502201Y-196442914D02*
X189573629Y-196514343D01*
X189502201Y-196585771D01*
X189430772Y-196514343D01*
X189502201Y-196442914D01*
X189502201Y-196585771D01*
X190145058Y-196157200D02*
X190859344Y-196157200D01*
X190002201Y-196585771D02*
X190502201Y-195085771D01*
X191002201Y-196585771D01*
X191502201Y-196442914D02*
X191573629Y-196514343D01*
X191502201Y-196585771D01*
X191430772Y-196514343D01*
X191502201Y-196442914D01*
X191502201Y-196585771D01*
X194502201Y-196585771D02*
X194502201Y-195085771D01*
X194645058Y-196014343D02*
X195073629Y-196585771D01*
X195073629Y-195585771D02*
X194502201Y-196157200D01*
X195716487Y-196585771D02*
X195716487Y-195585771D01*
X195716487Y-195085771D02*
X195645058Y-195157200D01*
X195716487Y-195228629D01*
X195787915Y-195157200D01*
X195716487Y-195085771D01*
X195716487Y-195228629D01*
X197073630Y-196514343D02*
X196930773Y-196585771D01*
X196645059Y-196585771D01*
X196502201Y-196514343D01*
X196430773Y-196442914D01*
X196359344Y-196300057D01*
X196359344Y-195871486D01*
X196430773Y-195728629D01*
X196502201Y-195657200D01*
X196645059Y-195585771D01*
X196930773Y-195585771D01*
X197073630Y-195657200D01*
X198359344Y-196585771D02*
X198359344Y-195800057D01*
X198287915Y-195657200D01*
X198145058Y-195585771D01*
X197859344Y-195585771D01*
X197716487Y-195657200D01*
X198359344Y-196514343D02*
X198216487Y-196585771D01*
X197859344Y-196585771D01*
X197716487Y-196514343D01*
X197645058Y-196371486D01*
X197645058Y-196228629D01*
X197716487Y-196085771D01*
X197859344Y-196014343D01*
X198216487Y-196014343D01*
X198359344Y-195942914D01*
X199716487Y-196585771D02*
X199716487Y-195085771D01*
X199716487Y-196514343D02*
X199573630Y-196585771D01*
X199287916Y-196585771D01*
X199145058Y-196514343D01*
X199073630Y-196442914D01*
X199002201Y-196300057D01*
X199002201Y-195871486D01*
X199073630Y-195728629D01*
X199145058Y-195657200D01*
X199287916Y-195585771D01*
X199573630Y-195585771D01*
X199716487Y-195657200D01*
X202216487Y-195585771D02*
X202216487Y-196585771D01*
X201859344Y-195014343D02*
X201502201Y-196085771D01*
X202430773Y-196085771D01*
X203002201Y-196442914D02*
X203073629Y-196514343D01*
X203002201Y-196585771D01*
X202930772Y-196514343D01*
X203002201Y-196442914D01*
X203002201Y-196585771D01*
X204002201Y-195085771D02*
X204145058Y-195085771D01*
X204287915Y-195157200D01*
X204359344Y-195228629D01*
X204430773Y-195371486D01*
X204502201Y-195657200D01*
X204502201Y-196014343D01*
X204430773Y-196300057D01*
X204359344Y-196442914D01*
X204287915Y-196514343D01*
X204145058Y-196585771D01*
X204002201Y-196585771D01*
X203859344Y-196514343D01*
X203787915Y-196442914D01*
X203716487Y-196300057D01*
X203645058Y-196014343D01*
X203645058Y-195657200D01*
X203716487Y-195371486D01*
X203787915Y-195228629D01*
X203859344Y-195157200D01*
X204002201Y-195085771D01*
X205145058Y-196442914D02*
X205216486Y-196514343D01*
X205145058Y-196585771D01*
X205073629Y-196514343D01*
X205145058Y-196442914D01*
X205145058Y-196585771D01*
X205787915Y-195228629D02*
X205859344Y-195157200D01*
X206002201Y-195085771D01*
X206359344Y-195085771D01*
X206502201Y-195157200D01*
X206573630Y-195228629D01*
X206645058Y-195371486D01*
X206645058Y-195514343D01*
X206573630Y-195728629D01*
X205716487Y-196585771D01*
X206645058Y-196585771D01*
X207287915Y-196014343D02*
X208430772Y-196014343D01*
X209073629Y-196514343D02*
X209216486Y-196585771D01*
X209502201Y-196585771D01*
X209645058Y-196514343D01*
X209716486Y-196371486D01*
X209716486Y-196300057D01*
X209645058Y-196157200D01*
X209502201Y-196085771D01*
X209287915Y-196085771D01*
X209145058Y-196014343D01*
X209073629Y-195871486D01*
X209073629Y-195800057D01*
X209145058Y-195657200D01*
X209287915Y-195585771D01*
X209502201Y-195585771D01*
X209645058Y-195657200D01*
X210145058Y-195585771D02*
X210716487Y-195585771D01*
X210359344Y-195085771D02*
X210359344Y-196371486D01*
X210430772Y-196514343D01*
X210573630Y-196585771D01*
X210716487Y-196585771D01*
X211859344Y-196585771D02*
X211859344Y-195800057D01*
X211787915Y-195657200D01*
X211645058Y-195585771D01*
X211359344Y-195585771D01*
X211216487Y-195657200D01*
X211859344Y-196514343D02*
X211716487Y-196585771D01*
X211359344Y-196585771D01*
X211216487Y-196514343D01*
X211145058Y-196371486D01*
X211145058Y-196228629D01*
X211216487Y-196085771D01*
X211359344Y-196014343D01*
X211716487Y-196014343D01*
X211859344Y-195942914D01*
X212573630Y-196585771D02*
X212573630Y-195085771D01*
X212573630Y-195657200D02*
X212716487Y-195585771D01*
X213002201Y-195585771D01*
X213145058Y-195657200D01*
X213216487Y-195728629D01*
X213287916Y-195871486D01*
X213287916Y-196300057D01*
X213216487Y-196442914D01*
X213145058Y-196514343D01*
X213002201Y-196585771D01*
X212716487Y-196585771D01*
X212573630Y-196514343D01*
X214145059Y-196585771D02*
X214002201Y-196514343D01*
X213930773Y-196371486D01*
X213930773Y-195085771D01*
X215287915Y-196514343D02*
X215145058Y-196585771D01*
X214859344Y-196585771D01*
X214716487Y-196514343D01*
X214645058Y-196371486D01*
X214645058Y-195800057D01*
X214716487Y-195657200D01*
X214859344Y-195585771D01*
X215145058Y-195585771D01*
X215287915Y-195657200D01*
X215359344Y-195800057D01*
X215359344Y-195942914D01*
X214645058Y-196085771D01*
D10*
D11*
X177002200Y-191507200D02*
X285002200Y-191507200D01*
D10*
D12*
X264216486Y-193785771D02*
X263716486Y-193071486D01*
X263359343Y-193785771D02*
X263359343Y-192285771D01*
X263930771Y-192285771D01*
X264073629Y-192357200D01*
X264145057Y-192428629D01*
X264216486Y-192571486D01*
X264216486Y-192785771D01*
X264145057Y-192928629D01*
X264073629Y-193000057D01*
X263930771Y-193071486D01*
X263359343Y-193071486D01*
X265430771Y-193714343D02*
X265287914Y-193785771D01*
X265002200Y-193785771D01*
X264859343Y-193714343D01*
X264787914Y-193571486D01*
X264787914Y-193000057D01*
X264859343Y-192857200D01*
X265002200Y-192785771D01*
X265287914Y-192785771D01*
X265430771Y-192857200D01*
X265502200Y-193000057D01*
X265502200Y-193142914D01*
X264787914Y-193285771D01*
X266002200Y-192785771D02*
X266359343Y-193785771D01*
X266716485Y-192785771D01*
X267287914Y-193642914D02*
X267359342Y-193714343D01*
X267287914Y-193785771D01*
X267216485Y-193714343D01*
X267287914Y-193642914D01*
X267287914Y-193785771D01*
X267287914Y-192857200D02*
X267359342Y-192928629D01*
X267287914Y-193000057D01*
X267216485Y-192928629D01*
X267287914Y-192857200D01*
X267287914Y-193000057D01*
D10*
D11*
X178287914Y-193714343D02*
X178502200Y-193785771D01*
X178859343Y-193785771D01*
X179002200Y-193714343D01*
X179073629Y-193642914D01*
X179145057Y-193500057D01*
X179145057Y-193357200D01*
X179073629Y-193214343D01*
X179002200Y-193142914D01*
X178859343Y-193071486D01*
X178573629Y-193000057D01*
X178430771Y-192928629D01*
X178359343Y-192857200D01*
X178287914Y-192714343D01*
X178287914Y-192571486D01*
X178359343Y-192428629D01*
X178430771Y-192357200D01*
X178573629Y-192285771D01*
X178930771Y-192285771D01*
X179145057Y-192357200D01*
X179787914Y-193785771D02*
X179787914Y-192785771D01*
X179787914Y-192285771D02*
X179716485Y-192357200D01*
X179787914Y-192428629D01*
X179859342Y-192357200D01*
X179787914Y-192285771D01*
X179787914Y-192428629D01*
X180359343Y-192785771D02*
X181145057Y-192785771D01*
X180359343Y-193785771D01*
X181145057Y-193785771D01*
X182287914Y-193714343D02*
X182145057Y-193785771D01*
X181859343Y-193785771D01*
X181716486Y-193714343D01*
X181645057Y-193571486D01*
X181645057Y-193000057D01*
X181716486Y-192857200D01*
X181859343Y-192785771D01*
X182145057Y-192785771D01*
X182287914Y-192857200D01*
X182359343Y-193000057D01*
X182359343Y-193142914D01*
X181645057Y-193285771D01*
X183002200Y-193642914D02*
X183073628Y-193714343D01*
X183002200Y-193785771D01*
X182930771Y-193714343D01*
X183002200Y-193642914D01*
X183002200Y-193785771D01*
X183002200Y-192857200D02*
X183073628Y-192928629D01*
X183002200Y-193000057D01*
X182930771Y-192928629D01*
X183002200Y-192857200D01*
X183002200Y-193000057D01*
X184787914Y-193357200D02*
X185502200Y-193357200D01*
X184645057Y-193785771D02*
X185145057Y-192285771D01*
X185645057Y-193785771D01*
X186787914Y-192785771D02*
X186787914Y-193785771D01*
X186430771Y-192214343D02*
X186073628Y-193285771D01*
X187002200Y-193285771D01*
D10*
D11*
X263359343Y-196585771D02*
X263359343Y-195085771D01*
X264716486Y-196585771D02*
X264716486Y-195085771D01*
X264716486Y-196514343D02*
X264573629Y-196585771D01*
X264287915Y-196585771D01*
X264145057Y-196514343D01*
X264073629Y-196442914D01*
X264002200Y-196300057D01*
X264002200Y-195871486D01*
X264073629Y-195728629D01*
X264145057Y-195657200D01*
X264287915Y-195585771D01*
X264573629Y-195585771D01*
X264716486Y-195657200D01*
X265430772Y-196442914D02*
X265502200Y-196514343D01*
X265430772Y-196585771D01*
X265359343Y-196514343D01*
X265430772Y-196442914D01*
X265430772Y-196585771D01*
X265430772Y-195657200D02*
X265502200Y-195728629D01*
X265430772Y-195800057D01*
X265359343Y-195728629D01*
X265430772Y-195657200D01*
X265430772Y-195800057D01*
X268073629Y-196585771D02*
X267216486Y-196585771D01*
X267645058Y-196585771D02*
X267645058Y-195085771D01*
X267502201Y-195300057D01*
X267359343Y-195442914D01*
X267216486Y-195514343D01*
X269787914Y-195014343D02*
X268502200Y-196942914D01*
X271073629Y-196585771D02*
X270216486Y-196585771D01*
X270645058Y-196585771D02*
X270645058Y-195085771D01*
X270502201Y-195300057D01*
X270359343Y-195442914D01*
X270216486Y-195514343D01*
D10*
D11*
X177002200Y-187507200D02*
X285002200Y-187507200D01*
D10*
D13*
X178454581Y-188211962D02*
X179597438Y-188211962D01*
X178776010Y-190211962D02*
X179026010Y-188211962D01*
X180014105Y-190211962D02*
X180180771Y-188878629D01*
X180264105Y-188211962D02*
X180156962Y-188307200D01*
X180240295Y-188402438D01*
X180347439Y-188307200D01*
X180264105Y-188211962D01*
X180240295Y-188402438D01*
X180847438Y-188878629D02*
X181609343Y-188878629D01*
X181216486Y-188211962D02*
X181002200Y-189926248D01*
X181073630Y-190116724D01*
X181252201Y-190211962D01*
X181442677Y-190211962D01*
X182395058Y-190211962D02*
X182216487Y-190116724D01*
X182145057Y-189926248D01*
X182359343Y-188211962D01*
X183930772Y-190116724D02*
X183728391Y-190211962D01*
X183347439Y-190211962D01*
X183168867Y-190116724D01*
X183097438Y-189926248D01*
X183192676Y-189164343D01*
X183311724Y-188973867D01*
X183514105Y-188878629D01*
X183895057Y-188878629D01*
X184073629Y-188973867D01*
X184145057Y-189164343D01*
X184121248Y-189354819D01*
X183145057Y-189545295D01*
X184895057Y-190021486D02*
X184978392Y-190116724D01*
X184871248Y-190211962D01*
X184787915Y-190116724D01*
X184895057Y-190021486D01*
X184871248Y-190211962D01*
X185026010Y-188973867D02*
X185109344Y-189069105D01*
X185002200Y-189164343D01*
X184918867Y-189069105D01*
X185026010Y-188973867D01*
X185002200Y-189164343D01*
D10*
D11*
X178859343Y-185600057D02*
X178359343Y-185600057D01*
X178359343Y-186385771D02*
X178359343Y-184885771D01*
X179073629Y-184885771D01*
X179645057Y-186385771D02*
X179645057Y-185385771D01*
X179645057Y-184885771D02*
X179573628Y-184957200D01*
X179645057Y-185028629D01*
X179716485Y-184957200D01*
X179645057Y-184885771D01*
X179645057Y-185028629D01*
X180573629Y-186385771D02*
X180430771Y-186314343D01*
X180359343Y-186171486D01*
X180359343Y-184885771D01*
X181716485Y-186314343D02*
X181573628Y-186385771D01*
X181287914Y-186385771D01*
X181145057Y-186314343D01*
X181073628Y-186171486D01*
X181073628Y-185600057D01*
X181145057Y-185457200D01*
X181287914Y-185385771D01*
X181573628Y-185385771D01*
X181716485Y-185457200D01*
X181787914Y-185600057D01*
X181787914Y-185742914D01*
X181073628Y-185885771D01*
X182430771Y-186242914D02*
X182502199Y-186314343D01*
X182430771Y-186385771D01*
X182359342Y-186314343D01*
X182430771Y-186242914D01*
X182430771Y-186385771D01*
X182430771Y-185457200D02*
X182502199Y-185528629D01*
X182430771Y-185600057D01*
X182359342Y-185528629D01*
X182430771Y-185457200D01*
X182430771Y-185600057D01*
X184287914Y-186385771D02*
X184287914Y-184885771D01*
X184287914Y-185457200D02*
X184430771Y-185385771D01*
X184716485Y-185385771D01*
X184859342Y-185457200D01*
X184930771Y-185528629D01*
X185002200Y-185671486D01*
X185002200Y-186100057D01*
X184930771Y-186242914D01*
X184859342Y-186314343D01*
X184716485Y-186385771D01*
X184430771Y-186385771D01*
X184287914Y-186314343D01*
X186287914Y-185385771D02*
X186287914Y-186385771D01*
X185645057Y-185385771D02*
X185645057Y-186171486D01*
X185716485Y-186314343D01*
X185859343Y-186385771D01*
X186073628Y-186385771D01*
X186216485Y-186314343D01*
X186287914Y-186242914D01*
X186930771Y-186314343D02*
X187073628Y-186385771D01*
X187359343Y-186385771D01*
X187502200Y-186314343D01*
X187573628Y-186171486D01*
X187573628Y-186100057D01*
X187502200Y-185957200D01*
X187359343Y-185885771D01*
X187145057Y-185885771D01*
X187002200Y-185814343D01*
X186930771Y-185671486D01*
X186930771Y-185600057D01*
X187002200Y-185457200D01*
X187145057Y-185385771D01*
X187359343Y-185385771D01*
X187502200Y-185457200D01*
X188216486Y-186385771D02*
X188216486Y-185385771D01*
X188216486Y-184885771D02*
X188145057Y-184957200D01*
X188216486Y-185028629D01*
X188287914Y-184957200D01*
X188216486Y-184885771D01*
X188216486Y-185028629D01*
X188930772Y-185385771D02*
X188930772Y-186385771D01*
X188930772Y-185528629D02*
X189002200Y-185457200D01*
X189145058Y-185385771D01*
X189359343Y-185385771D01*
X189502200Y-185457200D01*
X189573629Y-185600057D01*
X189573629Y-186385771D01*
X190859343Y-186314343D02*
X190716486Y-186385771D01*
X190430772Y-186385771D01*
X190287915Y-186314343D01*
X190216486Y-186171486D01*
X190216486Y-185600057D01*
X190287915Y-185457200D01*
X190430772Y-185385771D01*
X190716486Y-185385771D01*
X190859343Y-185457200D01*
X190930772Y-185600057D01*
X190930772Y-185742914D01*
X190216486Y-185885771D01*
X191502200Y-186314343D02*
X191645057Y-186385771D01*
X191930772Y-186385771D01*
X192073629Y-186314343D01*
X192145057Y-186171486D01*
X192145057Y-186100057D01*
X192073629Y-185957200D01*
X191930772Y-185885771D01*
X191716486Y-185885771D01*
X191573629Y-185814343D01*
X191502200Y-185671486D01*
X191502200Y-185600057D01*
X191573629Y-185457200D01*
X191716486Y-185385771D01*
X191930772Y-185385771D01*
X192073629Y-185457200D01*
X192716486Y-186314343D02*
X192859343Y-186385771D01*
X193145058Y-186385771D01*
X193287915Y-186314343D01*
X193359343Y-186171486D01*
X193359343Y-186100057D01*
X193287915Y-185957200D01*
X193145058Y-185885771D01*
X192930772Y-185885771D01*
X192787915Y-185814343D01*
X192716486Y-185671486D01*
X192716486Y-185600057D01*
X192787915Y-185457200D01*
X192930772Y-185385771D01*
X193145058Y-185385771D01*
X193287915Y-185457200D01*
X195787915Y-186314343D02*
X195645058Y-186385771D01*
X195359344Y-186385771D01*
X195216486Y-186314343D01*
X195145058Y-186242914D01*
X195073629Y-186100057D01*
X195073629Y-185671486D01*
X195145058Y-185528629D01*
X195216486Y-185457200D01*
X195359344Y-185385771D01*
X195645058Y-185385771D01*
X195787915Y-185457200D01*
X197073629Y-186385771D02*
X197073629Y-185600057D01*
X197002200Y-185457200D01*
X196859343Y-185385771D01*
X196573629Y-185385771D01*
X196430772Y-185457200D01*
X197073629Y-186314343D02*
X196930772Y-186385771D01*
X196573629Y-186385771D01*
X196430772Y-186314343D01*
X196359343Y-186171486D01*
X196359343Y-186028629D01*
X196430772Y-185885771D01*
X196573629Y-185814343D01*
X196930772Y-185814343D01*
X197073629Y-185742914D01*
X197787915Y-186385771D02*
X197787915Y-185385771D01*
X197787915Y-185671486D02*
X197859343Y-185528629D01*
X197930772Y-185457200D01*
X198073629Y-185385771D01*
X198216486Y-185385771D01*
X199359343Y-186385771D02*
X199359343Y-184885771D01*
X199359343Y-186314343D02*
X199216486Y-186385771D01*
X198930772Y-186385771D01*
X198787914Y-186314343D01*
X198716486Y-186242914D01*
X198645057Y-186100057D01*
X198645057Y-185671486D01*
X198716486Y-185528629D01*
X198787914Y-185457200D01*
X198930772Y-185385771D01*
X199216486Y-185385771D01*
X199359343Y-185457200D01*
X200073629Y-186242914D02*
X200145057Y-186314343D01*
X200073629Y-186385771D01*
X200002200Y-186314343D01*
X200073629Y-186242914D01*
X200073629Y-186385771D01*
X200787915Y-186385771D02*
X200787915Y-184885771D01*
X200930772Y-185814343D02*
X201359343Y-186385771D01*
X201359343Y-185385771D02*
X200787915Y-185957200D01*
X202002201Y-186385771D02*
X202002201Y-185385771D01*
X202002201Y-184885771D02*
X201930772Y-184957200D01*
X202002201Y-185028629D01*
X202073629Y-184957200D01*
X202002201Y-184885771D01*
X202002201Y-185028629D01*
X203359344Y-186314343D02*
X203216487Y-186385771D01*
X202930773Y-186385771D01*
X202787915Y-186314343D01*
X202716487Y-186242914D01*
X202645058Y-186100057D01*
X202645058Y-185671486D01*
X202716487Y-185528629D01*
X202787915Y-185457200D01*
X202930773Y-185385771D01*
X203216487Y-185385771D01*
X203359344Y-185457200D01*
X204645058Y-186385771D02*
X204645058Y-185600057D01*
X204573629Y-185457200D01*
X204430772Y-185385771D01*
X204145058Y-185385771D01*
X204002201Y-185457200D01*
X204645058Y-186314343D02*
X204502201Y-186385771D01*
X204145058Y-186385771D01*
X204002201Y-186314343D01*
X203930772Y-186171486D01*
X203930772Y-186028629D01*
X204002201Y-185885771D01*
X204145058Y-185814343D01*
X204502201Y-185814343D01*
X204645058Y-185742914D01*
X206002201Y-186385771D02*
X206002201Y-184885771D01*
X206002201Y-186314343D02*
X205859344Y-186385771D01*
X205573630Y-186385771D01*
X205430772Y-186314343D01*
X205359344Y-186242914D01*
X205287915Y-186100057D01*
X205287915Y-185671486D01*
X205359344Y-185528629D01*
X205430772Y-185457200D01*
X205573630Y-185385771D01*
X205859344Y-185385771D01*
X206002201Y-185457200D01*
X206359344Y-186528629D02*
X207502201Y-186528629D01*
X207859344Y-185385771D02*
X207859344Y-186885771D01*
X207859344Y-185457200D02*
X208002201Y-185385771D01*
X208287915Y-185385771D01*
X208430772Y-185457200D01*
X208502201Y-185528629D01*
X208573630Y-185671486D01*
X208573630Y-186100057D01*
X208502201Y-186242914D01*
X208430772Y-186314343D01*
X208287915Y-186385771D01*
X208002201Y-186385771D01*
X207859344Y-186314343D01*
X209859344Y-186314343D02*
X209716487Y-186385771D01*
X209430773Y-186385771D01*
X209287915Y-186314343D01*
X209216487Y-186242914D01*
X209145058Y-186100057D01*
X209145058Y-185671486D01*
X209216487Y-185528629D01*
X209287915Y-185457200D01*
X209430773Y-185385771D01*
X209716487Y-185385771D01*
X209859344Y-185457200D01*
X210502201Y-186385771D02*
X210502201Y-184885771D01*
X210502201Y-185457200D02*
X210645058Y-185385771D01*
X210930772Y-185385771D01*
X211073629Y-185457200D01*
X211145058Y-185528629D01*
X211216487Y-185671486D01*
X211216487Y-186100057D01*
X211145058Y-186242914D01*
X211073629Y-186314343D01*
X210930772Y-186385771D01*
X210645058Y-186385771D01*
X210502201Y-186314343D01*
D10*
D11*
X177002200Y-181507200D02*
X285002200Y-181507200D01*
D10*
D11*
X178287914Y-183614343D02*
X178502200Y-183685771D01*
X178859343Y-183685771D01*
X179002200Y-183614343D01*
X179073629Y-183542914D01*
X179145057Y-183400057D01*
X179145057Y-183257200D01*
X179073629Y-183114343D01*
X179002200Y-183042914D01*
X178859343Y-182971486D01*
X178573629Y-182900057D01*
X178430771Y-182828629D01*
X178359343Y-182757200D01*
X178287914Y-182614343D01*
X178287914Y-182471486D01*
X178359343Y-182328629D01*
X178430771Y-182257200D01*
X178573629Y-182185771D01*
X178930771Y-182185771D01*
X179145057Y-182257200D01*
X179787914Y-183685771D02*
X179787914Y-182185771D01*
X180430771Y-183685771D02*
X180430771Y-182900057D01*
X180359342Y-182757200D01*
X180216485Y-182685771D01*
X180002200Y-182685771D01*
X179859342Y-182757200D01*
X179787914Y-182828629D01*
X181716485Y-183614343D02*
X181573628Y-183685771D01*
X181287914Y-183685771D01*
X181145057Y-183614343D01*
X181073628Y-183471486D01*
X181073628Y-182900057D01*
X181145057Y-182757200D01*
X181287914Y-182685771D01*
X181573628Y-182685771D01*
X181716485Y-182757200D01*
X181787914Y-182900057D01*
X181787914Y-183042914D01*
X181073628Y-183185771D01*
X183002199Y-183614343D02*
X182859342Y-183685771D01*
X182573628Y-183685771D01*
X182430771Y-183614343D01*
X182359342Y-183471486D01*
X182359342Y-182900057D01*
X182430771Y-182757200D01*
X182573628Y-182685771D01*
X182859342Y-182685771D01*
X183002199Y-182757200D01*
X183073628Y-182900057D01*
X183073628Y-183042914D01*
X182359342Y-183185771D01*
X183502199Y-182685771D02*
X184073628Y-182685771D01*
X183716485Y-182185771D02*
X183716485Y-183471486D01*
X183787913Y-183614343D01*
X183930771Y-183685771D01*
X184073628Y-183685771D01*
X184573628Y-183542914D02*
X184645056Y-183614343D01*
X184573628Y-183685771D01*
X184502199Y-183614343D01*
X184573628Y-183542914D01*
X184573628Y-183685771D01*
X184573628Y-182757200D02*
X184645056Y-182828629D01*
X184573628Y-182900057D01*
X184502199Y-182828629D01*
X184573628Y-182757200D01*
X184573628Y-182900057D01*
D10*
D11*
X197002200Y-191507200D02*
X197002200Y-194507200D01*
D10*
D11*
X261002200Y-191507200D02*
X261002200Y-198007200D01*
D12*
X107125715Y-99595714D02*
X107054286Y-99667143D01*
X106840000Y-99738571D01*
X106697143Y-99738571D01*
X106482858Y-99667143D01*
X106340000Y-99524286D01*
X106268572Y-99381429D01*
X106197143Y-99095714D01*
X106197143Y-98881429D01*
X106268572Y-98595714D01*
X106340000Y-98452857D01*
X106482858Y-98310000D01*
X106697143Y-98238571D01*
X106840000Y-98238571D01*
X107054286Y-98310000D01*
X107125715Y-98381429D01*
X108625715Y-99595714D02*
X108554286Y-99667143D01*
X108340000Y-99738571D01*
X108197143Y-99738571D01*
X107982858Y-99667143D01*
X107840000Y-99524286D01*
X107768572Y-99381429D01*
X107697143Y-99095714D01*
X107697143Y-98881429D01*
X107768572Y-98595714D01*
X107840000Y-98452857D01*
X107982858Y-98310000D01*
X108197143Y-98238571D01*
X108340000Y-98238571D01*
X108554286Y-98310000D01*
X108625715Y-98381429D01*
X109268572Y-99167143D02*
X110411429Y-99167143D01*
X111625715Y-98952857D02*
X111840001Y-99024286D01*
X111911429Y-99095714D01*
X111982858Y-99238571D01*
X111982858Y-99452857D01*
X111911429Y-99595714D01*
X111840001Y-99667143D01*
X111697143Y-99738571D01*
X111125715Y-99738571D01*
X111125715Y-98238571D01*
X111625715Y-98238571D01*
X111768572Y-98310000D01*
X111840001Y-98381429D01*
X111911429Y-98524286D01*
X111911429Y-98667143D01*
X111840001Y-98810000D01*
X111768572Y-98881429D01*
X111625715Y-98952857D01*
X111125715Y-98952857D01*
X112911429Y-99024286D02*
X112911429Y-99738571D01*
X112411429Y-98238571D02*
X112911429Y-99024286D01*
X113411429Y-98238571D01*
X113911429Y-99167143D02*
X115054286Y-99167143D01*
X115768572Y-99738571D02*
X115768572Y-98238571D01*
X116625715Y-99738571D01*
X116625715Y-98238571D01*
X118197144Y-99595714D02*
X118125715Y-99667143D01*
X117911429Y-99738571D01*
X117768572Y-99738571D01*
X117554287Y-99667143D01*
X117411429Y-99524286D01*
X117340001Y-99381429D01*
X117268572Y-99095714D01*
X117268572Y-98881429D01*
X117340001Y-98595714D01*
X117411429Y-98452857D01*
X117554287Y-98310000D01*
X117768572Y-98238571D01*
X117911429Y-98238571D01*
X118125715Y-98310000D01*
X118197144Y-98381429D01*
X118840001Y-99167143D02*
X119982858Y-99167143D01*
X120625715Y-99667143D02*
X120840001Y-99738571D01*
X121197144Y-99738571D01*
X121340001Y-99667143D01*
X121411430Y-99595714D01*
X121482858Y-99452857D01*
X121482858Y-99310000D01*
X121411430Y-99167143D01*
X121340001Y-99095714D01*
X121197144Y-99024286D01*
X120911430Y-98952857D01*
X120768572Y-98881429D01*
X120697144Y-98810000D01*
X120625715Y-98667143D01*
X120625715Y-98524286D01*
X120697144Y-98381429D01*
X120768572Y-98310000D01*
X120911430Y-98238571D01*
X121268572Y-98238571D01*
X121482858Y-98310000D01*
X122054286Y-99310000D02*
X122768572Y-99310000D01*
X121911429Y-99738571D02*
X122411429Y-98238571D01*
X122911429Y-99738571D01*
X125197143Y-98738571D02*
X125197143Y-99738571D01*
X124840000Y-98167143D02*
X124482857Y-99238571D01*
X125411429Y-99238571D01*
X125982857Y-99595714D02*
X126054285Y-99667143D01*
X125982857Y-99738571D01*
X125911428Y-99667143D01*
X125982857Y-99595714D01*
X125982857Y-99738571D01*
X126982857Y-98238571D02*
X127125714Y-98238571D01*
X127268571Y-98310000D01*
X127340000Y-98381429D01*
X127411429Y-98524286D01*
X127482857Y-98810000D01*
X127482857Y-99167143D01*
X127411429Y-99452857D01*
X127340000Y-99595714D01*
X127268571Y-99667143D01*
X127125714Y-99738571D01*
X126982857Y-99738571D01*
X126840000Y-99667143D01*
X126768571Y-99595714D01*
X126697143Y-99452857D01*
X126625714Y-99167143D01*
X126625714Y-98810000D01*
X126697143Y-98524286D01*
X126768571Y-98381429D01*
X126840000Y-98310000D01*
X126982857Y-98238571D01*
D14*
X114935000Y-92715080D02*
X114935000Y-93113860D01*
X114233960Y-93913960D02*
X115534440Y-93913960D01*
X115435380Y-94216220D02*
X114233960Y-94216220D01*
X114134900Y-94515940D02*
X115435380Y-94515940D01*
X114935000Y-94914720D02*
X114935000Y-96215200D01*
X115034060Y-96415860D02*
X115234720Y-96415860D01*
X115234720Y-96415860D02*
X115234720Y-94815660D01*
X114635280Y-94914720D02*
X114635280Y-96415860D01*
X114635280Y-96415860D02*
X115135660Y-96415860D01*
X114134900Y-93614240D02*
X115636040Y-93614240D01*
X115636040Y-93614240D02*
X115636040Y-94815660D01*
X115636040Y-94815660D02*
X114134900Y-94815660D01*
X114134900Y-94815660D02*
X114134900Y-93614240D01*
X115250666Y-92915740D02*
G75*
G03X115250666Y-92915740I-315666J0D01*
G01*
X114935000Y-92115640D02*
X114835940Y-92115640D01*
X114835940Y-92115640D02*
X114233960Y-92214700D01*
X114233960Y-92214700D02*
X113736120Y-92415360D01*
X113736120Y-92415360D02*
X113235740Y-92814140D01*
X113235740Y-92814140D02*
X112735360Y-93416120D01*
X112735360Y-93416120D02*
X112534700Y-93814900D01*
X112534700Y-93814900D02*
X112435640Y-94315280D01*
X112435640Y-94315280D02*
X112435640Y-94914720D01*
X112435640Y-94914720D02*
X112633760Y-95714820D01*
X112633760Y-95714820D02*
X113235740Y-96415860D01*
X113235740Y-96415860D02*
X113736120Y-96814640D01*
X113736120Y-96814640D02*
X114434620Y-97114360D01*
X114434620Y-97114360D02*
X115234720Y-97114360D01*
X115234720Y-97114360D02*
X115834160Y-96916240D01*
X115834160Y-96916240D02*
X116436140Y-96613980D01*
X116436140Y-96613980D02*
X116933980Y-96116140D01*
X116933980Y-96116140D02*
X117335300Y-95415100D01*
X117335300Y-95415100D02*
X117434360Y-94815660D01*
X117434360Y-94815660D02*
X117434360Y-94216220D01*
X117434360Y-94216220D02*
X117236240Y-93614240D01*
X117236240Y-93614240D02*
X116933980Y-93113860D01*
X116933980Y-93113860D02*
X116436140Y-92616020D01*
X116436140Y-92616020D02*
X115935760Y-92313760D01*
X115935760Y-92313760D02*
X115534440Y-92214700D01*
X115534440Y-92214700D02*
X114935000Y-92115640D01*
X126535180Y-95813880D02*
X127035560Y-96116140D01*
X127035560Y-96116140D02*
X127535940Y-96215200D01*
X127535940Y-96215200D02*
X128033780Y-96116140D01*
X128033780Y-96116140D02*
X128534160Y-95915480D01*
X128534160Y-95915480D02*
X128935480Y-95514160D01*
X128935480Y-95514160D02*
X129235200Y-95013780D01*
X129235200Y-95013780D02*
X129235200Y-94615000D01*
X129235200Y-94615000D02*
X129136140Y-94114620D01*
X129136140Y-94114620D02*
X128833880Y-93614240D01*
X128833880Y-93614240D02*
X128534160Y-93314520D01*
X128534160Y-93314520D02*
X127934720Y-93014800D01*
X127934720Y-93014800D02*
X127535940Y-93014800D01*
X127535940Y-93014800D02*
X127134620Y-93113860D01*
X127134620Y-93113860D02*
X126634240Y-93314520D01*
X127635000Y-92115640D02*
X127535940Y-92115640D01*
X127535940Y-92115640D02*
X126933960Y-92214700D01*
X126933960Y-92214700D02*
X126436120Y-92415360D01*
X126436120Y-92415360D02*
X125935740Y-92814140D01*
X125935740Y-92814140D02*
X125435360Y-93416120D01*
X125435360Y-93416120D02*
X125234700Y-93814900D01*
X125234700Y-93814900D02*
X125135640Y-94315280D01*
X125135640Y-94315280D02*
X125135640Y-94914720D01*
X125135640Y-94914720D02*
X125333760Y-95714820D01*
X125333760Y-95714820D02*
X125935740Y-96415860D01*
X125935740Y-96415860D02*
X126436120Y-96814640D01*
X126436120Y-96814640D02*
X127134620Y-97114360D01*
X127134620Y-97114360D02*
X127934720Y-97114360D01*
X127934720Y-97114360D02*
X128534160Y-96916240D01*
X128534160Y-96916240D02*
X129136140Y-96613980D01*
X129136140Y-96613980D02*
X129633980Y-96116140D01*
X129633980Y-96116140D02*
X130035300Y-95415100D01*
X130035300Y-95415100D02*
X130134360Y-94815660D01*
X130134360Y-94815660D02*
X130134360Y-94216220D01*
X130134360Y-94216220D02*
X129936240Y-93614240D01*
X129936240Y-93614240D02*
X129633980Y-93113860D01*
X129633980Y-93113860D02*
X129136140Y-92616020D01*
X129136140Y-92616020D02*
X128635760Y-92313760D01*
X128635760Y-92313760D02*
X128234440Y-92214700D01*
X128234440Y-92214700D02*
X127635000Y-92115640D01*
X110335200Y-93714900D02*
X110236140Y-93615840D01*
X110236140Y-93615840D02*
X110035480Y-93514240D01*
X110035480Y-93514240D02*
X109735760Y-93514240D01*
X109735760Y-93514240D02*
X109436040Y-93615840D01*
X109436040Y-93615840D02*
X109235380Y-94014620D01*
X109235380Y-94014620D02*
X109133780Y-94515000D01*
X109133780Y-94515000D02*
X109133780Y-94913780D01*
X109133780Y-94913780D02*
X109334440Y-95315100D01*
X109334440Y-95315100D02*
X109735760Y-95515760D01*
X109735760Y-95515760D02*
X109933880Y-95515760D01*
X109933880Y-95515760D02*
X110236140Y-95515760D01*
X110236140Y-95515760D02*
X110335200Y-95315100D01*
X108336220Y-93714900D02*
X108234620Y-93615840D01*
X108234620Y-93615840D02*
X107934900Y-93514240D01*
X107934900Y-93514240D02*
X107536120Y-93615840D01*
X107536120Y-93615840D02*
X107233860Y-93813960D01*
X107233860Y-93813960D02*
X107134800Y-94215280D01*
X107134800Y-94215280D02*
X107134800Y-94614060D01*
X107134800Y-94614060D02*
X107233860Y-95114440D01*
X107233860Y-95114440D02*
X107434520Y-95414160D01*
X107434520Y-95414160D02*
X107734240Y-95515760D01*
X107734240Y-95515760D02*
X108135560Y-95515760D01*
X108135560Y-95515760D02*
X108336220Y-95315100D01*
X108735000Y-92015640D02*
X108635940Y-92015640D01*
X108635940Y-92015640D02*
X108033960Y-92114700D01*
X108033960Y-92114700D02*
X107536120Y-92315360D01*
X107536120Y-92315360D02*
X107035740Y-92714140D01*
X107035740Y-92714140D02*
X106535360Y-93316120D01*
X106535360Y-93316120D02*
X106334700Y-93714900D01*
X106334700Y-93714900D02*
X106235640Y-94215280D01*
X106235640Y-94215280D02*
X106235640Y-94814720D01*
X106235640Y-94814720D02*
X106433760Y-95614820D01*
X106433760Y-95614820D02*
X107035740Y-96315860D01*
X107035740Y-96315860D02*
X107536120Y-96714640D01*
X107536120Y-96714640D02*
X108234620Y-97014360D01*
X108234620Y-97014360D02*
X109034720Y-97014360D01*
X109034720Y-97014360D02*
X109634160Y-96816240D01*
X109634160Y-96816240D02*
X110236140Y-96513980D01*
X110236140Y-96513980D02*
X110733980Y-96016140D01*
X110733980Y-96016140D02*
X111135300Y-95315100D01*
X111135300Y-95315100D02*
X111234360Y-94715660D01*
X111234360Y-94715660D02*
X111234360Y-94116220D01*
X111234360Y-94116220D02*
X111036240Y-93514240D01*
X111036240Y-93514240D02*
X110733980Y-93013860D01*
X110733980Y-93013860D02*
X110236140Y-92516020D01*
X110236140Y-92516020D02*
X109735760Y-92213760D01*
X109735760Y-92213760D02*
X109334440Y-92114700D01*
X109334440Y-92114700D02*
X108735000Y-92015640D01*
X121285000Y-95915480D02*
X121285000Y-96415860D01*
X121285000Y-96415860D02*
X121285000Y-96314260D01*
X121285000Y-93113860D02*
X121285000Y-92814140D01*
X118884700Y-93814900D02*
X123484640Y-95514160D01*
X118983760Y-93715840D02*
X123685300Y-95415100D01*
X122184160Y-93416120D02*
X122085100Y-93314520D01*
X122085100Y-93314520D02*
X121683780Y-93215460D01*
X121683780Y-93215460D02*
X120985280Y-93215460D01*
X120985280Y-93215460D02*
X120784620Y-93314520D01*
X120784620Y-93314520D02*
X120583960Y-93515180D01*
X120583960Y-93515180D02*
X120484900Y-93715840D01*
X120484900Y-93715840D02*
X120484900Y-94015560D01*
X120484900Y-94015560D02*
X120583960Y-94315280D01*
X120583960Y-94315280D02*
X120784620Y-94515940D01*
X120784620Y-94515940D02*
X121584720Y-94815660D01*
X121584720Y-94815660D02*
X121884440Y-95013780D01*
X121884440Y-95013780D02*
X121884440Y-95415100D01*
X121884440Y-95415100D02*
X121584720Y-95615760D01*
X121584720Y-95615760D02*
X121084340Y-95714820D01*
X121084340Y-95714820D02*
X120583960Y-95615760D01*
X120583960Y-95615760D02*
X120484900Y-95615760D01*
X120484900Y-95615760D02*
X120484900Y-95813880D01*
X120484900Y-95813880D02*
X120784620Y-95915480D01*
X120784620Y-95915480D02*
X121485660Y-95915480D01*
X121485660Y-95915480D02*
X121785380Y-95813880D01*
X121785380Y-95813880D02*
X121986040Y-95615760D01*
X121986040Y-95615760D02*
X122085100Y-95415100D01*
X122085100Y-95415100D02*
X122085100Y-95115380D01*
X122085100Y-95115380D02*
X121986040Y-94815660D01*
X121986040Y-94815660D02*
X121584720Y-94515940D01*
X121584720Y-94515940D02*
X120985280Y-94414340D01*
X120985280Y-94414340D02*
X120784620Y-94216220D01*
X120784620Y-94216220D02*
X120685560Y-93913960D01*
X120685560Y-93913960D02*
X120784620Y-93715840D01*
X120784620Y-93715840D02*
X120985280Y-93515180D01*
X120985280Y-93515180D02*
X121384060Y-93416120D01*
X121384060Y-93416120D02*
X121683780Y-93515180D01*
X121683780Y-93515180D02*
X121986040Y-93614240D01*
X121986040Y-93614240D02*
X122184160Y-93416120D01*
X121285000Y-92115640D02*
X121185940Y-92115640D01*
X121185940Y-92115640D02*
X120583960Y-92214700D01*
X120583960Y-92214700D02*
X120086120Y-92415360D01*
X120086120Y-92415360D02*
X119585740Y-92814140D01*
X119585740Y-92814140D02*
X119085360Y-93416120D01*
X119085360Y-93416120D02*
X118884700Y-93814900D01*
X118884700Y-93814900D02*
X118785640Y-94315280D01*
X118785640Y-94315280D02*
X118785640Y-94914720D01*
X118785640Y-94914720D02*
X118983760Y-95714820D01*
X118983760Y-95714820D02*
X119585740Y-96415860D01*
X119585740Y-96415860D02*
X120086120Y-96814640D01*
X120086120Y-96814640D02*
X120784620Y-97114360D01*
X120784620Y-97114360D02*
X121584720Y-97114360D01*
X121584720Y-97114360D02*
X122184160Y-96916240D01*
X122184160Y-96916240D02*
X122786140Y-96613980D01*
X122786140Y-96613980D02*
X123283980Y-96116140D01*
X123283980Y-96116140D02*
X123685300Y-95415100D01*
X123685300Y-95415100D02*
X123784360Y-94815660D01*
X123784360Y-94815660D02*
X123784360Y-94216220D01*
X123784360Y-94216220D02*
X123586240Y-93614240D01*
X123586240Y-93614240D02*
X123283980Y-93113860D01*
X123283980Y-93113860D02*
X122786140Y-92616020D01*
X122786140Y-92616020D02*
X122285760Y-92313760D01*
X122285760Y-92313760D02*
X121884440Y-92214700D01*
X121884440Y-92214700D02*
X121285000Y-92115640D01*
D15*
G36*
X97929744Y-97169918D02*
X97985201Y-97197568D01*
X98034148Y-97248480D01*
X98047629Y-97267338D01*
X98062314Y-97292015D01*
X98071842Y-97318816D01*
X98077293Y-97354587D01*
X98079747Y-97406169D01*
X98080286Y-97474267D01*
X98077852Y-97567588D01*
X98069394Y-97637657D01*
X98053174Y-97689931D01*
X98027454Y-97729869D01*
X97990497Y-97762929D01*
X97987782Y-97764886D01*
X97951360Y-97784908D01*
X97907502Y-97794815D01*
X97851724Y-97797257D01*
X97761048Y-97797257D01*
X97761010Y-97885283D01*
X97760166Y-97934308D01*
X97755024Y-97963065D01*
X97741587Y-97980311D01*
X97715858Y-97994808D01*
X97709679Y-97997769D01*
X97680764Y-98011648D01*
X97658376Y-98020414D01*
X97641729Y-98021171D01*
X97630036Y-98011023D01*
X97622510Y-97987073D01*
X97618366Y-97946426D01*
X97616815Y-97886186D01*
X97617071Y-97803455D01*
X97618349Y-97695339D01*
X97618748Y-97663000D01*
X97620185Y-97551524D01*
X97621472Y-97478603D01*
X97760971Y-97478603D01*
X97761755Y-97540499D01*
X97765240Y-97580997D01*
X97773124Y-97607708D01*
X97787105Y-97628244D01*
X97796597Y-97638260D01*
X97835404Y-97667567D01*
X97869763Y-97669952D01*
X97905216Y-97645750D01*
X97906114Y-97644857D01*
X97920539Y-97626153D01*
X97929313Y-97600732D01*
X97933739Y-97561584D01*
X97935118Y-97501697D01*
X97935143Y-97488430D01*
X97931812Y-97405901D01*
X97920969Y-97348691D01*
X97901340Y-97313766D01*
X97871650Y-97298094D01*
X97854491Y-97296514D01*
X97813766Y-97303926D01*
X97785832Y-97328330D01*
X97769017Y-97372980D01*
X97761650Y-97441130D01*
X97760971Y-97478603D01*
X97621472Y-97478603D01*
X97621708Y-97465245D01*
X97623677Y-97400333D01*
X97626450Y-97352958D01*
X97630388Y-97319290D01*
X97635849Y-97295498D01*
X97643192Y-97277753D01*
X97652777Y-97262224D01*
X97656887Y-97256381D01*
X97711405Y-97201185D01*
X97780336Y-97169890D01*
X97860072Y-97161165D01*
X97929744Y-97169918D01*
X97929744Y-97169918D01*
G37*
X97929744Y-97169918D02*
X97985201Y-97197568D01*
X98034148Y-97248480D01*
X98047629Y-97267338D01*
X98062314Y-97292015D01*
X98071842Y-97318816D01*
X98077293Y-97354587D01*
X98079747Y-97406169D01*
X98080286Y-97474267D01*
X98077852Y-97567588D01*
X98069394Y-97637657D01*
X98053174Y-97689931D01*
X98027454Y-97729869D01*
X97990497Y-97762929D01*
X97987782Y-97764886D01*
X97951360Y-97784908D01*
X97907502Y-97794815D01*
X97851724Y-97797257D01*
X97761048Y-97797257D01*
X97761010Y-97885283D01*
X97760166Y-97934308D01*
X97755024Y-97963065D01*
X97741587Y-97980311D01*
X97715858Y-97994808D01*
X97709679Y-97997769D01*
X97680764Y-98011648D01*
X97658376Y-98020414D01*
X97641729Y-98021171D01*
X97630036Y-98011023D01*
X97622510Y-97987073D01*
X97618366Y-97946426D01*
X97616815Y-97886186D01*
X97617071Y-97803455D01*
X97618349Y-97695339D01*
X97618748Y-97663000D01*
X97620185Y-97551524D01*
X97621472Y-97478603D01*
X97760971Y-97478603D01*
X97761755Y-97540499D01*
X97765240Y-97580997D01*
X97773124Y-97607708D01*
X97787105Y-97628244D01*
X97796597Y-97638260D01*
X97835404Y-97667567D01*
X97869763Y-97669952D01*
X97905216Y-97645750D01*
X97906114Y-97644857D01*
X97920539Y-97626153D01*
X97929313Y-97600732D01*
X97933739Y-97561584D01*
X97935118Y-97501697D01*
X97935143Y-97488430D01*
X97931812Y-97405901D01*
X97920969Y-97348691D01*
X97901340Y-97313766D01*
X97871650Y-97298094D01*
X97854491Y-97296514D01*
X97813766Y-97303926D01*
X97785832Y-97328330D01*
X97769017Y-97372980D01*
X97761650Y-97441130D01*
X97760971Y-97478603D01*
X97621472Y-97478603D01*
X97621708Y-97465245D01*
X97623677Y-97400333D01*
X97626450Y-97352958D01*
X97630388Y-97319290D01*
X97635849Y-97295498D01*
X97643192Y-97277753D01*
X97652777Y-97262224D01*
X97656887Y-97256381D01*
X97711405Y-97201185D01*
X97780336Y-97169890D01*
X97860072Y-97161165D01*
X97929744Y-97169918D01*
G36*
X99046093Y-97177780D02*
X99092672Y-97204723D01*
X99125057Y-97231466D01*
X99148742Y-97259484D01*
X99165059Y-97293748D01*
X99175339Y-97339227D01*
X99180914Y-97400892D01*
X99183116Y-97483711D01*
X99183371Y-97543246D01*
X99183371Y-97762391D01*
X99121686Y-97790044D01*
X99060000Y-97817697D01*
X99052743Y-97577670D01*
X99049744Y-97488028D01*
X99046598Y-97422962D01*
X99042701Y-97378026D01*
X99037447Y-97348770D01*
X99030231Y-97330748D01*
X99020450Y-97319511D01*
X99017312Y-97317079D01*
X98969761Y-97298083D01*
X98921697Y-97305600D01*
X98893086Y-97325543D01*
X98881447Y-97339675D01*
X98873391Y-97358220D01*
X98868271Y-97386334D01*
X98865441Y-97429173D01*
X98864256Y-97491895D01*
X98864057Y-97557261D01*
X98864018Y-97639268D01*
X98862614Y-97697316D01*
X98857914Y-97736465D01*
X98847987Y-97761780D01*
X98830903Y-97778323D01*
X98804732Y-97791156D01*
X98769775Y-97804491D01*
X98731596Y-97819007D01*
X98736141Y-97561389D01*
X98737971Y-97468519D01*
X98740112Y-97399889D01*
X98743181Y-97350711D01*
X98747794Y-97316198D01*
X98754568Y-97291562D01*
X98764119Y-97272016D01*
X98775634Y-97254770D01*
X98831190Y-97199680D01*
X98898980Y-97167822D01*
X98972713Y-97160191D01*
X99046093Y-97177780D01*
X99046093Y-97177780D01*
G37*
X99046093Y-97177780D02*
X99092672Y-97204723D01*
X99125057Y-97231466D01*
X99148742Y-97259484D01*
X99165059Y-97293748D01*
X99175339Y-97339227D01*
X99180914Y-97400892D01*
X99183116Y-97483711D01*
X99183371Y-97543246D01*
X99183371Y-97762391D01*
X99121686Y-97790044D01*
X99060000Y-97817697D01*
X99052743Y-97577670D01*
X99049744Y-97488028D01*
X99046598Y-97422962D01*
X99042701Y-97378026D01*
X99037447Y-97348770D01*
X99030231Y-97330748D01*
X99020450Y-97319511D01*
X99017312Y-97317079D01*
X98969761Y-97298083D01*
X98921697Y-97305600D01*
X98893086Y-97325543D01*
X98881447Y-97339675D01*
X98873391Y-97358220D01*
X98868271Y-97386334D01*
X98865441Y-97429173D01*
X98864256Y-97491895D01*
X98864057Y-97557261D01*
X98864018Y-97639268D01*
X98862614Y-97697316D01*
X98857914Y-97736465D01*
X98847987Y-97761780D01*
X98830903Y-97778323D01*
X98804732Y-97791156D01*
X98769775Y-97804491D01*
X98731596Y-97819007D01*
X98736141Y-97561389D01*
X98737971Y-97468519D01*
X98740112Y-97399889D01*
X98743181Y-97350711D01*
X98747794Y-97316198D01*
X98754568Y-97291562D01*
X98764119Y-97272016D01*
X98775634Y-97254770D01*
X98831190Y-97199680D01*
X98898980Y-97167822D01*
X98972713Y-97160191D01*
X99046093Y-97177780D01*
G36*
X97371115Y-97171962D02*
X97439145Y-97207733D01*
X97489351Y-97265301D01*
X97507185Y-97302312D01*
X97521063Y-97357882D01*
X97528167Y-97428096D01*
X97528840Y-97504727D01*
X97523427Y-97579552D01*
X97512270Y-97644342D01*
X97495714Y-97690873D01*
X97490626Y-97698887D01*
X97430355Y-97758707D01*
X97358769Y-97794535D01*
X97281092Y-97805020D01*
X97202548Y-97788810D01*
X97180689Y-97779092D01*
X97138122Y-97749143D01*
X97100763Y-97709433D01*
X97097232Y-97704397D01*
X97082881Y-97680124D01*
X97073394Y-97654178D01*
X97067790Y-97620022D01*
X97065086Y-97571119D01*
X97064299Y-97500935D01*
X97064286Y-97485200D01*
X97064322Y-97480192D01*
X97209429Y-97480192D01*
X97210273Y-97546430D01*
X97213596Y-97590386D01*
X97220583Y-97618779D01*
X97232416Y-97638325D01*
X97238457Y-97644857D01*
X97273186Y-97669680D01*
X97306903Y-97668548D01*
X97340995Y-97647016D01*
X97361329Y-97624029D01*
X97373371Y-97590478D01*
X97380134Y-97537569D01*
X97380598Y-97531399D01*
X97381752Y-97435513D01*
X97369688Y-97364299D01*
X97344570Y-97318194D01*
X97306560Y-97297635D01*
X97292992Y-97296514D01*
X97257364Y-97302152D01*
X97232994Y-97321686D01*
X97218093Y-97359042D01*
X97210875Y-97418150D01*
X97209429Y-97480192D01*
X97064322Y-97480192D01*
X97064826Y-97410413D01*
X97067096Y-97358159D01*
X97072068Y-97321949D01*
X97080713Y-97295299D01*
X97094005Y-97271722D01*
X97096943Y-97267338D01*
X97146313Y-97208249D01*
X97200109Y-97173947D01*
X97265602Y-97160331D01*
X97287842Y-97159665D01*
X97371115Y-97171962D01*
X97371115Y-97171962D01*
G37*
X97371115Y-97171962D02*
X97439145Y-97207733D01*
X97489351Y-97265301D01*
X97507185Y-97302312D01*
X97521063Y-97357882D01*
X97528167Y-97428096D01*
X97528840Y-97504727D01*
X97523427Y-97579552D01*
X97512270Y-97644342D01*
X97495714Y-97690873D01*
X97490626Y-97698887D01*
X97430355Y-97758707D01*
X97358769Y-97794535D01*
X97281092Y-97805020D01*
X97202548Y-97788810D01*
X97180689Y-97779092D01*
X97138122Y-97749143D01*
X97100763Y-97709433D01*
X97097232Y-97704397D01*
X97082881Y-97680124D01*
X97073394Y-97654178D01*
X97067790Y-97620022D01*
X97065086Y-97571119D01*
X97064299Y-97500935D01*
X97064286Y-97485200D01*
X97064322Y-97480192D01*
X97209429Y-97480192D01*
X97210273Y-97546430D01*
X97213596Y-97590386D01*
X97220583Y-97618779D01*
X97232416Y-97638325D01*
X97238457Y-97644857D01*
X97273186Y-97669680D01*
X97306903Y-97668548D01*
X97340995Y-97647016D01*
X97361329Y-97624029D01*
X97373371Y-97590478D01*
X97380134Y-97537569D01*
X97380598Y-97531399D01*
X97381752Y-97435513D01*
X97369688Y-97364299D01*
X97344570Y-97318194D01*
X97306560Y-97297635D01*
X97292992Y-97296514D01*
X97257364Y-97302152D01*
X97232994Y-97321686D01*
X97218093Y-97359042D01*
X97210875Y-97418150D01*
X97209429Y-97480192D01*
X97064322Y-97480192D01*
X97064826Y-97410413D01*
X97067096Y-97358159D01*
X97072068Y-97321949D01*
X97080713Y-97295299D01*
X97094005Y-97271722D01*
X97096943Y-97267338D01*
X97146313Y-97208249D01*
X97200109Y-97173947D01*
X97265602Y-97160331D01*
X97287842Y-97159665D01*
X97371115Y-97171962D01*
G36*
X98498303Y-97181239D02*
X98555527Y-97219735D01*
X98599749Y-97275335D01*
X98626167Y-97346086D01*
X98631510Y-97398162D01*
X98630903Y-97419893D01*
X98625822Y-97436531D01*
X98611855Y-97451437D01*
X98584589Y-97467973D01*
X98539612Y-97489498D01*
X98472511Y-97519374D01*
X98472171Y-97519524D01*
X98410407Y-97547813D01*
X98359759Y-97572933D01*
X98325404Y-97592179D01*
X98312518Y-97602848D01*
X98312514Y-97602934D01*
X98323872Y-97626166D01*
X98350431Y-97651774D01*
X98380923Y-97670221D01*
X98396370Y-97673886D01*
X98438515Y-97661212D01*
X98474808Y-97629471D01*
X98492517Y-97594572D01*
X98509552Y-97568845D01*
X98542922Y-97539546D01*
X98582149Y-97514235D01*
X98616756Y-97500471D01*
X98623993Y-97499714D01*
X98632139Y-97512160D01*
X98632630Y-97543972D01*
X98626643Y-97586866D01*
X98615357Y-97632558D01*
X98599950Y-97672761D01*
X98599171Y-97674322D01*
X98552804Y-97739062D01*
X98492711Y-97783097D01*
X98424465Y-97804711D01*
X98353638Y-97802185D01*
X98285804Y-97773804D01*
X98282788Y-97771808D01*
X98229427Y-97723448D01*
X98194340Y-97660352D01*
X98174922Y-97577387D01*
X98172316Y-97554078D01*
X98167701Y-97444055D01*
X98173233Y-97392748D01*
X98312514Y-97392748D01*
X98314324Y-97424753D01*
X98324222Y-97434093D01*
X98348898Y-97427105D01*
X98387795Y-97410587D01*
X98431275Y-97389881D01*
X98432356Y-97389333D01*
X98469209Y-97369949D01*
X98484000Y-97357013D01*
X98480353Y-97343451D01*
X98464995Y-97325632D01*
X98425923Y-97299845D01*
X98383846Y-97297950D01*
X98346103Y-97316717D01*
X98320034Y-97352915D01*
X98312514Y-97392748D01*
X98173233Y-97392748D01*
X98177194Y-97356027D01*
X98201550Y-97286212D01*
X98235456Y-97237302D01*
X98296653Y-97187878D01*
X98364063Y-97163359D01*
X98432880Y-97161797D01*
X98498303Y-97181239D01*
X98498303Y-97181239D01*
G37*
X98498303Y-97181239D02*
X98555527Y-97219735D01*
X98599749Y-97275335D01*
X98626167Y-97346086D01*
X98631510Y-97398162D01*
X98630903Y-97419893D01*
X98625822Y-97436531D01*
X98611855Y-97451437D01*
X98584589Y-97467973D01*
X98539612Y-97489498D01*
X98472511Y-97519374D01*
X98472171Y-97519524D01*
X98410407Y-97547813D01*
X98359759Y-97572933D01*
X98325404Y-97592179D01*
X98312518Y-97602848D01*
X98312514Y-97602934D01*
X98323872Y-97626166D01*
X98350431Y-97651774D01*
X98380923Y-97670221D01*
X98396370Y-97673886D01*
X98438515Y-97661212D01*
X98474808Y-97629471D01*
X98492517Y-97594572D01*
X98509552Y-97568845D01*
X98542922Y-97539546D01*
X98582149Y-97514235D01*
X98616756Y-97500471D01*
X98623993Y-97499714D01*
X98632139Y-97512160D01*
X98632630Y-97543972D01*
X98626643Y-97586866D01*
X98615357Y-97632558D01*
X98599950Y-97672761D01*
X98599171Y-97674322D01*
X98552804Y-97739062D01*
X98492711Y-97783097D01*
X98424465Y-97804711D01*
X98353638Y-97802185D01*
X98285804Y-97773804D01*
X98282788Y-97771808D01*
X98229427Y-97723448D01*
X98194340Y-97660352D01*
X98174922Y-97577387D01*
X98172316Y-97554078D01*
X98167701Y-97444055D01*
X98173233Y-97392748D01*
X98312514Y-97392748D01*
X98314324Y-97424753D01*
X98324222Y-97434093D01*
X98348898Y-97427105D01*
X98387795Y-97410587D01*
X98431275Y-97389881D01*
X98432356Y-97389333D01*
X98469209Y-97369949D01*
X98484000Y-97357013D01*
X98480353Y-97343451D01*
X98464995Y-97325632D01*
X98425923Y-97299845D01*
X98383846Y-97297950D01*
X98346103Y-97316717D01*
X98320034Y-97352915D01*
X98312514Y-97392748D01*
X98173233Y-97392748D01*
X98177194Y-97356027D01*
X98201550Y-97286212D01*
X98235456Y-97237302D01*
X98296653Y-97187878D01*
X98364063Y-97163359D01*
X98432880Y-97161797D01*
X98498303Y-97181239D01*
G36*
X99705886Y-97101289D02*
X99710139Y-97160613D01*
X99715025Y-97195572D01*
X99721795Y-97210820D01*
X99731702Y-97211015D01*
X99734914Y-97209195D01*
X99777644Y-97196015D01*
X99833227Y-97196785D01*
X99889737Y-97210333D01*
X99925082Y-97227861D01*
X99961321Y-97255861D01*
X99987813Y-97287549D01*
X100005999Y-97327813D01*
X100017322Y-97381543D01*
X100023222Y-97453626D01*
X100025143Y-97548951D01*
X100025177Y-97567237D01*
X100025200Y-97772646D01*
X99979491Y-97788580D01*
X99947027Y-97799420D01*
X99929215Y-97804468D01*
X99928691Y-97804514D01*
X99926937Y-97790828D01*
X99925444Y-97753076D01*
X99924326Y-97696224D01*
X99923697Y-97625234D01*
X99923600Y-97582073D01*
X99923398Y-97496973D01*
X99922358Y-97435981D01*
X99919831Y-97394177D01*
X99915164Y-97366642D01*
X99907707Y-97348456D01*
X99896811Y-97334698D01*
X99890007Y-97328073D01*
X99843272Y-97301375D01*
X99792272Y-97299375D01*
X99746001Y-97321955D01*
X99737444Y-97330107D01*
X99724893Y-97345436D01*
X99716188Y-97363618D01*
X99710631Y-97389909D01*
X99707526Y-97429562D01*
X99706176Y-97487832D01*
X99705886Y-97568173D01*
X99705886Y-97772646D01*
X99660177Y-97788580D01*
X99627713Y-97799420D01*
X99609901Y-97804468D01*
X99609377Y-97804514D01*
X99608037Y-97790623D01*
X99606828Y-97751439D01*
X99605801Y-97690700D01*
X99605002Y-97612141D01*
X99604481Y-97519498D01*
X99604286Y-97416509D01*
X99604286Y-97019342D01*
X99651457Y-96999444D01*
X99698629Y-96979547D01*
X99705886Y-97101289D01*
X99705886Y-97101289D01*
G37*
X99705886Y-97101289D02*
X99710139Y-97160613D01*
X99715025Y-97195572D01*
X99721795Y-97210820D01*
X99731702Y-97211015D01*
X99734914Y-97209195D01*
X99777644Y-97196015D01*
X99833227Y-97196785D01*
X99889737Y-97210333D01*
X99925082Y-97227861D01*
X99961321Y-97255861D01*
X99987813Y-97287549D01*
X100005999Y-97327813D01*
X100017322Y-97381543D01*
X100023222Y-97453626D01*
X100025143Y-97548951D01*
X100025177Y-97567237D01*
X100025200Y-97772646D01*
X99979491Y-97788580D01*
X99947027Y-97799420D01*
X99929215Y-97804468D01*
X99928691Y-97804514D01*
X99926937Y-97790828D01*
X99925444Y-97753076D01*
X99924326Y-97696224D01*
X99923697Y-97625234D01*
X99923600Y-97582073D01*
X99923398Y-97496973D01*
X99922358Y-97435981D01*
X99919831Y-97394177D01*
X99915164Y-97366642D01*
X99907707Y-97348456D01*
X99896811Y-97334698D01*
X99890007Y-97328073D01*
X99843272Y-97301375D01*
X99792272Y-97299375D01*
X99746001Y-97321955D01*
X99737444Y-97330107D01*
X99724893Y-97345436D01*
X99716188Y-97363618D01*
X99710631Y-97389909D01*
X99707526Y-97429562D01*
X99706176Y-97487832D01*
X99705886Y-97568173D01*
X99705886Y-97772646D01*
X99660177Y-97788580D01*
X99627713Y-97799420D01*
X99609901Y-97804468D01*
X99609377Y-97804514D01*
X99608037Y-97790623D01*
X99606828Y-97751439D01*
X99605801Y-97690700D01*
X99605002Y-97612141D01*
X99604481Y-97519498D01*
X99604286Y-97416509D01*
X99604286Y-97019342D01*
X99651457Y-96999444D01*
X99698629Y-96979547D01*
X99705886Y-97101289D01*
G36*
X100369744Y-97200968D02*
X100426616Y-97222087D01*
X100427267Y-97222493D01*
X100462440Y-97248380D01*
X100488407Y-97278633D01*
X100506670Y-97318058D01*
X100518732Y-97371462D01*
X100526096Y-97443651D01*
X100530264Y-97539432D01*
X100530629Y-97553078D01*
X100535876Y-97758842D01*
X100491716Y-97781678D01*
X100459763Y-97797110D01*
X100440470Y-97804423D01*
X100439578Y-97804514D01*
X100436239Y-97791022D01*
X100433587Y-97754626D01*
X100431956Y-97701452D01*
X100431600Y-97658393D01*
X100431592Y-97588641D01*
X100428403Y-97544837D01*
X100417288Y-97523944D01*
X100393501Y-97522925D01*
X100352296Y-97538741D01*
X100290086Y-97567815D01*
X100244341Y-97591963D01*
X100220813Y-97612913D01*
X100213896Y-97635747D01*
X100213886Y-97636877D01*
X100225299Y-97676212D01*
X100259092Y-97697462D01*
X100310809Y-97700539D01*
X100348061Y-97700006D01*
X100367703Y-97710735D01*
X100379952Y-97736505D01*
X100387002Y-97769337D01*
X100376842Y-97787966D01*
X100373017Y-97790632D01*
X100337001Y-97801340D01*
X100286566Y-97802856D01*
X100234626Y-97795759D01*
X100197822Y-97782788D01*
X100146938Y-97739585D01*
X100118014Y-97679446D01*
X100112286Y-97632462D01*
X100116657Y-97590082D01*
X100132475Y-97555488D01*
X100163797Y-97524763D01*
X100214678Y-97493990D01*
X100289176Y-97459252D01*
X100293714Y-97457288D01*
X100360821Y-97426287D01*
X100402232Y-97400862D01*
X100419981Y-97378014D01*
X100416107Y-97354745D01*
X100392643Y-97328056D01*
X100385627Y-97321914D01*
X100338630Y-97298100D01*
X100289933Y-97299103D01*
X100247522Y-97322451D01*
X100219384Y-97365675D01*
X100216769Y-97374160D01*
X100191308Y-97415308D01*
X100159001Y-97435128D01*
X100112286Y-97454770D01*
X100112286Y-97403950D01*
X100126496Y-97330082D01*
X100168675Y-97262327D01*
X100190624Y-97239661D01*
X100240517Y-97210569D01*
X100303967Y-97197400D01*
X100369744Y-97200968D01*
X100369744Y-97200968D01*
G37*
X100369744Y-97200968D02*
X100426616Y-97222087D01*
X100427267Y-97222493D01*
X100462440Y-97248380D01*
X100488407Y-97278633D01*
X100506670Y-97318058D01*
X100518732Y-97371462D01*
X100526096Y-97443651D01*
X100530264Y-97539432D01*
X100530629Y-97553078D01*
X100535876Y-97758842D01*
X100491716Y-97781678D01*
X100459763Y-97797110D01*
X100440470Y-97804423D01*
X100439578Y-97804514D01*
X100436239Y-97791022D01*
X100433587Y-97754626D01*
X100431956Y-97701452D01*
X100431600Y-97658393D01*
X100431592Y-97588641D01*
X100428403Y-97544837D01*
X100417288Y-97523944D01*
X100393501Y-97522925D01*
X100352296Y-97538741D01*
X100290086Y-97567815D01*
X100244341Y-97591963D01*
X100220813Y-97612913D01*
X100213896Y-97635747D01*
X100213886Y-97636877D01*
X100225299Y-97676212D01*
X100259092Y-97697462D01*
X100310809Y-97700539D01*
X100348061Y-97700006D01*
X100367703Y-97710735D01*
X100379952Y-97736505D01*
X100387002Y-97769337D01*
X100376842Y-97787966D01*
X100373017Y-97790632D01*
X100337001Y-97801340D01*
X100286566Y-97802856D01*
X100234626Y-97795759D01*
X100197822Y-97782788D01*
X100146938Y-97739585D01*
X100118014Y-97679446D01*
X100112286Y-97632462D01*
X100116657Y-97590082D01*
X100132475Y-97555488D01*
X100163797Y-97524763D01*
X100214678Y-97493990D01*
X100289176Y-97459252D01*
X100293714Y-97457288D01*
X100360821Y-97426287D01*
X100402232Y-97400862D01*
X100419981Y-97378014D01*
X100416107Y-97354745D01*
X100392643Y-97328056D01*
X100385627Y-97321914D01*
X100338630Y-97298100D01*
X100289933Y-97299103D01*
X100247522Y-97322451D01*
X100219384Y-97365675D01*
X100216769Y-97374160D01*
X100191308Y-97415308D01*
X100159001Y-97435128D01*
X100112286Y-97454770D01*
X100112286Y-97403950D01*
X100126496Y-97330082D01*
X100168675Y-97262327D01*
X100190624Y-97239661D01*
X100240517Y-97210569D01*
X100303967Y-97197400D01*
X100369744Y-97200968D01*
G36*
X100859926Y-97199755D02*
X100925858Y-97224084D01*
X100979273Y-97267117D01*
X101000164Y-97297409D01*
X101022939Y-97352994D01*
X101022466Y-97393186D01*
X100998562Y-97420217D01*
X100989717Y-97424813D01*
X100951530Y-97439144D01*
X100932028Y-97435472D01*
X100925422Y-97411407D01*
X100925086Y-97398114D01*
X100912992Y-97349210D01*
X100881471Y-97314999D01*
X100837659Y-97298476D01*
X100788695Y-97302634D01*
X100748894Y-97324227D01*
X100735450Y-97336544D01*
X100725921Y-97351487D01*
X100719485Y-97374075D01*
X100715317Y-97409328D01*
X100712597Y-97462266D01*
X100710502Y-97537907D01*
X100709960Y-97561857D01*
X100707981Y-97643790D01*
X100705731Y-97701455D01*
X100702357Y-97739608D01*
X100697006Y-97763004D01*
X100688824Y-97776398D01*
X100676959Y-97784545D01*
X100669362Y-97788144D01*
X100637102Y-97800452D01*
X100618111Y-97804514D01*
X100611836Y-97790948D01*
X100608006Y-97749934D01*
X100606600Y-97680999D01*
X100607598Y-97583669D01*
X100607908Y-97568657D01*
X100610101Y-97479859D01*
X100612693Y-97415019D01*
X100616382Y-97369067D01*
X100621864Y-97336935D01*
X100629835Y-97313553D01*
X100640993Y-97293852D01*
X100646830Y-97285410D01*
X100680296Y-97248057D01*
X100717727Y-97219003D01*
X100722309Y-97216467D01*
X100789426Y-97196443D01*
X100859926Y-97199755D01*
X100859926Y-97199755D01*
G37*
X100859926Y-97199755D02*
X100925858Y-97224084D01*
X100979273Y-97267117D01*
X101000164Y-97297409D01*
X101022939Y-97352994D01*
X101022466Y-97393186D01*
X100998562Y-97420217D01*
X100989717Y-97424813D01*
X100951530Y-97439144D01*
X100932028Y-97435472D01*
X100925422Y-97411407D01*
X100925086Y-97398114D01*
X100912992Y-97349210D01*
X100881471Y-97314999D01*
X100837659Y-97298476D01*
X100788695Y-97302634D01*
X100748894Y-97324227D01*
X100735450Y-97336544D01*
X100725921Y-97351487D01*
X100719485Y-97374075D01*
X100715317Y-97409328D01*
X100712597Y-97462266D01*
X100710502Y-97537907D01*
X100709960Y-97561857D01*
X100707981Y-97643790D01*
X100705731Y-97701455D01*
X100702357Y-97739608D01*
X100697006Y-97763004D01*
X100688824Y-97776398D01*
X100676959Y-97784545D01*
X100669362Y-97788144D01*
X100637102Y-97800452D01*
X100618111Y-97804514D01*
X100611836Y-97790948D01*
X100608006Y-97749934D01*
X100606600Y-97680999D01*
X100607598Y-97583669D01*
X100607908Y-97568657D01*
X100610101Y-97479859D01*
X100612693Y-97415019D01*
X100616382Y-97369067D01*
X100621864Y-97336935D01*
X100629835Y-97313553D01*
X100640993Y-97293852D01*
X100646830Y-97285410D01*
X100680296Y-97248057D01*
X100717727Y-97219003D01*
X100722309Y-97216467D01*
X100789426Y-97196443D01*
X100859926Y-97199755D01*
G36*
X101520117Y-97315358D02*
X101519933Y-97423837D01*
X101519219Y-97507287D01*
X101517675Y-97569704D01*
X101515001Y-97615085D01*
X101510894Y-97647429D01*
X101505055Y-97670733D01*
X101497182Y-97688995D01*
X101491221Y-97699418D01*
X101441855Y-97755945D01*
X101379264Y-97791377D01*
X101310013Y-97804090D01*
X101240668Y-97792463D01*
X101199375Y-97771568D01*
X101156025Y-97735422D01*
X101126481Y-97691276D01*
X101108655Y-97633462D01*
X101100463Y-97556313D01*
X101099302Y-97499714D01*
X101099458Y-97495647D01*
X101200857Y-97495647D01*
X101201476Y-97560550D01*
X101204314Y-97603514D01*
X101210840Y-97631622D01*
X101222523Y-97651953D01*
X101236483Y-97667288D01*
X101283365Y-97696890D01*
X101333701Y-97699419D01*
X101381276Y-97674705D01*
X101384979Y-97671356D01*
X101400783Y-97653935D01*
X101410693Y-97633209D01*
X101416058Y-97602362D01*
X101418228Y-97554577D01*
X101418571Y-97501748D01*
X101417827Y-97435381D01*
X101414748Y-97391106D01*
X101408061Y-97362009D01*
X101396496Y-97341173D01*
X101387013Y-97330107D01*
X101342960Y-97302198D01*
X101292224Y-97298843D01*
X101243796Y-97320159D01*
X101234450Y-97328073D01*
X101218540Y-97345647D01*
X101208610Y-97366587D01*
X101203278Y-97397782D01*
X101201163Y-97446122D01*
X101200857Y-97495647D01*
X101099458Y-97495647D01*
X101102810Y-97408568D01*
X101114726Y-97340086D01*
X101137135Y-97288600D01*
X101172124Y-97248443D01*
X101199375Y-97227861D01*
X101248907Y-97205625D01*
X101306316Y-97195304D01*
X101359682Y-97198067D01*
X101389543Y-97209212D01*
X101401261Y-97212383D01*
X101409037Y-97200557D01*
X101414465Y-97168866D01*
X101418571Y-97120593D01*
X101423067Y-97066829D01*
X101429313Y-97034482D01*
X101440676Y-97015985D01*
X101460528Y-97003770D01*
X101473000Y-96998362D01*
X101520171Y-96978601D01*
X101520117Y-97315358D01*
X101520117Y-97315358D01*
G37*
X101520117Y-97315358D02*
X101519933Y-97423837D01*
X101519219Y-97507287D01*
X101517675Y-97569704D01*
X101515001Y-97615085D01*
X101510894Y-97647429D01*
X101505055Y-97670733D01*
X101497182Y-97688995D01*
X101491221Y-97699418D01*
X101441855Y-97755945D01*
X101379264Y-97791377D01*
X101310013Y-97804090D01*
X101240668Y-97792463D01*
X101199375Y-97771568D01*
X101156025Y-97735422D01*
X101126481Y-97691276D01*
X101108655Y-97633462D01*
X101100463Y-97556313D01*
X101099302Y-97499714D01*
X101099458Y-97495647D01*
X101200857Y-97495647D01*
X101201476Y-97560550D01*
X101204314Y-97603514D01*
X101210840Y-97631622D01*
X101222523Y-97651953D01*
X101236483Y-97667288D01*
X101283365Y-97696890D01*
X101333701Y-97699419D01*
X101381276Y-97674705D01*
X101384979Y-97671356D01*
X101400783Y-97653935D01*
X101410693Y-97633209D01*
X101416058Y-97602362D01*
X101418228Y-97554577D01*
X101418571Y-97501748D01*
X101417827Y-97435381D01*
X101414748Y-97391106D01*
X101408061Y-97362009D01*
X101396496Y-97341173D01*
X101387013Y-97330107D01*
X101342960Y-97302198D01*
X101292224Y-97298843D01*
X101243796Y-97320159D01*
X101234450Y-97328073D01*
X101218540Y-97345647D01*
X101208610Y-97366587D01*
X101203278Y-97397782D01*
X101201163Y-97446122D01*
X101200857Y-97495647D01*
X101099458Y-97495647D01*
X101102810Y-97408568D01*
X101114726Y-97340086D01*
X101137135Y-97288600D01*
X101172124Y-97248443D01*
X101199375Y-97227861D01*
X101248907Y-97205625D01*
X101306316Y-97195304D01*
X101359682Y-97198067D01*
X101389543Y-97209212D01*
X101401261Y-97212383D01*
X101409037Y-97200557D01*
X101414465Y-97168866D01*
X101418571Y-97120593D01*
X101423067Y-97066829D01*
X101429313Y-97034482D01*
X101440676Y-97015985D01*
X101460528Y-97003770D01*
X101473000Y-96998362D01*
X101520171Y-96978601D01*
X101520117Y-97315358D01*
G36*
X102109833Y-97208663D02*
X102112048Y-97246850D01*
X102113784Y-97304886D01*
X102114899Y-97378180D01*
X102115257Y-97455055D01*
X102115257Y-97715196D01*
X102069326Y-97761127D01*
X102037675Y-97789429D01*
X102009890Y-97800893D01*
X101971915Y-97800168D01*
X101956840Y-97798321D01*
X101909726Y-97792948D01*
X101870756Y-97789869D01*
X101861257Y-97789585D01*
X101829233Y-97791445D01*
X101783432Y-97796114D01*
X101765674Y-97798321D01*
X101722057Y-97801735D01*
X101692745Y-97794320D01*
X101663680Y-97771427D01*
X101653188Y-97761127D01*
X101607257Y-97715196D01*
X101607257Y-97228602D01*
X101644226Y-97211758D01*
X101676059Y-97199282D01*
X101694683Y-97194914D01*
X101699458Y-97208718D01*
X101703921Y-97247286D01*
X101707775Y-97306356D01*
X101710722Y-97381663D01*
X101712143Y-97445286D01*
X101716114Y-97695657D01*
X101750759Y-97700556D01*
X101782268Y-97697131D01*
X101797708Y-97686041D01*
X101802023Y-97665308D01*
X101805708Y-97621145D01*
X101808469Y-97559146D01*
X101810012Y-97484909D01*
X101810235Y-97446706D01*
X101810457Y-97226783D01*
X101856166Y-97210849D01*
X101888518Y-97200015D01*
X101906115Y-97194962D01*
X101906623Y-97194914D01*
X101908388Y-97208648D01*
X101910329Y-97246730D01*
X101912282Y-97304482D01*
X101914084Y-97377227D01*
X101915343Y-97445286D01*
X101919314Y-97695657D01*
X102006400Y-97695657D01*
X102010396Y-97467240D01*
X102014392Y-97238822D01*
X102056847Y-97216868D01*
X102088192Y-97201793D01*
X102106744Y-97194951D01*
X102107279Y-97194914D01*
X102109833Y-97208663D01*
X102109833Y-97208663D01*
G37*
X102109833Y-97208663D02*
X102112048Y-97246850D01*
X102113784Y-97304886D01*
X102114899Y-97378180D01*
X102115257Y-97455055D01*
X102115257Y-97715196D01*
X102069326Y-97761127D01*
X102037675Y-97789429D01*
X102009890Y-97800893D01*
X101971915Y-97800168D01*
X101956840Y-97798321D01*
X101909726Y-97792948D01*
X101870756Y-97789869D01*
X101861257Y-97789585D01*
X101829233Y-97791445D01*
X101783432Y-97796114D01*
X101765674Y-97798321D01*
X101722057Y-97801735D01*
X101692745Y-97794320D01*
X101663680Y-97771427D01*
X101653188Y-97761127D01*
X101607257Y-97715196D01*
X101607257Y-97228602D01*
X101644226Y-97211758D01*
X101676059Y-97199282D01*
X101694683Y-97194914D01*
X101699458Y-97208718D01*
X101703921Y-97247286D01*
X101707775Y-97306356D01*
X101710722Y-97381663D01*
X101712143Y-97445286D01*
X101716114Y-97695657D01*
X101750759Y-97700556D01*
X101782268Y-97697131D01*
X101797708Y-97686041D01*
X101802023Y-97665308D01*
X101805708Y-97621145D01*
X101808469Y-97559146D01*
X101810012Y-97484909D01*
X101810235Y-97446706D01*
X101810457Y-97226783D01*
X101856166Y-97210849D01*
X101888518Y-97200015D01*
X101906115Y-97194962D01*
X101906623Y-97194914D01*
X101908388Y-97208648D01*
X101910329Y-97246730D01*
X101912282Y-97304482D01*
X101914084Y-97377227D01*
X101915343Y-97445286D01*
X101919314Y-97695657D01*
X102006400Y-97695657D01*
X102010396Y-97467240D01*
X102014392Y-97238822D01*
X102056847Y-97216868D01*
X102088192Y-97201793D01*
X102106744Y-97194951D01*
X102107279Y-97194914D01*
X102109833Y-97208663D01*
G36*
X102474876Y-97206335D02*
X102516667Y-97225344D01*
X102549469Y-97248378D01*
X102573503Y-97274133D01*
X102590097Y-97307358D01*
X102600577Y-97352800D01*
X102606271Y-97415207D01*
X102608507Y-97499327D01*
X102608743Y-97554721D01*
X102608743Y-97770826D01*
X102571774Y-97787670D01*
X102542656Y-97799981D01*
X102528231Y-97804514D01*
X102525472Y-97791025D01*
X102523282Y-97754653D01*
X102521942Y-97701542D01*
X102521657Y-97659372D01*
X102520434Y-97598447D01*
X102517136Y-97550115D01*
X102512321Y-97520518D01*
X102508496Y-97514229D01*
X102482783Y-97520652D01*
X102442418Y-97537125D01*
X102395679Y-97559458D01*
X102350845Y-97583457D01*
X102316193Y-97604930D01*
X102300002Y-97619685D01*
X102299938Y-97619845D01*
X102301330Y-97647152D01*
X102313818Y-97673219D01*
X102335743Y-97694392D01*
X102367743Y-97701474D01*
X102395092Y-97700649D01*
X102433826Y-97700042D01*
X102454158Y-97709116D01*
X102466369Y-97733092D01*
X102467909Y-97737613D01*
X102473203Y-97771806D01*
X102459047Y-97792568D01*
X102422148Y-97802462D01*
X102382289Y-97804292D01*
X102310562Y-97790727D01*
X102273432Y-97771355D01*
X102227576Y-97725845D01*
X102203256Y-97669983D01*
X102201073Y-97610957D01*
X102221629Y-97555953D01*
X102252549Y-97521486D01*
X102283420Y-97502189D01*
X102331942Y-97477759D01*
X102388485Y-97452985D01*
X102397910Y-97449199D01*
X102460019Y-97421791D01*
X102495822Y-97397634D01*
X102507337Y-97373619D01*
X102496580Y-97346635D01*
X102478114Y-97325543D01*
X102434469Y-97299572D01*
X102386446Y-97297624D01*
X102342406Y-97317637D01*
X102310709Y-97357551D01*
X102306549Y-97367848D01*
X102282327Y-97405724D01*
X102246965Y-97433842D01*
X102202343Y-97456917D01*
X102202343Y-97391485D01*
X102204969Y-97351506D01*
X102216230Y-97319997D01*
X102241199Y-97286378D01*
X102265169Y-97260484D01*
X102302441Y-97223817D01*
X102331401Y-97204121D01*
X102362505Y-97196220D01*
X102397713Y-97194914D01*
X102474876Y-97206335D01*
X102474876Y-97206335D01*
G37*
X102474876Y-97206335D02*
X102516667Y-97225344D01*
X102549469Y-97248378D01*
X102573503Y-97274133D01*
X102590097Y-97307358D01*
X102600577Y-97352800D01*
X102606271Y-97415207D01*
X102608507Y-97499327D01*
X102608743Y-97554721D01*
X102608743Y-97770826D01*
X102571774Y-97787670D01*
X102542656Y-97799981D01*
X102528231Y-97804514D01*
X102525472Y-97791025D01*
X102523282Y-97754653D01*
X102521942Y-97701542D01*
X102521657Y-97659372D01*
X102520434Y-97598447D01*
X102517136Y-97550115D01*
X102512321Y-97520518D01*
X102508496Y-97514229D01*
X102482783Y-97520652D01*
X102442418Y-97537125D01*
X102395679Y-97559458D01*
X102350845Y-97583457D01*
X102316193Y-97604930D01*
X102300002Y-97619685D01*
X102299938Y-97619845D01*
X102301330Y-97647152D01*
X102313818Y-97673219D01*
X102335743Y-97694392D01*
X102367743Y-97701474D01*
X102395092Y-97700649D01*
X102433826Y-97700042D01*
X102454158Y-97709116D01*
X102466369Y-97733092D01*
X102467909Y-97737613D01*
X102473203Y-97771806D01*
X102459047Y-97792568D01*
X102422148Y-97802462D01*
X102382289Y-97804292D01*
X102310562Y-97790727D01*
X102273432Y-97771355D01*
X102227576Y-97725845D01*
X102203256Y-97669983D01*
X102201073Y-97610957D01*
X102221629Y-97555953D01*
X102252549Y-97521486D01*
X102283420Y-97502189D01*
X102331942Y-97477759D01*
X102388485Y-97452985D01*
X102397910Y-97449199D01*
X102460019Y-97421791D01*
X102495822Y-97397634D01*
X102507337Y-97373619D01*
X102496580Y-97346635D01*
X102478114Y-97325543D01*
X102434469Y-97299572D01*
X102386446Y-97297624D01*
X102342406Y-97317637D01*
X102310709Y-97357551D01*
X102306549Y-97367848D01*
X102282327Y-97405724D01*
X102246965Y-97433842D01*
X102202343Y-97456917D01*
X102202343Y-97391485D01*
X102204969Y-97351506D01*
X102216230Y-97319997D01*
X102241199Y-97286378D01*
X102265169Y-97260484D01*
X102302441Y-97223817D01*
X102331401Y-97204121D01*
X102362505Y-97196220D01*
X102397713Y-97194914D01*
X102474876Y-97206335D01*
G36*
X102982600Y-97208752D02*
X102999948Y-97216334D01*
X103041356Y-97249128D01*
X103076765Y-97296547D01*
X103098664Y-97347151D01*
X103102229Y-97372098D01*
X103090279Y-97406927D01*
X103064067Y-97425357D01*
X103035964Y-97436516D01*
X103023095Y-97438572D01*
X103016829Y-97423649D01*
X103004456Y-97391175D01*
X102999028Y-97376502D01*
X102968590Y-97325744D01*
X102924520Y-97300427D01*
X102868010Y-97301206D01*
X102863825Y-97302203D01*
X102833655Y-97316507D01*
X102811476Y-97344393D01*
X102796327Y-97389287D01*
X102787250Y-97454615D01*
X102783286Y-97543804D01*
X102782914Y-97591261D01*
X102782730Y-97666071D01*
X102781522Y-97717069D01*
X102778309Y-97749471D01*
X102772109Y-97768495D01*
X102761940Y-97779356D01*
X102746819Y-97787272D01*
X102745946Y-97787670D01*
X102716828Y-97799981D01*
X102702403Y-97804514D01*
X102700186Y-97790809D01*
X102698289Y-97752925D01*
X102696847Y-97695715D01*
X102695998Y-97624027D01*
X102695829Y-97571565D01*
X102696692Y-97470047D01*
X102700070Y-97393032D01*
X102707142Y-97336023D01*
X102719088Y-97294526D01*
X102737090Y-97264043D01*
X102762327Y-97240080D01*
X102787247Y-97223355D01*
X102847171Y-97201097D01*
X102916911Y-97196076D01*
X102982600Y-97208752D01*
X102982600Y-97208752D01*
G37*
X102982600Y-97208752D02*
X102999948Y-97216334D01*
X103041356Y-97249128D01*
X103076765Y-97296547D01*
X103098664Y-97347151D01*
X103102229Y-97372098D01*
X103090279Y-97406927D01*
X103064067Y-97425357D01*
X103035964Y-97436516D01*
X103023095Y-97438572D01*
X103016829Y-97423649D01*
X103004456Y-97391175D01*
X102999028Y-97376502D01*
X102968590Y-97325744D01*
X102924520Y-97300427D01*
X102868010Y-97301206D01*
X102863825Y-97302203D01*
X102833655Y-97316507D01*
X102811476Y-97344393D01*
X102796327Y-97389287D01*
X102787250Y-97454615D01*
X102783286Y-97543804D01*
X102782914Y-97591261D01*
X102782730Y-97666071D01*
X102781522Y-97717069D01*
X102778309Y-97749471D01*
X102772109Y-97768495D01*
X102761940Y-97779356D01*
X102746819Y-97787272D01*
X102745946Y-97787670D01*
X102716828Y-97799981D01*
X102702403Y-97804514D01*
X102700186Y-97790809D01*
X102698289Y-97752925D01*
X102696847Y-97695715D01*
X102695998Y-97624027D01*
X102695829Y-97571565D01*
X102696692Y-97470047D01*
X102700070Y-97393032D01*
X102707142Y-97336023D01*
X102719088Y-97294526D01*
X102737090Y-97264043D01*
X102762327Y-97240080D01*
X102787247Y-97223355D01*
X102847171Y-97201097D01*
X102916911Y-97196076D01*
X102982600Y-97208752D01*
G36*
X103483595Y-97216966D02*
X103541021Y-97254497D01*
X103568719Y-97288096D01*
X103590662Y-97349064D01*
X103592405Y-97397308D01*
X103588457Y-97461816D01*
X103439686Y-97526934D01*
X103367349Y-97560202D01*
X103320084Y-97586964D01*
X103295507Y-97610144D01*
X103291237Y-97632667D01*
X103304889Y-97657455D01*
X103319943Y-97673886D01*
X103363746Y-97700235D01*
X103411389Y-97702081D01*
X103455145Y-97681546D01*
X103487289Y-97640752D01*
X103493038Y-97626347D01*
X103520576Y-97581356D01*
X103552258Y-97562182D01*
X103595714Y-97545779D01*
X103595714Y-97607966D01*
X103591872Y-97650283D01*
X103576823Y-97685969D01*
X103545280Y-97726943D01*
X103540592Y-97732267D01*
X103505506Y-97768720D01*
X103475347Y-97788283D01*
X103437615Y-97797283D01*
X103406335Y-97800230D01*
X103350385Y-97800965D01*
X103310555Y-97791660D01*
X103285708Y-97777846D01*
X103246656Y-97747467D01*
X103219625Y-97714613D01*
X103202517Y-97673294D01*
X103193238Y-97617521D01*
X103189693Y-97541305D01*
X103189410Y-97502622D01*
X103190372Y-97456247D01*
X103278007Y-97456247D01*
X103279023Y-97481126D01*
X103281556Y-97485200D01*
X103298274Y-97479665D01*
X103334249Y-97465017D01*
X103382331Y-97444190D01*
X103392386Y-97439714D01*
X103453152Y-97408814D01*
X103486632Y-97381657D01*
X103493990Y-97356220D01*
X103476391Y-97330481D01*
X103461856Y-97319109D01*
X103409410Y-97296364D01*
X103360322Y-97300122D01*
X103319227Y-97327884D01*
X103290758Y-97377152D01*
X103281631Y-97416257D01*
X103278007Y-97456247D01*
X103190372Y-97456247D01*
X103191285Y-97412249D01*
X103198196Y-97345384D01*
X103211884Y-97296695D01*
X103234096Y-97260849D01*
X103266574Y-97232513D01*
X103280733Y-97223355D01*
X103345053Y-97199507D01*
X103415473Y-97198006D01*
X103483595Y-97216966D01*
X103483595Y-97216966D01*
G37*
X103483595Y-97216966D02*
X103541021Y-97254497D01*
X103568719Y-97288096D01*
X103590662Y-97349064D01*
X103592405Y-97397308D01*
X103588457Y-97461816D01*
X103439686Y-97526934D01*
X103367349Y-97560202D01*
X103320084Y-97586964D01*
X103295507Y-97610144D01*
X103291237Y-97632667D01*
X103304889Y-97657455D01*
X103319943Y-97673886D01*
X103363746Y-97700235D01*
X103411389Y-97702081D01*
X103455145Y-97681546D01*
X103487289Y-97640752D01*
X103493038Y-97626347D01*
X103520576Y-97581356D01*
X103552258Y-97562182D01*
X103595714Y-97545779D01*
X103595714Y-97607966D01*
X103591872Y-97650283D01*
X103576823Y-97685969D01*
X103545280Y-97726943D01*
X103540592Y-97732267D01*
X103505506Y-97768720D01*
X103475347Y-97788283D01*
X103437615Y-97797283D01*
X103406335Y-97800230D01*
X103350385Y-97800965D01*
X103310555Y-97791660D01*
X103285708Y-97777846D01*
X103246656Y-97747467D01*
X103219625Y-97714613D01*
X103202517Y-97673294D01*
X103193238Y-97617521D01*
X103189693Y-97541305D01*
X103189410Y-97502622D01*
X103190372Y-97456247D01*
X103278007Y-97456247D01*
X103279023Y-97481126D01*
X103281556Y-97485200D01*
X103298274Y-97479665D01*
X103334249Y-97465017D01*
X103382331Y-97444190D01*
X103392386Y-97439714D01*
X103453152Y-97408814D01*
X103486632Y-97381657D01*
X103493990Y-97356220D01*
X103476391Y-97330481D01*
X103461856Y-97319109D01*
X103409410Y-97296364D01*
X103360322Y-97300122D01*
X103319227Y-97327884D01*
X103290758Y-97377152D01*
X103281631Y-97416257D01*
X103278007Y-97456247D01*
X103190372Y-97456247D01*
X103191285Y-97412249D01*
X103198196Y-97345384D01*
X103211884Y-97296695D01*
X103234096Y-97260849D01*
X103266574Y-97232513D01*
X103280733Y-97223355D01*
X103345053Y-97199507D01*
X103415473Y-97198006D01*
X103483595Y-97216966D01*
G36*
X100433910Y-92492348D02*
X100512454Y-92492778D01*
X100569298Y-92493942D01*
X100608105Y-92496207D01*
X100632538Y-92499940D01*
X100646262Y-92505506D01*
X100652940Y-92513273D01*
X100656236Y-92523605D01*
X100656556Y-92524943D01*
X100661562Y-92549079D01*
X100670829Y-92596701D01*
X100683392Y-92662741D01*
X100698287Y-92742128D01*
X100714551Y-92829796D01*
X100715119Y-92832875D01*
X100731410Y-92918789D01*
X100746652Y-92994696D01*
X100759861Y-93056045D01*
X100770054Y-93098282D01*
X100776248Y-93116855D01*
X100776543Y-93117184D01*
X100794788Y-93126253D01*
X100832405Y-93141367D01*
X100881271Y-93159262D01*
X100881543Y-93159358D01*
X100943093Y-93182493D01*
X101015657Y-93211965D01*
X101084057Y-93241597D01*
X101087294Y-93243062D01*
X101198702Y-93293626D01*
X101445399Y-93125160D01*
X101521077Y-93073803D01*
X101589631Y-93027889D01*
X101647088Y-92990030D01*
X101689476Y-92962837D01*
X101712825Y-92948921D01*
X101715042Y-92947889D01*
X101732010Y-92952484D01*
X101763701Y-92974655D01*
X101811352Y-93015447D01*
X101876198Y-93075905D01*
X101942397Y-93140227D01*
X102006214Y-93203612D01*
X102063329Y-93261451D01*
X102110305Y-93310175D01*
X102143703Y-93346210D01*
X102160085Y-93365984D01*
X102160694Y-93367002D01*
X102162505Y-93380572D01*
X102155683Y-93402733D01*
X102138540Y-93436478D01*
X102109393Y-93484800D01*
X102066555Y-93550692D01*
X102009448Y-93635517D01*
X101958766Y-93710177D01*
X101913461Y-93777140D01*
X101876150Y-93832516D01*
X101849452Y-93872420D01*
X101835985Y-93892962D01*
X101835137Y-93894356D01*
X101836781Y-93914038D01*
X101849245Y-93952293D01*
X101870048Y-94001889D01*
X101877462Y-94017728D01*
X101909814Y-94088290D01*
X101944328Y-94168353D01*
X101972365Y-94237629D01*
X101992568Y-94289045D01*
X102008615Y-94328119D01*
X102017888Y-94348541D01*
X102019041Y-94350114D01*
X102036096Y-94352721D01*
X102076298Y-94359863D01*
X102134302Y-94370523D01*
X102204763Y-94383685D01*
X102282335Y-94398333D01*
X102361672Y-94413449D01*
X102437431Y-94428018D01*
X102504264Y-94441022D01*
X102556828Y-94451445D01*
X102589776Y-94458270D01*
X102597857Y-94460199D01*
X102606205Y-94464962D01*
X102612506Y-94475718D01*
X102617045Y-94496098D01*
X102620104Y-94529734D01*
X102621967Y-94580255D01*
X102622918Y-94651292D01*
X102623240Y-94746476D01*
X102623257Y-94785492D01*
X102623257Y-95102799D01*
X102547057Y-95117839D01*
X102504663Y-95125995D01*
X102441400Y-95137899D01*
X102364962Y-95152116D01*
X102283043Y-95167210D01*
X102260400Y-95171355D01*
X102184806Y-95186053D01*
X102118953Y-95200505D01*
X102068366Y-95213375D01*
X102038574Y-95223322D01*
X102033612Y-95226287D01*
X102021426Y-95247283D01*
X102003953Y-95287967D01*
X101984577Y-95340322D01*
X101980734Y-95351600D01*
X101955339Y-95421523D01*
X101923817Y-95500418D01*
X101892969Y-95571266D01*
X101892817Y-95571595D01*
X101841447Y-95682733D01*
X102010399Y-95931253D01*
X102179352Y-96179772D01*
X101962429Y-96397058D01*
X101896819Y-96461726D01*
X101836979Y-96518733D01*
X101786267Y-96565033D01*
X101748046Y-96597584D01*
X101725675Y-96613343D01*
X101722466Y-96614343D01*
X101703626Y-96606469D01*
X101665180Y-96584578D01*
X101611330Y-96551267D01*
X101546276Y-96509131D01*
X101475940Y-96461943D01*
X101404555Y-96413810D01*
X101340908Y-96371928D01*
X101289041Y-96338871D01*
X101252995Y-96317218D01*
X101236867Y-96309543D01*
X101217189Y-96316037D01*
X101179875Y-96333150D01*
X101132621Y-96357326D01*
X101127612Y-96360013D01*
X101063977Y-96391927D01*
X101020341Y-96407579D01*
X100993202Y-96407745D01*
X100979057Y-96393204D01*
X100978975Y-96393000D01*
X100971905Y-96375779D01*
X100955042Y-96334899D01*
X100929695Y-96273525D01*
X100897171Y-96194819D01*
X100858778Y-96101947D01*
X100815822Y-95998072D01*
X100774222Y-95897502D01*
X100728504Y-95786516D01*
X100686526Y-95683703D01*
X100649548Y-95592215D01*
X100618827Y-95515201D01*
X100595622Y-95455815D01*
X100581190Y-95417209D01*
X100576743Y-95402800D01*
X100587896Y-95386272D01*
X100617069Y-95359930D01*
X100655971Y-95330887D01*
X100766757Y-95239039D01*
X100853351Y-95133759D01*
X100914716Y-95017266D01*
X100949815Y-94891776D01*
X100957608Y-94759507D01*
X100951943Y-94698457D01*
X100921078Y-94571795D01*
X100867920Y-94459941D01*
X100795767Y-94364001D01*
X100707917Y-94285076D01*
X100607665Y-94224270D01*
X100498310Y-94182687D01*
X100383147Y-94161428D01*
X100265475Y-94161599D01*
X100148590Y-94184301D01*
X100035789Y-94230638D01*
X99930369Y-94301713D01*
X99886368Y-94341911D01*
X99801979Y-94445129D01*
X99743222Y-94557925D01*
X99709704Y-94677010D01*
X99701035Y-94799095D01*
X99716823Y-94920893D01*
X99756678Y-95039116D01*
X99820207Y-95150475D01*
X99907021Y-95251684D01*
X100004029Y-95330887D01*
X100044437Y-95361162D01*
X100072982Y-95387219D01*
X100083257Y-95402825D01*
X100077877Y-95419843D01*
X100062575Y-95460500D01*
X100038612Y-95521642D01*
X100007244Y-95600119D01*
X99969732Y-95692780D01*
X99927333Y-95796472D01*
X99885663Y-95897526D01*
X99839690Y-96008607D01*
X99797107Y-96111541D01*
X99759221Y-96203165D01*
X99727340Y-96280316D01*
X99702771Y-96339831D01*
X99686820Y-96378544D01*
X99680910Y-96393000D01*
X99666948Y-96407685D01*
X99639940Y-96407642D01*
X99596413Y-96392099D01*
X99532890Y-96360284D01*
X99532388Y-96360013D01*
X99484560Y-96335323D01*
X99445897Y-96317338D01*
X99424095Y-96309614D01*
X99423133Y-96309543D01*
X99406721Y-96317378D01*
X99370487Y-96339165D01*
X99318474Y-96372328D01*
X99254725Y-96414291D01*
X99184060Y-96461943D01*
X99112116Y-96510191D01*
X99047274Y-96552151D01*
X98993735Y-96585227D01*
X98955697Y-96606821D01*
X98937533Y-96614343D01*
X98920808Y-96604457D01*
X98887180Y-96576826D01*
X98840010Y-96534495D01*
X98782658Y-96480505D01*
X98718484Y-96417899D01*
X98697497Y-96396983D01*
X98480499Y-96179623D01*
X98645668Y-95937220D01*
X98695864Y-95862781D01*
X98739919Y-95795972D01*
X98775362Y-95740665D01*
X98799719Y-95700729D01*
X98810522Y-95680036D01*
X98810838Y-95678563D01*
X98805143Y-95659058D01*
X98789826Y-95619822D01*
X98767537Y-95567430D01*
X98751893Y-95532355D01*
X98722641Y-95465201D01*
X98695094Y-95397358D01*
X98673737Y-95340034D01*
X98667935Y-95322572D01*
X98651452Y-95275938D01*
X98635340Y-95239905D01*
X98626490Y-95226287D01*
X98606960Y-95217952D01*
X98564334Y-95206137D01*
X98504145Y-95192181D01*
X98431922Y-95177422D01*
X98399600Y-95171355D01*
X98317522Y-95156273D01*
X98238795Y-95141669D01*
X98171109Y-95128980D01*
X98122160Y-95119642D01*
X98112943Y-95117839D01*
X98036743Y-95102799D01*
X98036743Y-94785492D01*
X98036914Y-94681154D01*
X98037616Y-94602213D01*
X98039134Y-94545038D01*
X98041749Y-94505999D01*
X98045746Y-94481465D01*
X98051409Y-94467805D01*
X98059020Y-94461389D01*
X98062143Y-94460199D01*
X98080978Y-94455980D01*
X98122588Y-94447562D01*
X98181630Y-94435961D01*
X98252757Y-94422195D01*
X98330625Y-94407280D01*
X98409887Y-94392232D01*
X98485198Y-94378069D01*
X98551213Y-94365806D01*
X98602587Y-94356461D01*
X98633975Y-94351050D01*
X98640959Y-94350114D01*
X98647285Y-94337596D01*
X98661290Y-94304246D01*
X98680355Y-94256377D01*
X98687634Y-94237629D01*
X98716996Y-94165195D01*
X98751571Y-94085170D01*
X98782537Y-94017728D01*
X98805323Y-93966159D01*
X98820482Y-93923785D01*
X98825542Y-93897834D01*
X98824736Y-93894356D01*
X98814041Y-93877936D01*
X98789620Y-93841417D01*
X98754095Y-93788687D01*
X98710087Y-93723635D01*
X98660217Y-93650151D01*
X98650356Y-93635645D01*
X98592492Y-93549704D01*
X98549956Y-93484261D01*
X98521054Y-93436304D01*
X98504090Y-93402820D01*
X98497367Y-93380795D01*
X98499190Y-93367217D01*
X98499236Y-93367131D01*
X98513586Y-93349297D01*
X98545323Y-93314817D01*
X98591010Y-93267268D01*
X98647204Y-93210222D01*
X98710468Y-93147255D01*
X98717602Y-93140227D01*
X98797330Y-93063020D01*
X98858857Y-93006330D01*
X98903421Y-92969110D01*
X98932257Y-92950315D01*
X98944958Y-92947889D01*
X98963494Y-92958471D01*
X99001961Y-92982916D01*
X99056386Y-93018612D01*
X99122798Y-93062947D01*
X99197225Y-93113311D01*
X99214601Y-93125160D01*
X99461297Y-93293626D01*
X99572706Y-93243062D01*
X99640457Y-93213595D01*
X99713183Y-93183959D01*
X99775703Y-93160330D01*
X99778457Y-93159358D01*
X99827360Y-93141457D01*
X99865057Y-93126320D01*
X99883425Y-93117210D01*
X99883456Y-93117184D01*
X99889285Y-93100717D01*
X99899192Y-93060219D01*
X99912195Y-93000242D01*
X99927309Y-92925340D01*
X99943552Y-92840064D01*
X99944881Y-92832875D01*
X99961175Y-92745014D01*
X99976133Y-92665260D01*
X99988791Y-92598681D01*
X99998186Y-92550347D01*
X100003354Y-92525325D01*
X100003444Y-92524943D01*
X100006589Y-92514299D01*
X100012704Y-92506262D01*
X100025453Y-92500467D01*
X100048500Y-92496547D01*
X100085509Y-92494135D01*
X100140144Y-92492865D01*
X100216067Y-92492371D01*
X100316944Y-92492286D01*
X100330000Y-92492286D01*
X100433910Y-92492348D01*
X100433910Y-92492348D01*
G37*
X100433910Y-92492348D02*
X100512454Y-92492778D01*
X100569298Y-92493942D01*
X100608105Y-92496207D01*
X100632538Y-92499940D01*
X100646262Y-92505506D01*
X100652940Y-92513273D01*
X100656236Y-92523605D01*
X100656556Y-92524943D01*
X100661562Y-92549079D01*
X100670829Y-92596701D01*
X100683392Y-92662741D01*
X100698287Y-92742128D01*
X100714551Y-92829796D01*
X100715119Y-92832875D01*
X100731410Y-92918789D01*
X100746652Y-92994696D01*
X100759861Y-93056045D01*
X100770054Y-93098282D01*
X100776248Y-93116855D01*
X100776543Y-93117184D01*
X100794788Y-93126253D01*
X100832405Y-93141367D01*
X100881271Y-93159262D01*
X100881543Y-93159358D01*
X100943093Y-93182493D01*
X101015657Y-93211965D01*
X101084057Y-93241597D01*
X101087294Y-93243062D01*
X101198702Y-93293626D01*
X101445399Y-93125160D01*
X101521077Y-93073803D01*
X101589631Y-93027889D01*
X101647088Y-92990030D01*
X101689476Y-92962837D01*
X101712825Y-92948921D01*
X101715042Y-92947889D01*
X101732010Y-92952484D01*
X101763701Y-92974655D01*
X101811352Y-93015447D01*
X101876198Y-93075905D01*
X101942397Y-93140227D01*
X102006214Y-93203612D01*
X102063329Y-93261451D01*
X102110305Y-93310175D01*
X102143703Y-93346210D01*
X102160085Y-93365984D01*
X102160694Y-93367002D01*
X102162505Y-93380572D01*
X102155683Y-93402733D01*
X102138540Y-93436478D01*
X102109393Y-93484800D01*
X102066555Y-93550692D01*
X102009448Y-93635517D01*
X101958766Y-93710177D01*
X101913461Y-93777140D01*
X101876150Y-93832516D01*
X101849452Y-93872420D01*
X101835985Y-93892962D01*
X101835137Y-93894356D01*
X101836781Y-93914038D01*
X101849245Y-93952293D01*
X101870048Y-94001889D01*
X101877462Y-94017728D01*
X101909814Y-94088290D01*
X101944328Y-94168353D01*
X101972365Y-94237629D01*
X101992568Y-94289045D01*
X102008615Y-94328119D01*
X102017888Y-94348541D01*
X102019041Y-94350114D01*
X102036096Y-94352721D01*
X102076298Y-94359863D01*
X102134302Y-94370523D01*
X102204763Y-94383685D01*
X102282335Y-94398333D01*
X102361672Y-94413449D01*
X102437431Y-94428018D01*
X102504264Y-94441022D01*
X102556828Y-94451445D01*
X102589776Y-94458270D01*
X102597857Y-94460199D01*
X102606205Y-94464962D01*
X102612506Y-94475718D01*
X102617045Y-94496098D01*
X102620104Y-94529734D01*
X102621967Y-94580255D01*
X102622918Y-94651292D01*
X102623240Y-94746476D01*
X102623257Y-94785492D01*
X102623257Y-95102799D01*
X102547057Y-95117839D01*
X102504663Y-95125995D01*
X102441400Y-95137899D01*
X102364962Y-95152116D01*
X102283043Y-95167210D01*
X102260400Y-95171355D01*
X102184806Y-95186053D01*
X102118953Y-95200505D01*
X102068366Y-95213375D01*
X102038574Y-95223322D01*
X102033612Y-95226287D01*
X102021426Y-95247283D01*
X102003953Y-95287967D01*
X101984577Y-95340322D01*
X101980734Y-95351600D01*
X101955339Y-95421523D01*
X101923817Y-95500418D01*
X101892969Y-95571266D01*
X101892817Y-95571595D01*
X101841447Y-95682733D01*
X102010399Y-95931253D01*
X102179352Y-96179772D01*
X101962429Y-96397058D01*
X101896819Y-96461726D01*
X101836979Y-96518733D01*
X101786267Y-96565033D01*
X101748046Y-96597584D01*
X101725675Y-96613343D01*
X101722466Y-96614343D01*
X101703626Y-96606469D01*
X101665180Y-96584578D01*
X101611330Y-96551267D01*
X101546276Y-96509131D01*
X101475940Y-96461943D01*
X101404555Y-96413810D01*
X101340908Y-96371928D01*
X101289041Y-96338871D01*
X101252995Y-96317218D01*
X101236867Y-96309543D01*
X101217189Y-96316037D01*
X101179875Y-96333150D01*
X101132621Y-96357326D01*
X101127612Y-96360013D01*
X101063977Y-96391927D01*
X101020341Y-96407579D01*
X100993202Y-96407745D01*
X100979057Y-96393204D01*
X100978975Y-96393000D01*
X100971905Y-96375779D01*
X100955042Y-96334899D01*
X100929695Y-96273525D01*
X100897171Y-96194819D01*
X100858778Y-96101947D01*
X100815822Y-95998072D01*
X100774222Y-95897502D01*
X100728504Y-95786516D01*
X100686526Y-95683703D01*
X100649548Y-95592215D01*
X100618827Y-95515201D01*
X100595622Y-95455815D01*
X100581190Y-95417209D01*
X100576743Y-95402800D01*
X100587896Y-95386272D01*
X100617069Y-95359930D01*
X100655971Y-95330887D01*
X100766757Y-95239039D01*
X100853351Y-95133759D01*
X100914716Y-95017266D01*
X100949815Y-94891776D01*
X100957608Y-94759507D01*
X100951943Y-94698457D01*
X100921078Y-94571795D01*
X100867920Y-94459941D01*
X100795767Y-94364001D01*
X100707917Y-94285076D01*
X100607665Y-94224270D01*
X100498310Y-94182687D01*
X100383147Y-94161428D01*
X100265475Y-94161599D01*
X100148590Y-94184301D01*
X100035789Y-94230638D01*
X99930369Y-94301713D01*
X99886368Y-94341911D01*
X99801979Y-94445129D01*
X99743222Y-94557925D01*
X99709704Y-94677010D01*
X99701035Y-94799095D01*
X99716823Y-94920893D01*
X99756678Y-95039116D01*
X99820207Y-95150475D01*
X99907021Y-95251684D01*
X100004029Y-95330887D01*
X100044437Y-95361162D01*
X100072982Y-95387219D01*
X100083257Y-95402825D01*
X100077877Y-95419843D01*
X100062575Y-95460500D01*
X100038612Y-95521642D01*
X100007244Y-95600119D01*
X99969732Y-95692780D01*
X99927333Y-95796472D01*
X99885663Y-95897526D01*
X99839690Y-96008607D01*
X99797107Y-96111541D01*
X99759221Y-96203165D01*
X99727340Y-96280316D01*
X99702771Y-96339831D01*
X99686820Y-96378544D01*
X99680910Y-96393000D01*
X99666948Y-96407685D01*
X99639940Y-96407642D01*
X99596413Y-96392099D01*
X99532890Y-96360284D01*
X99532388Y-96360013D01*
X99484560Y-96335323D01*
X99445897Y-96317338D01*
X99424095Y-96309614D01*
X99423133Y-96309543D01*
X99406721Y-96317378D01*
X99370487Y-96339165D01*
X99318474Y-96372328D01*
X99254725Y-96414291D01*
X99184060Y-96461943D01*
X99112116Y-96510191D01*
X99047274Y-96552151D01*
X98993735Y-96585227D01*
X98955697Y-96606821D01*
X98937533Y-96614343D01*
X98920808Y-96604457D01*
X98887180Y-96576826D01*
X98840010Y-96534495D01*
X98782658Y-96480505D01*
X98718484Y-96417899D01*
X98697497Y-96396983D01*
X98480499Y-96179623D01*
X98645668Y-95937220D01*
X98695864Y-95862781D01*
X98739919Y-95795972D01*
X98775362Y-95740665D01*
X98799719Y-95700729D01*
X98810522Y-95680036D01*
X98810838Y-95678563D01*
X98805143Y-95659058D01*
X98789826Y-95619822D01*
X98767537Y-95567430D01*
X98751893Y-95532355D01*
X98722641Y-95465201D01*
X98695094Y-95397358D01*
X98673737Y-95340034D01*
X98667935Y-95322572D01*
X98651452Y-95275938D01*
X98635340Y-95239905D01*
X98626490Y-95226287D01*
X98606960Y-95217952D01*
X98564334Y-95206137D01*
X98504145Y-95192181D01*
X98431922Y-95177422D01*
X98399600Y-95171355D01*
X98317522Y-95156273D01*
X98238795Y-95141669D01*
X98171109Y-95128980D01*
X98122160Y-95119642D01*
X98112943Y-95117839D01*
X98036743Y-95102799D01*
X98036743Y-94785492D01*
X98036914Y-94681154D01*
X98037616Y-94602213D01*
X98039134Y-94545038D01*
X98041749Y-94505999D01*
X98045746Y-94481465D01*
X98051409Y-94467805D01*
X98059020Y-94461389D01*
X98062143Y-94460199D01*
X98080978Y-94455980D01*
X98122588Y-94447562D01*
X98181630Y-94435961D01*
X98252757Y-94422195D01*
X98330625Y-94407280D01*
X98409887Y-94392232D01*
X98485198Y-94378069D01*
X98551213Y-94365806D01*
X98602587Y-94356461D01*
X98633975Y-94351050D01*
X98640959Y-94350114D01*
X98647285Y-94337596D01*
X98661290Y-94304246D01*
X98680355Y-94256377D01*
X98687634Y-94237629D01*
X98716996Y-94165195D01*
X98751571Y-94085170D01*
X98782537Y-94017728D01*
X98805323Y-93966159D01*
X98820482Y-93923785D01*
X98825542Y-93897834D01*
X98824736Y-93894356D01*
X98814041Y-93877936D01*
X98789620Y-93841417D01*
X98754095Y-93788687D01*
X98710087Y-93723635D01*
X98660217Y-93650151D01*
X98650356Y-93635645D01*
X98592492Y-93549704D01*
X98549956Y-93484261D01*
X98521054Y-93436304D01*
X98504090Y-93402820D01*
X98497367Y-93380795D01*
X98499190Y-93367217D01*
X98499236Y-93367131D01*
X98513586Y-93349297D01*
X98545323Y-93314817D01*
X98591010Y-93267268D01*
X98647204Y-93210222D01*
X98710468Y-93147255D01*
X98717602Y-93140227D01*
X98797330Y-93063020D01*
X98858857Y-93006330D01*
X98903421Y-92969110D01*
X98932257Y-92950315D01*
X98944958Y-92947889D01*
X98963494Y-92958471D01*
X99001961Y-92982916D01*
X99056386Y-93018612D01*
X99122798Y-93062947D01*
X99197225Y-93113311D01*
X99214601Y-93125160D01*
X99461297Y-93293626D01*
X99572706Y-93243062D01*
X99640457Y-93213595D01*
X99713183Y-93183959D01*
X99775703Y-93160330D01*
X99778457Y-93159358D01*
X99827360Y-93141457D01*
X99865057Y-93126320D01*
X99883425Y-93117210D01*
X99883456Y-93117184D01*
X99889285Y-93100717D01*
X99899192Y-93060219D01*
X99912195Y-93000242D01*
X99927309Y-92925340D01*
X99943552Y-92840064D01*
X99944881Y-92832875D01*
X99961175Y-92745014D01*
X99976133Y-92665260D01*
X99988791Y-92598681D01*
X99998186Y-92550347D01*
X100003354Y-92525325D01*
X100003444Y-92524943D01*
X100006589Y-92514299D01*
X100012704Y-92506262D01*
X100025453Y-92500467D01*
X100048500Y-92496547D01*
X100085509Y-92494135D01*
X100140144Y-92492865D01*
X100216067Y-92492371D01*
X100316944Y-92492286D01*
X100330000Y-92492286D01*
X100433910Y-92492348D01*
D16*
X129540000Y-86360000D03*
X129540000Y-83820000D03*
X129540000Y-81280000D03*
X129540000Y-78740000D03*
X129540000Y-76200000D03*
X129540000Y-73660000D03*
X129540000Y-71120000D03*
X129540000Y-68580000D03*
X137160000Y-68580000D03*
X137160000Y-71120000D03*
X137160000Y-73660000D03*
X137160000Y-76200000D03*
X137160000Y-78740000D03*
X137160000Y-81280000D03*
X137160000Y-83820000D03*
X137160000Y-86360000D03*
M02*
