<?xml version="1.0" standalone="no"?>
 <!DOCTYPE svg PUBLIC "-//W3C//DTD SVG 1.1//EN" 
 "http://www.w3.org/Graphics/SVG/1.1/DTD/svg11.dtd"> 
<svg xmlns="http://www.w3.org/2000/svg" version="1.1" 
    width="29.7002cm" height="21.0007cm" viewBox="0 0 116930 82680 ">
<title>SVG Picture created as business card-F.Cu.svg date 2016/10/30 15:56:41 </title>
  <desc>Picture generated by PCBNEW </desc>
<g style="fill:#000000; fill-opacity:1;stroke:#000000; stroke-opacity:1;
stroke-linecap:round; stroke-linejoin:round; "
 transform="translate(0 0) scale(1 1)">
</g>
<g style="fill:#000000; fill-opacity:0.0; 
stroke:#000000; stroke-width:-0.000393701; stroke-opacity:1; 
stroke-linecap:round; stroke-linejoin:round;">
</g>
<g style="fill:#000000; fill-opacity:0.0; 
stroke:#000000; stroke-width:39.3701; stroke-opacity:1; 
stroke-linecap:round; stroke-linejoin:round;">
</g>
<g style="fill:#000000; fill-opacity:0.0; 
stroke:#000000; stroke-width:59.0551; stroke-opacity:1; 
stroke-linecap:round; stroke-linejoin:round;">
<rect x="69685.9" y="65357.2" width="42519.7" height="12598.4" rx="0" />
</g>
<g style="fill:#000000; fill-opacity:0.0; 
stroke:#000000; stroke-width:39.3701; stroke-opacity:1; 
stroke-linecap:round; stroke-linejoin:round;">
</g>
<g style="fill:#000000; fill-opacity:0.0; 
stroke:#000000; stroke-width:59.0551; stroke-opacity:1; 
stroke-linecap:round; stroke-linejoin:round;">
<rect x="3937.01" y="3937.01" width="109056" height="74806" rx="0" />
</g>
<g style="fill:#000000; fill-opacity:0.0; 
stroke:#000000; stroke-width:39.3701; stroke-opacity:1; 
stroke-linecap:round; stroke-linejoin:round;">
</g>
<g style="fill:#000000; fill-opacity:0.0; 
stroke:#000000; stroke-width:59.0551; stroke-opacity:1; 
stroke-linecap:round; stroke-linejoin:round;">
<rect x="4724.41" y="4724.41" width="107481" height="73231.2" rx="0" />
</g>
<g style="fill:#000000; fill-opacity:0.0; 
stroke:#000000; stroke-width:39.3701; stroke-opacity:1; 
stroke-linecap:round; stroke-linejoin:round;">
</g>
<g style="fill:#000000; fill-opacity:0.0; 
stroke:#000000; stroke-width:59.0551; stroke-opacity:1; 
stroke-linecap:round; stroke-linejoin:round;">
<path d="M23622 4724
L23622 3937
" />
</g>
<g style="fill:#000000; fill-opacity:0.0; 
stroke:#000000; stroke-width:39.3701; stroke-opacity:1; 
stroke-linecap:round; stroke-linejoin:round;">
</g>
<g style="fill:#000000; fill-opacity:0.0; 
stroke:#000000; stroke-width:59.0551; stroke-opacity:1; 
stroke-linecap:round; stroke-linejoin:round;">
<path d="M43307 4724
L43307 3937
" />
</g>
<g style="fill:#000000; fill-opacity:0.0; 
stroke:#000000; stroke-width:39.3701; stroke-opacity:1; 
stroke-linecap:round; stroke-linejoin:round;">
</g>
<g style="fill:#000000; fill-opacity:0.0; 
stroke:#000000; stroke-width:59.0551; stroke-opacity:1; 
stroke-linecap:round; stroke-linejoin:round;">
<path d="M62992 4724
L62992 3937
" />
</g>
<g style="fill:#000000; fill-opacity:0.0; 
stroke:#000000; stroke-width:39.3701; stroke-opacity:1; 
stroke-linecap:round; stroke-linejoin:round;">
</g>
<g style="fill:#000000; fill-opacity:0.0; 
stroke:#000000; stroke-width:59.0551; stroke-opacity:1; 
stroke-linecap:round; stroke-linejoin:round;">
<path d="M82677 4724
L82677 3937
" />
</g>
<g style="fill:#000000; fill-opacity:0.0; 
stroke:#000000; stroke-width:39.3701; stroke-opacity:1; 
stroke-linecap:round; stroke-linejoin:round;">
</g>
<g style="fill:#000000; fill-opacity:0.0; 
stroke:#000000; stroke-width:59.0551; stroke-opacity:1; 
stroke-linecap:round; stroke-linejoin:round;">
<path d="M102362 4724
L102362 3937
" />
</g>
<g style="fill:#000000; fill-opacity:0.0; 
stroke:#000000; stroke-width:39.3701; stroke-opacity:1; 
stroke-linecap:round; stroke-linejoin:round;">
</g>
<g style="fill:#000000; fill-opacity:0.0; 
stroke:#000000; stroke-width:59.0551; stroke-opacity:1; 
stroke-linecap:round; stroke-linejoin:round;">
<path d="M14169 4562
L13877 4562
" />
<path d="M14023 4562
L14023 4050
L13974 4123
L13925 4172
L13877 4196
" />
</g>
<g style="fill:#000000; fill-opacity:0.0; 
stroke:#000000; stroke-width:39.3701; stroke-opacity:1; 
stroke-linecap:round; stroke-linejoin:round;">
</g>
<g style="fill:#000000; fill-opacity:0.0; 
stroke:#000000; stroke-width:59.0551; stroke-opacity:1; 
stroke-linecap:round; stroke-linejoin:round;">
<path d="M33562 4099
L33586 4074
L33635 4050
L33757 4050
L33805 4074
L33830 4099
L33854 4147
L33854 4196
L33830 4269
L33537 4562
L33854 4562
" />
</g>
<g style="fill:#000000; fill-opacity:0.0; 
stroke:#000000; stroke-width:39.3701; stroke-opacity:1; 
stroke-linecap:round; stroke-linejoin:round;">
</g>
<g style="fill:#000000; fill-opacity:0.0; 
stroke:#000000; stroke-width:59.0551; stroke-opacity:1; 
stroke-linecap:round; stroke-linejoin:round;">
<path d="M53222 4050
L53539 4050
L53368 4245
L53442 4245
L53490 4269
L53515 4294
L53539 4342
L53539 4464
L53515 4513
L53490 4537
L53442 4562
L53295 4562
L53247 4537
L53222 4513
" />
</g>
<g style="fill:#000000; fill-opacity:0.0; 
stroke:#000000; stroke-width:39.3701; stroke-opacity:1; 
stroke-linecap:round; stroke-linejoin:round;">
</g>
<g style="fill:#000000; fill-opacity:0.0; 
stroke:#000000; stroke-width:59.0551; stroke-opacity:1; 
stroke-linecap:round; stroke-linejoin:round;">
<path d="M73175 4221
L73175 4562
" />
<path d="M73053 4026
L72932 4391
L73248 4391
" />
</g>
<g style="fill:#000000; fill-opacity:0.0; 
stroke:#000000; stroke-width:39.3701; stroke-opacity:1; 
stroke-linecap:round; stroke-linejoin:round;">
</g>
<g style="fill:#000000; fill-opacity:0.0; 
stroke:#000000; stroke-width:59.0551; stroke-opacity:1; 
stroke-linecap:round; stroke-linejoin:round;">
<path d="M92885 4050
L92641 4050
L92617 4294
L92641 4269
L92690 4245
L92812 4245
L92860 4269
L92885 4294
L92909 4342
L92909 4464
L92885 4513
L92860 4537
L92812 4562
L92690 4562
L92641 4537
L92617 4513
" />
</g>
<g style="fill:#000000; fill-opacity:0.0; 
stroke:#000000; stroke-width:39.3701; stroke-opacity:1; 
stroke-linecap:round; stroke-linejoin:round;">
</g>
<g style="fill:#000000; fill-opacity:0.0; 
stroke:#000000; stroke-width:59.0551; stroke-opacity:1; 
stroke-linecap:round; stroke-linejoin:round;">
<path d="M112545 4050
L112448 4050
L112399 4074
L112375 4099
L112326 4172
L112302 4269
L112302 4464
L112326 4513
L112350 4537
L112399 4562
L112497 4562
L112545 4537
L112570 4513
L112594 4464
L112594 4342
L112570 4294
L112545 4269
L112497 4245
L112399 4245
L112350 4269
L112326 4294
L112302 4342
" />
</g>
<g style="fill:#000000; fill-opacity:0.0; 
stroke:#000000; stroke-width:39.3701; stroke-opacity:1; 
stroke-linecap:round; stroke-linejoin:round;">
</g>
<g style="fill:#000000; fill-opacity:0.0; 
stroke:#000000; stroke-width:59.0551; stroke-opacity:1; 
stroke-linecap:round; stroke-linejoin:round;">
<path d="M23622 77955
L23622 78742
" />
</g>
<g style="fill:#000000; fill-opacity:0.0; 
stroke:#000000; stroke-width:39.3701; stroke-opacity:1; 
stroke-linecap:round; stroke-linejoin:round;">
</g>
<g style="fill:#000000; fill-opacity:0.0; 
stroke:#000000; stroke-width:59.0551; stroke-opacity:1; 
stroke-linecap:round; stroke-linejoin:round;">
<path d="M43307 77955
L43307 78742
" />
</g>
<g style="fill:#000000; fill-opacity:0.0; 
stroke:#000000; stroke-width:39.3701; stroke-opacity:1; 
stroke-linecap:round; stroke-linejoin:round;">
</g>
<g style="fill:#000000; fill-opacity:0.0; 
stroke:#000000; stroke-width:59.0551; stroke-opacity:1; 
stroke-linecap:round; stroke-linejoin:round;">
<path d="M62992 77955
L62992 78742
" />
</g>
<g style="fill:#000000; fill-opacity:0.0; 
stroke:#000000; stroke-width:39.3701; stroke-opacity:1; 
stroke-linecap:round; stroke-linejoin:round;">
</g>
<g style="fill:#000000; fill-opacity:0.0; 
stroke:#000000; stroke-width:59.0551; stroke-opacity:1; 
stroke-linecap:round; stroke-linejoin:round;">
<path d="M82677 77955
L82677 78742
" />
</g>
<g style="fill:#000000; fill-opacity:0.0; 
stroke:#000000; stroke-width:39.3701; stroke-opacity:1; 
stroke-linecap:round; stroke-linejoin:round;">
</g>
<g style="fill:#000000; fill-opacity:0.0; 
stroke:#000000; stroke-width:59.0551; stroke-opacity:1; 
stroke-linecap:round; stroke-linejoin:round;">
<path d="M102362 77955
L102362 78742
" />
</g>
<g style="fill:#000000; fill-opacity:0.0; 
stroke:#000000; stroke-width:39.3701; stroke-opacity:1; 
stroke-linecap:round; stroke-linejoin:round;">
</g>
<g style="fill:#000000; fill-opacity:0.0; 
stroke:#000000; stroke-width:59.0551; stroke-opacity:1; 
stroke-linecap:round; stroke-linejoin:round;">
<path d="M14169 78580
L13877 78580
" />
<path d="M14023 78580
L14023 78069
L13974 78142
L13925 78190
L13877 78215
" />
</g>
<g style="fill:#000000; fill-opacity:0.0; 
stroke:#000000; stroke-width:39.3701; stroke-opacity:1; 
stroke-linecap:round; stroke-linejoin:round;">
</g>
<g style="fill:#000000; fill-opacity:0.0; 
stroke:#000000; stroke-width:59.0551; stroke-opacity:1; 
stroke-linecap:round; stroke-linejoin:round;">
<path d="M33562 78117
L33586 78093
L33635 78069
L33757 78069
L33805 78093
L33830 78117
L33854 78166
L33854 78215
L33830 78288
L33537 78580
L33854 78580
" />
</g>
<g style="fill:#000000; fill-opacity:0.0; 
stroke:#000000; stroke-width:39.3701; stroke-opacity:1; 
stroke-linecap:round; stroke-linejoin:round;">
</g>
<g style="fill:#000000; fill-opacity:0.0; 
stroke:#000000; stroke-width:59.0551; stroke-opacity:1; 
stroke-linecap:round; stroke-linejoin:round;">
<path d="M53222 78069
L53539 78069
L53368 78263
L53442 78263
L53490 78288
L53515 78312
L53539 78361
L53539 78483
L53515 78532
L53490 78556
L53442 78580
L53295 78580
L53247 78556
L53222 78532
" />
</g>
<g style="fill:#000000; fill-opacity:0.0; 
stroke:#000000; stroke-width:39.3701; stroke-opacity:1; 
stroke-linecap:round; stroke-linejoin:round;">
</g>
<g style="fill:#000000; fill-opacity:0.0; 
stroke:#000000; stroke-width:59.0551; stroke-opacity:1; 
stroke-linecap:round; stroke-linejoin:round;">
<path d="M73175 78239
L73175 78580
" />
<path d="M73053 78044
L72932 78410
L73248 78410
" />
</g>
<g style="fill:#000000; fill-opacity:0.0; 
stroke:#000000; stroke-width:39.3701; stroke-opacity:1; 
stroke-linecap:round; stroke-linejoin:round;">
</g>
<g style="fill:#000000; fill-opacity:0.0; 
stroke:#000000; stroke-width:59.0551; stroke-opacity:1; 
stroke-linecap:round; stroke-linejoin:round;">
<path d="M92885 78069
L92641 78069
L92617 78312
L92641 78288
L92690 78263
L92812 78263
L92860 78288
L92885 78312
L92909 78361
L92909 78483
L92885 78532
L92860 78556
L92812 78580
L92690 78580
L92641 78556
L92617 78532
" />
</g>
<g style="fill:#000000; fill-opacity:0.0; 
stroke:#000000; stroke-width:39.3701; stroke-opacity:1; 
stroke-linecap:round; stroke-linejoin:round;">
</g>
<g style="fill:#000000; fill-opacity:0.0; 
stroke:#000000; stroke-width:59.0551; stroke-opacity:1; 
stroke-linecap:round; stroke-linejoin:round;">
<path d="M112545 78069
L112448 78069
L112399 78093
L112375 78117
L112326 78190
L112302 78288
L112302 78483
L112326 78532
L112350 78556
L112399 78580
L112497 78580
L112545 78556
L112570 78532
L112594 78483
L112594 78361
L112570 78312
L112545 78288
L112497 78263
L112399 78263
L112350 78288
L112326 78312
L112302 78361
" />
</g>
<g style="fill:#000000; fill-opacity:0.0; 
stroke:#000000; stroke-width:39.3701; stroke-opacity:1; 
stroke-linecap:round; stroke-linejoin:round;">
</g>
<g style="fill:#000000; fill-opacity:0.0; 
stroke:#000000; stroke-width:59.0551; stroke-opacity:1; 
stroke-linecap:round; stroke-linejoin:round;">
<path d="M3937 23622
L4724 23622
" />
</g>
<g style="fill:#000000; fill-opacity:0.0; 
stroke:#000000; stroke-width:39.3701; stroke-opacity:1; 
stroke-linecap:round; stroke-linejoin:round;">
</g>
<g style="fill:#000000; fill-opacity:0.0; 
stroke:#000000; stroke-width:59.0551; stroke-opacity:1; 
stroke-linecap:round; stroke-linejoin:round;">
<path d="M3937 43307
L4724 43307
" />
</g>
<g style="fill:#000000; fill-opacity:0.0; 
stroke:#000000; stroke-width:39.3701; stroke-opacity:1; 
stroke-linecap:round; stroke-linejoin:round;">
</g>
<g style="fill:#000000; fill-opacity:0.0; 
stroke:#000000; stroke-width:59.0551; stroke-opacity:1; 
stroke-linecap:round; stroke-linejoin:round;">
<path d="M3937 62992
L4724 62992
" />
</g>
<g style="fill:#000000; fill-opacity:0.0; 
stroke:#000000; stroke-width:39.3701; stroke-opacity:1; 
stroke-linecap:round; stroke-linejoin:round;">
</g>
<g style="fill:#000000; fill-opacity:0.0; 
stroke:#000000; stroke-width:59.0551; stroke-opacity:1; 
stroke-linecap:round; stroke-linejoin:round;">
<path d="M4208 13864
L4452 13864
" />
<path d="M4160 14011
L4330 13499
L4501 14011
" />
</g>
<g style="fill:#000000; fill-opacity:0.0; 
stroke:#000000; stroke-width:39.3701; stroke-opacity:1; 
stroke-linecap:round; stroke-linejoin:round;">
</g>
<g style="fill:#000000; fill-opacity:0.0; 
stroke:#000000; stroke-width:59.0551; stroke-opacity:1; 
stroke-linecap:round; stroke-linejoin:round;">
<path d="M4367 33428
L4440 33452
L4464 33476
L4489 33525
L4489 33598
L4464 33647
L4440 33671
L4391 33696
L4196 33696
L4196 33184
L4367 33184
L4416 33208
L4440 33233
L4464 33281
L4464 33330
L4440 33379
L4416 33403
L4367 33428
L4196 33428
" />
</g>
<g style="fill:#000000; fill-opacity:0.0; 
stroke:#000000; stroke-width:39.3701; stroke-opacity:1; 
stroke-linecap:round; stroke-linejoin:round;">
</g>
<g style="fill:#000000; fill-opacity:0.0; 
stroke:#000000; stroke-width:59.0551; stroke-opacity:1; 
stroke-linecap:round; stroke-linejoin:round;">
<path d="M4489 53332
L4464 53356
L4391 53381
L4342 53381
L4269 53356
L4221 53308
L4196 53259
L4172 53161
L4172 53088
L4196 52991
L4221 52942
L4269 52893
L4342 52869
L4391 52869
L4464 52893
L4489 52918
" />
</g>
<g style="fill:#000000; fill-opacity:0.0; 
stroke:#000000; stroke-width:39.3701; stroke-opacity:1; 
stroke-linecap:round; stroke-linejoin:round;">
</g>
<g style="fill:#000000; fill-opacity:0.0; 
stroke:#000000; stroke-width:59.0551; stroke-opacity:1; 
stroke-linecap:round; stroke-linejoin:round;">
<path d="M4196 73066
L4196 72554
L4318 72554
L4391 72578
L4440 72627
L4464 72676
L4489 72773
L4489 72846
L4464 72944
L4440 72993
L4391 73041
L4318 73066
L4196 73066
" />
</g>
<g style="fill:#000000; fill-opacity:0.0; 
stroke:#000000; stroke-width:39.3701; stroke-opacity:1; 
stroke-linecap:round; stroke-linejoin:round;">
</g>
<g style="fill:#000000; fill-opacity:0.0; 
stroke:#000000; stroke-width:59.0551; stroke-opacity:1; 
stroke-linecap:round; stroke-linejoin:round;">
<path d="M112992 23622
L112205 23622
" />
</g>
<g style="fill:#000000; fill-opacity:0.0; 
stroke:#000000; stroke-width:39.3701; stroke-opacity:1; 
stroke-linecap:round; stroke-linejoin:round;">
</g>
<g style="fill:#000000; fill-opacity:0.0; 
stroke:#000000; stroke-width:59.0551; stroke-opacity:1; 
stroke-linecap:round; stroke-linejoin:round;">
<path d="M112992 43307
L112205 43307
" />
</g>
<g style="fill:#000000; fill-opacity:0.0; 
stroke:#000000; stroke-width:39.3701; stroke-opacity:1; 
stroke-linecap:round; stroke-linejoin:round;">
</g>
<g style="fill:#000000; fill-opacity:0.0; 
stroke:#000000; stroke-width:59.0551; stroke-opacity:1; 
stroke-linecap:round; stroke-linejoin:round;">
<path d="M112992 62992
L112205 62992
" />
</g>
<g style="fill:#000000; fill-opacity:0.0; 
stroke:#000000; stroke-width:39.3701; stroke-opacity:1; 
stroke-linecap:round; stroke-linejoin:round;">
</g>
<g style="fill:#000000; fill-opacity:0.0; 
stroke:#000000; stroke-width:59.0551; stroke-opacity:1; 
stroke-linecap:round; stroke-linejoin:round;">
<path d="M112477 13864
L112721 13864
" />
<path d="M112428 14011
L112599 13499
L112769 14011
" />
</g>
<g style="fill:#000000; fill-opacity:0.0; 
stroke:#000000; stroke-width:39.3701; stroke-opacity:1; 
stroke-linecap:round; stroke-linejoin:round;">
</g>
<g style="fill:#000000; fill-opacity:0.0; 
stroke:#000000; stroke-width:59.0551; stroke-opacity:1; 
stroke-linecap:round; stroke-linejoin:round;">
<path d="M112635 33428
L112708 33452
L112733 33476
L112757 33525
L112757 33598
L112733 33647
L112708 33671
L112660 33696
L112465 33696
L112465 33184
L112635 33184
L112684 33208
L112708 33233
L112733 33281
L112733 33330
L112708 33379
L112684 33403
L112635 33428
L112465 33428
" />
</g>
<g style="fill:#000000; fill-opacity:0.0; 
stroke:#000000; stroke-width:39.3701; stroke-opacity:1; 
stroke-linecap:round; stroke-linejoin:round;">
</g>
<g style="fill:#000000; fill-opacity:0.0; 
stroke:#000000; stroke-width:59.0551; stroke-opacity:1; 
stroke-linecap:round; stroke-linejoin:round;">
<path d="M112757 53332
L112733 53356
L112660 53381
L112611 53381
L112538 53356
L112489 53308
L112465 53259
L112440 53161
L112440 53088
L112465 52991
L112489 52942
L112538 52893
L112611 52869
L112660 52869
L112733 52893
L112757 52918
" />
</g>
<g style="fill:#000000; fill-opacity:0.0; 
stroke:#000000; stroke-width:39.3701; stroke-opacity:1; 
stroke-linecap:round; stroke-linejoin:round;">
</g>
<g style="fill:#000000; fill-opacity:0.0; 
stroke:#000000; stroke-width:59.0551; stroke-opacity:1; 
stroke-linecap:round; stroke-linejoin:round;">
<path d="M112465 73066
L112465 72554
L112587 72554
L112660 72578
L112708 72627
L112733 72676
L112757 72773
L112757 72846
L112733 72944
L112708 72993
L112660 73041
L112587 73066
L112465 73066
" />
</g>
<g style="fill:#000000; fill-opacity:0.0; 
stroke:#000000; stroke-width:39.3701; stroke-opacity:1; 
stroke-linecap:round; stroke-linejoin:round;">
</g>
<g style="fill:#000000; fill-opacity:0.0; 
stroke:#000000; stroke-width:59.0551; stroke-opacity:1; 
stroke-linecap:round; stroke-linejoin:round;">
<path d="M78881 76293
L78881 75703
L79022 75703
L79106 75731
L79162 75787
L79190 75843
L79219 75956
L79219 76040
L79190 76153
L79162 76209
L79106 76265
L79022 76293
L78881 76293
" />
<path d="M79725 76293
L79725 75984
L79697 75928
L79640 75899
L79528 75899
L79472 75928
" />
<path d="M79725 76265
L79669 76293
L79528 76293
L79472 76265
L79444 76209
L79444 76153
L79472 76096
L79528 76068
L79669 76068
L79725 76040
" />
<path d="M79922 75899
L80147 75899
" />
<path d="M80006 75703
L80006 76209
L80034 76265
L80090 76293
L80147 76293
" />
<path d="M80568 76265
L80512 76293
L80400 76293
L80343 76265
L80315 76209
L80315 75984
L80343 75928
L80400 75899
L80512 75899
L80568 75928
L80597 75984
L80597 76040
L80315 76096
" />
<path d="M80850 76237
L80878 76265
L80850 76293
L80822 76265
L80850 76237
L80850 76293
" />
<path d="M80850 75928
L80878 75956
L80850 75984
L80822 75956
L80850 75928
L80850 75984
" />
</g>
<g style="fill:#000000; fill-opacity:0.0; 
stroke:#000000; stroke-width:39.3701; stroke-opacity:1; 
stroke-linecap:round; stroke-linejoin:round;">
</g>
<g style="fill:#000000; fill-opacity:0.0; 
stroke:#000000; stroke-width:59.0551; stroke-opacity:1; 
stroke-linecap:round; stroke-linejoin:round;">
<path d="M69685 76577
L112205 76577
" />
</g>
<g style="fill:#000000; fill-opacity:0.0; 
stroke:#000000; stroke-width:39.3701; stroke-opacity:1; 
stroke-linecap:round; stroke-linejoin:round;">
</g>
<g style="fill:#000000; fill-opacity:0.0; 
stroke:#000000; stroke-width:59.0551; stroke-opacity:1; 
stroke-linecap:round; stroke-linejoin:round;">
<path d="M70220 77395
L70220 76805
" />
<path d="M70557 77395
L70304 77058
" />
<path d="M70557 76805
L70220 77142
" />
<path d="M70810 77395
L70810 77002
" />
<path d="M70810 76805
L70782 76833
L70810 76861
L70838 76833
L70810 76805
L70810 76861
" />
<path d="M71429 77339
L71401 77367
L71316 77395
L71260 77395
L71176 77367
L71120 77311
L71091 77255
L71063 77142
L71063 77058
L71091 76946
L71120 76889
L71176 76833
L71260 76805
L71316 76805
L71401 76833
L71429 76861
" />
<path d="M71935 77395
L71935 77086
L71907 77030
L71851 77002
L71738 77002
L71682 77030
" />
<path d="M71935 77367
L71879 77395
L71738 77395
L71682 77367
L71654 77311
L71654 77255
L71682 77199
L71738 77171
L71879 77171
L71935 77142
" />
<path d="M72469 77395
L72469 76805
" />
<path d="M72469 77367
L72413 77395
L72301 77395
L72244 77367
L72216 77339
L72188 77283
L72188 77114
L72216 77058
L72244 77030
L72301 77002
L72413 77002
L72469 77030
" />
<path d="M73201 77086
L73397 77086
" />
<path d="M73482 77395
L73201 77395
L73201 76805
L73482 76805
" />
<path d="M73735 77339
L73763 77367
L73735 77395
L73707 77367
L73735 77339
L73735 77395
" />
<path d="M74016 77395
L74016 76805
L74157 76805
L74241 76833
L74297 76889
L74325 76946
L74354 77058
L74354 77142
L74325 77255
L74297 77311
L74241 77367
L74157 77395
L74016 77395
" />
<path d="M74607 77339
L74635 77367
L74607 77395
L74579 77367
L74607 77339
L74607 77395
" />
<path d="M74860 77227
L75141 77227
" />
<path d="M74804 77395
L75000 76805
L75197 77395
" />
<path d="M75394 77339
L75422 77367
L75394 77395
L75366 77367
L75394 77339
L75394 77395
" />
<path d="M76575 77395
L76575 76805
" />
<path d="M76631 77171
L76800 77395
" />
<path d="M76800 77002
L76575 77227
" />
<path d="M77053 77395
L77053 77002
" />
<path d="M77053 76805
L77025 76833
L77053 76861
L77081 76833
L77053 76805
L77053 76861
" />
<path d="M77588 77367
L77531 77395
L77419 77395
L77363 77367
L77334 77339
L77306 77283
L77306 77114
L77334 77058
L77363 77030
L77419 77002
L77531 77002
L77588 77030
" />
<path d="M78094 77395
L78094 77086
L78066 77030
L78009 77002
L77897 77002
L77841 77030
" />
<path d="M78094 77367
L78037 77395
L77897 77395
L77841 77367
L77813 77311
L77813 77255
L77841 77199
L77897 77171
L78037 77171
L78094 77142
" />
<path d="M78628 77395
L78628 76805
" />
<path d="M78628 77367
L78572 77395
L78459 77395
L78403 77367
L78375 77339
L78347 77283
L78347 77114
L78375 77058
L78403 77030
L78459 77002
L78572 77002
L78628 77030
" />
<path d="M79612 77002
L79612 77395
" />
<path d="M79472 76777
L79331 77199
L79697 77199
" />
<path d="M79922 77339
L79950 77367
L79922 77395
L79894 77367
L79922 77339
L79922 77395
" />
<path d="M80315 76805
L80372 76805
L80428 76833
L80456 76861
L80484 76917
L80512 77030
L80512 77171
L80484 77283
L80456 77339
L80428 77367
L80372 77395
L80315 77395
L80259 77367
L80231 77339
L80203 77283
L80175 77171
L80175 77030
L80203 76917
L80231 76861
L80259 76833
L80315 76805
" />
<path d="M80765 77339
L80793 77367
L80765 77395
L80737 77367
L80765 77339
L80765 77395
" />
<path d="M81018 76861
L81046 76833
L81103 76805
L81243 76805
L81300 76833
L81328 76861
L81356 76917
L81356 76974
L81328 77058
L80990 77395
L81356 77395
" />
<path d="M81609 77171
L82059 77171
" />
<path d="M82312 77367
L82368 77395
L82481 77395
L82537 77367
L82565 77311
L82565 77283
L82537 77227
L82481 77199
L82396 77199
L82340 77171
L82312 77114
L82312 77086
L82340 77030
L82396 77002
L82481 77002
L82537 77030
" />
<path d="M82734 77002
L82959 77002
" />
<path d="M82818 76805
L82818 77311
L82846 77367
L82903 77395
L82959 77395
" />
<path d="M83409 77395
L83409 77086
L83381 77030
L83324 77002
L83212 77002
L83156 77030
" />
<path d="M83409 77367
L83352 77395
L83212 77395
L83156 77367
L83127 77311
L83127 77255
L83156 77199
L83212 77171
L83352 77171
L83409 77142
" />
<path d="M83690 77395
L83690 76805
" />
<path d="M83690 77030
L83746 77002
L83859 77002
L83915 77030
L83943 77058
L83971 77114
L83971 77283
L83943 77339
L83915 77367
L83859 77395
L83746 77395
L83690 77367
" />
<path d="M84309 77395
L84252 77367
L84224 77311
L84224 76805
" />
<path d="M84759 77367
L84702 77395
L84590 77395
L84534 77367
L84505 77311
L84505 77086
L84534 77030
L84590 77002
L84702 77002
L84759 77030
L84787 77086
L84787 77142
L84505 77199
" />
</g>
<g style="fill:#000000; fill-opacity:0.0; 
stroke:#000000; stroke-width:39.3701; stroke-opacity:1; 
stroke-linecap:round; stroke-linejoin:round;">
</g>
<g style="fill:#000000; fill-opacity:0.0; 
stroke:#000000; stroke-width:59.0551; stroke-opacity:1; 
stroke-linecap:round; stroke-linejoin:round;">
<path d="M69685 75396
L112205 75396
" />
</g>
<g style="fill:#000000; fill-opacity:0.0; 
stroke:#000000; stroke-width:39.3701; stroke-opacity:1; 
stroke-linecap:round; stroke-linejoin:round;">
</g>
<g style="fill:#000000; fill-opacity:0.0; 
stroke:#000000; stroke-width:118.11; stroke-opacity:1; 
stroke-linecap:round; stroke-linejoin:round;">
<path d="M104022 76293
L103825 76012
" />
<path d="M103684 76293
L103684 75703
L103909 75703
L103965 75731
L103994 75759
L104022 75815
L104022 75899
L103994 75956
L103965 75984
L103909 76012
L103684 76012
" />
<path d="M104500 76265
L104444 76293
L104331 76293
L104275 76265
L104247 76209
L104247 75984
L104275 75928
L104331 75899
L104444 75899
L104500 75928
L104528 75984
L104528 76040
L104247 76096
" />
<path d="M104725 75899
L104865 76293
L105006 75899
" />
<path d="M105231 76237
L105259 76265
L105231 76293
L105203 76265
L105231 76237
L105231 76293
" />
<path d="M105231 75928
L105259 75956
L105231 75984
L105203 75956
L105231 75928
L105231 75984
" />
</g>
<g style="fill:#000000; fill-opacity:0.0; 
stroke:#000000; stroke-width:39.3701; stroke-opacity:1; 
stroke-linecap:round; stroke-linejoin:round;">
</g>
<g style="fill:#000000; fill-opacity:0.0; 
stroke:#000000; stroke-width:59.0551; stroke-opacity:1; 
stroke-linecap:round; stroke-linejoin:round;">
<path d="M70192 76265
L70276 76293
L70417 76293
L70473 76265
L70501 76237
L70529 76181
L70529 76124
L70501 76068
L70473 76040
L70417 76012
L70304 75984
L70248 75956
L70220 75928
L70192 75871
L70192 75815
L70220 75759
L70248 75731
L70304 75703
L70445 75703
L70529 75731
" />
<path d="M70782 76293
L70782 75899
" />
<path d="M70782 75703
L70754 75731
L70782 75759
L70810 75731
L70782 75703
L70782 75759
" />
<path d="M71007 75899
L71316 75899
L71007 76293
L71316 76293
" />
<path d="M71766 76265
L71710 76293
L71598 76293
L71541 76265
L71513 76209
L71513 75984
L71541 75928
L71598 75899
L71710 75899
L71766 75928
L71795 75984
L71795 76040
L71513 76096
" />
<path d="M72048 76237
L72076 76265
L72048 76293
L72019 76265
L72048 76237
L72048 76293
" />
<path d="M72048 75928
L72076 75956
L72048 75984
L72019 75956
L72048 75928
L72048 75984
" />
<path d="M72751 76124
L73032 76124
" />
<path d="M72694 76293
L72891 75703
L73088 76293
" />
<path d="M73538 75899
L73538 76293
" />
<path d="M73397 75674
L73257 76096
L73622 76096
" />
</g>
<g style="fill:#000000; fill-opacity:0.0; 
stroke:#000000; stroke-width:39.3701; stroke-opacity:1; 
stroke-linecap:round; stroke-linejoin:round;">
</g>
<g style="fill:#000000; fill-opacity:0.0; 
stroke:#000000; stroke-width:59.0551; stroke-opacity:1; 
stroke-linecap:round; stroke-linejoin:round;">
<path d="M103684 77395
L103684 76805
" />
<path d="M104219 77395
L104219 76805
" />
<path d="M104219 77367
L104162 77395
L104050 77395
L103994 77367
L103965 77339
L103937 77283
L103937 77114
L103965 77058
L103994 77030
L104050 77002
L104162 77002
L104219 77030
" />
<path d="M104500 77339
L104528 77367
L104500 77395
L104472 77367
L104500 77339
L104500 77395
" />
<path d="M104500 77030
L104528 77058
L104500 77086
L104472 77058
L104500 77030
L104500 77086
" />
<path d="M105540 77395
L105203 77395
" />
<path d="M105372 77395
L105372 76805
L105315 76889
L105259 76946
L105203 76974
" />
<path d="M106215 76777
L105709 77536
" />
<path d="M106721 77395
L106384 77395
" />
<path d="M106553 77395
L106553 76805
L106496 76889
L106440 76946
L106384 76974
" />
</g>
<g style="fill:#000000; fill-opacity:0.0; 
stroke:#000000; stroke-width:39.3701; stroke-opacity:1; 
stroke-linecap:round; stroke-linejoin:round;">
</g>
<g style="fill:#000000; fill-opacity:0.0; 
stroke:#000000; stroke-width:59.0551; stroke-opacity:1; 
stroke-linecap:round; stroke-linejoin:round;">
<path d="M69685 73821
L112205 73821
" />
</g>
<g style="fill:#000000; fill-opacity:0.0; 
stroke:#000000; stroke-width:39.3701; stroke-opacity:1; 
stroke-linecap:round; stroke-linejoin:round;">
</g>
<g style="fill:#000000; fill-opacity:0.0; 
stroke:#000000; stroke-width:157.48; stroke-opacity:1; 
stroke-linecap:round; stroke-linejoin:round;">
<path d="M70257 74099
L70707 74099
" />
<path d="M70384 74886
L70482 74099
" />
<path d="M70871 74886
L70937 74361
" />
<path d="M70970 74099
L70927 74136
L70960 74174
L71002 74136
L70970 74099
L70960 74174
" />
<path d="M71199 74361
L71499 74361
" />
<path d="M71345 74099
L71260 74774
L71288 74849
L71359 74886
L71434 74886
" />
<path d="M71809 74886
L71738 74849
L71710 74774
L71795 74099
" />
<path d="M72413 74849
L72334 74886
L72184 74886
L72113 74849
L72085 74774
L72123 74474
L72169 74399
L72249 74361
L72399 74361
L72469 74399
L72498 74474
L72488 74549
L72104 74624
" />
<path d="M72793 74811
L72826 74849
L72783 74886
L72751 74849
L72793 74811
L72783 74886
" />
<path d="M72844 74399
L72877 74436
L72835 74474
L72802 74436
L72844 74399
L72835 74474
" />
</g>
<g style="fill:#000000; fill-opacity:0.0; 
stroke:#000000; stroke-width:39.3701; stroke-opacity:1; 
stroke-linecap:round; stroke-linejoin:round;">
</g>
<g style="fill:#000000; fill-opacity:0.0; 
stroke:#000000; stroke-width:59.0551; stroke-opacity:1; 
stroke-linecap:round; stroke-linejoin:round;">
<path d="M70417 73070
L70220 73070
" />
<path d="M70220 73380
L70220 72789
L70501 72789
" />
<path d="M70726 73380
L70726 72986
" />
<path d="M70726 72789
L70698 72817
L70726 72845
L70754 72817
L70726 72789
L70726 72845
" />
<path d="M71091 73380
L71035 73352
L71007 73295
L71007 72789
" />
<path d="M71541 73352
L71485 73380
L71373 73380
L71316 73352
L71288 73295
L71288 73070
L71316 73014
L71373 72986
L71485 72986
L71541 73014
L71570 73070
L71570 73127
L71288 73183
" />
<path d="M71823 73323
L71851 73352
L71823 73380
L71795 73352
L71823 73323
L71823 73380
" />
<path d="M71823 73014
L71851 73042
L71823 73070
L71795 73042
L71823 73014
L71823 73070
" />
<path d="M72554 73380
L72554 72789
" />
<path d="M72554 73014
L72610 72986
L72723 72986
L72779 73014
L72807 73042
L72835 73099
L72835 73267
L72807 73323
L72779 73352
L72723 73380
L72610 73380
L72554 73352
" />
<path d="M73341 72986
L73341 73380
" />
<path d="M73088 72986
L73088 73295
L73116 73352
L73172 73380
L73257 73380
L73313 73352
L73341 73323
" />
<path d="M73594 73352
L73651 73380
L73763 73380
L73819 73352
L73847 73295
L73847 73267
L73819 73211
L73763 73183
L73679 73183
L73622 73155
L73594 73099
L73594 73070
L73622 73014
L73679 72986
L73763 72986
L73819 73014
" />
<path d="M74100 73380
L74100 72986
" />
<path d="M74100 72789
L74072 72817
L74100 72845
L74129 72817
L74100 72789
L74100 72845
" />
<path d="M74382 72986
L74382 73380
" />
<path d="M74382 73042
L74410 73014
L74466 72986
L74550 72986
L74607 73014
L74635 73070
L74635 73380
" />
<path d="M75141 73352
L75085 73380
L74972 73380
L74916 73352
L74888 73295
L74888 73070
L74916 73014
L74972 72986
L75085 72986
L75141 73014
L75169 73070
L75169 73127
L74888 73183
" />
<path d="M75394 73352
L75450 73380
L75563 73380
L75619 73352
L75647 73295
L75647 73267
L75619 73211
L75563 73183
L75478 73183
L75422 73155
L75394 73099
L75394 73070
L75422 73014
L75478 72986
L75563 72986
L75619 73014
" />
<path d="M75872 73352
L75928 73380
L76041 73380
L76097 73352
L76125 73295
L76125 73267
L76097 73211
L76041 73183
L75956 73183
L75900 73155
L75872 73099
L75872 73070
L75900 73014
L75956 72986
L76041 72986
L76097 73014
" />
<path d="M77081 73352
L77025 73380
L76913 73380
L76856 73352
L76828 73323
L76800 73267
L76800 73099
L76828 73042
L76856 73014
L76913 72986
L77025 72986
L77081 73014
" />
<path d="M77588 73380
L77588 73070
L77559 73014
L77503 72986
L77391 72986
L77334 73014
" />
<path d="M77588 73352
L77531 73380
L77391 73380
L77334 73352
L77306 73295
L77306 73239
L77334 73183
L77391 73155
L77531 73155
L77588 73127
" />
<path d="M77869 73380
L77869 72986
" />
<path d="M77869 73099
L77897 73042
L77925 73014
L77981 72986
L78037 72986
" />
<path d="M78487 73380
L78487 72789
" />
<path d="M78487 73352
L78431 73380
L78319 73380
L78262 73352
L78234 73323
L78206 73267
L78206 73099
L78234 73042
L78262 73014
L78319 72986
L78431 72986
L78487 73014
" />
<path d="M78769 73323
L78797 73352
L78769 73380
L78741 73352
L78769 73323
L78769 73380
" />
<path d="M79050 73380
L79050 72789
" />
<path d="M79106 73155
L79275 73380
" />
<path d="M79275 72986
L79050 73211
" />
<path d="M79528 73380
L79528 72986
" />
<path d="M79528 72789
L79500 72817
L79528 72845
L79556 72817
L79528 72789
L79528 72845
" />
<path d="M80062 73352
L80006 73380
L79894 73380
L79837 73352
L79809 73323
L79781 73267
L79781 73099
L79809 73042
L79837 73014
L79894 72986
L80006 72986
L80062 73014
" />
<path d="M80568 73380
L80568 73070
L80540 73014
L80484 72986
L80372 72986
L80315 73014
" />
<path d="M80568 73352
L80512 73380
L80372 73380
L80315 73352
L80287 73295
L80287 73239
L80315 73183
L80372 73155
L80512 73155
L80568 73127
" />
<path d="M81103 73380
L81103 72789
" />
<path d="M81103 73352
L81046 73380
L80934 73380
L80878 73352
L80850 73323
L80822 73267
L80822 73099
L80850 73042
L80878 73014
L80934 72986
L81046 72986
L81103 73014
" />
<path d="M81243 73436
L81693 73436
" />
<path d="M81834 72986
L81834 73577
" />
<path d="M81834 73014
L81890 72986
L82003 72986
L82059 73014
L82087 73042
L82115 73099
L82115 73267
L82087 73323
L82059 73352
L82003 73380
L81890 73380
L81834 73352
" />
<path d="M82621 73352
L82565 73380
L82453 73380
L82396 73352
L82368 73323
L82340 73267
L82340 73099
L82368 73042
L82396 73014
L82453 72986
L82565 72986
L82621 73014
" />
<path d="M82874 73380
L82874 72789
" />
<path d="M82874 73014
L82931 72986
L83043 72986
L83099 73014
L83127 73042
L83156 73099
L83156 73267
L83127 73323
L83099 73352
L83043 73380
L82931 73380
L82874 73352
" />
</g>
<g style="fill:#000000; fill-opacity:0.0; 
stroke:#000000; stroke-width:39.3701; stroke-opacity:1; 
stroke-linecap:round; stroke-linejoin:round;">
</g>
<g style="fill:#000000; fill-opacity:0.0; 
stroke:#000000; stroke-width:59.0551; stroke-opacity:1; 
stroke-linecap:round; stroke-linejoin:round;">
<path d="M69685 71459
L112205 71459
" />
</g>
<g style="fill:#000000; fill-opacity:0.0; 
stroke:#000000; stroke-width:39.3701; stroke-opacity:1; 
stroke-linecap:round; stroke-linejoin:round;">
</g>
<g style="fill:#000000; fill-opacity:0.0; 
stroke:#000000; stroke-width:59.0551; stroke-opacity:1; 
stroke-linecap:round; stroke-linejoin:round;">
<path d="M70192 72289
L70276 72317
L70417 72317
L70473 72289
L70501 72260
L70529 72204
L70529 72148
L70501 72092
L70473 72064
L70417 72036
L70304 72007
L70248 71979
L70220 71951
L70192 71895
L70192 71839
L70220 71782
L70248 71754
L70304 71726
L70445 71726
L70529 71754
" />
<path d="M70782 72317
L70782 71726
" />
<path d="M71035 72317
L71035 72007
L71007 71951
L70951 71923
L70867 71923
L70810 71951
L70782 71979
" />
<path d="M71541 72289
L71485 72317
L71373 72317
L71316 72289
L71288 72232
L71288 72007
L71316 71951
L71373 71923
L71485 71923
L71541 71951
L71570 72007
L71570 72064
L71288 72120
" />
<path d="M72048 72289
L71991 72317
L71879 72317
L71823 72289
L71795 72232
L71795 72007
L71823 71951
L71879 71923
L71991 71923
L72048 71951
L72076 72007
L72076 72064
L71795 72120
" />
<path d="M72244 71923
L72469 71923
" />
<path d="M72329 71726
L72329 72232
L72357 72289
L72413 72317
L72469 72317
" />
<path d="M72666 72260
L72694 72289
L72666 72317
L72638 72289
L72666 72260
L72666 72317
" />
<path d="M72666 71951
L72694 71979
L72666 72007
L72638 71979
L72666 71951
L72666 72007
" />
</g>
<g style="fill:#000000; fill-opacity:0.0; 
stroke:#000000; stroke-width:39.3701; stroke-opacity:1; 
stroke-linecap:round; stroke-linejoin:round;">
</g>
<g style="fill:#000000; fill-opacity:0.0; 
stroke:#000000; stroke-width:59.0551; stroke-opacity:1; 
stroke-linecap:round; stroke-linejoin:round;">
<path d="M77559 75396
L77559 76577
" />
</g>
<g style="fill:#000000; fill-opacity:0.0; 
stroke:#000000; stroke-width:39.3701; stroke-opacity:1; 
stroke-linecap:round; stroke-linejoin:round;">
</g>
<g style="fill:#000000; fill-opacity:0.0; 
stroke:#000000; stroke-width:59.0551; stroke-opacity:1; 
stroke-linecap:round; stroke-linejoin:round;">
<path d="M102756 75396
L102756 77955
" />
</g>
<g style="fill:#840000; fill-opacity:0.0; 
stroke:#840000; stroke-width:59.0551; stroke-opacity:1; 
stroke-linecap:round; stroke-linejoin:round;">
</g>
<g style="fill:#840000; fill-opacity:0.0; 
stroke:#840000; stroke-width:118.11; stroke-opacity:1; 
stroke-linecap:round; stroke-linejoin:round;">
<path d="M42175 39210
L42147 39239
L42062 39267
L42006 39267
L41922 39239
L41866 39182
L41838 39126
L41809 39014
L41809 38929
L41838 38817
L41866 38760
L41922 38704
L42006 38676
L42062 38676
L42147 38704
L42175 38732
" />
<path d="M42766 39210
L42737 39239
L42653 39267
L42597 39267
L42512 39239
L42456 39182
L42428 39126
L42400 39014
L42400 38929
L42428 38817
L42456 38760
L42512 38704
L42597 38676
L42653 38676
L42737 38704
L42766 38732
" />
<path d="M43019 39042
L43469 39042
" />
<path d="M43947 38957
L44031 38985
L44059 39014
L44087 39070
L44087 39154
L44059 39210
L44031 39239
L43975 39267
L43750 39267
L43750 38676
L43947 38676
L44003 38704
L44031 38732
L44059 38789
L44059 38845
L44031 38901
L44003 38929
L43947 38957
L43750 38957
" />
<path d="M44453 38985
L44453 39267
" />
<path d="M44256 38676
L44453 38985
L44650 38676
" />
<path d="M44847 39042
L45296 39042
" />
<path d="M45578 39267
L45578 38676
L45915 39267
L45915 38676
" />
<path d="M46534 39210
L46506 39239
L46421 39267
L46365 39267
L46281 39239
L46224 39182
L46196 39126
L46168 39014
L46168 38929
L46196 38817
L46224 38760
L46281 38704
L46365 38676
L46421 38676
L46506 38704
L46534 38732
" />
<path d="M46787 39042
L47237 39042
" />
<path d="M47490 39239
L47574 39267
L47715 39267
L47771 39239
L47799 39210
L47827 39154
L47827 39098
L47799 39042
L47771 39014
L47715 38985
L47602 38957
L47546 38929
L47518 38901
L47490 38845
L47490 38789
L47518 38732
L47546 38704
L47602 38676
L47743 38676
L47827 38704
" />
<path d="M48052 39098
L48334 39098
" />
<path d="M47996 39267
L48193 38676
L48390 39267
" />
<path d="M49290 38873
L49290 39267
" />
<path d="M49149 38648
L49008 39070
L49374 39070
" />
<path d="M49599 39210
L49627 39239
L49599 39267
L49571 39239
L49599 39210
L49599 39267
" />
<path d="M49993 38676
L50049 38676
L50105 38704
L50133 38732
L50161 38789
L50190 38901
L50190 39042
L50161 39154
L50133 39210
L50105 39239
L50049 39267
L49993 39267
L49937 39239
L49908 39210
L49880 39154
L49852 39042
L49852 38901
L49880 38789
L49908 38732
L49937 38704
L49993 38676
" />
</g>
<g style="fill:#C2C200; fill-opacity:0.0; 
stroke:#C2C200; stroke-width:118.11; stroke-opacity:1; 
stroke-linecap:round; stroke-linejoin:round;">
</g>
<g style="fill:#C2C200; fill-opacity:0.0; 
stroke:#C2C200; stroke-width:59.0551; stroke-opacity:1; 
stroke-linecap:round; stroke-linejoin:round;">
<path d="M55000 20000
L20000 20000
" />
<path d="M55000 20500
L55000 20000
" />
<path d="M55000 40000
L55000 20500
" />
<path d="M20000 40000
L55000 40000
" />
<path d="M20000 20000
L20000 40000
" />
</g>
<g style="fill:#840000; fill-opacity:0.0; 
stroke:#840000; stroke-width:59.0551; stroke-opacity:1; 
stroke-linecap:round; stroke-linejoin:round;">
</g>
<g style="fill:#840000; fill-opacity:0.0; 
stroke:#840000; stroke-width:150; stroke-opacity:1; 
stroke-linecap:round; stroke-linejoin:round;">
<path d="M45250 36502
L45250 36659
" />
<path d="M44974 36974
L45486 36974
" />
<path d="M45447 37093
L44974 37093
" />
<path d="M44935 37211
L45447 37211
" />
<path d="M45250 37368
L45250 37880
" />
<path d="M45289 37959
L45368 37959
" />
<path d="M45368 37959
L45368 37329
" />
<path d="M45132 37368
L45132 37959
" />
<path d="M45132 37959
L45329 37959
" />
<path d="M44935 36856
L45526 36856
" />
<path d="M45526 36856
L45526 37329
" />
<path d="M45526 37329
L44935 37329
" />
<path d="M44935 37329
L44935 36856
" />
<circle cx="45250" cy="36581" r="124.278" /> 
<path d="M45250 36266
L45211 36266
" />
<path d="M45211 36266
L44974 36305
" />
<path d="M44974 36305
L44778 36384
" />
<path d="M44778 36384
L44581 36541
" />
<path d="M44581 36541
L44384 36778
" />
<path d="M44384 36778
L44305 36935
" />
<path d="M44305 36935
L44266 37132
" />
<path d="M44266 37132
L44266 37368
" />
<path d="M44266 37368
L44344 37683
" />
<path d="M44344 37683
L44581 37959
" />
<path d="M44581 37959
L44778 38116
" />
<path d="M44778 38116
L45053 38234
" />
<path d="M45053 38234
L45368 38234
" />
<path d="M45368 38234
L45604 38156
" />
<path d="M45604 38156
L45841 38037
" />
<path d="M45841 38037
L46037 37841
" />
<path d="M46037 37841
L46195 37565
" />
<path d="M46195 37565
L46234 37329
" />
<path d="M46234 37329
L46234 37093
" />
<path d="M46234 37093
L46156 36856
" />
<path d="M46156 36856
L46037 36659
" />
<path d="M46037 36659
L45841 36463
" />
<path d="M45841 36463
L45644 36344
" />
<path d="M45644 36344
L45486 36305
" />
<path d="M45486 36305
L45250 36266
" />
<path d="M49817 37722
L50014 37841
" />
<path d="M50014 37841
L50211 37880
" />
<path d="M50211 37880
L50407 37841
" />
<path d="M50407 37841
L50604 37762
" />
<path d="M50604 37762
L50762 37604
" />
<path d="M50762 37604
L50880 37407
" />
<path d="M50880 37407
L50880 37250
" />
<path d="M50880 37250
L50841 37053
" />
<path d="M50841 37053
L50722 36856
" />
<path d="M50722 36856
L50604 36738
" />
<path d="M50604 36738
L50368 36620
" />
<path d="M50368 36620
L50211 36620
" />
<path d="M50211 36620
L50053 36659
" />
<path d="M50053 36659
L49856 36738
" />
<path d="M50250 36266
L50211 36266
" />
<path d="M50211 36266
L49974 36305
" />
<path d="M49974 36305
L49778 36384
" />
<path d="M49778 36384
L49581 36541
" />
<path d="M49581 36541
L49384 36778
" />
<path d="M49384 36778
L49305 36935
" />
<path d="M49305 36935
L49266 37132
" />
<path d="M49266 37132
L49266 37368
" />
<path d="M49266 37368
L49344 37683
" />
<path d="M49344 37683
L49581 37959
" />
<path d="M49581 37959
L49778 38116
" />
<path d="M49778 38116
L50053 38234
" />
<path d="M50053 38234
L50368 38234
" />
<path d="M50368 38234
L50604 38156
" />
<path d="M50604 38156
L50841 38037
" />
<path d="M50841 38037
L51037 37841
" />
<path d="M51037 37841
L51195 37565
" />
<path d="M51195 37565
L51234 37329
" />
<path d="M51234 37329
L51234 37093
" />
<path d="M51234 37093
L51156 36856
" />
<path d="M51156 36856
L51037 36659
" />
<path d="M51037 36659
L50841 36463
" />
<path d="M50841 36463
L50644 36344
" />
<path d="M50644 36344
L50486 36305
" />
<path d="M50486 36305
L50250 36266
" />
<path d="M43439 36895
L43400 36856
" />
<path d="M43400 36856
L43321 36816
" />
<path d="M43321 36816
L43203 36816
" />
<path d="M43203 36816
L43085 36856
" />
<path d="M43085 36856
L43006 37013
" />
<path d="M43006 37013
L42966 37210
" />
<path d="M42966 37210
L42966 37367
" />
<path d="M42966 37367
L43045 37525
" />
<path d="M43045 37525
L43203 37604
" />
<path d="M43203 37604
L43281 37604
" />
<path d="M43281 37604
L43400 37604
" />
<path d="M43400 37604
L43439 37525
" />
<path d="M42652 36895
L42612 36856
" />
<path d="M42612 36856
L42494 36816
" />
<path d="M42494 36816
L42337 36856
" />
<path d="M42337 36856
L42218 36934
" />
<path d="M42218 36934
L42179 37092
" />
<path d="M42179 37092
L42179 37249
" />
<path d="M42179 37249
L42218 37446
" />
<path d="M42218 37446
L42297 37564
" />
<path d="M42297 37564
L42415 37604
" />
<path d="M42415 37604
L42573 37604
" />
<path d="M42573 37604
L42652 37525
" />
<path d="M42809 36226
L42770 36226
" />
<path d="M42770 36226
L42533 36265
" />
<path d="M42533 36265
L42337 36344
" />
<path d="M42337 36344
L42140 36501
" />
<path d="M42140 36501
L41943 36738
" />
<path d="M41943 36738
L41864 36895
" />
<path d="M41864 36895
L41825 37092
" />
<path d="M41825 37092
L41825 37328
" />
<path d="M41825 37328
L41903 37643
" />
<path d="M41903 37643
L42140 37919
" />
<path d="M42140 37919
L42337 38076
" />
<path d="M42337 38076
L42612 38194
" />
<path d="M42612 38194
L42927 38194
" />
<path d="M42927 38194
L43163 38116
" />
<path d="M43163 38116
L43400 37997
" />
<path d="M43400 37997
L43596 37801
" />
<path d="M43596 37801
L43754 37525
" />
<path d="M43754 37525
L43793 37289
" />
<path d="M43793 37289
L43793 37053
" />
<path d="M43793 37053
L43715 36816
" />
<path d="M43715 36816
L43596 36619
" />
<path d="M43596 36619
L43400 36423
" />
<path d="M43400 36423
L43203 36304
" />
<path d="M43203 36304
L43045 36265
" />
<path d="M43045 36265
L42809 36226
" />
<path d="M47750 37762
L47750 37959
" />
<path d="M47750 37959
L47750 37919
" />
<path d="M47750 36659
L47750 36541
" />
<path d="M46805 36935
L48616 37604
" />
<path d="M46844 36896
L48695 37565
" />
<path d="M48104 36778
L48065 36738
" />
<path d="M48065 36738
L47907 36699
" />
<path d="M47907 36699
L47632 36699
" />
<path d="M47632 36699
L47553 36738
" />
<path d="M47553 36738
L47474 36817
" />
<path d="M47474 36817
L47435 36896
" />
<path d="M47435 36896
L47435 37014
" />
<path d="M47435 37014
L47474 37132
" />
<path d="M47474 37132
L47553 37211
" />
<path d="M47553 37211
L47868 37329
" />
<path d="M47868 37329
L47986 37407
" />
<path d="M47986 37407
L47986 37565
" />
<path d="M47986 37565
L47868 37644
" />
<path d="M47868 37644
L47671 37683
" />
<path d="M47671 37683
L47474 37644
" />
<path d="M47474 37644
L47435 37644
" />
<path d="M47435 37644
L47435 37722
" />
<path d="M47435 37722
L47553 37762
" />
<path d="M47553 37762
L47829 37762
" />
<path d="M47829 37762
L47947 37722
" />
<path d="M47947 37722
L48026 37644
" />
<path d="M48026 37644
L48065 37565
" />
<path d="M48065 37565
L48065 37447
" />
<path d="M48065 37447
L48026 37329
" />
<path d="M48026 37329
L47868 37211
" />
<path d="M47868 37211
L47632 37171
" />
<path d="M47632 37171
L47553 37093
" />
<path d="M47553 37093
L47514 36974
" />
<path d="M47514 36974
L47553 36896
" />
<path d="M47553 36896
L47632 36817
" />
<path d="M47632 36817
L47789 36778
" />
<path d="M47789 36778
L47907 36817
" />
<path d="M47907 36817
L48026 36856
" />
<path d="M48026 36856
L48104 36778
" />
<path d="M47750 36266
L47711 36266
" />
<path d="M47711 36266
L47474 36305
" />
<path d="M47474 36305
L47278 36384
" />
<path d="M47278 36384
L47081 36541
" />
<path d="M47081 36541
L46884 36778
" />
<path d="M46884 36778
L46805 36935
" />
<path d="M46805 36935
L46766 37132
" />
<path d="M46766 37132
L46766 37368
" />
<path d="M46766 37368
L46844 37683
" />
<path d="M46844 37683
L47081 37959
" />
<path d="M47081 37959
L47278 38116
" />
<path d="M47278 38116
L47553 38234
" />
<path d="M47553 38234
L47868 38234
" />
<path d="M47868 38234
L48104 38156
" />
<path d="M48104 38156
L48341 38037
" />
<path d="M48341 38037
L48537 37841
" />
<path d="M48537 37841
L48695 37565
" />
<path d="M48695 37565
L48734 37329
" />
<path d="M48734 37329
L48734 37093
" />
<path d="M48734 37093
L48656 36856
" />
<path d="M48656 36856
L48537 36659
" />
<path d="M48537 36659
L48341 36463
" />
<path d="M48341 36463
L48144 36344
" />
<path d="M48144 36344
L47986 36305
" />
<path d="M47986 36305
L47750 36266
" />
</g>
<g style="fill:#840000; fill-opacity:1.0; 
stroke:#840000; stroke-width:3.93701; stroke-opacity:1; 
stroke-linecap:round; stroke-linejoin:round;">
<polyline style="fill-rule:evenodd;"
points="38555,38255
38576,38266
38596,38286
38601,38294
38607,38303
38610,38314
38613,38328
38614,38348
38614,38375
38613,38412
38609,38440
38603,38460
38593,38476
38578,38489
38577,38490
38563,38497
38546,38501
38524,38502
38488,38502
38488,38537
38488,38556
38486,38568
38480,38574
38470,38580
38468,38581
38456,38587
38448,38590
38441,38591
38437,38587
38434,38577
38432,38561
38431,38537
38431,38505
38432,38462
38432,38450
38433,38406
38433,38377
38488,38377
38488,38401
38490,38417
38493,38428
38498,38436
38502,38440
38517,38451
38531,38452
38545,38443
38545,38442
38551,38435
38554,38425
38556,38410
38557,38386
38557,38381
38555,38348
38551,38326
38543,38312
38532,38306
38525,38305
38509,38308
38498,38318
38491,38335
38488,38362
38488,38377
38433,38377
38433,38372
38434,38346
38435,38327
38437,38314
38439,38305
38442,38298
38445,38292
38447,38289
38469,38268
38496,38255
38527,38252
38555,38255
" /> 
<polyline style="fill-rule:evenodd;"
points="38994,38258
39012,38269
39025,38280
39034,38291
39041,38304
39045,38322
39047,38346
39048,38379
39048,38402
39048,38489
39024,38500
39000,38510
38997,38416
38995,38381
38994,38355
38993,38337
38991,38326
38988,38319
38984,38314
38983,38313
38964,38306
38945,38309
38934,38317
38929,38322
38926,38330
38924,38341
38923,38357
38922,38382
38922,38408
38922,38440
38922,38463
38920,38478
38916,38488
38909,38495
38899,38500
38885,38505
38870,38511
38872,38409
38873,38373
38874,38346
38875,38327
38877,38313
38879,38303
38883,38296
38888,38289
38909,38267
38936,38255
38965,38252
38994,38258
" /> 
<polyline style="fill-rule:evenodd;"
points="38335,38256
38361,38270
38381,38293
38388,38307
38394,38329
38396,38357
38397,38387
38395,38417
38390,38442
38384,38460
38382,38464
38358,38487
38330,38501
38299,38505
38268,38499
38260,38495
38243,38483
38228,38468
38227,38466
38221,38456
38217,38446
38215,38433
38214,38413
38214,38386
38214,38380
38214,38378
38271,38378
38271,38404
38273,38421
38275,38432
38280,38440
38282,38442
38296,38452
38309,38452
38323,38443
38331,38434
38335,38421
38338,38400
38338,38398
38339,38360
38334,38332
38324,38314
38309,38306
38304,38305
38290,38307
38280,38315
38274,38330
38271,38353
38271,38378
38214,38378
38214,38350
38215,38329
38217,38315
38220,38305
38225,38295
38227,38294
38246,38270
38267,38257
38293,38252
38302,38251
38335,38256
" /> 
<polyline style="fill-rule:evenodd;"
points="38778,38260
38801,38275
38818,38297
38829,38325
38831,38345
38831,38354
38829,38360
38823,38366
38812,38373
38795,38381
38768,38393
38768,38393
38744,38404
38724,38414
38710,38422
38705,38426
38705,38426
38710,38435
38720,38445
38732,38452
38738,38454
38755,38449
38769,38436
38776,38423
38783,38412
38796,38401
38811,38391
38825,38386
38828,38385
38831,38390
38831,38403
38829,38420
38824,38438
38818,38453
38818,38454
38800,38479
38776,38497
38749,38505
38721,38504
38695,38493
38694,38492
38673,38473
38659,38448
38651,38416
38650,38407
38648,38363
38650,38343
38705,38343
38706,38356
38710,38359
38720,38357
38735,38350
38752,38342
38752,38342
38767,38334
38773,38329
38771,38324
38765,38317
38750,38307
38733,38306
38718,38313
38708,38327
38705,38343
38650,38343
38652,38329
38662,38301
38675,38282
38699,38262
38726,38253
38753,38252
38778,38260
" /> 
<polyline style="fill-rule:evenodd;"
points="39254,38228
39255,38252
39257,38265
39260,38271
39264,38272
39265,38271
39282,38266
39304,38266
39326,38271
39340,38278
39354,38289
39365,38302
39372,38318
39376,38339
39379,38367
39379,38405
39379,38412
39380,38493
39362,38499
39349,38503
39342,38505
39342,38505
39341,38500
39340,38485
39340,38463
39340,38435
39340,38418
39339,38384
39339,38360
39338,38344
39336,38333
39333,38326
39329,38320
39326,38318
39308,38307
39288,38306
39270,38315
39266,38318
39261,38324
39258,38332
39256,38342
39254,38358
39254,38381
39254,38412
39254,38493
39236,38499
39223,38503
39216,38505
39216,38505
39215,38500
39215,38484
39214,38460
39214,38429
39214,38393
39214,38352
39214,38196
39232,38188
39251,38180
39254,38228
" /> 
<polyline style="fill-rule:evenodd;"
points="39515,38268
39538,38276
39538,38276
39552,38286
39562,38298
39569,38314
39574,38335
39577,38363
39578,38401
39578,38406
39581,38487
39563,38496
39551,38502
39543,38505
39543,38505
39541,38500
39540,38486
39540,38465
39540,38448
39539,38420
39538,38403
39534,38395
39525,38394
39508,38401
39484,38412
39466,38422
39457,38430
39454,38439
39454,38439
39458,38455
39472,38463
39492,38464
39507,38464
39514,38468
39519,38478
39522,38491
39518,38499
39516,38500
39502,38504
39482,38505
39462,38502
39447,38497
39427,38480
39416,38456
39414,38437
39416,38421
39422,38407
39434,38395
39454,38383
39483,38369
39485,38369
39512,38356
39528,38346
39535,38337
39533,38328
39524,38318
39521,38315
39503,38306
39484,38306
39467,38315
39456,38332
39455,38336
39445,38352
39432,38360
39414,38368
39414,38348
39419,38318
39436,38292
39445,38283
39464,38271
39489,38266
39515,38268
" /> 
<polyline style="fill-rule:evenodd;"
points="39708,38267
39734,38277
39755,38294
39763,38306
39772,38327
39772,38343
39763,38354
39759,38356
39744,38361
39737,38360
39734,38350
39734,38345
39729,38326
39717,38312
39699,38306
39680,38308
39664,38316
39659,38321
39655,38327
39653,38336
39651,38350
39650,38370
39649,38400
39649,38410
39648,38442
39647,38465
39646,38480
39644,38489
39641,38494
39636,38497
39633,38499
39620,38504
39613,38505
39610,38500
39609,38484
39608,38457
39609,38418
39609,38412
39610,38377
39611,38352
39612,38334
39614,38321
39618,38312
39622,38304
39624,38301
39637,38286
39652,38275
39654,38274
39680,38266
39708,38267
" /> 
<polyline style="fill-rule:evenodd;"
points="39968,38313
39968,38355
39968,38388
39967,38413
39966,38431
39964,38443
39962,38453
39959,38460
39957,38464
39937,38486
39913,38500
39885,38505
39858,38500
39842,38492
39825,38478
39813,38461
39806,38438
39803,38407
39802,38385
39802,38384
39842,38384
39843,38409
39844,38426
39846,38437
39851,38445
39856,38451
39875,38463
39895,38464
39913,38454
39915,38453
39921,38446
39925,38438
39927,38426
39928,38407
39928,38386
39928,38360
39927,38342
39924,38331
39919,38323
39916,38318
39898,38307
39878,38306
39859,38315
39856,38318
39849,38325
39845,38333
39843,38345
39842,38364
39842,38384
39802,38384
39804,38349
39808,38322
39817,38302
39831,38286
39842,38278
39861,38269
39884,38265
39905,38266
39917,38271
39921,38272
39924,38267
39926,38255
39928,38236
39930,38215
39932,38202
39937,38195
39945,38190
39950,38188
39968,38180
39968,38313
" /> 
<polyline style="fill-rule:evenodd;"
points="40200,38271
40201,38286
40202,38309
40202,38337
40202,38368
40202,38470
40184,38488
40172,38499
40161,38504
40146,38504
40140,38503
40121,38501
40106,38499
40102,38499
40090,38500
40072,38502
40065,38503
40048,38504
40036,38501
40025,38492
40020,38488
40002,38470
40002,38278
40017,38272
40029,38267
40037,38265
40039,38271
40040,38286
40042,38309
40043,38339
40044,38364
40045,38462
40059,38464
40071,38463
40077,38459
40079,38450
40080,38433
40082,38409
40082,38379
40082,38364
40082,38278
40100,38271
40113,38267
40120,38265
40120,38265
40121,38271
40122,38286
40122,38308
40123,38337
40124,38364
40125,38462
40160,38462
40161,38372
40163,38283
40179,38274
40192,38268
40199,38265
40199,38265
40200,38271
" /> 
<polyline style="fill-rule:evenodd;"
points="40344,38270
40360,38277
40373,38286
40383,38296
40389,38309
40393,38327
40396,38352
40397,38385
40397,38407
40397,38492
40382,38499
40371,38503
40365,38505
40364,38500
40363,38486
40362,38465
40362,38448
40362,38424
40361,38405
40359,38393
40357,38391
40347,38393
40331,38400
40313,38409
40295,38418
40281,38427
40275,38432
40275,38433
40276,38443
40281,38454
40289,38462
40302,38465
40313,38464
40328,38464
40336,38468
40341,38477
40341,38479
40343,38492
40338,38501
40323,38504
40307,38505
40279,38500
40265,38492
40247,38474
40237,38452
40236,38429
40244,38407
40256,38394
40269,38386
40288,38377
40310,38367
40314,38365
40338,38355
40352,38345
40357,38336
40352,38325
40345,38317
40328,38306
40309,38306
40292,38314
40279,38329
40278,38333
40268,38348
40254,38359
40237,38368
40237,38343
40238,38327
40242,38314
40252,38301
40261,38291
40276,38277
40287,38269
40300,38266
40314,38265
40344,38270
" /> 
<polyline style="fill-rule:evenodd;"
points="40544,38271
40551,38274
40567,38287
40581,38305
40590,38325
40591,38335
40586,38349
40576,38356
40565,38360
40560,38361
40557,38355
40552,38342
40550,38337
40538,38317
40521,38307
40499,38307
40497,38307
40485,38313
40476,38324
40470,38342
40467,38367
40465,38403
40465,38421
40465,38451
40465,38471
40463,38484
40461,38491
40457,38495
40451,38498
40451,38499
40439,38503
40434,38505
40433,38500
40432,38485
40431,38462
40431,38434
40431,38414
40431,38374
40433,38343
40435,38321
40440,38304
40447,38292
40457,38283
40467,38276
40491,38268
40518,38266
40544,38271
" /> 
<polyline style="fill-rule:evenodd;"
points="40741,38274
40764,38289
40775,38302
40783,38326
40784,38345
40782,38370
40724,38396
40695,38409
40677,38420
40667,38429
40665,38438
40671,38447
40677,38454
40694,38464
40713,38465
40730,38457
40743,38441
40745,38435
40756,38417
40768,38410
40785,38403
40785,38428
40784,38444
40778,38459
40765,38475
40764,38477
40750,38491
40738,38499
40723,38502
40711,38504
40689,38504
40673,38500
40663,38495
40648,38483
40637,38470
40630,38454
40627,38432
40625,38402
40625,38386
40626,38368
40660,38368
40661,38378
40662,38380
40668,38377
40682,38372
40701,38363
40705,38362
40729,38349
40742,38339
40745,38329
40738,38319
40733,38314
40712,38305
40693,38307
40676,38318
40665,38337
40662,38352
40660,38368
40626,38368
40626,38351
40629,38324
40634,38305
40643,38291
40656,38280
40661,38276
40687,38267
40714,38266
40741,38274
" /> 
<polyline style="fill-rule:evenodd;"
points="39540,36414
39571,36414
39594,36414
39609,36415
39619,36417
39624,36419
39627,36422
39628,36426
39628,36427
39630,36436
39634,36455
39639,36481
39644,36512
39651,36547
39651,36548
39658,36582
39664,36612
39669,36636
39673,36652
39675,36660
39675,36660
39682,36663
39697,36669
39717,36676
39717,36676
39741,36686
39769,36697
39796,36709
39798,36709
39842,36729
39939,36663
39968,36643
39995,36625
40018,36610
40035,36599
40044,36594
40045,36593
40051,36595
40064,36604
40083,36620
40108,36644
40134,36669
40159,36694
40182,36717
40200,36736
40214,36750
40220,36758
40220,36758
40221,36764
40218,36772
40212,36786
40200,36805
40183,36830
40161,36864
40141,36893
40123,36920
40108,36941
40098,36957
40092,36965
40092,36966
40093,36974
40098,36989
40106,37008
40109,37014
40121,37042
40135,37074
40146,37101
40154,37121
40160,37137
40164,37145
40164,37145
40171,37146
40187,37149
40210,37153
40238,37158
40268,37164
40299,37170
40329,37176
40356,37181
40376,37185
40389,37188
40392,37189
40396,37190
40398,37195
40400,37203
40401,37216
40402,37236
40402,37264
40402,37301
40402,37317
40402,37442
40372,37447
40356,37451
40331,37455
40301,37461
40268,37467
40260,37469
40230,37474
40204,37480
40184,37485
40172,37489
40170,37490
40165,37498
40159,37514
40151,37535
40149,37540
40139,37567
40127,37598
40115,37626
40115,37626
40095,37670
40161,37768
40228,37866
40142,37951
40116,37977
40093,37999
40073,38017
40058,38030
40049,38036
40048,38037
40040,38034
40025,38025
40004,38012
39978,37995
39951,37977
39923,37958
39897,37941
39877,37928
39863,37920
39857,37917
39849,37919
39834,37926
39815,37935
39814,37937
39788,37949
39771,37955
39761,37955
39755,37950
39755,37950
39752,37943
39746,37927
39736,37902
39723,37871
39708,37835
39691,37794
39674,37754
39656,37711
39640,37670
39625,37634
39613,37604
39604,37581
39598,37565
39597,37560
39601,37553
39613,37543
39628,37531
39671,37495
39706,37454
39730,37408
39744,37358
39747,37306
39744,37282
39732,37232
39711,37188
39683,37151
39648,37120
39609,37096
39566,37079
39520,37071
39474,37071
39428,37080
39384,37098
39342,37126
39325,37142
39292,37183
39268,37227
39255,37274
39252,37322
39258,37370
39274,37416
39299,37460
39333,37500
39371,37531
39387,37543
39398,37554
39402,37560
39400,37566
39394,37582
39385,37606
39372,37637
39358,37674
39341,37715
39325,37754
39306,37798
39290,37839
39275,37875
39262,37905
39253,37929
39246,37944
39244,37950
39238,37955
39228,37955
39211,37949
39186,37937
39185,37937
39167,37927
39151,37920
39143,37917
39142,37917
39136,37920
39122,37928
39101,37941
39076,37958
39048,37977
39020,37996
38994,38012
38973,38025
38958,38034
38951,38037
38945,38033
38931,38022
38913,38005
38890,37984
38865,37959
38857,37951
38771,37865
38836,37770
38856,37741
38873,37714
38887,37693
38897,37677
38901,37669
38901,37668
38899,37661
38893,37645
38884,37624
38878,37611
38867,37584
38856,37558
38847,37535
38845,37528
38839,37510
38832,37496
38829,37490
38821,37487
38804,37482
38781,37477
38752,37471
38740,37469
38707,37463
38676,37457
38650,37452
38630,37448
38627,37447
38597,37442
38597,37317
38597,37276
38597,37244
38598,37222
38599,37207
38600,37197
38602,37192
38605,37189
38607,37189
38614,37187
38630,37184
38654,37179
38682,37174
38712,37168
38744,37162
38773,37156
38799,37151
38819,37148
38832,37146
38835,37145
38837,37140
38843,37127
38850,37108
38853,37101
38864,37072
38878,37041
38890,37014
38899,36994
38905,36977
38907,36967
38907,36966
38903,36959
38893,36945
38879,36924
38862,36899
38842,36870
38838,36864
38815,36830
38799,36804
38787,36785
38781,36772
38778,36764
38779,36758
38779,36758
38784,36751
38797,36738
38815,36719
38837,36696
38862,36672
38865,36669
38896,36638
38920,36616
38938,36602
38949,36594
38954,36593
38962,36597
38977,36607
38998,36621
39024,36638
39054,36658
39060,36663
39157,36729
39201,36709
39228,36698
39257,36686
39281,36677
39282,36676
39302,36669
39316,36663
39324,36660
39324,36660
39326,36653
39330,36637
39335,36614
39341,36584
39347,36551
39348,36548
39354,36513
39360,36482
39365,36456
39369,36437
39371,36427
39371,36427
39372,36422
39375,36419
39380,36417
39389,36415
39403,36415
39425,36414
39455,36414
39494,36414
39500,36414
39540,36414
" /> 
</g>
<g style="fill:#840000; fill-opacity:1.0; 
stroke:#840000; stroke-width:629.921; stroke-opacity:1; 
stroke-linecap:round; stroke-linejoin:round;">
</g>
<g style="fill:#840000; fill-opacity:0.0; 
stroke:#840000; stroke-width:629.921; stroke-opacity:1; 
stroke-linecap:round; stroke-linejoin:round;">
<path d="M51000 34000
L51000 34000
" />
<path d="M51000 33000
L51000 33000
" />
<path d="M51000 32000
L51000 32000
" />
<path d="M51000 31000
L51000 31000
" />
<path d="M51000 30000
L51000 30000
" />
<path d="M51000 29000
L51000 29000
" />
<path d="M51000 28000
L51000 28000
" />
<path d="M51000 27000
L51000 27000
" />
<path d="M54000 27000
L54000 27000
" />
<path d="M54000 28000
L54000 28000
" />
<path d="M54000 29000
L54000 29000
" />
<path d="M54000 30000
L54000 30000
" />
<path d="M54000 31000
L54000 31000
" />
<path d="M54000 32000
L54000 32000
" />
<path d="M54000 33000
L54000 33000
" />
<path d="M54000 34000
L54000 34000
" />
</g>
<g style="fill:#FFFFFF; fill-opacity:0.0; 
stroke:#FFFFFF; stroke-width:629.921; stroke-opacity:1; 
stroke-linecap:round; stroke-linejoin:round;">
</g>
<g style="fill:#FFFFFF; fill-opacity:1.0; 
stroke:#FFFFFF; stroke-width:0; stroke-opacity:1; 
stroke-linecap:round; stroke-linejoin:round;">
<circle cx="51000" cy="34000" r="157.48" /> 
</g>
<g style="fill:#FFFFFF; fill-opacity:1.0; 
stroke:#FFFFFF; stroke-width:39.3701; stroke-opacity:1; 
stroke-linecap:round; stroke-linejoin:round;">
</g>
<g style="fill:#FFFFFF; fill-opacity:1.0; 
stroke:#FFFFFF; stroke-width:0; stroke-opacity:1; 
stroke-linecap:round; stroke-linejoin:round;">
<circle cx="51000" cy="33000" r="157.48" /> 
</g>
<g style="fill:#FFFFFF; fill-opacity:1.0; 
stroke:#FFFFFF; stroke-width:39.3701; stroke-opacity:1; 
stroke-linecap:round; stroke-linejoin:round;">
</g>
<g style="fill:#FFFFFF; fill-opacity:1.0; 
stroke:#FFFFFF; stroke-width:0; stroke-opacity:1; 
stroke-linecap:round; stroke-linejoin:round;">
<circle cx="51000" cy="32000" r="157.48" /> 
</g>
<g style="fill:#FFFFFF; fill-opacity:1.0; 
stroke:#FFFFFF; stroke-width:39.3701; stroke-opacity:1; 
stroke-linecap:round; stroke-linejoin:round;">
</g>
<g style="fill:#FFFFFF; fill-opacity:1.0; 
stroke:#FFFFFF; stroke-width:0; stroke-opacity:1; 
stroke-linecap:round; stroke-linejoin:round;">
<circle cx="51000" cy="31000" r="157.48" /> 
</g>
<g style="fill:#FFFFFF; fill-opacity:1.0; 
stroke:#FFFFFF; stroke-width:39.3701; stroke-opacity:1; 
stroke-linecap:round; stroke-linejoin:round;">
</g>
<g style="fill:#FFFFFF; fill-opacity:1.0; 
stroke:#FFFFFF; stroke-width:0; stroke-opacity:1; 
stroke-linecap:round; stroke-linejoin:round;">
<circle cx="51000" cy="30000" r="157.48" /> 
</g>
<g style="fill:#FFFFFF; fill-opacity:1.0; 
stroke:#FFFFFF; stroke-width:39.3701; stroke-opacity:1; 
stroke-linecap:round; stroke-linejoin:round;">
</g>
<g style="fill:#FFFFFF; fill-opacity:1.0; 
stroke:#FFFFFF; stroke-width:0; stroke-opacity:1; 
stroke-linecap:round; stroke-linejoin:round;">
<circle cx="51000" cy="29000" r="157.48" /> 
</g>
<g style="fill:#FFFFFF; fill-opacity:1.0; 
stroke:#FFFFFF; stroke-width:39.3701; stroke-opacity:1; 
stroke-linecap:round; stroke-linejoin:round;">
</g>
<g style="fill:#FFFFFF; fill-opacity:1.0; 
stroke:#FFFFFF; stroke-width:0; stroke-opacity:1; 
stroke-linecap:round; stroke-linejoin:round;">
<circle cx="51000" cy="28000" r="157.48" /> 
</g>
<g style="fill:#FFFFFF; fill-opacity:1.0; 
stroke:#FFFFFF; stroke-width:39.3701; stroke-opacity:1; 
stroke-linecap:round; stroke-linejoin:round;">
</g>
<g style="fill:#FFFFFF; fill-opacity:1.0; 
stroke:#FFFFFF; stroke-width:0; stroke-opacity:1; 
stroke-linecap:round; stroke-linejoin:round;">
<circle cx="51000" cy="27000" r="157.48" /> 
</g>
<g style="fill:#FFFFFF; fill-opacity:1.0; 
stroke:#FFFFFF; stroke-width:39.3701; stroke-opacity:1; 
stroke-linecap:round; stroke-linejoin:round;">
</g>
<g style="fill:#FFFFFF; fill-opacity:1.0; 
stroke:#FFFFFF; stroke-width:0; stroke-opacity:1; 
stroke-linecap:round; stroke-linejoin:round;">
<circle cx="54000" cy="27000" r="157.48" /> 
</g>
<g style="fill:#FFFFFF; fill-opacity:1.0; 
stroke:#FFFFFF; stroke-width:39.3701; stroke-opacity:1; 
stroke-linecap:round; stroke-linejoin:round;">
</g>
<g style="fill:#FFFFFF; fill-opacity:1.0; 
stroke:#FFFFFF; stroke-width:0; stroke-opacity:1; 
stroke-linecap:round; stroke-linejoin:round;">
<circle cx="54000" cy="28000" r="157.48" /> 
</g>
<g style="fill:#FFFFFF; fill-opacity:1.0; 
stroke:#FFFFFF; stroke-width:39.3701; stroke-opacity:1; 
stroke-linecap:round; stroke-linejoin:round;">
</g>
<g style="fill:#FFFFFF; fill-opacity:1.0; 
stroke:#FFFFFF; stroke-width:0; stroke-opacity:1; 
stroke-linecap:round; stroke-linejoin:round;">
<circle cx="54000" cy="29000" r="157.48" /> 
</g>
<g style="fill:#FFFFFF; fill-opacity:1.0; 
stroke:#FFFFFF; stroke-width:39.3701; stroke-opacity:1; 
stroke-linecap:round; stroke-linejoin:round;">
</g>
<g style="fill:#FFFFFF; fill-opacity:1.0; 
stroke:#FFFFFF; stroke-width:0; stroke-opacity:1; 
stroke-linecap:round; stroke-linejoin:round;">
<circle cx="54000" cy="30000" r="157.48" /> 
</g>
<g style="fill:#FFFFFF; fill-opacity:1.0; 
stroke:#FFFFFF; stroke-width:39.3701; stroke-opacity:1; 
stroke-linecap:round; stroke-linejoin:round;">
</g>
<g style="fill:#FFFFFF; fill-opacity:1.0; 
stroke:#FFFFFF; stroke-width:0; stroke-opacity:1; 
stroke-linecap:round; stroke-linejoin:round;">
<circle cx="54000" cy="31000" r="157.48" /> 
</g>
<g style="fill:#FFFFFF; fill-opacity:1.0; 
stroke:#FFFFFF; stroke-width:39.3701; stroke-opacity:1; 
stroke-linecap:round; stroke-linejoin:round;">
</g>
<g style="fill:#FFFFFF; fill-opacity:1.0; 
stroke:#FFFFFF; stroke-width:0; stroke-opacity:1; 
stroke-linecap:round; stroke-linejoin:round;">
<circle cx="54000" cy="32000" r="157.48" /> 
</g>
<g style="fill:#FFFFFF; fill-opacity:1.0; 
stroke:#FFFFFF; stroke-width:39.3701; stroke-opacity:1; 
stroke-linecap:round; stroke-linejoin:round;">
</g>
<g style="fill:#FFFFFF; fill-opacity:1.0; 
stroke:#FFFFFF; stroke-width:0; stroke-opacity:1; 
stroke-linecap:round; stroke-linejoin:round;">
<circle cx="54000" cy="33000" r="157.48" /> 
</g>
<g style="fill:#FFFFFF; fill-opacity:1.0; 
stroke:#FFFFFF; stroke-width:39.3701; stroke-opacity:1; 
stroke-linecap:round; stroke-linejoin:round;">
</g>
<g style="fill:#FFFFFF; fill-opacity:1.0; 
stroke:#FFFFFF; stroke-width:0; stroke-opacity:1; 
stroke-linecap:round; stroke-linejoin:round;">
<circle cx="54000" cy="34000" r="157.48" /> 
</g>
<g style="fill:#FFFFFF; fill-opacity:1.0; 
stroke:#FFFFFF; stroke-width:39.3701; stroke-opacity:1; 
stroke-linecap:round; stroke-linejoin:round;">
</g>
<g style="fill:#000000; fill-opacity:1.0; 
stroke:#000000; stroke-width:39.3701; stroke-opacity:1; 
stroke-linecap:round; stroke-linejoin:round;">
</g> 
</svg>
