<?xml version="1.0" standalone="no"?>
 <!DOCTYPE svg PUBLIC "-//W3C//DTD SVG 1.1//EN" 
 "http://www.w3.org/Graphics/SVG/1.1/DTD/svg11.dtd"> 
<svg xmlns="http://www.w3.org/2000/svg" version="1.1" 
    width="29.7002cm" height="21.0007cm" viewBox="0 0 116930 82680 ">
<title>SVG Picture created as business card-F.Fab.svg date 2016/10/30 15:56:41 </title>
  <desc>Picture generated by PCBNEW </desc>
<g style="fill:#000000; fill-opacity:1;stroke:#000000; stroke-opacity:1;
stroke-linecap:round; stroke-linejoin:round; "
 transform="translate(0 0) scale(1 1)">
</g>
<g style="fill:#000000; fill-opacity:0.0; 
stroke:#000000; stroke-width:-0.000393701; stroke-opacity:1; 
stroke-linecap:round; stroke-linejoin:round;">
</g>
<g style="fill:#000000; fill-opacity:0.0; 
stroke:#000000; stroke-width:39.3701; stroke-opacity:1; 
stroke-linecap:round; stroke-linejoin:round;">
</g>
<g style="fill:#000000; fill-opacity:0.0; 
stroke:#000000; stroke-width:59.0551; stroke-opacity:1; 
stroke-linecap:round; stroke-linejoin:round;">
<rect x="69685.9" y="65357.2" width="42519.7" height="12598.4" rx="0" />
</g>
<g style="fill:#000000; fill-opacity:0.0; 
stroke:#000000; stroke-width:39.3701; stroke-opacity:1; 
stroke-linecap:round; stroke-linejoin:round;">
</g>
<g style="fill:#000000; fill-opacity:0.0; 
stroke:#000000; stroke-width:59.0551; stroke-opacity:1; 
stroke-linecap:round; stroke-linejoin:round;">
<rect x="3937.01" y="3937.01" width="109056" height="74806" rx="0" />
</g>
<g style="fill:#000000; fill-opacity:0.0; 
stroke:#000000; stroke-width:39.3701; stroke-opacity:1; 
stroke-linecap:round; stroke-linejoin:round;">
</g>
<g style="fill:#000000; fill-opacity:0.0; 
stroke:#000000; stroke-width:59.0551; stroke-opacity:1; 
stroke-linecap:round; stroke-linejoin:round;">
<rect x="4724.41" y="4724.41" width="107481" height="73231.2" rx="0" />
</g>
<g style="fill:#000000; fill-opacity:0.0; 
stroke:#000000; stroke-width:39.3701; stroke-opacity:1; 
stroke-linecap:round; stroke-linejoin:round;">
</g>
<g style="fill:#000000; fill-opacity:0.0; 
stroke:#000000; stroke-width:59.0551; stroke-opacity:1; 
stroke-linecap:round; stroke-linejoin:round;">
<path d="M23622 4724
L23622 3937
" />
</g>
<g style="fill:#000000; fill-opacity:0.0; 
stroke:#000000; stroke-width:39.3701; stroke-opacity:1; 
stroke-linecap:round; stroke-linejoin:round;">
</g>
<g style="fill:#000000; fill-opacity:0.0; 
stroke:#000000; stroke-width:59.0551; stroke-opacity:1; 
stroke-linecap:round; stroke-linejoin:round;">
<path d="M43307 4724
L43307 3937
" />
</g>
<g style="fill:#000000; fill-opacity:0.0; 
stroke:#000000; stroke-width:39.3701; stroke-opacity:1; 
stroke-linecap:round; stroke-linejoin:round;">
</g>
<g style="fill:#000000; fill-opacity:0.0; 
stroke:#000000; stroke-width:59.0551; stroke-opacity:1; 
stroke-linecap:round; stroke-linejoin:round;">
<path d="M62992 4724
L62992 3937
" />
</g>
<g style="fill:#000000; fill-opacity:0.0; 
stroke:#000000; stroke-width:39.3701; stroke-opacity:1; 
stroke-linecap:round; stroke-linejoin:round;">
</g>
<g style="fill:#000000; fill-opacity:0.0; 
stroke:#000000; stroke-width:59.0551; stroke-opacity:1; 
stroke-linecap:round; stroke-linejoin:round;">
<path d="M82677 4724
L82677 3937
" />
</g>
<g style="fill:#000000; fill-opacity:0.0; 
stroke:#000000; stroke-width:39.3701; stroke-opacity:1; 
stroke-linecap:round; stroke-linejoin:round;">
</g>
<g style="fill:#000000; fill-opacity:0.0; 
stroke:#000000; stroke-width:59.0551; stroke-opacity:1; 
stroke-linecap:round; stroke-linejoin:round;">
<path d="M102362 4724
L102362 3937
" />
</g>
<g style="fill:#000000; fill-opacity:0.0; 
stroke:#000000; stroke-width:39.3701; stroke-opacity:1; 
stroke-linecap:round; stroke-linejoin:round;">
</g>
<g style="fill:#000000; fill-opacity:0.0; 
stroke:#000000; stroke-width:59.0551; stroke-opacity:1; 
stroke-linecap:round; stroke-linejoin:round;">
<path d="M14169 4562
L13877 4562
" />
<path d="M14023 4562
L14023 4050
L13974 4123
L13925 4172
L13877 4196
" />
</g>
<g style="fill:#000000; fill-opacity:0.0; 
stroke:#000000; stroke-width:39.3701; stroke-opacity:1; 
stroke-linecap:round; stroke-linejoin:round;">
</g>
<g style="fill:#000000; fill-opacity:0.0; 
stroke:#000000; stroke-width:59.0551; stroke-opacity:1; 
stroke-linecap:round; stroke-linejoin:round;">
<path d="M33562 4099
L33586 4074
L33635 4050
L33757 4050
L33805 4074
L33830 4099
L33854 4147
L33854 4196
L33830 4269
L33537 4562
L33854 4562
" />
</g>
<g style="fill:#000000; fill-opacity:0.0; 
stroke:#000000; stroke-width:39.3701; stroke-opacity:1; 
stroke-linecap:round; stroke-linejoin:round;">
</g>
<g style="fill:#000000; fill-opacity:0.0; 
stroke:#000000; stroke-width:59.0551; stroke-opacity:1; 
stroke-linecap:round; stroke-linejoin:round;">
<path d="M53222 4050
L53539 4050
L53368 4245
L53442 4245
L53490 4269
L53515 4294
L53539 4342
L53539 4464
L53515 4513
L53490 4537
L53442 4562
L53295 4562
L53247 4537
L53222 4513
" />
</g>
<g style="fill:#000000; fill-opacity:0.0; 
stroke:#000000; stroke-width:39.3701; stroke-opacity:1; 
stroke-linecap:round; stroke-linejoin:round;">
</g>
<g style="fill:#000000; fill-opacity:0.0; 
stroke:#000000; stroke-width:59.0551; stroke-opacity:1; 
stroke-linecap:round; stroke-linejoin:round;">
<path d="M73175 4221
L73175 4562
" />
<path d="M73053 4026
L72932 4391
L73248 4391
" />
</g>
<g style="fill:#000000; fill-opacity:0.0; 
stroke:#000000; stroke-width:39.3701; stroke-opacity:1; 
stroke-linecap:round; stroke-linejoin:round;">
</g>
<g style="fill:#000000; fill-opacity:0.0; 
stroke:#000000; stroke-width:59.0551; stroke-opacity:1; 
stroke-linecap:round; stroke-linejoin:round;">
<path d="M92885 4050
L92641 4050
L92617 4294
L92641 4269
L92690 4245
L92812 4245
L92860 4269
L92885 4294
L92909 4342
L92909 4464
L92885 4513
L92860 4537
L92812 4562
L92690 4562
L92641 4537
L92617 4513
" />
</g>
<g style="fill:#000000; fill-opacity:0.0; 
stroke:#000000; stroke-width:39.3701; stroke-opacity:1; 
stroke-linecap:round; stroke-linejoin:round;">
</g>
<g style="fill:#000000; fill-opacity:0.0; 
stroke:#000000; stroke-width:59.0551; stroke-opacity:1; 
stroke-linecap:round; stroke-linejoin:round;">
<path d="M112545 4050
L112448 4050
L112399 4074
L112375 4099
L112326 4172
L112302 4269
L112302 4464
L112326 4513
L112350 4537
L112399 4562
L112497 4562
L112545 4537
L112570 4513
L112594 4464
L112594 4342
L112570 4294
L112545 4269
L112497 4245
L112399 4245
L112350 4269
L112326 4294
L112302 4342
" />
</g>
<g style="fill:#000000; fill-opacity:0.0; 
stroke:#000000; stroke-width:39.3701; stroke-opacity:1; 
stroke-linecap:round; stroke-linejoin:round;">
</g>
<g style="fill:#000000; fill-opacity:0.0; 
stroke:#000000; stroke-width:59.0551; stroke-opacity:1; 
stroke-linecap:round; stroke-linejoin:round;">
<path d="M23622 77955
L23622 78742
" />
</g>
<g style="fill:#000000; fill-opacity:0.0; 
stroke:#000000; stroke-width:39.3701; stroke-opacity:1; 
stroke-linecap:round; stroke-linejoin:round;">
</g>
<g style="fill:#000000; fill-opacity:0.0; 
stroke:#000000; stroke-width:59.0551; stroke-opacity:1; 
stroke-linecap:round; stroke-linejoin:round;">
<path d="M43307 77955
L43307 78742
" />
</g>
<g style="fill:#000000; fill-opacity:0.0; 
stroke:#000000; stroke-width:39.3701; stroke-opacity:1; 
stroke-linecap:round; stroke-linejoin:round;">
</g>
<g style="fill:#000000; fill-opacity:0.0; 
stroke:#000000; stroke-width:59.0551; stroke-opacity:1; 
stroke-linecap:round; stroke-linejoin:round;">
<path d="M62992 77955
L62992 78742
" />
</g>
<g style="fill:#000000; fill-opacity:0.0; 
stroke:#000000; stroke-width:39.3701; stroke-opacity:1; 
stroke-linecap:round; stroke-linejoin:round;">
</g>
<g style="fill:#000000; fill-opacity:0.0; 
stroke:#000000; stroke-width:59.0551; stroke-opacity:1; 
stroke-linecap:round; stroke-linejoin:round;">
<path d="M82677 77955
L82677 78742
" />
</g>
<g style="fill:#000000; fill-opacity:0.0; 
stroke:#000000; stroke-width:39.3701; stroke-opacity:1; 
stroke-linecap:round; stroke-linejoin:round;">
</g>
<g style="fill:#000000; fill-opacity:0.0; 
stroke:#000000; stroke-width:59.0551; stroke-opacity:1; 
stroke-linecap:round; stroke-linejoin:round;">
<path d="M102362 77955
L102362 78742
" />
</g>
<g style="fill:#000000; fill-opacity:0.0; 
stroke:#000000; stroke-width:39.3701; stroke-opacity:1; 
stroke-linecap:round; stroke-linejoin:round;">
</g>
<g style="fill:#000000; fill-opacity:0.0; 
stroke:#000000; stroke-width:59.0551; stroke-opacity:1; 
stroke-linecap:round; stroke-linejoin:round;">
<path d="M14169 78580
L13877 78580
" />
<path d="M14023 78580
L14023 78069
L13974 78142
L13925 78190
L13877 78215
" />
</g>
<g style="fill:#000000; fill-opacity:0.0; 
stroke:#000000; stroke-width:39.3701; stroke-opacity:1; 
stroke-linecap:round; stroke-linejoin:round;">
</g>
<g style="fill:#000000; fill-opacity:0.0; 
stroke:#000000; stroke-width:59.0551; stroke-opacity:1; 
stroke-linecap:round; stroke-linejoin:round;">
<path d="M33562 78117
L33586 78093
L33635 78069
L33757 78069
L33805 78093
L33830 78117
L33854 78166
L33854 78215
L33830 78288
L33537 78580
L33854 78580
" />
</g>
<g style="fill:#000000; fill-opacity:0.0; 
stroke:#000000; stroke-width:39.3701; stroke-opacity:1; 
stroke-linecap:round; stroke-linejoin:round;">
</g>
<g style="fill:#000000; fill-opacity:0.0; 
stroke:#000000; stroke-width:59.0551; stroke-opacity:1; 
stroke-linecap:round; stroke-linejoin:round;">
<path d="M53222 78069
L53539 78069
L53368 78263
L53442 78263
L53490 78288
L53515 78312
L53539 78361
L53539 78483
L53515 78532
L53490 78556
L53442 78580
L53295 78580
L53247 78556
L53222 78532
" />
</g>
<g style="fill:#000000; fill-opacity:0.0; 
stroke:#000000; stroke-width:39.3701; stroke-opacity:1; 
stroke-linecap:round; stroke-linejoin:round;">
</g>
<g style="fill:#000000; fill-opacity:0.0; 
stroke:#000000; stroke-width:59.0551; stroke-opacity:1; 
stroke-linecap:round; stroke-linejoin:round;">
<path d="M73175 78239
L73175 78580
" />
<path d="M73053 78044
L72932 78410
L73248 78410
" />
</g>
<g style="fill:#000000; fill-opacity:0.0; 
stroke:#000000; stroke-width:39.3701; stroke-opacity:1; 
stroke-linecap:round; stroke-linejoin:round;">
</g>
<g style="fill:#000000; fill-opacity:0.0; 
stroke:#000000; stroke-width:59.0551; stroke-opacity:1; 
stroke-linecap:round; stroke-linejoin:round;">
<path d="M92885 78069
L92641 78069
L92617 78312
L92641 78288
L92690 78263
L92812 78263
L92860 78288
L92885 78312
L92909 78361
L92909 78483
L92885 78532
L92860 78556
L92812 78580
L92690 78580
L92641 78556
L92617 78532
" />
</g>
<g style="fill:#000000; fill-opacity:0.0; 
stroke:#000000; stroke-width:39.3701; stroke-opacity:1; 
stroke-linecap:round; stroke-linejoin:round;">
</g>
<g style="fill:#000000; fill-opacity:0.0; 
stroke:#000000; stroke-width:59.0551; stroke-opacity:1; 
stroke-linecap:round; stroke-linejoin:round;">
<path d="M112545 78069
L112448 78069
L112399 78093
L112375 78117
L112326 78190
L112302 78288
L112302 78483
L112326 78532
L112350 78556
L112399 78580
L112497 78580
L112545 78556
L112570 78532
L112594 78483
L112594 78361
L112570 78312
L112545 78288
L112497 78263
L112399 78263
L112350 78288
L112326 78312
L112302 78361
" />
</g>
<g style="fill:#000000; fill-opacity:0.0; 
stroke:#000000; stroke-width:39.3701; stroke-opacity:1; 
stroke-linecap:round; stroke-linejoin:round;">
</g>
<g style="fill:#000000; fill-opacity:0.0; 
stroke:#000000; stroke-width:59.0551; stroke-opacity:1; 
stroke-linecap:round; stroke-linejoin:round;">
<path d="M3937 23622
L4724 23622
" />
</g>
<g style="fill:#000000; fill-opacity:0.0; 
stroke:#000000; stroke-width:39.3701; stroke-opacity:1; 
stroke-linecap:round; stroke-linejoin:round;">
</g>
<g style="fill:#000000; fill-opacity:0.0; 
stroke:#000000; stroke-width:59.0551; stroke-opacity:1; 
stroke-linecap:round; stroke-linejoin:round;">
<path d="M3937 43307
L4724 43307
" />
</g>
<g style="fill:#000000; fill-opacity:0.0; 
stroke:#000000; stroke-width:39.3701; stroke-opacity:1; 
stroke-linecap:round; stroke-linejoin:round;">
</g>
<g style="fill:#000000; fill-opacity:0.0; 
stroke:#000000; stroke-width:59.0551; stroke-opacity:1; 
stroke-linecap:round; stroke-linejoin:round;">
<path d="M3937 62992
L4724 62992
" />
</g>
<g style="fill:#000000; fill-opacity:0.0; 
stroke:#000000; stroke-width:39.3701; stroke-opacity:1; 
stroke-linecap:round; stroke-linejoin:round;">
</g>
<g style="fill:#000000; fill-opacity:0.0; 
stroke:#000000; stroke-width:59.0551; stroke-opacity:1; 
stroke-linecap:round; stroke-linejoin:round;">
<path d="M4208 13864
L4452 13864
" />
<path d="M4160 14011
L4330 13499
L4501 14011
" />
</g>
<g style="fill:#000000; fill-opacity:0.0; 
stroke:#000000; stroke-width:39.3701; stroke-opacity:1; 
stroke-linecap:round; stroke-linejoin:round;">
</g>
<g style="fill:#000000; fill-opacity:0.0; 
stroke:#000000; stroke-width:59.0551; stroke-opacity:1; 
stroke-linecap:round; stroke-linejoin:round;">
<path d="M4367 33428
L4440 33452
L4464 33476
L4489 33525
L4489 33598
L4464 33647
L4440 33671
L4391 33696
L4196 33696
L4196 33184
L4367 33184
L4416 33208
L4440 33233
L4464 33281
L4464 33330
L4440 33379
L4416 33403
L4367 33428
L4196 33428
" />
</g>
<g style="fill:#000000; fill-opacity:0.0; 
stroke:#000000; stroke-width:39.3701; stroke-opacity:1; 
stroke-linecap:round; stroke-linejoin:round;">
</g>
<g style="fill:#000000; fill-opacity:0.0; 
stroke:#000000; stroke-width:59.0551; stroke-opacity:1; 
stroke-linecap:round; stroke-linejoin:round;">
<path d="M4489 53332
L4464 53356
L4391 53381
L4342 53381
L4269 53356
L4221 53308
L4196 53259
L4172 53161
L4172 53088
L4196 52991
L4221 52942
L4269 52893
L4342 52869
L4391 52869
L4464 52893
L4489 52918
" />
</g>
<g style="fill:#000000; fill-opacity:0.0; 
stroke:#000000; stroke-width:39.3701; stroke-opacity:1; 
stroke-linecap:round; stroke-linejoin:round;">
</g>
<g style="fill:#000000; fill-opacity:0.0; 
stroke:#000000; stroke-width:59.0551; stroke-opacity:1; 
stroke-linecap:round; stroke-linejoin:round;">
<path d="M4196 73066
L4196 72554
L4318 72554
L4391 72578
L4440 72627
L4464 72676
L4489 72773
L4489 72846
L4464 72944
L4440 72993
L4391 73041
L4318 73066
L4196 73066
" />
</g>
<g style="fill:#000000; fill-opacity:0.0; 
stroke:#000000; stroke-width:39.3701; stroke-opacity:1; 
stroke-linecap:round; stroke-linejoin:round;">
</g>
<g style="fill:#000000; fill-opacity:0.0; 
stroke:#000000; stroke-width:59.0551; stroke-opacity:1; 
stroke-linecap:round; stroke-linejoin:round;">
<path d="M112992 23622
L112205 23622
" />
</g>
<g style="fill:#000000; fill-opacity:0.0; 
stroke:#000000; stroke-width:39.3701; stroke-opacity:1; 
stroke-linecap:round; stroke-linejoin:round;">
</g>
<g style="fill:#000000; fill-opacity:0.0; 
stroke:#000000; stroke-width:59.0551; stroke-opacity:1; 
stroke-linecap:round; stroke-linejoin:round;">
<path d="M112992 43307
L112205 43307
" />
</g>
<g style="fill:#000000; fill-opacity:0.0; 
stroke:#000000; stroke-width:39.3701; stroke-opacity:1; 
stroke-linecap:round; stroke-linejoin:round;">
</g>
<g style="fill:#000000; fill-opacity:0.0; 
stroke:#000000; stroke-width:59.0551; stroke-opacity:1; 
stroke-linecap:round; stroke-linejoin:round;">
<path d="M112992 62992
L112205 62992
" />
</g>
<g style="fill:#000000; fill-opacity:0.0; 
stroke:#000000; stroke-width:39.3701; stroke-opacity:1; 
stroke-linecap:round; stroke-linejoin:round;">
</g>
<g style="fill:#000000; fill-opacity:0.0; 
stroke:#000000; stroke-width:59.0551; stroke-opacity:1; 
stroke-linecap:round; stroke-linejoin:round;">
<path d="M112477 13864
L112721 13864
" />
<path d="M112428 14011
L112599 13499
L112769 14011
" />
</g>
<g style="fill:#000000; fill-opacity:0.0; 
stroke:#000000; stroke-width:39.3701; stroke-opacity:1; 
stroke-linecap:round; stroke-linejoin:round;">
</g>
<g style="fill:#000000; fill-opacity:0.0; 
stroke:#000000; stroke-width:59.0551; stroke-opacity:1; 
stroke-linecap:round; stroke-linejoin:round;">
<path d="M112635 33428
L112708 33452
L112733 33476
L112757 33525
L112757 33598
L112733 33647
L112708 33671
L112660 33696
L112465 33696
L112465 33184
L112635 33184
L112684 33208
L112708 33233
L112733 33281
L112733 33330
L112708 33379
L112684 33403
L112635 33428
L112465 33428
" />
</g>
<g style="fill:#000000; fill-opacity:0.0; 
stroke:#000000; stroke-width:39.3701; stroke-opacity:1; 
stroke-linecap:round; stroke-linejoin:round;">
</g>
<g style="fill:#000000; fill-opacity:0.0; 
stroke:#000000; stroke-width:59.0551; stroke-opacity:1; 
stroke-linecap:round; stroke-linejoin:round;">
<path d="M112757 53332
L112733 53356
L112660 53381
L112611 53381
L112538 53356
L112489 53308
L112465 53259
L112440 53161
L112440 53088
L112465 52991
L112489 52942
L112538 52893
L112611 52869
L112660 52869
L112733 52893
L112757 52918
" />
</g>
<g style="fill:#000000; fill-opacity:0.0; 
stroke:#000000; stroke-width:39.3701; stroke-opacity:1; 
stroke-linecap:round; stroke-linejoin:round;">
</g>
<g style="fill:#000000; fill-opacity:0.0; 
stroke:#000000; stroke-width:59.0551; stroke-opacity:1; 
stroke-linecap:round; stroke-linejoin:round;">
<path d="M112465 73066
L112465 72554
L112587 72554
L112660 72578
L112708 72627
L112733 72676
L112757 72773
L112757 72846
L112733 72944
L112708 72993
L112660 73041
L112587 73066
L112465 73066
" />
</g>
<g style="fill:#000000; fill-opacity:0.0; 
stroke:#000000; stroke-width:39.3701; stroke-opacity:1; 
stroke-linecap:round; stroke-linejoin:round;">
</g>
<g style="fill:#000000; fill-opacity:0.0; 
stroke:#000000; stroke-width:59.0551; stroke-opacity:1; 
stroke-linecap:round; stroke-linejoin:round;">
<path d="M78881 76293
L78881 75703
L79022 75703
L79106 75731
L79162 75787
L79190 75843
L79219 75956
L79219 76040
L79190 76153
L79162 76209
L79106 76265
L79022 76293
L78881 76293
" />
<path d="M79725 76293
L79725 75984
L79697 75928
L79640 75899
L79528 75899
L79472 75928
" />
<path d="M79725 76265
L79669 76293
L79528 76293
L79472 76265
L79444 76209
L79444 76153
L79472 76096
L79528 76068
L79669 76068
L79725 76040
" />
<path d="M79922 75899
L80147 75899
" />
<path d="M80006 75703
L80006 76209
L80034 76265
L80090 76293
L80147 76293
" />
<path d="M80568 76265
L80512 76293
L80400 76293
L80343 76265
L80315 76209
L80315 75984
L80343 75928
L80400 75899
L80512 75899
L80568 75928
L80597 75984
L80597 76040
L80315 76096
" />
<path d="M80850 76237
L80878 76265
L80850 76293
L80822 76265
L80850 76237
L80850 76293
" />
<path d="M80850 75928
L80878 75956
L80850 75984
L80822 75956
L80850 75928
L80850 75984
" />
</g>
<g style="fill:#000000; fill-opacity:0.0; 
stroke:#000000; stroke-width:39.3701; stroke-opacity:1; 
stroke-linecap:round; stroke-linejoin:round;">
</g>
<g style="fill:#000000; fill-opacity:0.0; 
stroke:#000000; stroke-width:59.0551; stroke-opacity:1; 
stroke-linecap:round; stroke-linejoin:round;">
<path d="M69685 76577
L112205 76577
" />
</g>
<g style="fill:#000000; fill-opacity:0.0; 
stroke:#000000; stroke-width:39.3701; stroke-opacity:1; 
stroke-linecap:round; stroke-linejoin:round;">
</g>
<g style="fill:#000000; fill-opacity:0.0; 
stroke:#000000; stroke-width:59.0551; stroke-opacity:1; 
stroke-linecap:round; stroke-linejoin:round;">
<path d="M70220 77395
L70220 76805
" />
<path d="M70557 77395
L70304 77058
" />
<path d="M70557 76805
L70220 77142
" />
<path d="M70810 77395
L70810 77002
" />
<path d="M70810 76805
L70782 76833
L70810 76861
L70838 76833
L70810 76805
L70810 76861
" />
<path d="M71429 77339
L71401 77367
L71316 77395
L71260 77395
L71176 77367
L71120 77311
L71091 77255
L71063 77142
L71063 77058
L71091 76946
L71120 76889
L71176 76833
L71260 76805
L71316 76805
L71401 76833
L71429 76861
" />
<path d="M71935 77395
L71935 77086
L71907 77030
L71851 77002
L71738 77002
L71682 77030
" />
<path d="M71935 77367
L71879 77395
L71738 77395
L71682 77367
L71654 77311
L71654 77255
L71682 77199
L71738 77171
L71879 77171
L71935 77142
" />
<path d="M72469 77395
L72469 76805
" />
<path d="M72469 77367
L72413 77395
L72301 77395
L72244 77367
L72216 77339
L72188 77283
L72188 77114
L72216 77058
L72244 77030
L72301 77002
L72413 77002
L72469 77030
" />
<path d="M73201 77086
L73397 77086
" />
<path d="M73482 77395
L73201 77395
L73201 76805
L73482 76805
" />
<path d="M73735 77339
L73763 77367
L73735 77395
L73707 77367
L73735 77339
L73735 77395
" />
<path d="M74016 77395
L74016 76805
L74157 76805
L74241 76833
L74297 76889
L74325 76946
L74354 77058
L74354 77142
L74325 77255
L74297 77311
L74241 77367
L74157 77395
L74016 77395
" />
<path d="M74607 77339
L74635 77367
L74607 77395
L74579 77367
L74607 77339
L74607 77395
" />
<path d="M74860 77227
L75141 77227
" />
<path d="M74804 77395
L75000 76805
L75197 77395
" />
<path d="M75394 77339
L75422 77367
L75394 77395
L75366 77367
L75394 77339
L75394 77395
" />
<path d="M76575 77395
L76575 76805
" />
<path d="M76631 77171
L76800 77395
" />
<path d="M76800 77002
L76575 77227
" />
<path d="M77053 77395
L77053 77002
" />
<path d="M77053 76805
L77025 76833
L77053 76861
L77081 76833
L77053 76805
L77053 76861
" />
<path d="M77588 77367
L77531 77395
L77419 77395
L77363 77367
L77334 77339
L77306 77283
L77306 77114
L77334 77058
L77363 77030
L77419 77002
L77531 77002
L77588 77030
" />
<path d="M78094 77395
L78094 77086
L78066 77030
L78009 77002
L77897 77002
L77841 77030
" />
<path d="M78094 77367
L78037 77395
L77897 77395
L77841 77367
L77813 77311
L77813 77255
L77841 77199
L77897 77171
L78037 77171
L78094 77142
" />
<path d="M78628 77395
L78628 76805
" />
<path d="M78628 77367
L78572 77395
L78459 77395
L78403 77367
L78375 77339
L78347 77283
L78347 77114
L78375 77058
L78403 77030
L78459 77002
L78572 77002
L78628 77030
" />
<path d="M79612 77002
L79612 77395
" />
<path d="M79472 76777
L79331 77199
L79697 77199
" />
<path d="M79922 77339
L79950 77367
L79922 77395
L79894 77367
L79922 77339
L79922 77395
" />
<path d="M80315 76805
L80372 76805
L80428 76833
L80456 76861
L80484 76917
L80512 77030
L80512 77171
L80484 77283
L80456 77339
L80428 77367
L80372 77395
L80315 77395
L80259 77367
L80231 77339
L80203 77283
L80175 77171
L80175 77030
L80203 76917
L80231 76861
L80259 76833
L80315 76805
" />
<path d="M80765 77339
L80793 77367
L80765 77395
L80737 77367
L80765 77339
L80765 77395
" />
<path d="M81018 76861
L81046 76833
L81103 76805
L81243 76805
L81300 76833
L81328 76861
L81356 76917
L81356 76974
L81328 77058
L80990 77395
L81356 77395
" />
<path d="M81609 77171
L82059 77171
" />
<path d="M82312 77367
L82368 77395
L82481 77395
L82537 77367
L82565 77311
L82565 77283
L82537 77227
L82481 77199
L82396 77199
L82340 77171
L82312 77114
L82312 77086
L82340 77030
L82396 77002
L82481 77002
L82537 77030
" />
<path d="M82734 77002
L82959 77002
" />
<path d="M82818 76805
L82818 77311
L82846 77367
L82903 77395
L82959 77395
" />
<path d="M83409 77395
L83409 77086
L83381 77030
L83324 77002
L83212 77002
L83156 77030
" />
<path d="M83409 77367
L83352 77395
L83212 77395
L83156 77367
L83127 77311
L83127 77255
L83156 77199
L83212 77171
L83352 77171
L83409 77142
" />
<path d="M83690 77395
L83690 76805
" />
<path d="M83690 77030
L83746 77002
L83859 77002
L83915 77030
L83943 77058
L83971 77114
L83971 77283
L83943 77339
L83915 77367
L83859 77395
L83746 77395
L83690 77367
" />
<path d="M84309 77395
L84252 77367
L84224 77311
L84224 76805
" />
<path d="M84759 77367
L84702 77395
L84590 77395
L84534 77367
L84505 77311
L84505 77086
L84534 77030
L84590 77002
L84702 77002
L84759 77030
L84787 77086
L84787 77142
L84505 77199
" />
</g>
<g style="fill:#000000; fill-opacity:0.0; 
stroke:#000000; stroke-width:39.3701; stroke-opacity:1; 
stroke-linecap:round; stroke-linejoin:round;">
</g>
<g style="fill:#000000; fill-opacity:0.0; 
stroke:#000000; stroke-width:59.0551; stroke-opacity:1; 
stroke-linecap:round; stroke-linejoin:round;">
<path d="M69685 75396
L112205 75396
" />
</g>
<g style="fill:#000000; fill-opacity:0.0; 
stroke:#000000; stroke-width:39.3701; stroke-opacity:1; 
stroke-linecap:round; stroke-linejoin:round;">
</g>
<g style="fill:#000000; fill-opacity:0.0; 
stroke:#000000; stroke-width:118.11; stroke-opacity:1; 
stroke-linecap:round; stroke-linejoin:round;">
<path d="M104022 76293
L103825 76012
" />
<path d="M103684 76293
L103684 75703
L103909 75703
L103965 75731
L103994 75759
L104022 75815
L104022 75899
L103994 75956
L103965 75984
L103909 76012
L103684 76012
" />
<path d="M104500 76265
L104444 76293
L104331 76293
L104275 76265
L104247 76209
L104247 75984
L104275 75928
L104331 75899
L104444 75899
L104500 75928
L104528 75984
L104528 76040
L104247 76096
" />
<path d="M104725 75899
L104865 76293
L105006 75899
" />
<path d="M105231 76237
L105259 76265
L105231 76293
L105203 76265
L105231 76237
L105231 76293
" />
<path d="M105231 75928
L105259 75956
L105231 75984
L105203 75956
L105231 75928
L105231 75984
" />
</g>
<g style="fill:#000000; fill-opacity:0.0; 
stroke:#000000; stroke-width:39.3701; stroke-opacity:1; 
stroke-linecap:round; stroke-linejoin:round;">
</g>
<g style="fill:#000000; fill-opacity:0.0; 
stroke:#000000; stroke-width:59.0551; stroke-opacity:1; 
stroke-linecap:round; stroke-linejoin:round;">
<path d="M70192 76265
L70276 76293
L70417 76293
L70473 76265
L70501 76237
L70529 76181
L70529 76124
L70501 76068
L70473 76040
L70417 76012
L70304 75984
L70248 75956
L70220 75928
L70192 75871
L70192 75815
L70220 75759
L70248 75731
L70304 75703
L70445 75703
L70529 75731
" />
<path d="M70782 76293
L70782 75899
" />
<path d="M70782 75703
L70754 75731
L70782 75759
L70810 75731
L70782 75703
L70782 75759
" />
<path d="M71007 75899
L71316 75899
L71007 76293
L71316 76293
" />
<path d="M71766 76265
L71710 76293
L71598 76293
L71541 76265
L71513 76209
L71513 75984
L71541 75928
L71598 75899
L71710 75899
L71766 75928
L71795 75984
L71795 76040
L71513 76096
" />
<path d="M72048 76237
L72076 76265
L72048 76293
L72019 76265
L72048 76237
L72048 76293
" />
<path d="M72048 75928
L72076 75956
L72048 75984
L72019 75956
L72048 75928
L72048 75984
" />
<path d="M72751 76124
L73032 76124
" />
<path d="M72694 76293
L72891 75703
L73088 76293
" />
<path d="M73538 75899
L73538 76293
" />
<path d="M73397 75674
L73257 76096
L73622 76096
" />
</g>
<g style="fill:#000000; fill-opacity:0.0; 
stroke:#000000; stroke-width:39.3701; stroke-opacity:1; 
stroke-linecap:round; stroke-linejoin:round;">
</g>
<g style="fill:#000000; fill-opacity:0.0; 
stroke:#000000; stroke-width:59.0551; stroke-opacity:1; 
stroke-linecap:round; stroke-linejoin:round;">
<path d="M103684 77395
L103684 76805
" />
<path d="M104219 77395
L104219 76805
" />
<path d="M104219 77367
L104162 77395
L104050 77395
L103994 77367
L103965 77339
L103937 77283
L103937 77114
L103965 77058
L103994 77030
L104050 77002
L104162 77002
L104219 77030
" />
<path d="M104500 77339
L104528 77367
L104500 77395
L104472 77367
L104500 77339
L104500 77395
" />
<path d="M104500 77030
L104528 77058
L104500 77086
L104472 77058
L104500 77030
L104500 77086
" />
<path d="M105540 77395
L105203 77395
" />
<path d="M105372 77395
L105372 76805
L105315 76889
L105259 76946
L105203 76974
" />
<path d="M106215 76777
L105709 77536
" />
<path d="M106721 77395
L106384 77395
" />
<path d="M106553 77395
L106553 76805
L106496 76889
L106440 76946
L106384 76974
" />
</g>
<g style="fill:#000000; fill-opacity:0.0; 
stroke:#000000; stroke-width:39.3701; stroke-opacity:1; 
stroke-linecap:round; stroke-linejoin:round;">
</g>
<g style="fill:#000000; fill-opacity:0.0; 
stroke:#000000; stroke-width:59.0551; stroke-opacity:1; 
stroke-linecap:round; stroke-linejoin:round;">
<path d="M69685 73821
L112205 73821
" />
</g>
<g style="fill:#000000; fill-opacity:0.0; 
stroke:#000000; stroke-width:39.3701; stroke-opacity:1; 
stroke-linecap:round; stroke-linejoin:round;">
</g>
<g style="fill:#000000; fill-opacity:0.0; 
stroke:#000000; stroke-width:157.48; stroke-opacity:1; 
stroke-linecap:round; stroke-linejoin:round;">
<path d="M70257 74099
L70707 74099
" />
<path d="M70384 74886
L70482 74099
" />
<path d="M70871 74886
L70937 74361
" />
<path d="M70970 74099
L70927 74136
L70960 74174
L71002 74136
L70970 74099
L70960 74174
" />
<path d="M71199 74361
L71499 74361
" />
<path d="M71345 74099
L71260 74774
L71288 74849
L71359 74886
L71434 74886
" />
<path d="M71809 74886
L71738 74849
L71710 74774
L71795 74099
" />
<path d="M72413 74849
L72334 74886
L72184 74886
L72113 74849
L72085 74774
L72123 74474
L72169 74399
L72249 74361
L72399 74361
L72469 74399
L72498 74474
L72488 74549
L72104 74624
" />
<path d="M72793 74811
L72826 74849
L72783 74886
L72751 74849
L72793 74811
L72783 74886
" />
<path d="M72844 74399
L72877 74436
L72835 74474
L72802 74436
L72844 74399
L72835 74474
" />
</g>
<g style="fill:#000000; fill-opacity:0.0; 
stroke:#000000; stroke-width:39.3701; stroke-opacity:1; 
stroke-linecap:round; stroke-linejoin:round;">
</g>
<g style="fill:#000000; fill-opacity:0.0; 
stroke:#000000; stroke-width:59.0551; stroke-opacity:1; 
stroke-linecap:round; stroke-linejoin:round;">
<path d="M70417 73070
L70220 73070
" />
<path d="M70220 73380
L70220 72789
L70501 72789
" />
<path d="M70726 73380
L70726 72986
" />
<path d="M70726 72789
L70698 72817
L70726 72845
L70754 72817
L70726 72789
L70726 72845
" />
<path d="M71091 73380
L71035 73352
L71007 73295
L71007 72789
" />
<path d="M71541 73352
L71485 73380
L71373 73380
L71316 73352
L71288 73295
L71288 73070
L71316 73014
L71373 72986
L71485 72986
L71541 73014
L71570 73070
L71570 73127
L71288 73183
" />
<path d="M71823 73323
L71851 73352
L71823 73380
L71795 73352
L71823 73323
L71823 73380
" />
<path d="M71823 73014
L71851 73042
L71823 73070
L71795 73042
L71823 73014
L71823 73070
" />
<path d="M72554 73380
L72554 72789
" />
<path d="M72554 73014
L72610 72986
L72723 72986
L72779 73014
L72807 73042
L72835 73099
L72835 73267
L72807 73323
L72779 73352
L72723 73380
L72610 73380
L72554 73352
" />
<path d="M73341 72986
L73341 73380
" />
<path d="M73088 72986
L73088 73295
L73116 73352
L73172 73380
L73257 73380
L73313 73352
L73341 73323
" />
<path d="M73594 73352
L73651 73380
L73763 73380
L73819 73352
L73847 73295
L73847 73267
L73819 73211
L73763 73183
L73679 73183
L73622 73155
L73594 73099
L73594 73070
L73622 73014
L73679 72986
L73763 72986
L73819 73014
" />
<path d="M74100 73380
L74100 72986
" />
<path d="M74100 72789
L74072 72817
L74100 72845
L74129 72817
L74100 72789
L74100 72845
" />
<path d="M74382 72986
L74382 73380
" />
<path d="M74382 73042
L74410 73014
L74466 72986
L74550 72986
L74607 73014
L74635 73070
L74635 73380
" />
<path d="M75141 73352
L75085 73380
L74972 73380
L74916 73352
L74888 73295
L74888 73070
L74916 73014
L74972 72986
L75085 72986
L75141 73014
L75169 73070
L75169 73127
L74888 73183
" />
<path d="M75394 73352
L75450 73380
L75563 73380
L75619 73352
L75647 73295
L75647 73267
L75619 73211
L75563 73183
L75478 73183
L75422 73155
L75394 73099
L75394 73070
L75422 73014
L75478 72986
L75563 72986
L75619 73014
" />
<path d="M75872 73352
L75928 73380
L76041 73380
L76097 73352
L76125 73295
L76125 73267
L76097 73211
L76041 73183
L75956 73183
L75900 73155
L75872 73099
L75872 73070
L75900 73014
L75956 72986
L76041 72986
L76097 73014
" />
<path d="M77081 73352
L77025 73380
L76913 73380
L76856 73352
L76828 73323
L76800 73267
L76800 73099
L76828 73042
L76856 73014
L76913 72986
L77025 72986
L77081 73014
" />
<path d="M77588 73380
L77588 73070
L77559 73014
L77503 72986
L77391 72986
L77334 73014
" />
<path d="M77588 73352
L77531 73380
L77391 73380
L77334 73352
L77306 73295
L77306 73239
L77334 73183
L77391 73155
L77531 73155
L77588 73127
" />
<path d="M77869 73380
L77869 72986
" />
<path d="M77869 73099
L77897 73042
L77925 73014
L77981 72986
L78037 72986
" />
<path d="M78487 73380
L78487 72789
" />
<path d="M78487 73352
L78431 73380
L78319 73380
L78262 73352
L78234 73323
L78206 73267
L78206 73099
L78234 73042
L78262 73014
L78319 72986
L78431 72986
L78487 73014
" />
<path d="M78769 73323
L78797 73352
L78769 73380
L78741 73352
L78769 73323
L78769 73380
" />
<path d="M79050 73380
L79050 72789
" />
<path d="M79106 73155
L79275 73380
" />
<path d="M79275 72986
L79050 73211
" />
<path d="M79528 73380
L79528 72986
" />
<path d="M79528 72789
L79500 72817
L79528 72845
L79556 72817
L79528 72789
L79528 72845
" />
<path d="M80062 73352
L80006 73380
L79894 73380
L79837 73352
L79809 73323
L79781 73267
L79781 73099
L79809 73042
L79837 73014
L79894 72986
L80006 72986
L80062 73014
" />
<path d="M80568 73380
L80568 73070
L80540 73014
L80484 72986
L80372 72986
L80315 73014
" />
<path d="M80568 73352
L80512 73380
L80372 73380
L80315 73352
L80287 73295
L80287 73239
L80315 73183
L80372 73155
L80512 73155
L80568 73127
" />
<path d="M81103 73380
L81103 72789
" />
<path d="M81103 73352
L81046 73380
L80934 73380
L80878 73352
L80850 73323
L80822 73267
L80822 73099
L80850 73042
L80878 73014
L80934 72986
L81046 72986
L81103 73014
" />
<path d="M81243 73436
L81693 73436
" />
<path d="M81834 72986
L81834 73577
" />
<path d="M81834 73014
L81890 72986
L82003 72986
L82059 73014
L82087 73042
L82115 73099
L82115 73267
L82087 73323
L82059 73352
L82003 73380
L81890 73380
L81834 73352
" />
<path d="M82621 73352
L82565 73380
L82453 73380
L82396 73352
L82368 73323
L82340 73267
L82340 73099
L82368 73042
L82396 73014
L82453 72986
L82565 72986
L82621 73014
" />
<path d="M82874 73380
L82874 72789
" />
<path d="M82874 73014
L82931 72986
L83043 72986
L83099 73014
L83127 73042
L83156 73099
L83156 73267
L83127 73323
L83099 73352
L83043 73380
L82931 73380
L82874 73352
" />
</g>
<g style="fill:#000000; fill-opacity:0.0; 
stroke:#000000; stroke-width:39.3701; stroke-opacity:1; 
stroke-linecap:round; stroke-linejoin:round;">
</g>
<g style="fill:#000000; fill-opacity:0.0; 
stroke:#000000; stroke-width:59.0551; stroke-opacity:1; 
stroke-linecap:round; stroke-linejoin:round;">
<path d="M69685 71459
L112205 71459
" />
</g>
<g style="fill:#000000; fill-opacity:0.0; 
stroke:#000000; stroke-width:39.3701; stroke-opacity:1; 
stroke-linecap:round; stroke-linejoin:round;">
</g>
<g style="fill:#000000; fill-opacity:0.0; 
stroke:#000000; stroke-width:59.0551; stroke-opacity:1; 
stroke-linecap:round; stroke-linejoin:round;">
<path d="M70192 72289
L70276 72317
L70417 72317
L70473 72289
L70501 72260
L70529 72204
L70529 72148
L70501 72092
L70473 72064
L70417 72036
L70304 72007
L70248 71979
L70220 71951
L70192 71895
L70192 71839
L70220 71782
L70248 71754
L70304 71726
L70445 71726
L70529 71754
" />
<path d="M70782 72317
L70782 71726
" />
<path d="M71035 72317
L71035 72007
L71007 71951
L70951 71923
L70867 71923
L70810 71951
L70782 71979
" />
<path d="M71541 72289
L71485 72317
L71373 72317
L71316 72289
L71288 72232
L71288 72007
L71316 71951
L71373 71923
L71485 71923
L71541 71951
L71570 72007
L71570 72064
L71288 72120
" />
<path d="M72048 72289
L71991 72317
L71879 72317
L71823 72289
L71795 72232
L71795 72007
L71823 71951
L71879 71923
L71991 71923
L72048 71951
L72076 72007
L72076 72064
L71795 72120
" />
<path d="M72244 71923
L72469 71923
" />
<path d="M72329 71726
L72329 72232
L72357 72289
L72413 72317
L72469 72317
" />
<path d="M72666 72260
L72694 72289
L72666 72317
L72638 72289
L72666 72260
L72666 72317
" />
<path d="M72666 71951
L72694 71979
L72666 72007
L72638 71979
L72666 71951
L72666 72007
" />
</g>
<g style="fill:#000000; fill-opacity:0.0; 
stroke:#000000; stroke-width:39.3701; stroke-opacity:1; 
stroke-linecap:round; stroke-linejoin:round;">
</g>
<g style="fill:#000000; fill-opacity:0.0; 
stroke:#000000; stroke-width:59.0551; stroke-opacity:1; 
stroke-linecap:round; stroke-linejoin:round;">
<path d="M77559 75396
L77559 76577
" />
</g>
<g style="fill:#000000; fill-opacity:0.0; 
stroke:#000000; stroke-width:39.3701; stroke-opacity:1; 
stroke-linecap:round; stroke-linejoin:round;">
</g>
<g style="fill:#000000; fill-opacity:0.0; 
stroke:#000000; stroke-width:59.0551; stroke-opacity:1; 
stroke-linecap:round; stroke-linejoin:round;">
<path d="M102756 75396
L102756 77955
" />
</g>
<g style="fill:#C2C200; fill-opacity:0.0; 
stroke:#C2C200; stroke-width:59.0551; stroke-opacity:1; 
stroke-linecap:round; stroke-linejoin:round;">
<path d="M55000 20000
L20000 20000
" />
<path d="M55000 20500
L55000 20000
" />
<path d="M55000 40000
L55000 20500
" />
<path d="M20000 40000
L55000 40000
" />
<path d="M20000 20000
L20000 40000
" />
<path d="M39524 40559
L39580 40578
L39674 40578
L39711 40559
L39730 40540
L39749 40503
L39749 40465
L39730 40428
L39711 40409
L39674 40390
L39599 40371
L39561 40353
L39542 40334
L39524 40296
L39524 40259
L39542 40221
L39561 40203
L39599 40184
L39692 40184
L39749 40203
" />
<path d="M39880 40315
L39974 40578
" />
<path d="M40067 40315
L39974 40578
L39936 40671
L39917 40690
L39880 40709
" />
<path d="M40217 40578
L40217 40315
" />
<path d="M40217 40353
L40236 40334
L40274 40315
L40330 40315
L40367 40334
L40386 40371
L40386 40578
" />
<path d="M40386 40371
L40405 40334
L40442 40315
L40499 40315
L40536 40334
L40555 40371
L40555 40578
" />
<path d="M40742 40578
L40742 40184
" />
<path d="M40742 40334
L40780 40315
L40855 40315
L40892 40334
L40911 40353
L40930 40390
L40930 40503
L40911 40540
L40892 40559
L40855 40578
L40780 40578
L40742 40559
" />
<path d="M41155 40578
L41117 40559
L41099 40540
L41080 40503
L41080 40390
L41099 40353
L41117 40334
L41155 40315
L41211 40315
L41249 40334
L41267 40353
L41286 40390
L41286 40503
L41267 40540
L41249 40559
L41211 40578
L41155 40578
" />
<path d="M41511 40578
L41474 40559
L41455 40521
L41455 40184
" />
<path d="M41567 40615
L41867 40615
" />
<path d="M42186 40540
L42167 40559
L42111 40578
L42073 40578
L42017 40559
L41980 40521
L41961 40484
L41942 40409
L41942 40353
L41961 40278
L41980 40240
L42017 40203
L42073 40184
L42111 40184
L42167 40203
L42186 40221
" />
<path d="M42580 40540
L42561 40559
L42505 40578
L42467 40578
L42411 40559
L42373 40521
L42355 40484
L42336 40409
L42336 40353
L42355 40278
L42373 40240
L42411 40203
L42467 40184
L42505 40184
L42561 40203
L42580 40221
" />
<path d="M42748 40428
L43048 40428
" />
<path d="M43217 40465
L43405 40465
" />
<path d="M43180 40578
L43311 40184
L43442 40578
" />
<path d="M43517 40315
L43667 40315
" />
<path d="M43573 40184
L43573 40521
L43592 40559
L43629 40578
L43667 40578
" />
<path d="M43742 40315
L43892 40315
" />
<path d="M43798 40184
L43798 40521
L43817 40559
L43854 40578
L43892 40578
" />
<path d="M44023 40578
L44023 40315
" />
<path d="M44023 40390
L44042 40353
L44061 40334
L44098 40315
L44136 40315
" />
<path d="M44267 40578
L44267 40315
" />
<path d="M44267 40184
L44248 40203
L44267 40221
L44286 40203
L44267 40184
L44267 40221
" />
<path d="M44454 40578
L44454 40184
" />
<path d="M44454 40334
L44492 40315
L44567 40315
L44604 40334
L44623 40353
L44642 40390
L44642 40503
L44623 40540
L44604 40559
L44567 40578
L44492 40578
L44454 40559
" />
<path d="M44979 40315
L44979 40578
" />
<path d="M44811 40315
L44811 40521
L44829 40559
L44867 40578
L44923 40578
L44961 40559
L44979 40540
" />
<path d="M45111 40315
L45261 40315
" />
<path d="M45167 40184
L45167 40521
L45186 40559
L45223 40578
L45261 40578
" />
<path d="M45392 40578
L45392 40315
" />
<path d="M45392 40184
L45373 40203
L45392 40221
L45411 40203
L45392 40184
L45392 40221
" />
<path d="M45635 40578
L45598 40559
L45579 40540
L45560 40503
L45560 40390
L45579 40353
L45598 40334
L45635 40315
L45692 40315
L45729 40334
L45748 40353
L45767 40390
L45767 40503
L45748 40540
L45729 40559
L45692 40578
L45635 40578
" />
<path d="M45935 40315
L45935 40578
" />
<path d="M45935 40353
L45954 40334
L45992 40315
L46048 40315
L46085 40334
L46104 40371
L46104 40578
" />
<path d="M46198 40615
L46498 40615
" />
<path d="M46817 40540
L46798 40559
L46742 40578
L46704 40578
L46648 40559
L46610 40521
L46592 40484
L46573 40409
L46573 40353
L46592 40278
L46610 40240
L46648 40203
L46704 40184
L46742 40184
L46798 40203
L46817 40221
" />
<path d="M47042 40578
L47004 40559
L46985 40540
L46967 40503
L46967 40390
L46985 40353
L47004 40334
L47042 40315
L47098 40315
L47135 40334
L47154 40353
L47173 40390
L47173 40503
L47154 40540
L47135 40559
L47098 40578
L47042 40578
" />
<path d="M47342 40315
L47342 40709
" />
<path d="M47342 40334
L47379 40315
L47454 40315
L47491 40334
L47510 40353
L47529 40390
L47529 40503
L47510 40540
L47491 40559
L47454 40578
L47379 40578
L47342 40559
" />
<path d="M47698 40315
L47698 40709
" />
<path d="M47698 40334
L47735 40315
L47810 40315
L47848 40334
L47866 40353
L47885 40390
L47885 40503
L47866 40540
L47848 40559
L47810 40578
L47735 40578
L47698 40559
" />
<path d="M48204 40559
L48166 40578
L48091 40578
L48054 40559
L48035 40521
L48035 40371
L48054 40334
L48091 40315
L48166 40315
L48204 40334
L48223 40371
L48223 40409
L48035 40446
" />
<path d="M48391 40578
L48391 40315
" />
<path d="M48391 40390
L48410 40353
L48429 40334
L48466 40315
L48504 40315
" />
<path d="M48579 40184
L48804 40184
" />
<path d="M48691 40578
L48691 40184
" />
<path d="M48991 40578
L48954 40559
L48935 40540
L48916 40503
L48916 40390
L48935 40353
L48954 40334
L48991 40315
L49048 40315
L49085 40334
L49104 40353
L49123 40390
L49123 40503
L49104 40540
L49085 40559
L49048 40578
L48991 40578
" />
<path d="M49291 40315
L49291 40709
" />
<path d="M49291 40334
L49329 40315
L49404 40315
L49441 40334
L49460 40353
L49479 40390
L49479 40503
L49460 40540
L49441 40559
L49404 40578
L49329 40578
L49291 40559
" />
<path d="M49554 40615
L49854 40615
" />
<path d="M49929 40559
L49985 40578
L50079 40578
L50116 40559
L50135 40540
L50154 40503
L50154 40465
L50135 40428
L50116 40409
L50079 40390
L50004 40371
L49966 40353
L49947 40334
L49929 40296
L49929 40259
L49947 40221
L49966 40203
L50004 40184
L50097 40184
L50154 40203
" />
<path d="M50322 40578
L50322 40315
" />
<path d="M50322 40353
L50341 40334
L50379 40315
L50435 40315
L50472 40334
L50491 40371
L50491 40578
" />
<path d="M50491 40371
L50510 40334
L50547 40315
L50604 40315
L50641 40334
L50660 40371
L50660 40578
" />
<path d="M51016 40578
L51016 40371
L50997 40334
L50960 40315
L50885 40315
L50847 40334
" />
<path d="M51016 40559
L50979 40578
L50885 40578
L50847 40559
L50829 40521
L50829 40484
L50847 40446
L50885 40428
L50979 40428
L51016 40409
" />
<path d="M51260 40578
L51222 40559
L51204 40521
L51204 40184
" />
<path d="M51466 40578
L51429 40559
L51410 40521
L51410 40184
" />
<path d="M44524 40559
L44580 40578
L44674 40578
L44711 40559
L44730 40540
L44749 40503
L44749 40465
L44730 40428
L44711 40409
L44674 40390
L44599 40371
L44561 40353
L44542 40334
L44524 40296
L44524 40259
L44542 40221
L44561 40203
L44599 40184
L44692 40184
L44749 40203
" />
<path d="M44880 40315
L44974 40578
" />
<path d="M45067 40315
L44974 40578
L44936 40671
L44917 40690
L44880 40709
" />
<path d="M45217 40578
L45217 40315
" />
<path d="M45217 40353
L45236 40334
L45274 40315
L45330 40315
L45367 40334
L45386 40371
L45386 40578
" />
<path d="M45386 40371
L45405 40334
L45442 40315
L45499 40315
L45536 40334
L45555 40371
L45555 40578
" />
<path d="M45742 40578
L45742 40184
" />
<path d="M45742 40334
L45780 40315
L45855 40315
L45892 40334
L45911 40353
L45930 40390
L45930 40503
L45911 40540
L45892 40559
L45855 40578
L45780 40578
L45742 40559
" />
<path d="M46155 40578
L46117 40559
L46099 40540
L46080 40503
L46080 40390
L46099 40353
L46117 40334
L46155 40315
L46211 40315
L46249 40334
L46267 40353
L46286 40390
L46286 40503
L46267 40540
L46249 40559
L46211 40578
L46155 40578
" />
<path d="M46511 40578
L46474 40559
L46455 40521
L46455 40184
" />
<path d="M46567 40615
L46867 40615
" />
<path d="M47186 40540
L47167 40559
L47111 40578
L47073 40578
L47017 40559
L46980 40521
L46961 40484
L46942 40409
L46942 40353
L46961 40278
L46980 40240
L47017 40203
L47073 40184
L47111 40184
L47167 40203
L47186 40221
" />
<path d="M47580 40540
L47561 40559
L47505 40578
L47467 40578
L47411 40559
L47373 40521
L47355 40484
L47336 40409
L47336 40353
L47355 40278
L47373 40240
L47411 40203
L47467 40184
L47505 40184
L47561 40203
L47580 40221
" />
<path d="M47748 40428
L48048 40428
" />
<path d="M48217 40559
L48273 40578
L48367 40578
L48405 40559
L48423 40540
L48442 40503
L48442 40465
L48423 40428
L48405 40409
L48367 40390
L48292 40371
L48255 40353
L48236 40334
L48217 40296
L48217 40259
L48236 40221
L48255 40203
L48292 40184
L48386 40184
L48442 40203
" />
<path d="M48611 40578
L48611 40184
" />
<path d="M48779 40578
L48779 40371
L48761 40334
L48723 40315
L48667 40315
L48629 40334
L48611 40353
" />
<path d="M49136 40578
L49136 40371
L49117 40334
L49079 40315
L49004 40315
L48967 40334
" />
<path d="M49136 40559
L49098 40578
L49004 40578
L48967 40559
L48948 40521
L48948 40484
L48967 40446
L49004 40428
L49098 40428
L49136 40409
" />
<path d="M49323 40578
L49323 40315
" />
<path d="M49323 40390
L49342 40353
L49361 40334
L49398 40315
L49436 40315
" />
<path d="M49717 40559
L49679 40578
L49604 40578
L49567 40559
L49548 40521
L49548 40371
L49567 40334
L49604 40315
L49679 40315
L49717 40334
L49736 40371
L49736 40409
L49548 40446
" />
<path d="M49886 40465
L50073 40465
" />
<path d="M49848 40578
L49979 40184
L50111 40578
" />
<path d="M50298 40578
L50261 40559
L50242 40521
L50242 40184
" />
<path d="M50448 40578
L50448 40315
" />
<path d="M50448 40184
L50429 40203
L50448 40221
L50467 40203
L50448 40184
L50448 40221
" />
<path d="M50635 40578
L50635 40184
" />
<path d="M50673 40428
L50785 40578
" />
<path d="M50785 40315
L50635 40465
" />
<path d="M51104 40559
L51067 40578
L50992 40578
L50954 40559
L50935 40521
L50935 40371
L50954 40334
L50992 40315
L51067 40315
L51104 40334
L51123 40371
L51123 40409
L50935 40446
" />
<path d="M51198 40615
L51498 40615
" />
<path d="M51817 40540
L51798 40559
L51742 40578
L51704 40578
L51648 40559
L51610 40521
L51592 40484
L51573 40409
L51573 40353
L51592 40278
L51610 40240
L51648 40203
L51704 40184
L51742 40184
L51798 40203
L51817 40221
" />
<path d="M52042 40578
L52004 40559
L51985 40540
L51967 40503
L51967 40390
L51985 40353
L52004 40334
L52042 40315
L52098 40315
L52135 40334
L52154 40353
L52173 40390
L52173 40503
L52154 40540
L52135 40559
L52098 40578
L52042 40578
" />
<path d="M52342 40315
L52342 40709
" />
<path d="M52342 40334
L52379 40315
L52454 40315
L52491 40334
L52510 40353
L52529 40390
L52529 40503
L52510 40540
L52491 40559
L52454 40578
L52379 40578
L52342 40559
" />
<path d="M52698 40315
L52698 40709
" />
<path d="M52698 40334
L52735 40315
L52810 40315
L52848 40334
L52866 40353
L52885 40390
L52885 40503
L52866 40540
L52848 40559
L52810 40578
L52735 40578
L52698 40559
" />
<path d="M53204 40559
L53166 40578
L53091 40578
L53054 40559
L53035 40521
L53035 40371
L53054 40334
L53091 40315
L53166 40315
L53204 40334
L53223 40371
L53223 40409
L53035 40446
" />
<path d="M53391 40578
L53391 40315
" />
<path d="M53391 40390
L53410 40353
L53429 40334
L53466 40315
L53504 40315
" />
<path d="M53579 40184
L53804 40184
" />
<path d="M53691 40578
L53691 40184
" />
<path d="M53991 40578
L53954 40559
L53935 40540
L53916 40503
L53916 40390
L53935 40353
L53954 40334
L53991 40315
L54048 40315
L54085 40334
L54104 40353
L54123 40390
L54123 40503
L54104 40540
L54085 40559
L54048 40578
L53991 40578
" />
<path d="M54291 40315
L54291 40709
" />
<path d="M54291 40334
L54329 40315
L54404 40315
L54441 40334
L54460 40353
L54479 40390
L54479 40503
L54460 40540
L54441 40559
L54404 40578
L54329 40578
L54291 40559
" />
<path d="M54554 40615
L54854 40615
" />
<path d="M54929 40559
L54985 40578
L55079 40578
L55116 40559
L55135 40540
L55154 40503
L55154 40465
L55135 40428
L55116 40409
L55079 40390
L55004 40371
L54966 40353
L54947 40334
L54929 40296
L54929 40259
L54947 40221
L54966 40203
L55004 40184
L55097 40184
L55154 40203
" />
<path d="M55322 40578
L55322 40315
" />
<path d="M55322 40353
L55341 40334
L55379 40315
L55435 40315
L55472 40334
L55491 40371
L55491 40578
" />
<path d="M55491 40371
L55510 40334
L55547 40315
L55604 40315
L55641 40334
L55660 40371
L55660 40578
" />
<path d="M56016 40578
L56016 40371
L55997 40334
L55960 40315
L55885 40315
L55847 40334
" />
<path d="M56016 40559
L55979 40578
L55885 40578
L55847 40559
L55829 40521
L55829 40484
L55847 40446
L55885 40428
L55979 40428
L56016 40409
" />
<path d="M56260 40578
L56222 40559
L56204 40521
L56204 40184
" />
<path d="M56466 40578
L56429 40559
L56410 40521
L56410 40184
" />
<path d="M35599 40559
L35655 40578
L35749 40578
L35786 40559
L35805 40540
L35824 40503
L35824 40465
L35805 40428
L35786 40409
L35749 40390
L35674 40371
L35636 40353
L35618 40334
L35599 40296
L35599 40259
L35618 40221
L35636 40203
L35674 40184
L35768 40184
L35824 40203
" />
<path d="M35955 40315
L36049 40578
" />
<path d="M36143 40315
L36049 40578
L36011 40671
L35993 40690
L35955 40709
" />
<path d="M36293 40578
L36293 40315
" />
<path d="M36293 40353
L36311 40334
L36349 40315
L36405 40315
L36443 40334
L36461 40371
L36461 40578
" />
<path d="M36461 40371
L36480 40334
L36518 40315
L36574 40315
L36611 40334
L36630 40371
L36630 40578
" />
<path d="M36818 40578
L36818 40184
" />
<path d="M36818 40334
L36855 40315
L36930 40315
L36968 40334
L36986 40353
L37005 40390
L37005 40503
L36986 40540
L36968 40559
L36930 40578
L36855 40578
L36818 40559
" />
<path d="M37230 40578
L37192 40559
L37174 40540
L37155 40503
L37155 40390
L37174 40353
L37192 40334
L37230 40315
L37286 40315
L37324 40334
L37342 40353
L37361 40390
L37361 40503
L37342 40540
L37324 40559
L37286 40578
L37230 40578
" />
<path d="M37586 40578
L37549 40559
L37530 40521
L37530 40184
" />
<path d="M37642 40615
L37942 40615
" />
<path d="M38261 40540
L38242 40559
L38186 40578
L38149 40578
L38092 40559
L38055 40521
L38036 40484
L38017 40409
L38017 40353
L38036 40278
L38055 40240
L38092 40203
L38149 40184
L38186 40184
L38242 40203
L38261 40221
" />
<path d="M38430 40578
L38430 40315
" />
<path d="M38430 40390
L38449 40353
L38467 40334
L38505 40315
L38542 40315
" />
<path d="M38824 40559
L38786 40578
L38711 40578
L38674 40559
L38655 40521
L38655 40371
L38674 40334
L38711 40315
L38786 40315
L38824 40334
L38842 40371
L38842 40409
L38655 40446
" />
<path d="M39180 40578
L39180 40371
L39161 40334
L39123 40315
L39048 40315
L39011 40334
" />
<path d="M39180 40559
L39142 40578
L39048 40578
L39011 40559
L38992 40521
L38992 40484
L39011 40446
L39048 40428
L39142 40428
L39180 40409
" />
<path d="M39311 40315
L39461 40315
" />
<path d="M39367 40184
L39367 40521
L39386 40559
L39423 40578
L39461 40578
" />
<path d="M39592 40578
L39592 40315
" />
<path d="M39592 40184
L39573 40203
L39592 40221
L39611 40203
L39592 40184
L39592 40221
" />
<path d="M39742 40315
L39836 40578
L39930 40315
" />
<path d="M40230 40559
L40192 40578
L40117 40578
L40080 40559
L40061 40521
L40061 40371
L40080 40334
L40117 40315
L40192 40315
L40230 40334
L40248 40371
L40248 40409
L40061 40446
" />
<path d="M40642 40540
L40623 40559
L40567 40578
L40530 40578
L40473 40559
L40436 40521
L40417 40484
L40398 40409
L40398 40353
L40417 40278
L40436 40240
L40473 40203
L40530 40184
L40567 40184
L40623 40203
L40642 40221
" />
<path d="M40867 40578
L40830 40559
L40811 40540
L40792 40503
L40792 40390
L40811 40353
L40830 40334
L40867 40315
L40923 40315
L40961 40334
L40980 40353
L40998 40390
L40998 40503
L40980 40540
L40961 40559
L40923 40578
L40867 40578
" />
<path d="M41167 40578
L41167 40315
" />
<path d="M41167 40353
L41186 40334
L41223 40315
L41279 40315
L41317 40334
L41336 40371
L41336 40578
" />
<path d="M41336 40371
L41354 40334
L41392 40315
L41448 40315
L41486 40334
L41504 40371
L41504 40578
" />
<path d="M41692 40578
L41692 40315
" />
<path d="M41692 40353
L41711 40334
L41748 40315
L41804 40315
L41842 40334
L41861 40371
L41861 40578
" />
<path d="M41861 40371
L41879 40334
L41917 40315
L41973 40315
L42011 40334
L42029 40371
L42029 40578
" />
<path d="M42273 40578
L42236 40559
L42217 40540
L42198 40503
L42198 40390
L42217 40353
L42236 40334
L42273 40315
L42329 40315
L42367 40334
L42386 40353
L42404 40390
L42404 40503
L42386 40540
L42367 40559
L42329 40578
L42273 40578
" />
<path d="M42573 40315
L42573 40578
" />
<path d="M42573 40353
L42592 40334
L42629 40315
L42686 40315
L42723 40334
L42742 40371
L42742 40578
" />
<path d="M42911 40559
L42948 40578
L43023 40578
L43060 40559
L43079 40521
L43079 40503
L43060 40465
L43023 40446
L42967 40446
L42929 40428
L42911 40390
L42911 40371
L42929 40334
L42967 40315
L43023 40315
L43060 40334
" />
<path d="M43154 40615
L43454 40615
" />
<path d="M43773 40540
L43754 40559
L43698 40578
L43660 40578
L43604 40559
L43567 40521
L43548 40484
L43529 40409
L43529 40353
L43548 40278
L43567 40240
L43604 40203
L43660 40184
L43698 40184
L43754 40203
L43773 40221
" />
<path d="M43998 40578
L43960 40559
L43942 40540
L43923 40503
L43923 40390
L43942 40353
L43960 40334
L43998 40315
L44054 40315
L44092 40334
L44110 40353
L44129 40390
L44129 40503
L44110 40540
L44092 40559
L44054 40578
L43998 40578
" />
<path d="M44298 40315
L44298 40709
" />
<path d="M44298 40334
L44335 40315
L44410 40315
L44448 40334
L44467 40353
L44485 40390
L44485 40503
L44467 40540
L44448 40559
L44410 40578
L44335 40578
L44298 40559
" />
<path d="M44654 40315
L44654 40709
" />
<path d="M44654 40334
L44692 40315
L44767 40315
L44804 40334
L44823 40353
L44842 40390
L44842 40503
L44823 40540
L44804 40559
L44767 40578
L44692 40578
L44654 40559
" />
<path d="M45160 40559
L45123 40578
L45048 40578
L45010 40559
L44991 40521
L44991 40371
L45010 40334
L45048 40315
L45123 40315
L45160 40334
L45179 40371
L45179 40409
L44991 40446
" />
<path d="M45348 40578
L45348 40315
" />
<path d="M45348 40390
L45366 40353
L45385 40334
L45423 40315
L45460 40315
" />
<path d="M45535 40184
L45760 40184
" />
<path d="M45648 40578
L45648 40184
" />
<path d="M45948 40578
L45910 40559
L45891 40540
L45873 40503
L45873 40390
L45891 40353
L45910 40334
L45948 40315
L46004 40315
L46041 40334
L46060 40353
L46079 40390
L46079 40503
L46060 40540
L46041 40559
L46004 40578
L45948 40578
" />
<path d="M46248 40315
L46248 40709
" />
<path d="M46248 40334
L46285 40315
L46360 40315
L46398 40334
L46416 40353
L46435 40390
L46435 40503
L46416 40540
L46398 40559
L46360 40578
L46285 40578
L46248 40559
" />
<path d="M46510 40615
L46810 40615
" />
<path d="M46848 40184
L47072 40184
" />
<path d="M46960 40578
L46960 40184
" />
<path d="M47166 40315
L47260 40578
" />
<path d="M47354 40315
L47260 40578
L47222 40671
L47204 40690
L47166 40709
" />
<path d="M47504 40315
L47504 40709
" />
<path d="M47504 40334
L47541 40315
L47616 40315
L47654 40334
L47672 40353
L47691 40390
L47691 40503
L47672 40540
L47654 40559
L47616 40578
L47541 40578
L47504 40559
" />
<path d="M48010 40559
L47972 40578
L47897 40578
L47860 40559
L47841 40521
L47841 40371
L47860 40334
L47897 40315
L47972 40315
L48010 40334
L48029 40371
L48029 40409
L47841 40446
" />
<path d="M48179 40221
L48197 40203
L48235 40184
L48329 40184
L48366 40203
L48385 40221
L48404 40259
L48404 40296
L48385 40353
L48160 40578
L48404 40578
" />
<path d="M48479 40615
L48779 40615
" />
<path d="M48854 40559
L48910 40578
L49003 40578
L49041 40559
L49060 40540
L49078 40503
L49078 40465
L49060 40428
L49041 40409
L49003 40390
L48929 40371
L48891 40353
L48872 40334
L48854 40296
L48854 40259
L48872 40221
L48891 40203
L48929 40184
L49022 40184
L49078 40203
" />
<path d="M49247 40578
L49247 40315
" />
<path d="M49247 40353
L49266 40334
L49303 40315
L49360 40315
L49397 40334
L49416 40371
L49416 40578
" />
<path d="M49416 40371
L49435 40334
L49472 40315
L49528 40315
L49566 40334
L49585 40371
L49585 40578
" />
<path d="M49941 40578
L49941 40371
L49922 40334
L49885 40315
L49810 40315
L49772 40334
" />
<path d="M49941 40559
L49903 40578
L49810 40578
L49772 40559
L49753 40521
L49753 40484
L49772 40446
L49810 40428
L49903 40428
L49941 40409
" />
<path d="M50185 40578
L50147 40559
L50128 40521
L50128 40184
" />
<path d="M50391 40578
L50353 40559
L50335 40521
L50335 40184
" />
<path d="M41283 40559
L41339 40578
L41433 40578
L41471 40559
L41489 40540
L41508 40503
L41508 40465
L41489 40428
L41471 40409
L41433 40390
L41358 40371
L41321 40353
L41302 40334
L41283 40296
L41283 40259
L41302 40221
L41321 40203
L41358 40184
L41452 40184
L41508 40203
" />
<path d="M41639 40315
L41733 40578
" />
<path d="M41827 40315
L41733 40578
L41696 40671
L41677 40690
L41639 40709
" />
<path d="M41977 40578
L41977 40315
" />
<path d="M41977 40353
L41996 40334
L42033 40315
L42089 40315
L42127 40334
L42146 40371
L42146 40578
" />
<path d="M42146 40371
L42164 40334
L42202 40315
L42258 40315
L42296 40334
L42314 40371
L42314 40578
" />
<path d="M42502 40578
L42502 40184
" />
<path d="M42502 40334
L42539 40315
L42614 40315
L42652 40334
L42671 40353
L42689 40390
L42689 40503
L42671 40540
L42652 40559
L42614 40578
L42539 40578
L42502 40559
" />
<path d="M42914 40578
L42877 40559
L42858 40540
L42839 40503
L42839 40390
L42858 40353
L42877 40334
L42914 40315
L42971 40315
L43008 40334
L43027 40353
L43045 40390
L43045 40503
L43027 40540
L43008 40559
L42971 40578
L42914 40578
" />
<path d="M43270 40578
L43233 40559
L43214 40521
L43214 40184
" />
<path d="M43327 40615
L43627 40615
" />
<path d="M43945 40540
L43927 40559
L43870 40578
L43833 40578
L43777 40559
L43739 40521
L43720 40484
L43702 40409
L43702 40353
L43720 40278
L43739 40240
L43777 40203
L43833 40184
L43870 40184
L43927 40203
L43945 40221
" />
<path d="M44339 40540
L44320 40559
L44264 40578
L44227 40578
L44170 40559
L44133 40521
L44114 40484
L44095 40409
L44095 40353
L44114 40278
L44133 40240
L44170 40203
L44227 40184
L44264 40184
L44320 40203
L44339 40221
" />
<path d="M44508 40428
L44808 40428
" />
<path d="M44995 40578
L44995 40184
L45220 40578
L45220 40184
" />
<path d="M45464 40578
L45426 40559
L45408 40540
L45389 40503
L45389 40390
L45408 40353
L45426 40334
L45464 40315
L45520 40315
L45558 40334
L45576 40353
L45595 40390
L45595 40503
L45576 40540
L45558 40559
L45520 40578
L45464 40578
" />
<path d="M45764 40315
L45764 40578
" />
<path d="M45764 40353
L45783 40334
L45820 40315
L45876 40315
L45914 40334
L45933 40371
L45933 40578
" />
<path d="M46289 40559
L46251 40578
L46176 40578
L46139 40559
L46120 40540
L46101 40503
L46101 40390
L46120 40353
L46139 40334
L46176 40315
L46251 40315
L46289 40334
" />
<path d="M46514 40578
L46476 40559
L46458 40540
L46439 40503
L46439 40390
L46458 40353
L46476 40334
L46514 40315
L46570 40315
L46608 40334
L46626 40353
L46645 40390
L46645 40503
L46626 40540
L46608 40559
L46570 40578
L46514 40578
" />
<path d="M46814 40578
L46814 40315
" />
<path d="M46814 40353
L46833 40334
L46870 40315
L46926 40315
L46964 40334
L46983 40371
L46983 40578
" />
<path d="M46983 40371
L47001 40334
L47039 40315
L47095 40315
L47132 40334
L47151 40371
L47151 40578
" />
<path d="M47339 40578
L47339 40315
" />
<path d="M47339 40353
L47357 40334
L47395 40315
L47451 40315
L47489 40334
L47507 40371
L47507 40578
" />
<path d="M47507 40371
L47526 40334
L47564 40315
L47620 40315
L47657 40334
L47676 40371
L47676 40578
" />
<path d="M48014 40559
L47976 40578
L47901 40578
L47864 40559
L47845 40521
L47845 40371
L47864 40334
L47901 40315
L47976 40315
L48014 40334
L48032 40371
L48032 40409
L47845 40446
" />
<path d="M48201 40578
L48201 40315
" />
<path d="M48201 40390
L48220 40353
L48239 40334
L48276 40315
L48314 40315
" />
<path d="M48614 40559
L48576 40578
L48501 40578
L48464 40559
L48445 40540
L48426 40503
L48426 40390
L48445 40353
L48464 40334
L48501 40315
L48576 40315
L48614 40334
" />
<path d="M48782 40578
L48782 40315
" />
<path d="M48782 40184
L48764 40203
L48782 40221
L48801 40203
L48782 40184
L48782 40221
" />
<path d="M49138 40578
L49138 40371
L49120 40334
L49082 40315
L49007 40315
L48970 40334
" />
<path d="M49138 40559
L49101 40578
L49007 40578
L48970 40559
L48951 40521
L48951 40484
L48970 40446
L49007 40428
L49101 40428
L49138 40409
" />
<path d="M49382 40578
L49345 40559
L49326 40521
L49326 40184
" />
<path d="M49438 40615
L49738 40615
" />
<path d="M50057 40540
L50038 40559
L49982 40578
L49945 40578
L49888 40559
L49851 40521
L49832 40484
L49813 40409
L49813 40353
L49832 40278
L49851 40240
L49888 40203
L49945 40184
L49982 40184
L50038 40203
L50057 40221
" />
<path d="M50282 40578
L50245 40559
L50226 40540
L50207 40503
L50207 40390
L50226 40353
L50245 40334
L50282 40315
L50338 40315
L50376 40334
L50395 40353
L50413 40390
L50413 40503
L50395 40540
L50376 40559
L50338 40578
L50282 40578
" />
<path d="M50582 40315
L50582 40709
" />
<path d="M50582 40334
L50620 40315
L50695 40315
L50732 40334
L50751 40353
L50770 40390
L50770 40503
L50751 40540
L50732 40559
L50695 40578
L50620 40578
L50582 40559
" />
<path d="M50938 40315
L50938 40709
" />
<path d="M50938 40334
L50976 40315
L51051 40315
L51088 40334
L51107 40353
L51126 40390
L51126 40503
L51107 40540
L51088 40559
L51051 40578
L50976 40578
L50938 40559
" />
<path d="M51444 40559
L51407 40578
L51332 40578
L51294 40559
L51276 40521
L51276 40371
L51294 40334
L51332 40315
L51407 40315
L51444 40334
L51463 40371
L51463 40409
L51276 40446
" />
<path d="M51632 40578
L51632 40315
" />
<path d="M51632 40390
L51651 40353
L51669 40334
L51707 40315
L51744 40315
" />
<path d="M51819 40184
L52044 40184
" />
<path d="M51932 40578
L51932 40184
" />
<path d="M52232 40578
L52194 40559
L52176 40540
L52157 40503
L52157 40390
L52176 40353
L52194 40334
L52232 40315
L52288 40315
L52326 40334
L52344 40353
L52363 40390
L52363 40503
L52344 40540
L52326 40559
L52288 40578
L52232 40578
" />
<path d="M52532 40315
L52532 40709
" />
<path d="M52532 40334
L52569 40315
L52644 40315
L52682 40334
L52701 40353
L52719 40390
L52719 40503
L52701 40540
L52682 40559
L52644 40578
L52569 40578
L52532 40559
" />
<path d="M52794 40615
L53094 40615
" />
<path d="M53169 40559
L53225 40578
L53319 40578
L53357 40559
L53375 40540
L53394 40503
L53394 40465
L53375 40428
L53357 40409
L53319 40390
L53244 40371
L53207 40353
L53188 40334
L53169 40296
L53169 40259
L53188 40221
L53207 40203
L53244 40184
L53338 40184
L53394 40203
" />
<path d="M53563 40578
L53563 40315
" />
<path d="M53563 40353
L53582 40334
L53619 40315
L53675 40315
L53713 40334
L53732 40371
L53732 40578
" />
<path d="M53732 40371
L53750 40334
L53788 40315
L53844 40315
L53882 40334
L53900 40371
L53900 40578
" />
<path d="M54257 40578
L54257 40371
L54238 40334
L54200 40315
L54125 40315
L54088 40334
" />
<path d="M54257 40559
L54219 40578
L54125 40578
L54088 40559
L54069 40521
L54069 40484
L54088 40446
L54125 40428
L54219 40428
L54257 40409
" />
<path d="M54500 40578
L54463 40559
L54444 40521
L54444 40184
" />
<path d="M54707 40578
L54669 40559
L54650 40521
L54650 40184
" />
<path d="M14350 38013
L14219 38013
" />
<path d="M14219 38219
L14219 37825
L14407 37825
" />
<path d="M14557 38219
L14557 37956
" />
<path d="M14557 37825
L14538 37844
L14557 37863
L14575 37844
L14557 37825
L14557 37863
" />
<path d="M14913 38219
L14913 37825
" />
<path d="M14913 38200
L14875 38219
L14800 38219
L14763 38200
L14744 38181
L14725 38144
L14725 38031
L14744 37994
L14763 37975
L14800 37956
L14875 37956
L14913 37975
" />
<path d="M15269 37956
L15269 38219
" />
<path d="M15100 37956
L15100 38163
L15119 38200
L15157 38219
L15213 38219
L15250 38200
L15269 38181
" />
<path d="M15625 38200
L15588 38219
L15513 38219
L15475 38200
L15456 38181
L15438 38144
L15438 38031
L15456 37994
L15475 37975
L15513 37956
L15588 37956
L15625 37975
" />
<path d="M15794 38219
L15794 37956
" />
<path d="M15794 37825
L15775 37844
L15794 37863
L15813 37844
L15794 37825
L15794 37863
" />
<path d="M16150 38219
L16150 38013
L16131 37975
L16094 37956
L16019 37956
L15981 37975
" />
<path d="M16150 38200
L16113 38219
L16019 38219
L15981 38200
L15963 38163
L15963 38125
L15981 38088
L16019 38069
L16113 38069
L16150 38050
" />
<path d="M16394 38219
L16356 38200
L16338 38163
L16338 37825
" />
<path d="M16450 38256
L16750 38256
" />
<path d="M17050 38219
L16825 38219
" />
<path d="M16938 38219
L16938 37825
L16900 37881
L16863 37919
L16825 37938
" />
<path d="M17219 38219
L17219 37956
" />
<path d="M17219 37994
L17238 37975
L17275 37956
L17331 37956
L17369 37975
L17387 38013
L17387 38219
" />
<path d="M17387 38013
L17406 37975
L17444 37956
L17500 37956
L17537 37975
L17556 38013
L17556 38219
" />
<path d="M17744 38219
L17744 37956
" />
<path d="M17744 37994
L17762 37975
L17800 37956
L17856 37956
L17894 37975
L17912 38013
L17912 38219
" />
<path d="M17912 38013
L17931 37975
L17969 37956
L18025 37956
L18062 37975
L18081 38013
L18081 38219
" />
<path d="M18175 38256
L18475 38256
" />
<path d="M18569 38219
L18569 37825
L18662 37825
L18719 37844
L18756 37881
L18775 37919
L18794 37994
L18794 38050
L18775 38125
L18756 38163
L18719 38200
L18662 38219
L18569 38219
" />
<path d="M18962 38219
L18962 37956
" />
<path d="M18962 37825
L18944 37844
L18962 37863
L18981 37844
L18962 37825
L18962 37863
" />
<path d="M19318 38219
L19318 38013
L19300 37975
L19262 37956
L19187 37956
L19150 37975
" />
<path d="M19318 38200
L19281 38219
L19187 38219
L19150 38200
L19131 38163
L19131 38125
L19150 38088
L19187 38069
L19281 38069
L19318 38050
" />
<path d="M19412 38256
L19712 38256
" />
<path d="M19787 37863
L19806 37844
L19843 37825
L19937 37825
L19975 37844
L19993 37863
L20012 37900
L20012 37938
L19993 37994
L19768 38219
L20012 38219
" />
<path d="M20181 38181
L20200 38200
L20181 38219
L20162 38200
L20181 38181
L20181 38219
" />
<path d="M20556 37825
L20368 37825
L20350 38013
L20368 37994
L20406 37975
L20500 37975
L20537 37994
L20556 38013
L20575 38050
L20575 38144
L20556 38181
L20537 38200
L20500 38219
L20406 38219
L20368 38200
L20350 38181
" />
<path d="M20912 37956
L20912 38219
" />
<path d="M20818 37806
L20725 38088
L20968 38088
" />
<path d="M21118 38219
L21118 37956
" />
<path d="M21118 37994
L21137 37975
L21175 37956
L21231 37956
L21268 37975
L21287 38013
L21287 38219
" />
<path d="M21287 38013
L21306 37975
L21343 37956
L21399 37956
L21437 37975
L21456 38013
L21456 38219
" />
<path d="M21643 38219
L21643 37956
" />
<path d="M21643 37994
L21662 37975
L21699 37956
L21756 37956
L21793 37975
L21812 38013
L21812 38219
" />
<path d="M21812 38013
L21831 37975
L21868 37956
L21924 37956
L21962 37975
L21981 38013
L21981 38219
" />
<path d="M22074 38256
L22374 38256
" />
<path d="M22543 37825
L22618 37825
L22656 37844
L22693 37881
L22712 37956
L22712 38088
L22693 38163
L22656 38200
L22618 38219
L22543 38219
L22506 38200
L22468 38163
L22449 38088
L22449 37956
L22468 37881
L22506 37844
L22543 37825
" />
<path d="M23049 37956
L23049 38219
" />
<path d="M22881 37956
L22881 38163
L22899 38200
L22937 38219
L22993 38219
L23031 38200
L23049 38181
" />
<path d="M23181 37956
L23330 37956
" />
<path d="M23237 37825
L23237 38163
L23255 38200
L23293 38219
L23330 38219
" />
<path d="M23612 38200
L23574 38219
L23499 38219
L23462 38200
L23443 38163
L23443 38013
L23462 37975
L23499 37956
L23574 37956
L23612 37975
L23630 38013
L23630 38050
L23443 38088
" />
<path d="M23799 38219
L23799 37956
" />
<path d="M23799 38031
L23818 37994
L23837 37975
L23874 37956
L23912 37956
" />
<path d="M23949 38256
L24249 38256
" />
<path d="M24568 38181
L24549 38200
L24493 38219
L24455 38219
L24399 38200
L24362 38163
L24343 38125
L24324 38050
L24324 37994
L24343 37919
L24362 37881
L24399 37844
L24455 37825
L24493 37825
L24549 37844
L24568 37863
" />
<path d="M24793 38219
L24755 38200
L24737 38181
L24718 38144
L24718 38031
L24737 37994
L24755 37975
L24793 37956
L24849 37956
L24887 37975
L24905 37994
L24924 38031
L24924 38144
L24905 38181
L24887 38200
L24849 38219
L24793 38219
" />
<path d="M25093 37956
L25093 38350
" />
<path d="M25093 37975
L25130 37956
L25205 37956
L25243 37975
L25261 37994
L25280 38031
L25280 38144
L25261 38181
L25243 38200
L25205 38219
L25130 38219
L25093 38200
" />
<path d="M25449 37956
L25449 38350
" />
<path d="M25449 37975
L25486 37956
L25561 37956
L25599 37975
L25618 37994
L25636 38031
L25636 38144
L25618 38181
L25599 38200
L25561 38219
L25486 38219
L25449 38200
" />
<path d="M25955 38200
L25918 38219
L25843 38219
L25805 38200
L25786 38163
L25786 38013
L25805 37975
L25843 37956
L25918 37956
L25955 37975
L25974 38013
L25974 38050
L25786 38088
" />
<path d="M26143 38219
L26143 37956
" />
<path d="M26143 38031
L26161 37994
L26180 37975
L26218 37956
L26255 37956
" />
<path d="M26518 38013
L26574 38031
L26593 38050
L26611 38088
L26611 38144
L26593 38181
L26574 38200
L26536 38219
L26386 38219
L26386 37825
L26518 37825
L26555 37844
L26574 37863
L26593 37900
L26593 37938
L26574 37975
L26555 37994
L26518 38013
L26386 38013
" />
<path d="M26836 38219
L26799 38200
L26780 38181
L26761 38144
L26761 38031
L26780 37994
L26799 37975
L26836 37956
L26893 37956
L26930 37975
L26949 37994
L26968 38031
L26968 38144
L26949 38181
L26930 38200
L26893 38219
L26836 38219
" />
<path d="M27080 37956
L27230 37956
" />
<path d="M27136 37825
L27136 38163
L27155 38200
L27193 38219
L27230 38219
" />
<path d="M27305 37956
L27455 37956
" />
<path d="M27361 37825
L27361 38163
L27380 38200
L27417 38219
L27455 38219
" />
<path d="M27642 38219
L27605 38200
L27586 38181
L27567 38144
L27567 38031
L27586 37994
L27605 37975
L27642 37956
L27699 37956
L27736 37975
L27755 37994
L27774 38031
L27774 38144
L27755 38181
L27736 38200
L27699 38219
L27642 38219
" />
<path d="M27942 38219
L27942 37956
" />
<path d="M27942 37994
L27961 37975
L27999 37956
L28055 37956
L28092 37975
L28111 38013
L28111 38219
" />
<path d="M28111 38013
L28130 37975
L28167 37956
L28224 37956
L28261 37975
L28280 38013
L28280 38219
" />
<path d="M46850 38013
L46719 38013
" />
<path d="M46719 38219
L46719 37825
L46907 37825
" />
<path d="M47057 38219
L47057 37956
" />
<path d="M47057 37825
L47038 37844
L47057 37863
L47075 37844
L47057 37825
L47057 37863
" />
<path d="M47413 38219
L47413 37825
" />
<path d="M47413 38200
L47375 38219
L47300 38219
L47263 38200
L47244 38181
L47225 38144
L47225 38031
L47244 37994
L47263 37975
L47300 37956
L47375 37956
L47413 37975
" />
<path d="M47769 37956
L47769 38219
" />
<path d="M47600 37956
L47600 38163
L47619 38200
L47657 38219
L47713 38219
L47750 38200
L47769 38181
" />
<path d="M48125 38200
L48088 38219
L48013 38219
L47975 38200
L47956 38181
L47938 38144
L47938 38031
L47956 37994
L47975 37975
L48013 37956
L48088 37956
L48125 37975
" />
<path d="M48294 38219
L48294 37956
" />
<path d="M48294 37825
L48275 37844
L48294 37863
L48313 37844
L48294 37825
L48294 37863
" />
<path d="M48650 38219
L48650 38013
L48631 37975
L48594 37956
L48519 37956
L48481 37975
" />
<path d="M48650 38200
L48613 38219
L48519 38219
L48481 38200
L48463 38163
L48463 38125
L48481 38088
L48519 38069
L48613 38069
L48650 38050
" />
<path d="M48894 38219
L48856 38200
L48838 38163
L48838 37825
" />
<path d="M48950 38256
L49250 38256
" />
<path d="M49550 38219
L49325 38219
" />
<path d="M49438 38219
L49438 37825
L49400 37881
L49363 37919
L49325 37938
" />
<path d="M49719 38219
L49719 37956
" />
<path d="M49719 37994
L49738 37975
L49775 37956
L49831 37956
L49869 37975
L49887 38013
L49887 38219
" />
<path d="M49887 38013
L49906 37975
L49944 37956
L50000 37956
L50037 37975
L50056 38013
L50056 38219
" />
<path d="M50244 38219
L50244 37956
" />
<path d="M50244 37994
L50262 37975
L50300 37956
L50356 37956
L50394 37975
L50412 38013
L50412 38219
" />
<path d="M50412 38013
L50431 37975
L50469 37956
L50525 37956
L50562 37975
L50581 38013
L50581 38219
" />
<path d="M50675 38256
L50975 38256
" />
<path d="M51069 38219
L51069 37825
L51162 37825
L51219 37844
L51256 37881
L51275 37919
L51294 37994
L51294 38050
L51275 38125
L51256 38163
L51219 38200
L51162 38219
L51069 38219
" />
<path d="M51462 38219
L51462 37956
" />
<path d="M51462 37825
L51444 37844
L51462 37863
L51481 37844
L51462 37825
L51462 37863
" />
<path d="M51818 38219
L51818 38013
L51800 37975
L51762 37956
L51687 37956
L51650 37975
" />
<path d="M51818 38200
L51781 38219
L51687 38219
L51650 38200
L51631 38163
L51631 38125
L51650 38088
L51687 38069
L51781 38069
L51818 38050
" />
<path d="M51912 38256
L52212 38256
" />
<path d="M52287 37863
L52306 37844
L52343 37825
L52437 37825
L52475 37844
L52493 37863
L52512 37900
L52512 37938
L52493 37994
L52268 38219
L52512 38219
" />
<path d="M52681 38181
L52700 38200
L52681 38219
L52662 38200
L52681 38181
L52681 38219
" />
<path d="M53056 37825
L52868 37825
L52850 38013
L52868 37994
L52906 37975
L53000 37975
L53037 37994
L53056 38013
L53075 38050
L53075 38144
L53056 38181
L53037 38200
L53000 38219
L52906 38219
L52868 38200
L52850 38181
" />
<path d="M53412 37956
L53412 38219
" />
<path d="M53318 37806
L53225 38088
L53468 38088
" />
<path d="M53618 38219
L53618 37956
" />
<path d="M53618 37994
L53637 37975
L53675 37956
L53731 37956
L53768 37975
L53787 38013
L53787 38219
" />
<path d="M53787 38013
L53806 37975
L53843 37956
L53899 37956
L53937 37975
L53956 38013
L53956 38219
" />
<path d="M54143 38219
L54143 37956
" />
<path d="M54143 37994
L54162 37975
L54199 37956
L54256 37956
L54293 37975
L54312 38013
L54312 38219
" />
<path d="M54312 38013
L54331 37975
L54368 37956
L54424 37956
L54462 37975
L54481 38013
L54481 38219
" />
<path d="M54574 38256
L54874 38256
" />
<path d="M55043 37825
L55118 37825
L55156 37844
L55193 37881
L55212 37956
L55212 38088
L55193 38163
L55156 38200
L55118 38219
L55043 38219
L55006 38200
L54968 38163
L54949 38088
L54949 37956
L54968 37881
L55006 37844
L55043 37825
" />
<path d="M55549 37956
L55549 38219
" />
<path d="M55381 37956
L55381 38163
L55399 38200
L55437 38219
L55493 38219
L55531 38200
L55549 38181
" />
<path d="M55681 37956
L55830 37956
" />
<path d="M55737 37825
L55737 38163
L55755 38200
L55793 38219
L55830 38219
" />
<path d="M56112 38200
L56074 38219
L55999 38219
L55962 38200
L55943 38163
L55943 38013
L55962 37975
L55999 37956
L56074 37956
L56112 37975
L56130 38013
L56130 38050
L55943 38088
" />
<path d="M56299 38219
L56299 37956
" />
<path d="M56299 38031
L56318 37994
L56337 37975
L56374 37956
L56412 37956
" />
<path d="M56449 38256
L56749 38256
" />
<path d="M57068 38181
L57049 38200
L56993 38219
L56955 38219
L56899 38200
L56862 38163
L56843 38125
L56824 38050
L56824 37994
L56843 37919
L56862 37881
L56899 37844
L56955 37825
L56993 37825
L57049 37844
L57068 37863
" />
<path d="M57293 38219
L57255 38200
L57237 38181
L57218 38144
L57218 38031
L57237 37994
L57255 37975
L57293 37956
L57349 37956
L57387 37975
L57405 37994
L57424 38031
L57424 38144
L57405 38181
L57387 38200
L57349 38219
L57293 38219
" />
<path d="M57593 37956
L57593 38350
" />
<path d="M57593 37975
L57630 37956
L57705 37956
L57743 37975
L57761 37994
L57780 38031
L57780 38144
L57761 38181
L57743 38200
L57705 38219
L57630 38219
L57593 38200
" />
<path d="M57949 37956
L57949 38350
" />
<path d="M57949 37975
L57986 37956
L58061 37956
L58099 37975
L58118 37994
L58136 38031
L58136 38144
L58118 38181
L58099 38200
L58061 38219
L57986 38219
L57949 38200
" />
<path d="M58455 38200
L58418 38219
L58343 38219
L58305 38200
L58286 38163
L58286 38013
L58305 37975
L58343 37956
L58418 37956
L58455 37975
L58474 38013
L58474 38050
L58286 38088
" />
<path d="M58643 38219
L58643 37956
" />
<path d="M58643 38031
L58661 37994
L58680 37975
L58718 37956
L58755 37956
" />
<path d="M59018 38013
L59074 38031
L59093 38050
L59111 38088
L59111 38144
L59093 38181
L59074 38200
L59036 38219
L58886 38219
L58886 37825
L59018 37825
L59055 37844
L59074 37863
L59093 37900
L59093 37938
L59074 37975
L59055 37994
L59018 38013
L58886 38013
" />
<path d="M59336 38219
L59299 38200
L59280 38181
L59261 38144
L59261 38031
L59280 37994
L59299 37975
L59336 37956
L59393 37956
L59430 37975
L59449 37994
L59468 38031
L59468 38144
L59449 38181
L59430 38200
L59393 38219
L59336 38219
" />
<path d="M59580 37956
L59730 37956
" />
<path d="M59636 37825
L59636 38163
L59655 38200
L59693 38219
L59730 38219
" />
<path d="M59805 37956
L59955 37956
" />
<path d="M59861 37825
L59861 38163
L59880 38200
L59917 38219
L59955 38219
" />
<path d="M60142 38219
L60105 38200
L60086 38181
L60067 38144
L60067 38031
L60086 37994
L60105 37975
L60142 37956
L60199 37956
L60236 37975
L60255 37994
L60274 38031
L60274 38144
L60255 38181
L60236 38200
L60199 38219
L60142 38219
" />
<path d="M60442 38219
L60442 37956
" />
<path d="M60442 37994
L60461 37975
L60499 37956
L60555 37956
L60592 37975
L60611 38013
L60611 38219
" />
<path d="M60611 38013
L60630 37975
L60667 37956
L60724 37956
L60761 37975
L60780 38013
L60780 38219
" />
</g> 
</svg>
